<?xml version="1.0" encoding="UTF-8"?>
<svg width="31px" height="33px" viewBox="0 0 31 33" version="1.1" xmlns="http://www.w3.org/2000/svg" xmlns:xlink="http://www.w3.org/1999/xlink">
    <!-- Generator: Sketch 47.1 (45422) - http://www.bohemiancoding.com/sketch -->
    <title>UI/icons/platforms/iOS/white</title>
    <desc>Created with Sketch.</desc>
    <defs></defs>
    <g id="Symbols" stroke="none" stroke-width="1" fill="none" fill-rule="evenodd">
        <g id="UI/icons/platforms/iOS/white" fill="#FFFFFF">
            <g id="social-apple" transform="translate(1.000000, 0.000000)">
                <g id="Group">
                    <path d="M20.6559764,7.70571429 C17.7471717,7.70571429 16.5178554,9.12 14.4920807,9.12 C12.414363,9.12 10.8301033,7.71428571 8.31087063,7.71428571 C5.84358091,7.71428571 3.21180521,9.24857143 1.54097393,11.8628571 C-0.805115593,15.5485714 -0.406886375,22.4914286 3.39360551,28.4057143 C4.75277914,30.5228571 6.5707821,32.8971429 8.95150025,32.9228571 L8.99478603,32.9228571 C11.0638465,32.9228571 11.6785047,31.5428571 14.5267093,31.5257143 L14.5699951,31.5257143 C17.3749139,31.5257143 17.9376291,32.9142857 19.9980325,32.9142857 L20.0413182,32.9142857 C22.4220364,32.8885714 24.3352681,30.2571429 25.6944417,28.1485714 C26.6727004,26.6314286 27.036301,25.8685714 27.7894737,24.1542857 C22.292179,22.0285714 21.409149,14.0914286 26.8458436,11.0485714 C25.1836695,8.93142857 22.8548942,7.70571429 20.6559764,7.70571429 L20.6559764,7.70571429 L20.6559764,7.70571429 Z" id="Shape"></path>
                    <path d="M20.0153468,0 C18.2839154,0.12 16.2667978,1.24285714 15.0807673,2.70857143 C14.0072799,4.03714286 13.1242499,6.00857143 13.4705362,7.92 L13.6090507,7.92 C15.4530251,7.92 17.3402853,6.78857143 18.4397442,5.34 C19.5045745,3.96 20.3096901,2.00571429 20.0153468,0 L20.0153468,0 L20.0153468,0 Z" id="Shape"></path>
                </g>
            </g>
        </g>
    </g>
</svg>