<?xml version="1.0" encoding="UTF-8"?>
<svg width="31px" height="33px" viewBox="0 0 31 33" version="1.1" xmlns="http://www.w3.org/2000/svg" xmlns:xlink="http://www.w3.org/1999/xlink">
    <!-- Generator: Sketch 47.1 (45422) - http://www.bohemiancoding.com/sketch -->
    <title>UI/icons/platforms/android/white</title>
    <desc>Created with Sketch.</desc>
    <defs></defs>
    <g id="Symbols" stroke="none" stroke-width="1" fill="none" fill-rule="evenodd">
        <g id="UI/icons/platforms/android/white" fill="#FFFFFF">
            <g id="social-android">
                <g id="Group">
                    <g transform="translate(0.000000, 9.154969)" id="Shape">
                        <path d="M5.63636364,7.48601036 L5.63636364,14.7451719 C5.63636364,15.3041922 6.03267045,15.8794159 6.64034091,15.8794159 L9.15909091,15.8794159 L9.15909091,20.0923222 C9.15909091,21.169854 10.1014205,22.0367405 11.2727273,22.0367405 C12.4440341,22.0367405 13.3863636,21.169854 13.3863636,20.0923222 L13.3863636,15.8794159 L17.7017045,15.8794159 L17.7017045,20.0923222 C17.7017045,20.6999529 18.0011364,21.2427697 18.4767045,21.5992463 C18.8201705,21.8747056 19.278125,22.0367405 19.7713068,22.0367405 L19.7977273,22.0367405 L19.8153409,22.0367405 C20.9866477,22.0367405 21.9289773,21.169854 21.9289773,20.0923222 L21.9289773,15.8794159 L24.3596591,15.8794159 C24.9761364,15.8794159 25.3636364,15.3041922 25.3636364,14.7532737 L25.3636364,7.49411211 L25.3636364,1.29627885 L5.63636364,1.29627885 L5.63636364,7.48601036 L5.63636364,7.48601036 Z"></path>
                        <path d="M28.8863636,0 C27.7150568,0 26.7727273,0.866886481 26.7727273,1.94441828 L26.7727273,9.72209138 C26.7727273,10.7996232 27.7150568,11.6665097 28.8863636,11.6665097 C30.0576705,11.6665097 31,10.7996232 31,9.72209138 L31,1.94441828 C31,0.866886481 30.0576705,0 28.8863636,0 L28.8863636,0 Z"></path>
                        <path d="M2.11363636,0 C0.942329545,0 0,0.866886481 0,1.94441828 L0,9.72209138 C0,10.7996232 0.942329545,11.6665097 2.11363636,11.6665097 C3.28494318,11.6665097 4.22727273,10.7996232 4.22727273,9.72209138 L4.22727273,1.94441828 C4.22727273,0.866886481 3.28494318,0 2.11363636,0 L2.11363636,0 Z"></path>
                    </g>
                    <path d="M20.3613636,2.11455488 L21.990625,0.340273198 C22.0258523,0.299764484 21.9730114,0.210645313 21.8761364,0.137729628 C21.7792614,0.0729156854 21.6647727,0.0567121997 21.6383523,0.105322657 L19.9474432,1.95252002 C18.7497159,1.51502591 17.2877841,1.23956665 15.4911932,1.23956665 C13.6857955,1.23146491 12.2150568,1.49882242 11.0173295,1.92821479 L9.34403409,0.113424399 C9.30880682,0.0729156854 9.203125,0.0810174282 9.10625,0.145831371 C9.009375,0.210645313 8.95653409,0.291662741 8.99176136,0.348374941 L10.6034091,2.09835139 C6.35852273,3.79161564 5.72443182,7.9478097 5.63636364,9.16307113 L25.3284091,9.16307113 C25.2491477,7.93970796 24.6238636,3.8402261 20.3613636,2.11455488 L20.3613636,2.11455488 Z M11.1670455,6.1492228 C10.5153409,6.1492228 9.978125,5.66311823 9.978125,5.071691 C9.978125,4.48026378 10.5065341,3.99415921 11.1670455,3.99415921 C11.81875,3.99415921 12.3559659,4.48026378 12.3559659,5.071691 C12.3559659,5.66311823 11.8275568,6.1492228 11.1670455,6.1492228 L11.1670455,6.1492228 Z M19.8329545,6.1492228 C19.18125,6.1492228 18.6440341,5.66311823 18.6440341,5.071691 C18.6440341,4.48026378 19.1724432,3.99415921 19.8329545,3.99415921 C20.4846591,3.99415921 21.021875,4.48026378 21.021875,5.071691 C21.021875,5.66311823 20.4846591,6.1492228 19.8329545,6.1492228 L19.8329545,6.1492228 Z" id="Shape"></path>
                </g>
            </g>
        </g>
    </g>
</svg>