<?xml version="1.0" encoding="UTF-8"?>
<svg width="31px" height="33px" viewBox="0 0 31 33" version="1.1" xmlns="http://www.w3.org/2000/svg" xmlns:xlink="http://www.w3.org/1999/xlink">
    <!-- Generator: Sketch 48.2 (47327) - http://www.bohemiancoding.com/sketch -->
    <title>UI/icons/integration/install-sdk/black</title>
    <desc>Created with Sketch.</desc>
    <defs></defs>
    <g id="Symbols" stroke="none" stroke-width="1" fill="none" fill-rule="evenodd">
        <g id="UI/icons/integration/install-sdk/black" fill="#000000" fill-rule="nonzero">
            <g id="noun_372349_cc" transform="translate(1.000000, 0.000000)">
                <path d="M14.3406441,33 C14.2723443,33 14.2040445,32.9821799 14.1433336,32.9468697 L0.197640425,24.8948293 C0.0755586935,24.8245389 0,24.6938583 0,24.5529476 L0,8.44754668 C0,8.30630597 0.0752287429,8.17628531 0.197310475,8.10599496 L14.1433336,0.0536245136 C14.3307456,-0.05659604 14.5732593,0.00874428816 14.6824729,0.197835238 C14.7916866,0.386596186 14.7270163,0.628157399 14.5379546,0.736727945 L0.7899018,8.67590782 L0.7899018,24.3245864 L14.3406441,32.1495857 L27.8913864,24.3245864 L27.8913864,8.44754668 C27.8913864,8.22941558 28.06791,8.05286469 28.2860073,8.05286469 C28.5041047,8.05286469 28.6806283,8.22941558 28.6806283,8.44754668 L28.6806283,24.5532776 C28.6806283,24.6941883 28.6050696,24.8245389 28.4833178,24.8948293 L14.5376246,32.9468697 C14.4769137,32.9821799 14.4089439,33 14.3406441,33 Z" id="Shape"></path>
                <path d="M5.48309805,11.5759162 C5.42429693,11.5759162 5.36451579,11.5623999 5.30800138,11.5333399 L0.215497473,8.88718677 C0.0227604598,8.78682827 -0.0553143643,8.54353491 0.0417074883,8.34383162 C0.138729341,8.14480414 0.372300467,8.06269263 0.566344172,8.16372696 L5.65884808,10.8098801 C5.85158509,10.9102386 5.92965991,11.1535319 5.83263806,11.3532352 C5.76403675,11.4944805 5.62618079,11.5759162 5.48309805,11.5759162 Z" id="Shape"></path>
                <path d="M14.4267016,33 C14.1879804,33 13.9947644,32.8228866 13.9947644,32.6040605 L13.9947644,26.8304945 C13.9947644,26.6116684 14.1879804,26.434555 14.4267016,26.434555 C14.6654227,26.434555 14.8586387,26.6116684 14.8586387,26.8304945 L14.8586387,32.6037294 C14.8586387,32.8228866 14.6654227,33 14.4267016,33 Z" id="Shape"></path>
                <path d="M14.2942597,26.9528796 C14.2314972,26.9528796 14.168081,26.9374102 14.1092412,26.9058133 L5.38918532,22.180422 C5.26235289,22.1119619 5.18357296,21.9783331 5.18357296,21.8335137 L5.18324607,11.1056874 C5.18324607,10.8881291 5.35813099,10.7120419 5.57453063,10.7120419 C5.79060339,10.7120419 5.96548831,10.8881291 5.96548831,11.1056874 L5.96581519,21.597853 L14.4799319,26.2119967 C14.6701805,26.3150159 14.741442,26.5542971 14.6391262,26.7458537 C14.5685184,26.8775077 14.4335138,26.9528796 14.2942597,26.9528796 Z" id="Shape"></path>
                <path d="M5.57477311,11.5759162 C5.44074501,11.5759162 5.30998588,11.505633 5.23708767,11.3781192 C5.1279038,11.1880199 5.19001438,10.9423635 5.37601924,10.8305797 L14.0963454,5.58444143 C14.2823503,5.47198832 14.5226202,5.5352432 14.631804,5.72668123 C14.7413148,5.91678053 14.6792042,6.16210234 14.4928725,6.27422076 L5.77287319,11.520359 C5.71043571,11.5578434 5.64211406,11.5759162 5.57477311,11.5759162 Z" id="Shape"></path>
                <path d="M5.5747422,22.2879581 C5.44072468,22.2879581 5.30997587,22.2176749 5.23708342,22.0901611 C5.12790816,21.9000618 5.19001385,21.6544053 5.37600402,21.5426216 L14.0962955,16.2964833 C14.2822857,16.1840302 14.5225366,16.2472851 14.6320387,16.4387231 C14.741214,16.6288224 14.6791083,16.8741442 14.4927912,16.9862626 L5.77282664,22.2324009 C5.71039409,22.2698853 5.64207784,22.2879581 5.5747422,22.2879581 Z" id="Shape"></path>
                <path d="M14.4267016,17.104712 C14.1879804,17.104712 13.9947644,16.9284859 13.9947644,16.7104266 L13.9947644,5.92275181 C13.9947644,5.70502195 14.1879804,5.52879581 14.4267016,5.52879581 C14.6654227,5.52879581 14.8586387,5.70502195 14.8586387,5.92275181 L14.8586387,16.7104266 C14.8586387,16.9284859 14.6654227,17.104712 14.4267016,17.104712 Z" id="Shape"></path>
                <path d="M14.3404791,33 C14.2721801,33 14.2038811,32.9821799 14.1431709,32.9468697 L0.197638152,24.8948293 C0.0755578243,24.8245389 0,24.6938583 0,24.5529476 L0,8.44754668 C0,8.22941558 0.176521555,8.05286469 0.394946357,8.05286469 C0.613041212,8.05286469 0.789562766,8.22941558 0.789562766,8.44754668 L0.789562766,24.3245864 L14.3401492,32.1495857 L27.8907356,24.3245864 L27.8907356,8.67590782 L14.1431709,0.736727945 C13.9541114,0.627827398 13.8894418,0.386596186 13.9986542,0.197835238 C14.1072067,0.00874428816 14.3490577,-0.05659604 14.5377873,0.0536245136 L28.4833201,8.10599496 C28.6050704,8.17628531 28.6806283,8.30630597 28.6806283,8.44754668 L28.6806283,24.5532776 C28.6806283,24.6941883 28.6050704,24.8245389 28.4833201,24.8948293 L14.5377873,32.9468697 C14.4767472,32.9821799 14.4087781,33 14.3404791,33 Z" id="Shape"></path>
                <path d="M23.1972522,11.5759162 C23.0541447,11.5759162 22.9162648,11.4944735 22.8476516,11.3532161 C22.7512664,11.1534957 22.829028,10.9101814 23.0214717,10.8098143 L28.114205,8.16343406 C28.3089358,8.06306694 28.541894,8.14450962 28.6392594,8.34355418 C28.7356446,8.54327462 28.657883,8.78658886 28.4654393,8.88695598 L23.372706,11.5333362 C23.3161817,11.5623988 23.2563902,11.5759162 23.1972522,11.5759162 Z" id="Shape"></path>
                <path d="M14.4267016,33 C14.1879804,33 13.9947644,32.8223779 13.9947644,32.6029232 L13.9947644,26.486414 C13.9947644,26.2666274 14.1879804,26.0890052 14.4267016,26.0890052 C14.6654227,26.0890052 14.8586387,26.2666274 14.8586387,26.486414 L14.8586387,32.6029232 C14.8586387,32.8223779 14.6654227,33 14.4267016,33 Z" id="Shape"></path>
                <path d="M14.3863417,26.9528796 C14.2470971,26.9528796 14.1121018,26.8775077 14.0414989,26.7458537 C13.9391901,26.5542971 14.0104467,26.3150159 14.2006822,26.2119967 L22.7138863,21.597853 L22.7151938,11.1056874 C22.7151938,10.8881291 22.8910473,10.7120419 23.1064514,10.7120419 C23.3225093,10.7120419 23.4973822,10.8881291 23.4973822,11.1056874 L23.4957479,21.8335137 C23.4957479,21.978004 23.4173002,22.1119619 23.2901497,22.180422 L14.5713474,26.9061424 C14.5125116,26.9374102 14.4490998,26.9528796 14.3863417,26.9528796 Z" id="Shape"></path>
                <path d="M23.1059638,11.5759162 C23.0386229,11.5759162 22.9699743,11.5578441 22.9081906,11.5203611 L14.1875376,6.27441696 C14.0015327,6.16263736 13.9394221,5.91698996 14.048606,5.72689769 C14.1584437,5.53513208 14.3977329,5.47187955 14.5840646,5.58466316 L23.3043908,10.8306073 C23.4907225,10.9423869 23.5528331,11.1880343 23.4433224,11.3781266 C23.3700972,11.5056356 23.2403188,11.5759162 23.1059638,11.5759162 Z" id="Shape"></path>
                <path d="M22.9327909,22.2879581 C22.8654481,22.2879581 22.7974514,22.2698857 22.735666,22.2324023 L14.0147681,16.9863931 C13.828758,16.8742774 13.7666457,16.6289616 13.8758326,16.438867 C13.9856734,16.2474337 14.2249693,16.1838457 14.4113063,16.2966307 L23.1312235,21.5429746 C23.3175604,21.6547556 23.3803266,21.9000714 23.2704858,22.0905007 C23.1975856,22.2176767 23.0671497,22.2879581 22.9327909,22.2879581 Z" id="Shape"></path>
                <path d="M14.4267016,17.104712 C14.1879804,17.104712 13.9947644,16.9284859 13.9947644,16.7104266 L13.9947644,5.92275181 C13.9947644,5.70502195 14.1879804,5.52879581 14.4267016,5.52879581 C14.6654227,5.52879581 14.8586387,5.70502195 14.8586387,5.92275181 L14.8586387,16.7104266 C14.8586387,16.9284859 14.6654227,17.104712 14.4267016,17.104712 Z" id="Shape"></path>
            </g>
        </g>
    </g>
</svg>