<svg xmlns="http://www.w3.org/2000/svg" width="35" height="32" viewBox="0 0 35 32">
    <g fill="#7A769B" fill-rule="nonzero">
        <path d="M26.877 23.987H10.148v1.831c-.325 1.878-1.936 3.304-3.874 3.304-2.172 0-3.933-1.792-3.933-4.003 0-1.364.67-2.569 1.694-3.291l-1.128-1.64a6.028 6.028 0 0 0-2.533 4.931c0 3.316 2.642 6.004 5.9 6.004 2.923 0 5.349-2.162 5.818-5h14.706c.34.597.975.998 1.701.998 1.086 0 1.967-.897 1.967-2.002 0-1.105-.88-2.001-1.967-2.001-.673 0-1.267.344-1.622.869z"/>
        <path d="M4.735 24.168a1.995 1.995 0 0 1 1.835-1.216l7.476-12.646c-2.203-1.775-2.836-4.896-1.36-7.394C14.332.128 17.976-.826 20.824.78a5.797 5.797 0 0 1 2.955 4.535l-1.978.17a3.865 3.865 0 0 0-1.97-3.025c-1.9-1.07-4.328-.434-5.425 1.421-1.075 1.818-.474 4.13 1.335 5.231l1.093.617-8.467 14.323c.24.49.267 1.073.037 1.598a1.986 1.986 0 0 1-1.864 1.267c-1.097 0-1.986-.868-1.986-1.938 0-.29.065-.565.181-.811z"/>
        <path d="M17.29 8.103l8.392 14.357 1-.57.017.03.024-.015c1.903-1.085 4.327-.456 5.414 1.404 1.088 1.86.427 4.248-1.476 5.333a4.029 4.029 0 0 1-3.677.165l-.847 1.771c1.7.777 3.752.75 5.509-.252 2.854-1.627 3.845-5.209 2.214-8-1.473-2.519-4.58-3.532-7.27-2.507l-7.447-12.74a1.919 1.919 0 0 0-.016-1.905c-.544-.93-1.756-1.245-2.707-.702-.952.542-1.282 1.736-.738 2.666.345.591.96.934 1.608.965z"/>
    </g>
</svg>
