<?xml version="1.0" encoding="UTF-8"?>
<svg width="59px" height="59px" viewBox="0 0 59 59" version="1.1" xmlns="http://www.w3.org/2000/svg" xmlns:xlink="http://www.w3.org/1999/xlink">
    <!-- Generator: Sketch 48.2 (47327) - http://www.bohemiancoding.com/sketch -->
    <title>Group</title>
    <desc>Created with Sketch.</desc>
    <defs>
        <rect id="path-1" x="0" y="0" width="59" height="59" rx="6"></rect>
    </defs>
    <g id="v2" stroke="none" stroke-width="1" fill="none" fill-rule="evenodd" transform="translate(-163.000000, -2374.000000)">
        <g id="Group" transform="translate(163.000000, 2374.000000)">
            <mask id="mask-2" fill="white">
                <use xlink:href="#path-1"></use>
            </mask>
            <use id="Rectangle" fill="#D8D8D8" xlink:href="#path-1"></use>
            <g id="Color/Green/main" mask="url(#mask-2)" fill="#00C94B">
                <rect id="Rectangle" x="0" y="0" width="59" height="59"></rect>
            </g>
            <g id="Logo/box/white" mask="url(#mask-2)">
                <g transform="translate(9.000000, 10.000000)" id="Our-logo">
                    <g transform="translate(5.553846, 3.215385)">
                        <g id="Group-2" transform="translate(10.230769, 7.015385)" fill="#FFFFFF" fill-rule="nonzero">
                            <path d="M3.29693846,3.76930769 C1.60535385,3.76930769 0.176261538,2.93973846 0.176261538,1.95758462 C0.176261538,0.975430769 1.60535385,0.145569231 3.29693846,0.145569231 C4.98823077,0.145569231 6.41761538,0.975430769 6.41761538,1.95758462 C6.41761538,2.93973846 4.98823077,3.76930769 3.29693846,3.76930769" id="Shape"></path>
                        </g>
                        <path d="M26.7739231,8.41904615 C26.7625231,8.39624615 26.7508308,8.37403077 26.7379692,8.3524 C26.7034769,8.29423077 26.6634308,8.24044615 26.6201692,8.18841538 C26.6011692,8.16590769 26.5848,8.14164615 26.5643385,8.1206 C26.5590769,8.11446154 26.5549846,8.10773846 26.5491385,8.10218462 C26.4877538,8.0408 26.4208154,7.98789231 26.3494923,7.94141538 C26.3471538,7.93995385 26.3456923,7.93761538 26.3433538,7.93615385 L14.1880308,0.209876923 C13.9901385,0.0841846154 13.7618462,0.0175384615 13.5274154,0.0175384615 C13.2929846,0.0175384615 13.0644,0.0841846154 12.8665077,0.209292308 L0.712938462,7.93615385 C0.702123077,7.94287692 0.694815385,7.95281538 0.684292308,7.95983077 C0.609169231,8.0104 0.538138462,8.06769231 0.475292308,8.13375385 C0.475,8.13375385 0.475,8.13404615 0.474707692,8.13433846 C0.473538462,8.13550769 0.472661538,8.13696923 0.471492308,8.13813846 C0.403969231,8.20975385 0.3496,8.28984615 0.301661538,8.37344615 C0.297569231,8.38075385 0.294061538,8.38835385 0.289969231,8.39595385 C0.192338462,8.57484615 0.135923077,8.7742 0.135923077,8.98261538 L0.135923077,22.5161692 C0.135923077,22.9408923 0.350184615,23.3299538 0.710015385,23.5579538 L12.8653385,31.2886154 C13.0632308,31.4148923 13.2921077,31.4812462 13.5274154,31.4812462 C13.7627231,31.4812462 13.9916,31.4146 14.1900769,31.2886154 L26.3456923,23.5573692 C26.7049385,23.3302462 26.9194923,22.9408923 26.9194923,22.5161692 L26.9194923,8.98261538 C26.9194923,8.78676923 26.8648308,8.59413846 26.7739231,8.41904615 Z M13.9337431,23.2933612 C13.9971174,23.2697667 14.0583627,23.2385984 14.1161228,23.1998734 L18.8191033,20.0467866 C18.8171835,19.620316 18.8959228,19.1577758 19.0640237,18.6959225 C19.5868971,17.2593396 20.7763468,16.3734063 21.7207339,16.7171351 C22.665121,17.0608639 23.0068253,18.5040917 22.4839519,19.9406746 C21.9610785,21.3772575 20.7716288,22.2631908 19.8272417,21.919462 C19.5330488,21.8123846 19.2973421,21.5986084 19.1280387,21.3115729 L14.7672331,24.1710356 C14.5114794,24.3425042 14.2264427,24.4504775 13.9337431,24.4946834 L13.9337431,29.5189423 L13.9337431,24.4946834 C13.45533,24.5669372 12.9564454,24.4688336 12.5314963,24.1991838 L0.179080806,16.4981753 L0.179080806,14.8662637 L13.1579499,23.2119369 C13.3927782,23.3609463 13.6802879,23.3877237 13.9337431,23.2933612 L13.9337431,16.3401813 L13.9337431,23.2933612 Z M13.5274154,2.70676923 L23.3860769,8.97267692 L13.5274154,15.2479385 L3.66846154,8.97296923 L13.5274154,2.70676923 Z" id="Shape" fill="#FFFFFF" fill-rule="nonzero"></path>
                    </g>
                </g>
            </g>
        </g>
    </g>
</svg>