<?xml version="1.0" encoding="UTF-8"?>
<svg width="569px" height="108px" viewBox="0 0 569 108" version="1.1" xmlns="http://www.w3.org/2000/svg" xmlns:xlink="http://www.w3.org/1999/xlink">
    <!-- Generator: Sketch 48.2 (47327) - http://www.bohemiancoding.com/sketch -->
    <title>Logo/Group/Green@0svg</title>
    <desc>Created with Sketch.</desc>
    <defs></defs>
    <g id="Artboard" stroke="none" stroke-width="1" fill="none" fill-rule="evenodd" transform="translate(-120.000000, -829.000000)">
        <g id="Logo/Group/Green" transform="translate(101.000000, 818.000000)" fill="#00CE5B">
            <g id="Logo/text/green" transform="translate(91.000000, 0.000000)">
                <path d="M34.08008,26.8976513 L47.8606097,26.8976513 L47.8606097,45.7917109 C51.2407396,41.631551 56.6142795,40.418171 61.6411394,40.418171 C74.9883191,40.591511 78.715129,50.4718908 78.541789,62.1723405 L78.541789,88 L64.7612593,88 L64.7612593,62.2590105 C64.7612593,56.1054407 61.3811294,53.4186707 57.7409895,53.3320007 C53.5808295,53.2453307 48.5539697,56.7988007 48.5539697,62.5190205 L48.5539697,88 L34.08008,88 L34.08008,26.8976513 Z M106.102849,67.9792304 L109.569648,56.1054407 L115.376538,41.111531 L129.503748,41.111531 L129.503748,43.2782809 C121.790118,62.7790305 114.076488,82.1931101 106.449528,101.69386 L92.3223188,101.69386 L92.3223188,99.6137798 L98.3892187,84.1865201 L82.788619,43.2782809 L82.788619,41.111531 L97.0024987,41.111531 L102.809389,56.1054407 L106.102849,67.9792304 Z M160.098257,88.78003 C155.504748,88.78003 151.084578,87.21997 147.964458,83.6665001 L147.964458,101.69386 L134.443938,101.69386 L134.443938,41.111531 L147.964458,41.111531 L147.964458,45.7917109 C151.171248,41.804891 155.764758,40.504841 160.271597,40.504841 C175.178837,40.504841 182.892467,52.4653008 182.805797,65.3791305 C182.632457,78.2062902 175.265507,88.78003 160.098257,88.78003 Z M158.624867,53.5920107 C152.731308,53.5920107 147.964458,58.6188706 147.964458,64.8591105 C147.964458,71.0993504 152.731308,76.2128802 158.624867,76.2128802 C165.558467,76.2128802 169.025267,70.6660004 169.111937,65.0324505 C169.198607,59.3989006 165.645137,53.5920107 158.624867,53.5920107 Z M236.454526,64.4257605 C236.454526,66.3325005 236.281186,68.0659004 235.934506,69.7993004 L202.306547,69.7993004 C203.953277,74.1328003 208.200106,76.2995502 212.360266,76.3862202 C215.393716,76.3862202 218.253826,75.3461803 220.247236,73.1794303 L235.067806,73.1794303 C231.427666,83.5798301 221.547286,88.69336 211.666906,88.52002 C199.793117,88.26001 188.005997,80.2863702 188.005997,64.4257605 C188.005997,48.3051408 200.226467,40.331501 212.446936,40.418171 C224.494066,40.504841 236.454526,48.4784808 236.454526,64.4257605 Z M202.826567,59.1388906 L221.547286,59.1388906 C220.247236,54.4587107 216.433756,52.2919608 212.013586,52.2919608 C207.940096,52.2919608 204.213287,54.5453807 202.826567,59.1388906 Z M256.561966,61.9990005 L256.561966,88 L242.954776,88 L242.954776,41.111531 L255.261916,41.111531 L255.781936,44.2316509 C258.815385,41.371541 262.195515,40.158161 266.008995,40.158161 C267.655725,40.158161 269.475795,40.418171 271.295865,40.851521 L271.122525,53.6786807 C269.735805,53.2453307 268.089075,52.9853207 266.529015,52.9853207 C261.588825,53.0719907 256.561966,55.6720907 256.561966,61.9990005 Z M305.790525,88.08667 C303.103755,88.52002 300.590325,88.78003 298.336905,88.78003 C287.849835,88.8667 281.522925,84.0131801 281.522925,71.7927103 L281.522925,53.3320007 L275.369355,53.3320007 L275.369355,41.631551 L281.522925,41.631551 L281.522925,32.7045412 L295.130115,31.4911612 L295.130115,41.631551 L304.923825,41.631551 L304.923825,53.3320007 L295.130115,53.3320007 L295.130115,71.7927103 C295.130115,75.9528703 298.163565,77.2529202 301.457025,77.2529202 C302.757075,77.2529202 304.143795,77.0795802 305.357175,76.8195702 L305.790525,88.08667 Z M325.464614,61.9990005 L325.464614,88 L311.857425,88 L311.857425,41.111531 L324.164564,41.111531 L324.684584,44.2316509 C327.718034,41.371541 331.098164,40.158161 334.911644,40.158161 C336.558374,40.158161 338.378444,40.418171 340.198514,40.851521 L340.025174,53.6786807 C338.638454,53.2453307 336.991724,52.9853207 335.431664,52.9853207 C330.491474,53.0719907 325.464614,55.6720907 325.464614,61.9990005 Z M367.412893,40.331501 C372.006403,40.331501 376.513243,42.064901 379.546693,45.9650509 L379.546693,41.111531 L393.153883,41.111531 L393.153883,88 L379.546693,88 L379.546693,83.3198201 C376.339903,87.30664 371.746393,88.60669 367.239553,88.60669 C352.332314,88.60669 344.618684,76.6462302 344.705354,63.7324005 C344.878694,50.9052408 352.245644,40.331501 367.412893,40.331501 Z M368.886283,75.5195203 C374.779843,75.5195203 379.546693,70.4926604 379.546693,64.2524205 C379.546693,58.0121806 374.779843,52.8986507 368.886283,52.8986507 C361.952684,52.8986507 358.485884,58.3588606 358.399214,64.0790805 C358.312544,69.7126304 361.866014,75.5195203 368.886283,75.5195203 Z M432.762072,68.0659004 C429.208602,79.6796802 412.394623,77.7729402 412.394623,64.5124305 C412.394623,51.2519208 429.295272,49.4318508 432.762072,61.0456306 L446.282592,61.0456306 C442.469112,32.1845212 399.047443,34.1779311 399.047443,64.5124305 C399.047443,94.8469299 442.382442,96.8403398 446.282592,68.0659004 L432.762072,68.0659004 Z M466.996721,59.5722406 L479.910551,41.111531 L494.817791,41.111531 L494.817791,41.804891 L478.957181,64.4257605 L496.377851,87.39331 L496.377851,88 L480.430571,88 L466.996721,69.7126304 L466.996721,88 L453.389532,88 L453.389532,27.3310013 L466.996721,27.3310013 L466.996721,59.5722406 Z" id="hypertrack"></path>
            </g>
            <g id="Logo/box/green">
                <g id="Our-logo" transform="translate(19.000000, 11.000000)">
                    <g id="Group-2" transform="translate(35.000000, 24.000000)" fill-rule="nonzero">
                        <path d="M11.279,12.895 C5.492,12.895 0.603,10.057 0.603,6.697 C0.603,3.337 5.492,0.498 11.279,0.498 C17.065,0.498 21.955,3.337 21.955,6.697 C21.955,10.057 17.065,12.895 11.279,12.895" id="Shape"></path>
                    </g>
                    <path d="M91.595,28.802 C91.556,28.724 91.516,28.648 91.472,28.574 C91.354,28.375 91.217,28.191 91.069,28.013 C91.004,27.936 90.948,27.853 90.878,27.781 C90.86,27.76 90.846,27.737 90.826,27.718 C90.616,27.508 90.387,27.327 90.143,27.168 C90.135,27.163 90.13,27.155 90.122,27.15 L48.538,0.718 C47.861,0.288 47.08,0.06 46.278,0.06 C45.476,0.06 44.694,0.288 44.017,0.716 L2.439,27.15 C2.402,27.173 2.377,27.207 2.341,27.231 C2.084,27.404 1.841,27.6 1.626,27.826 C1.625,27.826 1.625,27.827 1.624,27.828 C1.62,27.832 1.617,27.837 1.613,27.841 C1.382,28.086 1.196,28.36 1.032,28.646 C1.018,28.671 1.006,28.697 0.992,28.723 C0.658,29.335 0.465,30.017 0.465,30.73 L0.465,77.029 C0.465,78.482 1.198,79.813 2.429,80.593 L44.013,107.04 C44.69,107.472 45.473,107.699 46.278,107.699 C47.083,107.699 47.866,107.471 48.545,107.04 L90.13,80.591 C91.359,79.814 92.093,78.482 92.093,77.029 L92.093,30.73 C92.093,30.06 91.906,29.401 91.595,28.802 Z M47.6680686,79.6878146 C47.8848755,79.6070964 48.0943985,79.5004681 48.2919991,79.3679879 L64.3811427,68.581112 C64.3745752,67.1221336 64.6439465,65.5397595 65.2190284,63.959735 C67.0078059,59.0451092 71.0769757,56.0142848 74.3077737,57.1901991 C77.5385717,58.3661134 78.7075603,63.3034716 76.9187828,68.2180973 C75.1300053,73.132723 71.0608354,76.1635475 67.8300374,74.9876332 C66.8235881,74.6213156 66.0172229,73.8899761 65.4380272,72.9080127 L50.5194815,82.6903849 C49.6445349,83.276988 48.6694092,83.6463704 47.6680686,83.797601 L47.6680686,100.985855 L47.6680686,83.797601 C46.0313922,84.0447852 44.3246816,83.7091675 42.8709085,82.7866815 L0.612644862,56.4411259 L0.612644862,50.8582705 L45.0140393,79.4092578 C45.8173992,79.9190267 46.800985,80.0106337 47.6680686,79.6878146 L47.6680686,55.9006202 L47.6680686,79.6878146 Z M46.278,9.26 L80.005,30.696 L46.278,52.164 L12.55,30.697 L46.278,9.26 Z" id="Shape" fill-rule="nonzero"></path>
                </g>
            </g>
        </g>
    </g>
</svg>