<!--?xml version="1.0" encoding="UTF-8"?-->
<svg width="288px" height="130px" viewBox="0 0 288 130" version="1.1" xmlns="http://www.w3.org/2000/svg" xmlns:xlink="http://www.w3.org/1999/xlink" style="">
    <!-- Generator: Sketch 46.2 (44496) - http://www.bohemiancoding.com/sketch -->
    <title>Group 2</title>
    <desc>Created with Sketch.</desc>
    <defs></defs>
    <g id="Page-2" stroke="none" stroke-width="1" fill="none" fill-rule="evenodd">
        <g id="Desktop-Copy-21" transform="translate(-368.000000, -236.000000)">
            <g id="Group-2" transform="translate(368.000000, 236.000000)">
                <g id="Group-3">
                    <g id="noun_787656_cc" transform="translate(0.000000, 1.000000)" fill-rule="nonzero" fill="#5A6A84">
                        <g id="Group">
                            <path d="M53.3333333,0 L10.6666667,0 C4.8,0 0,5.58 0,12.4 L0,111.6 C0,118.42 4.8,124 10.6666667,124 L53.3333333,124 C59.2,124 64,118.42 64,111.6 L64,12.4 C64,5.58 59.2,0 53.3333333,0 L53.3333333,0 Z M5.88505747,21.627907 L5.88505747,12.2413953 C5.88505747,9.21348837 8.02507837,6.48837209 10.9676071,6.48837209 L53.7680251,6.48837209 C56.4430512,6.48837209 58.8505747,8.91069767 58.8505747,12.2413953 L58.8505747,21.627907 L5.88505747,21.627907 L5.88505747,21.627907 Z M5.88505747,100.930233 L5.88505747,24.5116279 L58.1149425,24.5116279 L58.1149425,100.930233 L5.88505747,100.930233 L5.88505747,100.930233 Z M10.9224576,117.511628 C8.27119435,117.511628 5.88505747,115.021142 5.88505747,111.596723 L5.88505747,103.813953 L58.1149425,103.813953 L58.1149425,111.596723 C58.1149425,114.709831 55.993932,117.511628 53.0775424,117.511628 L10.9224576,117.511628 L10.9224576,117.511628 Z" id="Shape" class="tGuMHJqE_0"></path>
                            <path d="M13.3333333,9.47302326 C11.7333333,9.47302326 10.6666667,10.5255814 10.6666667,12.1044186 C10.6666667,13.6832558 11.7333333,14.735814 13.3333333,14.735814 C14.9333333,14.735814 16,13.6832558 16,12.1044186 C16,10.5255814 14.9333333,9.47302326 13.3333333,9.47302326 L13.3333333,9.47302326 Z" id="Shape" class="tGuMHJqE_1"></path>
                            <path d="M20.5333333,9.47302326 C18.9333333,9.47302326 17.8666667,10.5255814 17.8666667,12.1044186 C17.8666667,13.6832558 18.9333333,14.735814 20.5333333,14.735814 C22.1333333,14.735814 23.2,13.6832558 23.2,12.1044186 C23.2,10.5255814 21.8666667,9.47302326 20.5333333,9.47302326 L20.5333333,9.47302326 Z" id="Shape" class="tGuMHJqE_2"></path>
                            <path d="M28,9.47302326 C26.4,9.47302326 25.3333333,10.5255814 25.3333333,12.1044186 C25.3333333,13.6832558 26.4,14.735814 28,14.735814 C29.6,14.735814 30.6666667,13.6832558 30.6666667,12.1044186 C30.6666667,10.5255814 29.3333333,9.47302326 28,9.47302326 L28,9.47302326 Z" id="Shape" class="tGuMHJqE_3"></path>
                            <path d="M37.6,108.085465 C36,108.085465 34.9333333,109.138023 34.9333333,110.71686 C34.9333333,112.295698 36,113.348256 37.6,113.348256 C39.2,113.348256 40.2666667,112.295698 40.2666667,110.71686 C40.2666667,109.138023 38.9333333,108.085465 37.6,108.085465 L37.6,108.085465 Z" id="Shape" class="tGuMHJqE_4"></path>
                            <path d="M44.5333333,108.085465 C42.9333333,108.085465 41.8666667,109.138023 41.8666667,110.71686 C41.8666667,112.295698 42.9333333,113.348256 44.5333333,113.348256 C46.1333333,113.348256 47.2,112.295698 47.2,110.71686 C47.2,109.138023 46.1333333,108.085465 44.5333333,108.085465 L44.5333333,108.085465 Z" id="Shape" class="tGuMHJqE_5"></path>
                            <path d="M52,108.085465 C50.4,108.085465 49.3333333,109.138023 49.3333333,110.71686 C49.3333333,112.295698 50.4,113.348256 52,113.348256 C53.6,113.348256 54.6666667,112.295698 54.6666667,110.71686 C54.6666667,109.138023 53.6,108.085465 52,108.085465 L52,108.085465 Z" id="Shape" class="tGuMHJqE_6"></path>
                        </g>
                    </g>
                    <g id="Group-68" transform="translate(130.000000, 0.000000)">
                        <g id="imac">
                            <g id="noun_987482_cc">
                                <g id="Group">
                                    <path d="M104.439756,127.886622 C104.474867,127.862027 104.517,127.840946 104.538067,127.814595 C104.517,127.840946 104.474867,127.863784 104.439756,127.886622 Z" id="Shape" class="tGuMHJqE_7"></path>
                                    <path d="M104.601267,127.672297 C104.599511,127.691622 104.583711,127.710946 104.576689,127.73027 C104.583711,127.710946 104.599511,127.693378 104.601267,127.672297 Z" id="Shape" class="tGuMHJqE_8"></path>
                                    <path d="M53.1757778,127.886622 C53.1950889,127.898919 53.2056222,127.912973 53.2302,127.92527 C53.2056222,127.912973 53.1933333,127.898919 53.1757778,127.886622 Z" id="Shape" class="tGuMHJqE_9"></path>
                                    <path d="M104.053533,128.035946 C104.1852,128.011351 104.287022,127.977973 104.367778,127.941081 C104.287022,127.977973 104.1852,128.009595 104.053533,128.035946 Z" id="Shape" class="tGuMHJqE_10"></path>
                                    <path d="M104.573178,127.496622 C104.574933,127.501892 104.576689,127.505405 104.578444,127.510676 C104.573178,127.498378 104.571422,127.489595 104.571422,127.489595 L104.569667,127.489595 C104.571422,127.491351 104.573178,127.493108 104.573178,127.496622 Z" id="Shape" fill="#D0D5DE" fill-rule="nonzero" class="tGuMHJqE_11"></path>
                                    <path d="M53.2811111,127.173378 L53.2828667,127.171622" id="Shape" class="tGuMHJqE_12"></path>
                                    <path d="M0,106.224054 C0,108.311081 1.6906,110.002838 3.7762,110.002838 L61.3988,110.002838 C61.3478889,111.309865 60.9458667,119.909189 59.0498667,122.410811 C59.0498667,122.410811 58.6478444,122.841216 57.9824889,123.461351 C57.8912,123.547432 57.8069333,123.626486 57.7033556,123.719595 C57.4417778,123.956757 57.1521111,124.211486 56.8255778,124.482027 C55.8494889,125.295405 54.5451111,126.186081 53.2951556,127.157568 C53.2951556,127.157568 53.2846222,127.166351 53.2793556,127.171622 C53.2231778,127.222568 52.9054222,127.528243 53.0581556,127.777703 C53.0546444,127.772432 53.0458667,127.768919 53.0441111,127.763649 C52.9984667,127.977973 52.9721333,128.285405 53.1459333,128.471622 C53.1459333,128.471622 53.4672,128.817703 54.8611111,128.880946 C54.8611111,128.880946 58.1246889,129.100541 60.0417556,129.133919 L72.4570444,129.133919 L78.8297111,129.133919 L85.2216889,129.09527 L97.6369778,129.09527 C99.5558,129.061892 102.819378,128.842297 102.819378,128.842297 C104.213289,128.779054 104.534556,128.432973 104.534556,128.432973 C104.776822,128.172973 104.632867,127.672297 104.583711,127.528243 C104.587222,127.540541 104.585467,127.552838 104.587222,127.566892 C104.541578,127.354324 104.316867,127.159324 104.316867,127.159324 C103.066911,126.187838 101.762533,125.297162 100.786444,124.483784 C100.459911,124.211486 100.170244,123.956757 99.9086667,123.721351 C99.8068444,123.628243 99.7243333,123.549189 99.6312889,123.464865 C98.9641778,122.84473 98.5621556,122.412568 98.5621556,122.412568 C96.6679111,119.910946 96.2641333,111.309865 96.2132222,110.004595 L154.218533,110.004595 C156.304133,110.004595 157.994733,108.312838 157.994733,106.225811 L157.994733,95.4287838 L0,95.4287838 L0,106.224054 Z M53.2284444,127.92527 C53.2056222,127.912973 53.1933333,127.898919 53.1740222,127.886622 C53.1933333,127.898919 53.2056222,127.912973 53.2284444,127.92527 Z M104.439756,127.886622 C104.474867,127.862027 104.517,127.840946 104.538067,127.814595 C104.517,127.840946 104.474867,127.863784 104.439756,127.886622 Z M104.576689,127.73027 C104.583711,127.710946 104.599511,127.691622 104.601267,127.672297 C104.599511,127.693378 104.583711,127.710946 104.576689,127.73027 Z M104.366022,127.939324 C104.287022,127.976216 104.183444,128.009595 104.051778,128.034189 C104.1852,128.009595 104.287022,127.977973 104.366022,127.939324 Z" id="Shape" fill="#D0D5DE" fill-rule="nonzero" class="tGuMHJqE_13"></path>
                                    <path d="M154.2238,0.864324324 L3.7762,0.864324324 C1.6906,0.864324324 0,2.55783784 0,4.64486486 L0,95.427027 L158,95.427027 L158,4.64486486 C158,2.55783784 156.3094,0.864324324 154.2238,0.864324324 Z M79.0632,3.23418919 C79.4037778,3.23418919 79.6811556,3.51175676 79.6811556,3.85256757 C79.6811556,4.19337838 79.4037778,4.47094595 79.0632,4.47094595 C78.7226222,4.47094595 78.4452444,4.19337838 78.4452444,3.85256757 C78.4452444,3.51175676 78.7226222,3.23418919 79.0632,3.23418919 Z M151.846778,89.6209459 L5.83546667,89.6209459 L5.83546667,6.78986486 L151.845022,6.78986486 L151.845022,89.6209459 L151.846778,89.6209459 Z" id="Shape" fill="#D0D5DE" fill-rule="nonzero" class="tGuMHJqE_14"></path>
                                    <path id="Oval" fill="#D0D5DE" fill-rule="nonzero" d="M78.0632,3.85256757A1,1 0,1,1 80.0632,3.85256757A1,1 0,1,1 78.0632,3.85256757" class="tGuMHJqE_15"></path>
                                    <path id="Oval" fill="#D0D5DE" fill-rule="nonzero" opacity="0.25" d="M78.0632,3.85256757A1,1 0,1,1 80.0632,3.85256757A1,1 0,1,1 78.0632,3.85256757" class="tGuMHJqE_16"></path>
                                </g>
                            </g>
                        </g>
                    </g>
                </g>
                <path d="M67,46 L127,46" id="Line-3" stroke="#00CE5B" stroke-width="4" stroke-linecap="square" class="tGuMHJqE_17"></path>
                <path d="M67,56 L127,56" id="Line-3" stroke="#00CE5B" stroke-width="4" stroke-linecap="square" class="tGuMHJqE_18"></path>
                <path d="M67,66 L127,66" id="Line-3" stroke="#00CE5B" stroke-width="4" stroke-linecap="square" class="tGuMHJqE_19"></path>
                <path d="M64,31 L130,31 L130,80 L64,80 L64,31 Z M70,48 C71.1045695,48 72,47.1045695 72,46 C72,44.8954305 71.1045695,44 70,44 C68.8954305,44 68,44.8954305 68,46 C68,47.1045695 68.8954305,48 70,48 Z M76.625,48 C77.7295695,48 78.625,47.1045695 78.625,46 C78.625,44.8954305 77.7295695,44 76.625,44 C75.5204305,44 74.625,44.8954305 74.625,46 C74.625,47.1045695 75.5204305,48 76.625,48 Z M83.25,48 C84.3545695,48 85.25,47.1045695 85.25,46 C85.25,44.8954305 84.3545695,44 83.25,44 C82.1454305,44 81.25,44.8954305 81.25,46 C81.25,47.1045695 82.1454305,48 83.25,48 Z M89.875,48 C90.9795695,48 91.875,47.1045695 91.875,46 C91.875,44.8954305 90.9795695,44 89.875,44 C88.7704305,44 87.875,44.8954305 87.875,46 C87.875,47.1045695 88.7704305,48 89.875,48 Z M96.5,48 C97.6045695,48 98.5,47.1045695 98.5,46 C98.5,44.8954305 97.6045695,44 96.5,44 C95.3954305,44 94.5,44.8954305 94.5,46 C94.5,47.1045695 95.3954305,48 96.5,48 Z M103.125,48 C104.229569,48 105.125,47.1045695 105.125,46 C105.125,44.8954305 104.229569,44 103.125,44 C102.020431,44 101.125,44.8954305 101.125,46 C101.125,47.1045695 102.020431,48 103.125,48 Z M109.75,48 C110.854569,48 111.75,47.1045695 111.75,46 C111.75,44.8954305 110.854569,44 109.75,44 C108.645431,44 107.75,44.8954305 107.75,46 C107.75,47.1045695 108.645431,48 109.75,48 Z M116.375,48 C117.479569,48 118.375,47.1045695 118.375,46 C118.375,44.8954305 117.479569,44 116.375,44 C115.270431,44 114.375,44.8954305 114.375,46 C114.375,47.1045695 115.270431,48 116.375,48 Z M123,48 C124.104569,48 125,47.1045695 125,46 C125,44.8954305 124.104569,44 123,44 C121.895431,44 121,44.8954305 121,46 C121,47.1045695 121.895431,48 123,48 Z M70,58 C71.1045695,58 72,57.1045695 72,56 C72,54.8954305 71.1045695,54 70,54 C68.8954305,54 68,54.8954305 68,56 C68,57.1045695 68.8954305,58 70,58 Z M76.625,58 C77.7295695,58 78.625,57.1045695 78.625,56 C78.625,54.8954305 77.7295695,54 76.625,54 C75.5204305,54 74.625,54.8954305 74.625,56 C74.625,57.1045695 75.5204305,58 76.625,58 Z M83.25,58 C84.3545695,58 85.25,57.1045695 85.25,56 C85.25,54.8954305 84.3545695,54 83.25,54 C82.1454305,54 81.25,54.8954305 81.25,56 C81.25,57.1045695 82.1454305,58 83.25,58 Z M89.875,58 C90.9795695,58 91.875,57.1045695 91.875,56 C91.875,54.8954305 90.9795695,54 89.875,54 C88.7704305,54 87.875,54.8954305 87.875,56 C87.875,57.1045695 88.7704305,58 89.875,58 Z M96.5,58 C97.6045695,58 98.5,57.1045695 98.5,56 C98.5,54.8954305 97.6045695,54 96.5,54 C95.3954305,54 94.5,54.8954305 94.5,56 C94.5,57.1045695 95.3954305,58 96.5,58 Z M103.125,58 C104.229569,58 105.125,57.1045695 105.125,56 C105.125,54.8954305 104.229569,54 103.125,54 C102.020431,54 101.125,54.8954305 101.125,56 C101.125,57.1045695 102.020431,58 103.125,58 Z M109.75,58 C110.854569,58 111.75,57.1045695 111.75,56 C111.75,54.8954305 110.854569,54 109.75,54 C108.645431,54 107.75,54.8954305 107.75,56 C107.75,57.1045695 108.645431,58 109.75,58 Z M116.375,58 C117.479569,58 118.375,57.1045695 118.375,56 C118.375,54.8954305 117.479569,54 116.375,54 C115.270431,54 114.375,54.8954305 114.375,56 C114.375,57.1045695 115.270431,58 116.375,58 Z M123,58 C124.104569,58 125,57.1045695 125,56 C125,54.8954305 124.104569,54 123,54 C121.895431,54 121,54.8954305 121,56 C121,57.1045695 121.895431,58 123,58 Z M70,68 C71.1045695,68 72,67.1045695 72,66 C72,64.8954305 71.1045695,64 70,64 C68.8954305,64 68,64.8954305 68,66 C68,67.1045695 68.8954305,68 70,68 Z M76.625,68 C77.7295695,68 78.625,67.1045695 78.625,66 C78.625,64.8954305 77.7295695,64 76.625,64 C75.5204305,64 74.625,64.8954305 74.625,66 C74.625,67.1045695 75.5204305,68 76.625,68 Z M83.25,68 C84.3545695,68 85.25,67.1045695 85.25,66 C85.25,64.8954305 84.3545695,64 83.25,64 C82.1454305,64 81.25,64.8954305 81.25,66 C81.25,67.1045695 82.1454305,68 83.25,68 Z M89.875,68 C90.9795695,68 91.875,67.1045695 91.875,66 C91.875,64.8954305 90.9795695,64 89.875,64 C88.7704305,64 87.875,64.8954305 87.875,66 C87.875,67.1045695 88.7704305,68 89.875,68 Z M96.5,68 C97.6045695,68 98.5,67.1045695 98.5,66 C98.5,64.8954305 97.6045695,64 96.5,64 C95.3954305,64 94.5,64.8954305 94.5,66 C94.5,67.1045695 95.3954305,68 96.5,68 Z M103.125,68 C104.229569,68 105.125,67.1045695 105.125,66 C105.125,64.8954305 104.229569,64 103.125,64 C102.020431,64 101.125,64.8954305 101.125,66 C101.125,67.1045695 102.020431,68 103.125,68 Z M109.75,68 C110.854569,68 111.75,67.1045695 111.75,66 C111.75,64.8954305 110.854569,64 109.75,64 C108.645431,64 107.75,64.8954305 107.75,66 C107.75,67.1045695 108.645431,68 109.75,68 Z M116.375,68 C117.479569,68 118.375,67.1045695 118.375,66 C118.375,64.8954305 117.479569,64 116.375,64 C115.270431,64 114.375,64.8954305 114.375,66 C114.375,67.1045695 115.270431,68 116.375,68 Z M123,68 C124.104569,68 125,67.1045695 125,66 C125,64.8954305 124.104569,64 123,64 C121.895431,64 121,64.8954305 121,66 C121,67.1045695 121.895431,68 123,68 Z" id="Combined-Shape" fill="#FFFFFF" class="tGuMHJqE_20"></path>
            </g>
        </g>
    </g>
<style>.tGuMHJqE_0{stroke-dasharray:873 875;stroke-dashoffset:874;animation:tGuMHJqE_draw_0 1100ms linear 0ms infinite,tGuMHJqE_fade 1100ms linear 0ms infinite;}.tGuMHJqE_1{stroke-dasharray:17 19;stroke-dashoffset:18;animation:tGuMHJqE_draw_1 1100ms linear 0ms infinite,tGuMHJqE_fade 1100ms linear 0ms infinite;}.tGuMHJqE_2{stroke-dasharray:17 19;stroke-dashoffset:18;animation:tGuMHJqE_draw_2 1100ms linear 0ms infinite,tGuMHJqE_fade 1100ms linear 0ms infinite;}.tGuMHJqE_3{stroke-dasharray:17 19;stroke-dashoffset:18;animation:tGuMHJqE_draw_3 1100ms linear 0ms infinite,tGuMHJqE_fade 1100ms linear 0ms infinite;}.tGuMHJqE_4{stroke-dasharray:17 19;stroke-dashoffset:18;animation:tGuMHJqE_draw_4 1100ms linear 0ms infinite,tGuMHJqE_fade 1100ms linear 0ms infinite;}.tGuMHJqE_5{stroke-dasharray:17 19;stroke-dashoffset:18;animation:tGuMHJqE_draw_5 1100ms linear 0ms infinite,tGuMHJqE_fade 1100ms linear 0ms infinite;}.tGuMHJqE_6{stroke-dasharray:17 19;stroke-dashoffset:18;animation:tGuMHJqE_draw_6 1100ms linear 0ms infinite,tGuMHJqE_fade 1100ms linear 0ms infinite;}.tGuMHJqE_7{stroke-dasharray:1 3;stroke-dashoffset:2;animation:tGuMHJqE_draw_7 1100ms linear 0ms infinite,tGuMHJqE_fade 1100ms linear 0ms infinite;}.tGuMHJqE_8{stroke-dasharray:1 3;stroke-dashoffset:2;animation:tGuMHJqE_draw_8 1100ms linear 0ms infinite,tGuMHJqE_fade 1100ms linear 0ms infinite;}.tGuMHJqE_9{stroke-dasharray:1 3;stroke-dashoffset:2;animation:tGuMHJqE_draw_9 1100ms linear 0ms infinite,tGuMHJqE_fade 1100ms linear 0ms infinite;}.tGuMHJqE_10{stroke-dasharray:1 3;stroke-dashoffset:2;animation:tGuMHJqE_draw_10 1100ms linear 0ms infinite,tGuMHJqE_fade 1100ms linear 0ms infinite;}.tGuMHJqE_11{stroke-dasharray:1 3;stroke-dashoffset:2;animation:tGuMHJqE_draw_11 1100ms linear 0ms infinite,tGuMHJqE_fade 1100ms linear 0ms infinite;}.tGuMHJqE_12{stroke-dasharray:1 3;stroke-dashoffset:2;animation:tGuMHJqE_draw_12 1100ms linear 0ms infinite,tGuMHJqE_fade 1100ms linear 0ms infinite;}.tGuMHJqE_13{stroke-dasharray:404 406;stroke-dashoffset:405;animation:tGuMHJqE_draw_13 1100ms linear 0ms infinite,tGuMHJqE_fade 1100ms linear 0ms infinite;}.tGuMHJqE_14{stroke-dasharray:964 966;stroke-dashoffset:965;animation:tGuMHJqE_draw_14 1100ms linear 0ms infinite,tGuMHJqE_fade 1100ms linear 0ms infinite;}.tGuMHJqE_15{stroke-dasharray:7 9;stroke-dashoffset:8;animation:tGuMHJqE_draw_15 1100ms linear 0ms infinite,tGuMHJqE_fade 1100ms linear 0ms infinite;}.tGuMHJqE_16{stroke-dasharray:7 9;stroke-dashoffset:8;animation:tGuMHJqE_draw_16 1100ms linear 0ms infinite,tGuMHJqE_fade 1100ms linear 0ms infinite;}.tGuMHJqE_17{stroke-dasharray:60 62;stroke-dashoffset:61;animation:tGuMHJqE_draw_17 1100ms linear 0ms infinite,tGuMHJqE_fade 1100ms linear 0ms infinite;}.tGuMHJqE_18{stroke-dasharray:60 62;stroke-dashoffset:61;animation:tGuMHJqE_draw_18 1100ms linear 0ms infinite,tGuMHJqE_fade 1100ms linear 0ms infinite;}.tGuMHJqE_19{stroke-dasharray:60 62;stroke-dashoffset:61;animation:tGuMHJqE_draw_19 1100ms linear 0ms infinite,tGuMHJqE_fade 1100ms linear 0ms infinite;}.tGuMHJqE_20{stroke-dasharray:570 572;stroke-dashoffset:571;animation:tGuMHJqE_draw_20 1100ms linear 0ms infinite,tGuMHJqE_fade 1100ms linear 0ms infinite;}@keyframes tGuMHJqE_draw{100%{stroke-dashoffset:0;}}@keyframes tGuMHJqE_fade{0%{stroke-opacity:1;}63.63636363636363%{stroke-opacity:1;}100%{stroke-opacity:0;}}@keyframes tGuMHJqE_draw_0{18.181818181818183%{stroke-dashoffset: 874}48.484848484848484%{ stroke-dashoffset: 0;}100%{ stroke-dashoffset: 0;}}@keyframes tGuMHJqE_draw_1{18.939393939393938%{stroke-dashoffset: 18}49.24242424242425%{ stroke-dashoffset: 0;}100%{ stroke-dashoffset: 0;}}@keyframes tGuMHJqE_draw_2{19.696969696969695%{stroke-dashoffset: 18}50%{ stroke-dashoffset: 0;}100%{ stroke-dashoffset: 0;}}@keyframes tGuMHJqE_draw_3{20.454545454545457%{stroke-dashoffset: 18}50.75757575757576%{ stroke-dashoffset: 0;}100%{ stroke-dashoffset: 0;}}@keyframes tGuMHJqE_draw_4{21.21212121212121%{stroke-dashoffset: 18}51.51515151515152%{ stroke-dashoffset: 0;}100%{ stroke-dashoffset: 0;}}@keyframes tGuMHJqE_draw_5{21.96969696969697%{stroke-dashoffset: 18}52.27272727272727%{ stroke-dashoffset: 0;}100%{ stroke-dashoffset: 0;}}@keyframes tGuMHJqE_draw_6{22.727272727272727%{stroke-dashoffset: 18}53.03030303030304%{ stroke-dashoffset: 0;}100%{ stroke-dashoffset: 0;}}@keyframes tGuMHJqE_draw_7{23.484848484848484%{stroke-dashoffset: 2}53.787878787878796%{ stroke-dashoffset: 0;}100%{ stroke-dashoffset: 0;}}@keyframes tGuMHJqE_draw_8{24.24242424242424%{stroke-dashoffset: 2}54.54545454545454%{ stroke-dashoffset: 0;}100%{ stroke-dashoffset: 0;}}@keyframes tGuMHJqE_draw_9{25%{stroke-dashoffset: 2}55.30303030303031%{ stroke-dashoffset: 0;}100%{ stroke-dashoffset: 0;}}@keyframes tGuMHJqE_draw_10{25.757575757575758%{stroke-dashoffset: 2}56.06060606060607%{ stroke-dashoffset: 0;}100%{ stroke-dashoffset: 0;}}@keyframes tGuMHJqE_draw_11{26.515151515151516%{stroke-dashoffset: 2}56.81818181818182%{ stroke-dashoffset: 0;}100%{ stroke-dashoffset: 0;}}@keyframes tGuMHJqE_draw_12{27.27272727272727%{stroke-dashoffset: 2}57.57575757575758%{ stroke-dashoffset: 0;}100%{ stroke-dashoffset: 0;}}@keyframes tGuMHJqE_draw_13{28.030303030303028%{stroke-dashoffset: 405}58.333333333333336%{ stroke-dashoffset: 0;}100%{ stroke-dashoffset: 0;}}@keyframes tGuMHJqE_draw_14{28.787878787878785%{stroke-dashoffset: 965}59.09090909090909%{ stroke-dashoffset: 0;}100%{ stroke-dashoffset: 0;}}@keyframes tGuMHJqE_draw_15{29.545454545454547%{stroke-dashoffset: 8}59.84848484848485%{ stroke-dashoffset: 0;}100%{ stroke-dashoffset: 0;}}@keyframes tGuMHJqE_draw_16{30.303030303030305%{stroke-dashoffset: 8}60.60606060606061%{ stroke-dashoffset: 0;}100%{ stroke-dashoffset: 0;}}@keyframes tGuMHJqE_draw_17{31.060606060606055%{stroke-dashoffset: 61}61.36363636363637%{ stroke-dashoffset: 0;}100%{ stroke-dashoffset: 0;}}@keyframes tGuMHJqE_draw_18{31.818181818181817%{stroke-dashoffset: 61}62.121212121212125%{ stroke-dashoffset: 0;}100%{ stroke-dashoffset: 0;}}@keyframes tGuMHJqE_draw_19{32.57575757575758%{stroke-dashoffset: 61}62.87878787878789%{ stroke-dashoffset: 0;}100%{ stroke-dashoffset: 0;}}@keyframes tGuMHJqE_draw_20{33.33333333333333%{stroke-dashoffset: 571}63.63636363636363%{ stroke-dashoffset: 0;}100%{ stroke-dashoffset: 0;}}</style></svg>