<?xml version="1.0" encoding="UTF-8"?>
<svg width="19px" height="19px" viewBox="0 0 19 19" version="1.1" xmlns="http://www.w3.org/2000/svg" xmlns:xlink="http://www.w3.org/1999/xlink">
    <!-- Generator: Sketch 46.2 (44496) - http://www.bohemiancoding.com/sketch -->
    <title>Group 2</title>
    <desc>Created with Sketch.</desc>
    <defs></defs>
    <g id="Page-2" stroke="none" stroke-width="1" fill="none" fill-rule="evenodd">
        <g id="Desktop-Copy-15" transform="translate(-798.000000, -564.000000)">
            <g id="Group-2" transform="translate(798.000000, 564.000000)">
                <circle id="Oval-3" fill="#30D679" cx="9.5" cy="9.5" r="9.5"></circle>
                <g id="noun_655321_cc-(1)" transform="translate(5.000000, 3.000000)" fill-rule="nonzero" fill="#06602E">
                    <g id="Group">
                        <path d="M7.22369685,0.0456372259 C7.10300915,0.050436625 6.98898435,0.102628523 6.90603718,0.191037713 L0.129297442,7.32535494 C0.00286082176,7.45989162 -0.0322952705,7.65713008 0.0397858566,7.82754748 C0.111866984,7.99796489 0.277456408,8.10910271 0.461396193,8.11051757 L3.19038158,8.11051757 L1.55876598,13.4030953 C1.49866065,13.6084334 1.58543116,13.8285731 1.76901709,13.9365095 C1.95260302,14.0444459 2.18563209,14.0123271 2.33366307,13.8586835 L9.1104028,6.72436626 C9.23683942,6.58982958 9.27199551,6.39259112 9.19991438,6.22217372 C9.12783326,6.05175631 8.96224383,5.94061849 8.77830405,5.93920363 L6.04931866,5.93920363 L7.68093426,0.646625905 C7.72450461,0.502963229 7.69652625,0.346956302 7.60580663,0.227715262 C7.51508701,0.108474222 7.37278513,0.0406663605 7.22369685,0.0456372259 Z M6.21296152,2.26057131 L4.976014,6.26877807 C4.93328481,6.40995583 4.95959792,6.56317504 5.04692778,6.68170363 C5.13425765,6.80023221 5.27224827,6.87001448 5.41881233,6.86976675 L7.70018636,6.86976675 L3.02673872,11.7891499 L4.26368624,7.78094313 C4.30641543,7.63976537 4.28010233,7.48654616 4.19277246,7.36801757 C4.10544259,7.24948899 3.96745197,7.17970672 3.82088791,7.17995445 L1.53951388,7.17995445 L6.21296152,2.26057131 Z" id="Shape"></path>
                    </g>
                </g>
            </g>
        </g>
    </g>
</svg>