<?xml version="1.0" encoding="UTF-8"?>
<svg width="31px" height="33px" viewBox="0 0 31 33" version="1.1" xmlns="http://www.w3.org/2000/svg" xmlns:xlink="http://www.w3.org/1999/xlink" style="background: #000000;">
    <!-- Generator: Sketch 48.2 (47327) - http://www.bohemiancoding.com/sketch -->
    <title>UI/icons/platforms/javascript/black</title>
    <desc>Created with Sketch.</desc>
    <defs></defs>
    <g id="Symbols" stroke="none" stroke-width="1" fill="none" fill-rule="evenodd">
        <g id="UI/icons/platforms/javascript/black" fill="#FFFFFF" fill-rule="nonzero">
            <g id="javascript" transform="translate(8.000000, 15.000000)">
                <path d="M0.000118515007,11.4288839 L2.3218275,10.0430971 C2.76981423,10.8263425 3.17726882,11.4890796 4.15466208,11.4890796 C5.09152321,11.4890796 5.68232052,11.1276717 5.68232052,9.72178066 L5.68232052,0.160833556 L8.53343605,0.160833556 L8.53343605,9.76152151 C8.53343605,12.6739414 6.80240585,13.9996493 4.27685106,13.9996493 C1.99602975,13.9996493 0.672098604,12.834658 0,11.4286501 M10.0820716,11.1275548 L12.4035436,9.80196367 C13.0147255,10.786251 13.8090131,11.5093007 15.214127,11.5093007 C16.3956031,11.5093007 17.1488845,10.9267466 17.1488845,10.1232801 C17.1488845,9.15921387 16.3749815,8.81767633 15.0715534,8.25546019 L14.3589227,7.95389727 C12.3018577,7.09046888 10.9373944,6.00577745 10.9373944,3.71600321 C10.9373944,1.60693294 12.5666202,0 15.1124411,0 C16.9250096,0 18.2284377,0.62276249 19.1651803,2.24968274 L16.9451572,3.65580751 C16.4562828,2.79214534 15.9269948,2.45072469 15.1123226,2.45072469 C14.2772659,2.45072469 13.7477408,2.9729662 13.7477408,3.65580751 C13.7477408,4.49936548 14.2772659,4.8410199 15.4991556,5.36326142 L16.2119048,5.66447368 C18.6355367,6.68896941 20,7.73333556 20,10.0831886 C20,12.6142132 17.9838227,14 15.2751622,14 C12.6276555,14 10.9168914,12.7547088 10.0819531,11.1276717" id="Shape"></path>
            </g>
        </g>
    </g>
</svg>