<?xml version="1.0" encoding="UTF-8"?>
<svg width="31px" height="33px" viewBox="0 0 31 33" version="1.1" xmlns="http://www.w3.org/2000/svg" xmlns:xlink="http://www.w3.org/1999/xlink" style="background: #F7DF1E;">
    <!-- Generator: Sketch 48.2 (47327) - http://www.bohemiancoding.com/sketch -->
    <title>UI/icons/platforms/javascript/color</title>
    <desc>Created with Sketch.</desc>
    <defs></defs>
    <g id="Symbols" stroke="none" stroke-width="1" fill="none" fill-rule="evenodd">
        <g id="UI/icons/platforms/javascript/color" fill-rule="nonzero">
            <g id="javascript" transform="translate(0.000000, 1.000000)">
                <polygon id="Shape" fill="#F7DF1E" points="0 0 31 0 31 31 0 31"></polygon>
                <path d="M8.00011852,25.4288839 L10.3218275,24.0430971 C10.7698142,24.8263425 11.1772688,25.4890796 12.1546621,25.4890796 C13.0915232,25.4890796 13.6823205,25.1276717 13.6823205,23.7217807 L13.6823205,14.1608336 L16.533436,14.1608336 L16.533436,23.7615215 C16.533436,26.6739414 14.8024059,27.9996493 12.2768511,27.9996493 C9.99602975,27.9996493 8.6720986,26.834658 8,25.4286501 M18.0820716,25.1275548 L20.4035436,23.8019637 C21.0147255,24.786251 21.8090131,25.5093007 23.214127,25.5093007 C24.3956031,25.5093007 25.1488845,24.9267466 25.1488845,24.1232801 C25.1488845,23.1592139 24.3749815,22.8176763 23.0715534,22.2554602 L22.3589227,21.9538973 C20.3018577,21.0904689 18.9373944,20.0057775 18.9373944,17.7160032 C18.9373944,15.6069329 20.5666202,14 23.1124411,14 C24.9250096,14 26.2284377,14.6227625 27.1651803,16.2496827 L24.9451572,17.6558075 C24.4562828,16.7921453 23.9269948,16.4507247 23.1123226,16.4507247 C22.2772659,16.4507247 21.7477408,16.9729662 21.7477408,17.6558075 C21.7477408,18.4993655 22.2772659,18.8410199 23.4991556,19.3632614 L24.2119048,19.6644737 C26.6355367,20.6889694 28,21.7333356 28,24.0831886 C28,26.6142132 25.9838227,28 23.2751622,28 C20.6276555,28 18.9168914,26.7547088 18.0819531,25.1276717" id="Shape" fill="#000000"></path>
            </g>
        </g>
    </g>
</svg>