<svg xmlns="http://www.w3.org/2000/svg" width="43" height="39" viewBox="0 0 43 39">
    <g fill="#7A769B" fill-rule="nonzero">
        <path d="M42.158 5.381c0-2.972-2.4-5.381-5.36-5.381H5.536C2.575 0 .175 2.41.175 5.381v27.803c0 2.972 2.4 5.382 5.36 5.382h31.264c2.96 0 5.36-2.41 5.36-5.382V5.381zM5.535 1.794h31.264a3.58 3.58 0 0 1 3.573 3.587v.673H1.962V5.38a3.58 3.58 0 0 1 3.573-3.587zm31.264 34.978H5.535a3.58 3.58 0 0 1-3.573-3.588V7.848h38.41v25.336a3.58 3.58 0 0 1-3.573 3.588z"/>
        <path d="M34.789 12.78H23.176a2.909 2.909 0 0 0-2.903 2.915c0 1.61 1.3 2.915 2.903 2.915H34.79a2.909 2.909 0 0 0 2.903-2.915c0-1.61-1.3-2.915-2.903-2.915zm0 4.036H23.176a1.119 1.119 0 0 1-1.116-1.12c0-.62.5-1.122 1.116-1.122H34.79c.616 0 1.116.502 1.116 1.121 0 .62-.5 1.121-1.116 1.121zM14.856 11.991l-4.743 5.26-2.595-1.793a.891.891 0 0 0-1.2.262.9.9 0 0 0 .195 1.217l3.238 2.216a.89.89 0 0 0 1.143-.117l5.266-5.83a.905.905 0 0 0-.072-1.273.896.896 0 0 0-1.268.072l.036-.014zM34.789 25.337H23.176a2.909 2.909 0 0 0-2.903 2.915c0 1.61 1.3 2.914 2.903 2.914H34.79a2.909 2.909 0 0 0 2.903-2.914c0-1.61-1.3-2.915-2.903-2.915zm0 4.036H23.176a1.119 1.119 0 0 1-1.116-1.121c0-.62.5-1.122 1.116-1.122H34.79c.616 0 1.116.502 1.116 1.122 0 .619-.5 1.12-1.116 1.12zM15.463 23.888a.891.891 0 0 0-1.264 0l-3.082 3.095-3.086-3.1a.891.891 0 0 0-1.495.403.9.9 0 0 0 .231.867l3.086 3.099-3.086 3.098a.9.9 0 0 0 .4 1.502.891.891 0 0 0 .864-.233l3.086-3.098 3.087 3.098c.349.35.915.35 1.264 0a.9.9 0 0 0 0-1.269l-3.087-3.098 3.087-3.1a.9.9 0 0 0-.005-1.264z"/>
    </g>
</svg>
