<svg xmlns="http://www.w3.org/2000/svg" width="31" height="33" viewBox="0 0 31 33">
    <g fill="#A4C639" fill-rule="evenodd">
        <path d="M5.636 16.641v7.26c0 .558.397 1.133 1.004 1.133h2.52v4.213c0 1.078.941 1.945 2.113 1.945 1.171 0 2.113-.867 2.113-1.945v-4.213h4.316v4.213c0 .608.3 1.15.775 1.507.343.276.801.438 1.294.438h.044c1.172 0 2.114-.867 2.114-1.945v-4.213h2.43c.617 0 1.005-.575 1.005-1.126V10.451H5.636v6.19zM28.886 9.155c-1.17 0-2.113.867-2.113 1.944v7.778c0 1.078.942 1.944 2.113 1.944 1.172 0 2.114-.866 2.114-1.944V11.1c0-1.077-.942-1.944-2.114-1.944zM2.114 9.155C.942 9.155 0 10.022 0 11.099v7.778c0 1.078.942 1.944 2.114 1.944 1.17 0 2.113-.866 2.113-1.944V11.1c0-1.077-.942-1.944-2.113-1.944zM20.361 2.115L21.991.34c.035-.04-.018-.13-.115-.202-.097-.065-.211-.081-.238-.033l-1.69 1.848c-1.198-.438-2.66-.713-4.457-.713-1.805-.009-3.276.259-4.474.688L9.344.113c-.035-.04-.14-.032-.238.033-.097.065-.15.146-.114.202l1.611 1.75C6.36 3.792 5.724 7.948 5.636 9.163h19.692c-.079-1.223-.704-5.323-4.967-7.048zm-9.194 4.034c-.652 0-1.189-.486-1.189-1.077 0-.592.529-1.078 1.189-1.078.652 0 1.189.486 1.189 1.078 0 .591-.528 1.077-1.189 1.077zm8.666 0c-.652 0-1.189-.486-1.189-1.077 0-.592.528-1.078 1.189-1.078.652 0 1.189.486 1.189 1.078 0 .591-.537 1.077-1.189 1.077z"/>
    </g>
</svg>
