<svg xmlns="http://www.w3.org/2000/svg" width="31" height="33" viewBox="0 0 31 33">
    <path fill="#444" fill-rule="nonzero" d="M28.182 31.591h-5.02l.352-4.227h-2.466l-.352 4.227H10.304l-.352-4.227H7.486l.352 4.227h-5.02L0 13.273 7.045 2h16.91L31 13.273 28.182 31.59zM22.545 7.636h-4.529l.302 2.114h-5.636l.302-2.114h-4.53l-2.818 5.637 1.41 11.272h16.909l1.409-11.272-2.819-5.637zM20.08 20.804c-.39 0-.705-1.173-.705-2.62 0-1.448.315-2.622.705-2.622.389 0 .704 1.174.704 2.621 0 1.448-.315 2.621-.704 2.621zm-8.895.219c-.39 0-.705-1.174-.705-2.621 0-1.448.316-2.621.705-2.621.389 0 .704 1.173.704 2.62 0 1.448-.315 2.622-.704 2.622z"/>
</svg>
