<svg xmlns="http://www.w3.org/2000/svg" width="55" height="21" viewBox="0 0 55 21">
    <g fill="#7A769B" fill-rule="nonzero">
        <path d="M46.314 8.596C45.56 3.712 41.537 0 36.635 0h-3.457c-.88 0-1.571.716-1.571 1.628V18.82c0 .912.691 1.628 1.571 1.628h3.394c4.903 0 8.988-3.712 9.68-8.596h6.536c.88 0 1.572-.716 1.572-1.628 0-.912-.692-1.628-1.572-1.628h-6.474zm-9.805 8.596h-1.885V3.19h1.885c3.709.065 6.726 3.19 6.726 7.033.125 3.842-3.017 6.968-6.726 6.968zM27.469 7.554c.901 0 1.61-.716 1.61-1.628 0-.912-.709-1.628-1.61-1.628h-3.734v-2.67c0-.912-.709-1.628-1.61-1.628h-3.477c-5.022 0-9.207 3.712-9.915 8.596H2.037c-.902 0-1.61.716-1.61 1.628 0 .912.708 1.628 1.61 1.628h6.631c.773 4.884 4.894 8.596 9.916 8.596h3.541c.901 0 1.61-.716 1.61-1.628v-2.67h3.734c.901 0 1.61-.716 1.61-1.628 0-.912-.709-1.628-1.61-1.628h-3.734v-5.34h3.734zm-6.825 9.703h-1.931c-3.8 0-6.89-3.126-6.89-6.968s3.09-6.968 6.89-6.968h1.931v13.936z"/>
    </g>
</svg>
