<?xml version="1.0" encoding="UTF-8"?>
<svg width="96px" height="90px" viewBox="0 0 96 90" version="1.1" xmlns="http://www.w3.org/2000/svg" xmlns:xlink="http://www.w3.org/1999/xlink">
    <!-- Generator: Sketch 48.2 (47327) - http://www.bohemiancoding.com/sketch -->
    <title>Shape</title>
    <desc>Created with Sketch.</desc>
    <defs></defs>
    <g id="Current-designs" stroke="none" stroke-width="1" fill="none" fill-rule="evenodd">
        <g id="noun_1067013_cc" fill="#FC5F5B" fill-rule="nonzero">
            <path d="M81.733,61.856 C81.18,61.856 80.637,61.898 80.101,61.96 L70.615,16.58 C72.091,16.003 73.001,14.439 72.693,12.825 L72.223,10.368 C72.221,10.358 72.216,10.349 72.214,10.34 L74.045,9.029 L75.954,8.634 C76.665,9.934 78.034,10.793 79.59,10.793 C79.824,10.793 80.062,10.773 80.3,10.731 L92.029,8.689 C93.119,8.5 94.071,7.895 94.711,6.986 C95.351,6.077 95.598,4.976 95.407,3.887 C95.02,1.663 92.9,0.11 90.606,0.51 L78.877,2.554 C77.787,2.743 76.835,3.348 76.196,4.257 C75.894,4.686 75.687,5.159 75.565,5.653 L72.817,6.22 L70.364,7.975 C69.743,7.676 69.027,7.556 68.291,7.698 L66.478,8.044 C65.602,8.211 64.876,8.711 64.391,9.384 L61.189,8.877 L58.465,9.603 C57.69,8.702 56.55,8.136 55.318,8.136 C54.916,8.136 54.515,8.195 54.129,8.311 L42.727,11.736 C41.668,12.054 40.794,12.768 40.268,13.746 C39.742,14.724 39.627,15.847 39.946,16.906 C40.469,18.646 42.106,19.863 43.926,19.863 C44.328,19.863 44.729,19.803 45.115,19.687 L56.517,16.263 C58.257,15.74 59.384,14.168 59.453,12.444 L61.348,11.939 L63.877,12.339 L64.277,14.432 C64.58,16.014 65.968,17.162 67.58,17.162 C67.61,17.162 67.642,17.154 67.672,17.153 L73.488,44.976 L53.683,72.699 L33.658,72.699 C32.584,62.974 24.325,55.385 14.319,55.385 C9.124,55.385 4.057,57.513 0.42,61.224 L2.563,63.324 C5.64,60.186 9.925,58.386 14.32,58.386 C22.662,58.386 29.557,64.627 30.625,72.7 L27.877,72.7 C26.492,66.433 20.901,61.857 14.359,61.857 C6.723,61.857 0.511,68.069 0.511,75.704 C0.511,83.34 6.723,89.552 14.359,89.552 C20.081,89.552 25.24,85.96 27.28,80.691 L60.306,80.691 C63.427,80.691 65.967,78.152 65.967,75.03 L65.967,72.701 L65.193,72.701 L76.146,57.694 L77.18,62.643 C71.778,64.533 67.886,69.666 67.886,75.705 C67.886,83.341 74.098,89.553 81.734,89.553 C89.369,89.553 95.581,83.341 95.581,75.705 C95.58,68.068 89.368,61.856 81.733,61.856 Z M78.649,5.983 C78.828,5.73 79.09,5.562 79.39,5.509 L91.12,3.467 C91.186,3.456 91.252,3.45 91.316,3.45 C91.869,3.45 92.357,3.86 92.452,4.405 C92.505,4.705 92.435,5.009 92.257,5.262 C92.079,5.515 91.816,5.684 91.516,5.736 L79.787,7.778 C79.721,7.789 79.655,7.795 79.591,7.795 C79.038,7.795 78.55,7.385 78.455,6.84 C78.402,6.54 78.472,6.236 78.649,5.983 Z M55.653,13.391 L44.251,16.815 C43.65,16.996 42.994,16.63 42.817,16.044 C42.729,15.752 42.761,15.441 42.909,15.169 C43.055,14.897 43.297,14.698 43.589,14.61 L54.991,11.185 C55.097,11.153 55.207,11.137 55.317,11.137 C55.824,11.137 56.279,11.474 56.424,11.956 C56.607,12.564 56.261,13.208 55.653,13.391 Z M67.224,13.87 L66.754,11.414 C66.717,11.222 66.849,11.028 67.041,10.991 L68.921,10.638 C69.067,10.638 69.24,10.741 69.276,10.931 L69.746,13.386 C69.783,13.579 69.651,13.773 69.459,13.81 L68.543,13.985 C68.542,13.985 68.542,13.985 68.541,13.985 C68.54,13.985 68.54,13.985 68.54,13.985 L67.645,14.156 C67.471,14.187 67.265,14.089 67.224,13.87 Z M14.358,86.551 C8.377,86.551 3.51,81.685 3.51,75.703 C3.51,69.723 8.376,64.856 14.358,64.856 C19.254,64.856 23.472,68.127 24.784,72.699 L22.239,72.699 C21.007,69.489 17.87,67.263 14.358,67.263 C9.704,67.263 5.918,71.049 5.918,75.702 C5.918,80.356 9.704,84.142 14.358,84.142 C17.05,84.142 19.574,82.833 21.153,80.688 L23.992,80.688 C22.153,84.221 18.438,86.551 14.358,86.551 Z M13.624,74.045 C13.174,74.686 12.981,75.439 13.061,76.189 C13.088,76.439 13.146,76.689 13.234,76.934 C13.325,77.189 13.438,77.43 13.563,77.664 C13.601,77.736 13.644,77.805 13.685,77.876 C13.78,78.038 13.881,78.194 13.991,78.346 C14.043,78.415 14.093,78.485 14.147,78.552 C14.274,78.711 14.411,78.863 14.554,79.007 C14.595,79.047 14.631,79.092 14.673,79.132 C14.86,79.309 15.058,79.471 15.266,79.62 C15.324,79.661 15.384,79.696 15.444,79.735 C15.602,79.839 15.764,79.938 15.933,80.027 C16.011,80.068 16.089,80.107 16.169,80.145 C16.338,80.224 16.512,80.294 16.689,80.357 C16.76,80.382 16.831,80.411 16.903,80.433 C16.931,80.442 16.958,80.454 16.986,80.462 C16.192,80.901 15.29,81.143 14.358,81.143 C11.358,81.143 8.918,78.703 8.918,75.703 C8.918,72.703 11.358,70.264 14.358,70.264 C16.209,70.264 17.9,71.221 18.889,72.7 L16.213,72.7 C15.168,72.699 14.225,73.189 13.624,74.045 Z M60.306,77.689 L28.21,77.689 L22.969,77.689 L18.565,77.689 C17.445,77.689 16.438,76.978 16.058,75.919 C16.035,75.853 16.037,75.827 16.079,75.767 C16.119,75.71 16.143,75.699 16.214,75.699 L23.003,75.699 L28.308,75.699 L62.881,75.699 C62.583,76.843 61.542,77.689 60.306,77.689 Z M61.479,72.699 L57.37,72.699 L74.322,48.97 L75.318,53.736 L61.479,72.699 Z M81.733,86.551 C75.752,86.551 70.885,81.685 70.885,75.703 C70.885,71.111 73.759,67.185 77.799,65.605 L78.3,68 C75.354,69.318 73.293,72.273 73.293,75.703 C73.293,80.357 77.079,84.143 81.733,84.143 C86.387,84.143 90.173,80.357 90.173,75.703 C90.173,71.05 86.387,67.264 81.733,67.264 C81.558,67.264 81.387,67.28 81.215,67.289 L80.717,64.908 C81.052,64.877 81.39,64.856 81.733,64.856 C87.713,64.856 92.58,69.722 92.58,75.703 C92.58,81.685 87.714,86.551 81.733,86.551 Z M80.383,77.965 C80.53,78.672 81.154,79.158 81.849,79.158 C81.952,79.158 82.054,79.146 82.158,79.125 C82.97,78.956 83.489,78.161 83.319,77.35 L81.839,70.269 C84.79,70.326 87.175,72.74 87.175,75.704 C87.175,78.704 84.735,81.144 81.735,81.144 C78.735,81.144 76.295,78.704 76.295,75.704 C76.295,73.727 77.358,71.999 78.939,71.047 L80.383,77.965 Z" id="Shape"></path>
        </g>
    </g>
</svg>