<?xml version="1.0" encoding="UTF-8"?>
<svg width="196px" height="196px" viewBox="0 0 196 196" version="1.1" xmlns="http://www.w3.org/2000/svg" xmlns:xlink="http://www.w3.org/1999/xlink">
    <!-- Generator: Sketch 48.2 (47327) - http://www.bohemiancoding.com/sketch -->
    <title>noun_1183067_cc</title>
    <desc>Created with Sketch.</desc>
    <defs></defs>
    <g id="Artboard-Copy" stroke="none" stroke-width="1" fill="none" fill-rule="evenodd" transform="translate(-151.000000, -137.000000)">
        <g id="noun_1183067_cc" transform="translate(151.000000, 137.000000)">
            <g id="Group">
                <path d="M35.089475,131.42375 L36.787925,152.72975 C37.0844,156.46835 40.013975,159.397925 43.752575,159.6944 L65.058575,161.39285 C69.5057,161.749625 73.651325,163.46315 77.0432,166.35755 L93.31415,180.221525 C96.16835,182.653625 100.30895,182.653625 103.168175,180.221525 L119.4341,166.35755 C122.831,163.46315 126.976625,161.749625 131.418725,161.39285 L152.724725,159.6944 C156.463325,159.397925 159.3929,156.46835 159.689375,152.72975 L161.387825,131.42375 C161.7446,126.976625 163.458125,122.831 166.352525,119.439125 L180.2165,103.168175 C182.6486,100.313975 182.6486,96.173375 180.2165,93.319175 L166.352525,77.048225 C163.458125,73.651325 161.7446,69.510725 161.387825,65.0636 L159.689375,43.7576 C159.3929,40.019 156.463325,37.089425 152.724725,36.79295 L131.418725,35.0945 C126.9716,34.737725 122.825975,33.0242 119.4341,30.1298 L103.16315,16.265825 C100.30895,13.833725 96.163325,13.833725 93.309125,16.265825 L77.038175,30.1298 C73.641275,33.0242 69.49565,34.737725 65.05355,35.0945 L43.74755,36.79295 C40.00895,37.089425 37.079375,40.019 36.7829,43.7576 L35.08445,65.0636 C34.727675,69.510725 33.01415,73.65635 30.11975,77.048225 L16.255775,93.319175 C13.823675,96.173375 13.823675,100.313975 16.255775,103.168175 L30.11975,119.439125 C33.01415,122.831 34.7327,126.976625 35.089475,131.42375 Z M49.611725,97.2437 L65.9078,80.947625 C68.535875,78.31955 72.8021,78.31955 75.430175,80.947625 L86.54045,92.0579 L121.057175,57.541175 C123.68525,54.9131 127.951475,54.9131 130.57955,57.541175 L146.875625,73.83725 C148.1369,75.098525 148.85045,76.81205 148.85045,78.60095 C148.85045,80.38985 148.141925,82.09835 146.875625,83.36465 L91.299125,138.936125 C90.03785,140.1974 88.324325,140.91095 86.535425,140.91095 C84.75155,140.91095 83.038025,140.202425 81.771725,138.936125 L49.601675,106.766075 C48.3404,105.5048 47.62685,103.791275 47.62685,102.002375 C47.6369,100.223525 48.345425,98.51 49.611725,97.2437 Z" id="Shape"></path>
                <path d="M132.58955,78.60095 L125.820875,71.832275 L91.30415,106.349 C88.676075,108.977075 84.40985,108.977075 81.781775,106.349 L70.6715,95.238725 L63.902825,102.0074 L86.545475,124.65005 L132.58955,78.60095 Z" id="Shape"></path>
                <path d="M21.662675,132.494075 L23.361125,153.800075 C24.19025,164.16665 32.315675,172.292075 42.68225,173.1212 L63.98825,174.81965 C65.591225,174.945275 67.08365,175.568375 68.30975,176.60855 L84.5807,190.472525 C88.5404,193.8443 93.389525,195.5327 98.243675,195.5327 C103.097825,195.5327 107.94695,193.8443 111.90665,190.472525 L128.172575,176.60855 C129.398675,175.56335 130.8911,174.945275 132.494075,174.81965 L153.800075,173.1212 C164.16665,172.292075 172.292075,164.16665 173.1212,153.800075 L174.81965,132.494075 C174.945275,130.8911 175.568375,129.398675 176.60855,128.172575 L190.472525,111.901625 C197.216075,103.98725 197.216075,92.495075 190.472525,84.575675 L176.60855,68.304725 C175.56335,67.078625 174.945275,65.5862 174.81965,63.983225 L173.1212,42.677225 C172.292075,32.31065 164.16665,24.1802 153.800075,23.3561 L132.494075,21.65765 C130.8911,21.532025 129.39365,20.908925 128.172575,19.86875 L111.901625,6.004775 C103.982225,-0.7438 92.495075,-0.7438 84.575675,6.004775 L68.30975,19.86875 C67.08365,20.91395 65.591225,21.532025 63.98825,21.65765 L42.68225,23.3561 C32.315675,24.185225 24.19025,32.31065 23.361125,42.677225 L21.662675,63.983225 C21.53705,65.5862 20.91395,67.078625 19.873775,68.304725 L6.0098,84.575675 C-0.73375,92.49005 -0.73375,103.982225 6.0098,111.901625 L19.873775,128.172575 C20.91395,129.398675 21.532025,130.8911 21.662675,132.494075 Z M16.255775,93.319175 L30.11975,77.048225 C33.01415,73.651325 34.727675,69.510725 35.08445,65.0636 L36.7829,43.7576 C37.079375,40.019 40.00895,37.089425 43.74755,36.79295 L65.05355,35.0945 C69.500675,34.737725 73.6463,33.0242 77.038175,30.1298 L93.309125,16.265825 C96.163325,13.833725 100.303925,13.833725 103.16315,16.265825 L119.4341,30.1298 C122.831,33.0242 126.9716,34.737725 131.418725,35.0945 L152.724725,36.79295 C156.463325,37.089425 159.3929,40.019 159.689375,43.7576 L161.387825,65.0636 C161.7446,69.510725 163.458125,73.65635 166.352525,77.048225 L180.2165,93.319175 C182.6486,96.173375 182.6486,100.313975 180.2165,103.168175 L166.352525,119.439125 C163.458125,122.836025 161.7446,126.98165 161.387825,131.42375 L159.689375,152.72975 C159.3929,156.46835 156.463325,159.397925 152.724725,159.6944 L131.418725,161.39285 C126.9716,161.749625 122.825975,163.46315 119.4341,166.35755 L103.168175,180.221525 C100.313975,182.653625 96.16835,182.653625 93.31415,180.221525 L77.0432,166.35755 C73.6463,163.46315 69.500675,161.749625 65.058575,161.39285 L43.752575,159.6944 C40.013975,159.397925 37.0844,156.46835 36.787925,152.72975 L35.089475,131.42375 C34.7327,126.976625 33.019175,122.831 30.124775,119.439125 L16.2608,103.168175 C13.823675,100.313975 13.823675,96.16835 16.255775,93.319175 Z" id="Shape" fill="#FFFFFF" fill-rule="nonzero"></path>
                <path d="M81.77675,138.936125 C83.038025,140.1974 84.75155,140.91095 86.54045,140.91095 C88.324325,140.91095 90.03785,140.202425 91.30415,138.936125 L146.88065,83.36465 C148.141925,82.103375 148.855475,80.38985 148.855475,78.60095 C148.855475,76.81205 148.14695,75.10355 146.88065,73.83725 L130.584575,57.541175 C127.9565,54.9131 123.690275,54.9131 121.0622,57.541175 L86.545475,92.0579 L75.4352,80.947625 C72.807125,78.31955 68.5409,78.31955 65.912825,80.947625 L49.61675,97.2437 C48.355475,98.504975 47.641925,100.2185 47.641925,102.0074 C47.641925,103.791275 48.35045,105.5048 49.61675,106.7711 L81.77675,138.936125 Z M70.666475,95.238725 L81.77675,106.349 C84.404825,108.977075 88.67105,108.977075 91.299125,106.349 L125.81585,71.832275 L132.584525,78.60095 L86.535425,124.65005 L63.892775,102.0074 L70.666475,95.238725 Z" id="Shape" fill="#FFFFFF" fill-rule="nonzero"></path>
            </g>
        </g>
    </g>
</svg>