<?xml version="1.0" encoding="UTF-8"?>
<svg width="112px" height="111px" viewBox="0 0 112 111" version="1.1" xmlns="http://www.w3.org/2000/svg" xmlns:xlink="http://www.w3.org/1999/xlink">
    <!-- Generator: Sketch 46.2 (44496) - http://www.bohemiancoding.com/sketch -->
    <title>green</title>
    <desc>Created with Sketch.</desc>
    <defs></defs>
    <g id="Page-2" stroke="none" stroke-width="1" fill="none" fill-rule="evenodd">
        <g id="Desktop-Copy-15" transform="translate(-267.000000, -250.000000)" stroke="#394456" stroke-width="2" fill="#FFFFFF">
            <g id="Group-10" transform="translate(122.000000, 105.000000)">
                <g id="platformCard" transform="translate(0.000000, 125.000000)">
                    <g id="logo" transform="translate(126.000000, 0.000000)">
                        <g id="green" transform="translate(75.306872, 75.404938) rotate(-45.000000) translate(-75.306872, -75.404938) translate(18.806872, 25.404938)">
                            <ellipse id="Oval" cx="56.2281038" cy="49.7853002" rx="10.5369681" ry="10.4442448"></ellipse>
                            <path d="M76.0007611,61.0936755 C91.5197177,34.4514277 95.2486228,7.78606534 84.3278755,1.53801017 C73.4071282,-4.71182306 51.965478,11.8222308 36.4536614,38.4644785 C20.9347048,65.1067263 17.2057998,91.7720887 28.126547,98.0201439 C39.0472943,104.269977 60.4889445,87.7359233 76.0007611,61.0936755 M41.4731353,41.3395796 C55.5319463,17.2043773 74.5174101,2.56038687 81.4307894,6.51654019 C88.3423836,10.4726935 85.0400981,34.0904843 70.9812872,58.2221305 C56.9224762,82.3573329 37.9370124,97.0013233 31.0236331,93.04517 C24.1120389,89.0890167 27.4143244,65.4712259 41.4731353,41.3395796" id="Shape"></path>
                            <path d="M76.0007611,38.4698127 C60.4818044,11.8275649 39.0472943,-4.70471087 28.126547,1.54334431 C17.2057998,7.79317753 20.9329198,34.4567619 36.4536614,61.0990097 C51.9726181,87.7412575 73.4071282,104.273533 84.3278755,98.0254781 C95.2486228,91.7756448 91.5215027,65.1120605 76.0007611,38.4698127 M41.4731353,58.2239086 C27.4143244,34.0887063 24.1120389,10.4709155 31.0236331,6.51831823 C37.9352273,2.56216491 56.9206912,17.2043773 70.9812872,41.3413577 C85.0400981,65.47656 88.3423836,89.0943508 81.4307894,93.046948 C74.5191952,97.0031014 55.5337313,82.360889 41.4731353,58.2239086" id="Shape"></path>
                            <path d="M56.2281038,27.1561032 C25.1884055,27.1561032 0.0267752875,37.2874118 0.0267752875,49.7853002 C0.0267752875,62.2849667 25.1955455,72.4144972 56.2281038,72.4144972 C87.2678021,72.4144972 112.429432,62.2831886 112.429432,49.7853002 C112.429432,37.2856338 87.260662,27.1561032 56.2281038,27.1561032 M56.2281038,66.664295 C28.1104818,66.664295 5.81916248,57.6851605 5.81916248,49.778188 C5.81916248,41.8676594 28.1069118,32.892081 56.2281038,32.892081 C84.3457257,32.892081 106.637045,41.8712155 106.637045,49.778188 C106.637045,57.6887166 84.3492957,66.664295 56.2281038,66.664295" id="Shape"></path>
                        </g>
                    </g>
                </g>
            </g>
        </g>
    </g>
</svg>