<?xml version="1.0" encoding="UTF-8"?>
<svg width="166px" height="191px" viewBox="0 0 166 191" version="1.1" xmlns="http://www.w3.org/2000/svg" xmlns:xlink="http://www.w3.org/1999/xlink">
    <!-- Generator: Sketch 48.2 (47327) - http://www.bohemiancoding.com/sketch -->
    <title>noun_372349_cc</title>
    <desc>Created with Sketch.</desc>
    <defs></defs>
    <g id="Artboard" stroke="none" stroke-width="1" fill="none" fill-rule="evenodd" transform="translate(-166.000000, -139.000000)">
        <g id="noun_372349_cc" transform="translate(166.000000, 139.000000)" fill="#FFFFFF" fill-rule="nonzero">
            <path d="M83.0019097,191 C82.6065989,191 82.211288,190.896859 81.8599006,190.692488 L1.14391883,144.088254 C0.437324559,143.681422 0,142.925059 0,142.109484 L0,48.8933762 C0,48.0758921 0.435414845,47.3233483 1.14200911,46.9165163 L81.8599006,0.310372185 C82.9446183,-0.32757102 84.3482582,0.0506108799 84.9803737,1.14504638 C85.6124891,2.23757186 85.2381851,3.63569889 84.1439188,4.26409204 L4.57185587,50.2151029 L4.57185587,140.787758 L83.0019097,186.077905 L161.431964,140.787758 L161.431964,48.8933762 C161.431964,47.6308599 162.453661,46.6090047 163.715982,46.6090047 C164.978303,46.6090047 166,47.6308599 166,48.8933762 L166,142.111394 C166,142.926969 165.562675,143.681422 164.857991,144.088254 L84.1420091,190.692488 C83.7906217,190.896859 83.3972206,191 83.0019097,191 Z" id="Shape"></path>
            <path d="M31.7355069,67 C31.3951731,67 31.0491671,66.9217693 30.7220686,66.7535733 L1.24727325,51.4379598 C0.131734783,50.8570969 -0.320152836,49.4489445 0.241397887,48.293086 C0.802948609,47.1411391 2.15482998,46.6658877 3.27793142,47.2506621 L32.7527267,62.5662756 C33.8682652,63.1471385 34.3201528,64.5552909 33.7586021,65.7111494 C33.361546,66.5286601 32.5636524,67 31.7355069,67 Z" id="Shape"></path>
            <path d="M83.5,191 C82.118311,191 81,189.974889 81,188.70835 L81,155.29165 C81,154.025111 82.118311,153 83.5,153 C84.881689,153 86,154.025111 86,155.29165 L86,188.706434 C86,189.974889 84.881689,191 83.5,191 Z" id="Shape"></path>
            <path d="M82.7334423,156 C82.370181,156 82.0031356,155.910465 81.6625781,155.727586 L31.1919514,128.377594 C30.4578607,127.981355 30.001892,127.207928 30.001892,126.369731 L30,64.2783722 C30,63.0191715 31.0122127,62 32.2647076,62 C33.5153106,62 34.5275232,63.0191715 34.5275232,64.2783722 L34.5294152,125.005756 L83.8080905,151.71186 C84.9092266,152.308123 85.3216796,153.693053 84.7294879,154.801759 C84.3208188,155.563756 83.5394285,156 82.7334423,156 Z" id="Shape"></path>
            <path d="M32.266111,67 C31.4903726,67 30.7335546,66.5932094 30.3116286,65.855175 C29.6796856,64.7549033 30.0391741,63.3330733 31.1157477,62.6860826 L81.5879385,32.3220701 C82.6645121,31.6712052 84.0551651,32.0373167 84.6871082,33.1453368 C85.3209432,34.2456085 84.9614547,35.6655014 83.8829891,36.3144293 L33.4126903,66.6784417 C33.0513097,66.8953967 32.6558723,67 32.266111,67 Z" id="Shape"></path>
            <path d="M32.2659321,129 C31.490255,129 30.7334967,128.593209 30.311604,127.855175 C29.6797109,126.754903 30.0391711,125.333073 31.1156596,124.686083 L81.5876497,94.3220701 C82.6641383,93.6712052 84.0546815,94.0373167 84.6884665,95.1453368 C85.3203597,96.2456085 84.9608995,97.6655014 83.882519,98.3144293 L33.4124209,128.678442 C33.0510688,128.895397 32.6556626,129 32.2659321,129 Z" id="Shape"></path>
            <path d="M83.5,99 C82.118311,99 81,97.9800245 81,96.7179239 L81,34.2801696 C81,33.0199755 82.118311,32 83.5,32 C84.881689,32 86,33.0199755 86,34.2801696 L86,96.7179239 C86,97.9800245 84.881689,99 83.5,99 Z" id="Shape"></path>
            <path d="M83.0009548,191 C82.6056485,191 82.2103422,190.896859 81.8589589,190.692488 L1.14390567,144.088254 C0.437319528,143.681422 0,142.925059 0,142.109484 L0,48.8933762 C0,47.6308599 1.02168536,46.6090047 2.28590164,46.6090047 C3.54820823,46.6090047 4.56989359,47.6308599 4.56989359,48.8933762 L4.56989359,140.787758 L82.9990452,186.077905 L161.428197,140.787758 L161.428197,50.2151029 L81.8589589,4.26409204 C80.7647052,3.63378888 80.3904055,2.23757186 81.0225137,1.14504638 C81.6508024,0.0506108799 83.0506068,-0.32757102 84.1429508,0.310372185 L164.858004,46.9165163 C165.56268,47.3233483 166,48.0758921 166,48.8933762 L166,142.111394 C166,142.926969 165.56268,143.681422 164.858004,144.088254 L84.1429508,190.692488 C83.7896578,190.896859 83.3962611,191 83.0009548,191 Z" id="Shape"></path>
            <path d="M134.262884,67 C133.434595,67 132.636563,66.5286196 132.239438,65.7110387 C131.681572,64.5550811 132.131647,63.1468078 133.245488,62.565895 L162.721611,47.2489668 C163.848689,46.6680541 165.197023,47.1394345 165.760562,48.2914803 C166.318428,49.4474379 165.868353,50.8557113 164.754512,51.436624 L135.278389,66.7535522 C134.951234,66.9217626 134.605168,67 134.262884,67 Z" id="Shape"></path>
            <path d="M83.5,191 C82.118311,191 81,189.971945 81,188.701768 L81,153.300154 C81,152.028055 82.118311,151 83.5,151 C84.881689,151 86,152.028055 86,153.300154 L86,188.701768 C86,189.971945 84.881689,191 83.5,191 Z" id="Shape"></path>
            <path d="M83.2664017,156 C82.460471,156 81.6791344,155.563756 81.2704935,154.801759 C80.6783425,153.693053 81.0907672,152.308123 82.1918275,151.71186 L131.465221,125.005756 L131.472788,64.2783722 C131.472788,63.0191715 132.490607,62 133.73734,62 C134.987857,62 136,63.0191715 136,64.2783722 L135.990541,126.369731 C135.990541,127.206023 135.536495,127.981355 134.800563,128.377594 L84.3371923,155.729491 C83.9966582,155.910465 83.6296381,156 83.2664017,156 Z" id="Shape"></path>
            <path d="M133.734518,67 C133.344757,67 132.947427,66.8954006 132.589831,66.6784536 L82.1157477,36.3155649 C81.0391741,35.668598 80.6796856,34.2468207 81.3116286,33.1465897 C81.9473557,32.0366735 83.3323326,31.6705756 84.4107982,32.3233535 L134.882989,62.6862422 C135.961455,63.333209 136.320943,64.7549864 135.687108,65.8552174 C135.26329,66.5932245 134.512148,67 133.734518,67 Z" id="Shape"></path>
            <path d="M132.732214,129 C132.342442,129 131.948885,128.895399 131.591279,128.67845 L81.115779,98.315184 C80.0391752,97.6662721 79.6796766,96.2464142 80.3116374,95.1461695 C80.9473823,94.0381767 82.3323981,93.6701371 83.410894,94.3229231 L133.880718,124.688126 C134.959213,125.335101 135.322496,126.754959 134.686751,127.85714 C134.264813,128.593219 133.509866,129 132.732214,129 Z" id="Shape"></path>
            <path d="M83.5,99 C82.118311,99 81,97.9800245 81,96.7179239 L81,34.2801696 C81,33.0199755 82.118311,32 83.5,32 C84.881689,32 86,33.0199755 86,34.2801696 L86,96.7179239 C86,97.9800245 84.881689,99 83.5,99 Z" id="Shape"></path>
        </g>
    </g>
</svg>