<?xml version="1.0" encoding="UTF-8"?>
<svg width="142px" height="187px" viewBox="0 0 142 187" version="1.1" xmlns="http://www.w3.org/2000/svg" xmlns:xlink="http://www.w3.org/1999/xlink">
    <!-- Generator: Sketch 48.2 (47327) - http://www.bohemiancoding.com/sketch -->
    <title>noun_1226749_cc</title>
    <desc>Created with Sketch.</desc>
    <defs></defs>
    <g id="Artboard-Copy-3" stroke="none" stroke-width="1" fill="none" fill-rule="evenodd" transform="translate(-178.000000, -141.000000)">
        <g id="noun_1226749_cc" transform="translate(178.000000, 141.000000)" fill="#FFFFFF" fill-rule="nonzero">
            <path d="M71,0 C33.8194533,0 2.70707216,29.8027278 0.100471857,67.8585187 C-0.81352812,85.3221379 4.53198864,102.539352 15.177048,116.418208 L65.9953274,184.485137 C67.1760449,186.067698 69.0352272,187 71.0104264,187 C72.9856256,187 74.8448079,186.067698 76.0255254,184.485137 L126.822952,116.418208 C137.468011,102.539352 142.813528,85.3221379 141.899528,67.8585187 C139.292928,29.8027278 108.180547,0 71,0 Z M71,98.1822732 C58.7573417,98.2413431 47.6872731,90.9161563 42.9612006,79.6286894 C38.235128,68.3412225 40.7858855,55.3194 49.4218811,46.6463942 C58.0578768,37.9733884 71.0745345,35.3610805 82.3910949,40.0298155 C93.7076552,44.6985506 101.090451,55.7268121 101.090594,67.962724 C101.113693,84.6051536 87.6517165,98.1248222 71,98.1822732 Z" id="Shape"></path>
        </g>
    </g>
</svg>