<svg xmlns="http://www.w3.org/2000/svg" width="31" height="33" viewBox="0 0 31 33">
    <path fill="#3498DB" fill-rule="nonzero" d="M8.945 3a2.46 2.46 0 0 0-2.079 1.202L.312 15.59a2.477 2.477 0 0 0 0 2.404l6.556 11.388a2.46 2.46 0 0 0 2.078 1.202h13.11a2.46 2.46 0 0 0 2.079-1.202l6.555-11.388a2.477 2.477 0 0 0 0-2.404L24.134 4.202A2.46 2.46 0 0 0 22.055 3H8.945zm.119 6.662a.278.278 0 0 1 .055 0h2.261a.298.298 0 0 1 .247.146l3.836 6.836c.02.034.032.072.037.11a.296.296 0 0 1 .036-.11l3.827-6.836a.3.3 0 0 1 .257-.146h2.261c.2.001.35.254.256.43l-3.744 6.7 3.744 6.689c.103.178-.05.442-.256.44H19.62a.3.3 0 0 1-.257-.156l-3.827-6.836a.293.293 0 0 1-.036-.11.294.294 0 0 1-.037.11l-3.836 6.836a.299.299 0 0 1-.247.156H9.12c-.206.002-.36-.262-.257-.44l3.745-6.69-3.745-6.698c-.09-.162.02-.397.202-.431z"/>
</svg>
