<svg xmlns="http://www.w3.org/2000/svg" xmlns:xlink="http://www.w3.org/1999/xlink" version="1.1" x="0px" y="0px" viewBox="0 0 100 125" enable-background="new 0 0 100 100" xml:space="preserve"><g><path fill="none" d="M38.961,28.255c0.207,0.207,0.424,0.309,0.629,0.274c0.1-0.017,0.189-0.066,0.271-0.142   c1.001,3.114,2.92,6.216,5.339,8.068c1.395,1.068,2.955,1.72,4.603,1.72c1.685,0,3.276-0.682,4.694-1.791   c2.376-1.86,4.259-4.923,5.248-7.998c0.082,0.076,0.171,0.125,0.27,0.142c0.177,0.031,0.363-0.04,0.543-0.193   c0.453-0.383,0.878-1.28,1.073-2.369c0.252-1.419,0.024-2.663-0.511-2.913c-0.039-0.018-0.078-0.032-0.121-0.039   c-0.165-0.029-0.337,0.032-0.506,0.164l-0.008,0.012c0-0.001-0.002-0.002-0.002-0.003c-0.002,0.001-0.003,0.002-0.005,0.004   c-0.001-0.011-0.001-0.021-0.002-0.031c-0.641-2.434-1.449-3.924-2.281-4.812c-0.163-0.087-0.331-0.166-0.517-0.219   c-0.021,0.358,0.389,0.903,0.432,1.436c-1.157-0.54-2.262-1.376-3.876-1.436c-0.378-0.014-0.786-0.011-1.204-0.002   c-3.897,1.392-8.181-0.183-8.181-0.183c-4.885-0.453-5.661,4.623-5.72,5.204c-0.001,0.014-0.002,0.027-0.002,0.042   c-0.001,0-0.001,0-0.002,0v0c-0.173-0.14-0.351-0.205-0.52-0.175c-0.074,0.012-0.144,0.043-0.208,0.09   c-0.152,0.109-0.271,0.314-0.36,0.577c-0.048,0.683-0.08,1.374-0.09,2.087c0.009,0.066,0.016,0.13,0.028,0.197   C38.158,26.986,38.542,27.835,38.961,28.255z"/><path fill="#000000" d="M78.047,92.12H21.955c-0.79,0-1.429,0.646-1.429,1.44S21.165,95,21.955,95h56.092   c0.789,0,1.428-0.645,1.428-1.439C79.474,92.766,78.834,92.12,78.047,92.12z"/><path fill="#000000" d="M48.019,51.862L48.019,51.862h3.459h3.712h11.734h8.404h0.521c-0.001-0.006-0.001-0.012-0.003-0.018   c-2.957-10.172-8.419-10.521-9.596-10.795c-2.314-0.542-5.119-0.312-6.613-0.778c-0.175,1.466-4.443,6.292-7.239,9.318   l-1.212-4.672c0.91-0.538,1.109-1.723,1.109-2.707h-4.595c0,0.976,0.197,2.15,1.089,2.693l-1.192,4.684   c-2.797-3.025-7.062-7.85-7.238-9.316c-1.496,0.466-4.299,0.236-6.614,0.778c-1.176,0.274-6.639,0.624-9.596,10.795   c-0.001,0.006-0.001,0.012-0.003,0.018h20.311H48.019z"/><path fill="#000000" d="M25.009,91.27h49.983c1.858,0,3.365-1.507,3.365-3.366l6.731-31.676c0-1.858-1.507-3.365-3.365-3.365H77.35   h-1.499h-0.521h-8.404H55.19h-3.712H48.02h-0.001h-3.561H24.147h-1.51h-4.36c-1.859,0-3.366,1.506-3.366,3.365l6.731,31.677   C21.642,89.763,23.149,91.27,25.009,91.27z M50,70.572c0.988,0,1.789,0.801,1.789,1.789c0,0.123-0.013,0.244-0.036,0.36   C51.586,73.537,50.865,74.15,50,74.15c-0.988,0-1.789-0.801-1.789-1.789S49.012,70.572,50,70.572z"/><path d="M37.832,29.443c1.09,2.931,2.814,5.778,4.948,7.861c1.206,1.179,2.543,2.112,3.97,2.678   c0.98,0.388,2.003,0.604,3.055,0.604c1.051,0,2.074-0.216,3.055-0.604c1.475-0.585,2.857-1.565,4.096-2.802   c2.081-2.077,3.763-4.88,4.829-7.761c0.822-0.242,1.684-1.78,2.034-3.745c0.382-2.134,0.021-3.994-0.802-4.305   c0.03-0.52,0.05-1.046,0.049-1.585c-0.02-7.731-4.553-12.226-11.699-12.705C45.133,6.66,40.439,9.136,38.3,13.251   c-0.719,1.384-1.131,3.117-1.288,4.998c-0.24,0.98-0.38,1.998-0.38,3.05h0.022c0,0.009-0.002,0.017-0.002,0.025   c-0.015,0.002-0.03,0.002-0.045,0.005c-0.912,0.159-1.327,2.103-0.926,4.344C36.047,27.732,36.976,29.323,37.832,29.443z    M38.038,23.683c0.089-0.263,0.208-0.468,0.36-0.577c0.064-0.046,0.134-0.078,0.208-0.09c0.169-0.03,0.347,0.036,0.52,0.175v0   c0.001,0,0.001,0,0.002,0c0-0.014,0.001-0.028,0.002-0.042c0.059-0.581,0.834-5.656,5.72-5.204c0,0,4.284,1.575,8.181,0.183   c0.418-0.009,0.826-0.012,1.204,0.002c1.614,0.06,2.719,0.896,3.876,1.436c-0.043-0.533-0.452-1.078-0.432-1.436   c0.186,0.053,0.354,0.131,0.517,0.219c0.832,0.888,1.641,2.377,2.281,4.812c0.001,0.01,0.001,0.02,0.002,0.031   c0.002-0.001,0.003-0.003,0.005-0.004c0,0.001,0.002,0.001,0.002,0.003l0.008-0.012c0.169-0.132,0.341-0.193,0.506-0.164   c0.043,0.007,0.082,0.021,0.121,0.039c0.535,0.25,0.763,1.494,0.511,2.913c-0.195,1.089-0.62,1.985-1.073,2.369   c-0.18,0.153-0.366,0.224-0.543,0.193c-0.099-0.017-0.188-0.066-0.27-0.142c-0.989,3.075-2.872,6.138-5.248,7.998   c-1.418,1.109-3.01,1.791-4.694,1.791c-1.648,0-3.208-0.652-4.603-1.72c-2.419-1.853-4.338-4.954-5.339-8.068   c-0.082,0.076-0.171,0.125-0.271,0.142c-0.206,0.035-0.422-0.067-0.629-0.274c-0.419-0.42-0.803-1.269-0.984-2.288   c-0.013-0.067-0.019-0.131-0.028-0.197C37.958,25.057,37.99,24.365,38.038,23.683z"/></g></svg>