<svg xmlns="http://www.w3.org/2000/svg" xmlns:xlink="http://www.w3.org/1999/xlink" version="1.1" x="0px" y="0px" viewBox="0 0 100 125" enable-background="new 0 0 100 100" xml:space="preserve">
    <g><path fill="#000000" d="M75.703,93.797c-0.026,0-0.047-0.013-0.073-0.013H25.291c-0.027,0-0.048,0.013-0.075,0.013   c-0.718,0.041-1.292,0.625-1.292,1.354c0,0.753,0.613,1.366,1.368,1.366h50.338c0.753,0,1.365-0.613,1.365-1.366   C76.995,94.422,76.421,93.838,75.703,93.797z"/><path fill="#000000" d="M81.378,54.416H19.54c-1.727,0-3.126,1.399-3.126,3.127l3.126,31.752c0,1.726,1.401,3.124,3.127,3.124   h55.585c1.728,0,3.127-1.398,3.127-3.124l3.127-31.752C84.505,55.815,83.104,54.416,81.378,54.416z M50.439,75.991   c-1.508,0-2.733-1.228-2.733-2.738c0-1.508,1.226-2.732,2.733-2.732c1.51,0,2.736,1.225,2.736,2.732   C53.175,74.763,51.949,75.991,50.439,75.991z"/><path fill="#000000" d="M78.01,53.545c0-7.982-5.247-12.174-12.484-14.455c3.069,0.347,5.752,0.875,5.752,0.875   c-6.107-3.36-5.95-15.422-5.95-15.422C66.397,1.181,50.983,2.405,50.983,2.405l-0.015,0.04l-0.011-0.04   c0,0-15.42-1.219-14.345,22.139c0,0,0.149,12.063-5.959,15.422c0,0,1.645-0.113,3.85-0.156c-6.23,2.787-10.579,6.473-10.579,13.74    M62.952,20.549c-0.013,0.584-0.058,1.157-0.137,1.725c-0.231,3.091-1.016,5.94-2.213,8.33c-2.162,4.346-5.673,7.17-9.639,7.17   c-6.051,0-11.039-6.562-11.823-15.08c-0.002,0,4.772-0.792,7.624-1.916c0,0,5.156-1.726,11.468-6.269   c0.033-0.02,0.068-0.042,0.093-0.066 M55.094,43.767l-4.133,6.715l-4.128-6.715c-3.007-0.679-5.323-2.078-6.255-3.806   c2.42,0.211,4.477,0.655,5.007,1.528l-2.276-5.072c2.185,2.176,4.812,3.451,7.652,3.451c2.775,0,5.352-1.215,7.508-3.3l-1.584,3.3   c0.529-0.875,2.523-1.11,4.87-1.052C61.377,41.063,58.733,42.943,55.094,43.767z"/>
    </g>
</svg>