<?xml version="1.0" encoding="UTF-8"?>
<svg width="198px" height="45px" viewBox="0 0 198 45" version="1.1" xmlns="http://www.w3.org/2000/svg" xmlns:xlink="http://www.w3.org/1999/xlink">
    <!-- Generator: Sketch 43.1 (39012) - http://www.bohemiancoding.com/sketch -->
    <title>Group 2</title>
    <desc>Created with Sketch.</desc>
    <defs></defs>
    <g id="Page-1" stroke="none" stroke-width="1" fill="none" fill-rule="evenodd">
        <g id="Group-2">
            <g id="Group-Copy">
                <g id="noun_49772_cc-copy" transform="translate(33.000000, 0.000000)">
                    <path d="M11.3842399,10.8690341 C11.4786486,10.9748864 11.5776182,11.0270455 11.6711149,11.0091477 C11.716723,11.0004545 11.7573142,10.9753977 11.7947128,10.9365341 C12.25125,12.5289205 13.1264696,14.1151705 14.2297297,15.0622159 C14.8659628,15.6083523 15.5774493,15.9417614 16.3290709,15.9417614 C17.0975676,15.9417614 17.8231926,15.5930114 18.4699155,15.0259091 C19.5535642,14.0747727 20.4123649,12.5084659 20.8634291,10.9360227 C20.9008277,10.9748864 20.9414189,10.9999432 20.9865709,11.0086364 C21.0672973,11.0244886 21.1521284,10.9881818 21.234223,10.9099432 C21.4408277,10.7140909 21.6346622,10.2553977 21.723598,9.69852273 C21.8385304,8.97289773 21.7345439,8.33676136 21.4905405,8.20892045 C21.4727534,8.19971591 21.4549662,8.19255682 21.4353547,8.18897727 C21.3601014,8.17414773 21.2816554,8.20534091 21.2045777,8.27284091 L21.2009291,8.27897727 C21.2009291,8.27846591 21.2000169,8.27795455 21.2000169,8.27744318 C21.1991047,8.27795455 21.1986486,8.27846591 21.1977365,8.27948864 C21.1972804,8.27386364 21.1972804,8.26875 21.1968243,8.26363636 C20.9044764,7.01897727 20.5359628,6.25704545 20.1565034,5.80295455 C20.0821622,5.75846591 20.0055405,5.71806818 19.9207095,5.69096591 C19.9111318,5.87403409 20.098125,6.15272727 20.1177365,6.42528409 C19.5900507,6.14914773 19.0860811,5.72164773 18.3499662,5.69096591 C18.1775676,5.68380682 17.9914865,5.68534091 17.8008446,5.68994318 C16.0234966,6.40176136 14.0696453,5.59636364 14.0696453,5.59636364 C11.8416892,5.36471591 11.4877703,7.96039773 11.4608615,8.2575 C11.4604054,8.26465909 11.4599493,8.27130682 11.4599493,8.27897727 L11.4590372,8.27897727 L11.4590372,8.27897727 C11.3801351,8.20738636 11.2989527,8.17414773 11.221875,8.18948864 C11.188125,8.195625 11.1561993,8.21147727 11.1270101,8.23551136 C11.0576858,8.29125 11.0034122,8.39607955 10.9628209,8.53056818 C10.9409291,8.87982955 10.9263345,9.23318182 10.9217736,9.59778409 C10.9258784,9.63153409 10.9290709,9.66426136 10.9345439,9.69852273 C11.0180068,10.2201136 11.1931419,10.6542614 11.3842399,10.8690341 Z" id="Shape"></path>
                    <path d="M29.210625,43.5272727 L3.628125,43.5272727 C3.26782095,43.5272727 2.97638514,43.8576136 2.97638514,44.2636364 C2.97638514,44.6696591 3.26782095,45 3.628125,45 L29.210625,45 C29.570473,45 29.8619088,44.6701705 29.8619088,44.2641477 C29.8614527,43.8576136 29.5695608,43.5272727 29.210625,43.5272727 Z" id="Shape" fill="#000000" fill-rule="nonzero"></path>
                    <path d="M15.5154223,22.9407955 L15.5154223,22.9407955 L17.0930068,22.9407955 L18.7859797,22.9407955 L24.1376351,22.9407955 L27.9705405,22.9407955 L28.2081588,22.9407955 C28.2077027,22.9377273 28.2077027,22.9346591 28.2067905,22.9315909 C26.8581588,17.73 24.3670439,17.5515341 23.8302365,17.4114205 C22.7748649,17.1342614 21.4955574,17.251875 20.8141723,17.0135795 C20.7343581,17.7632386 18.7878041,20.2310795 17.5126014,21.7784659 L16.9598311,19.389375 C17.3748649,19.1142614 17.465625,18.5082955 17.465625,18.0051136 L15.3699324,18.0051136 C15.3699324,18.5042045 15.4597804,19.1045455 15.8666047,19.3822159 L15.3229561,21.7774432 C14.0472973,20.2305682 12.1021115,17.7632386 12.0218412,17.0135795 C11.3395439,17.251875 10.0611486,17.1342614 9.00532095,17.4114205 C8.46896959,17.5515341 5.97739865,17.7305114 4.62876689,22.9315909 C4.62831081,22.9346591 4.62831081,22.9377273 4.62739865,22.9407955 L13.8908615,22.9407955 L15.5154223,22.9407955 L15.5154223,22.9407955 Z" id="Shape" fill="#000000" fill-rule="nonzero"></path>
                    <path d="M5.02099662,43.0926136 L27.8172973,43.0926136 C28.6646959,43.0926136 29.3520101,42.3219886 29.3520101,41.3713636 L32.4218919,25.1734091 C32.4218919,24.2232955 31.7345777,23.4526705 30.8871791,23.4526705 L28.8927365,23.4526705 L28.2090709,23.4526705 L27.9714527,23.4526705 L24.1385473,23.4526705 L18.7859797,23.4526705 L17.0930068,23.4526705 L15.5158784,23.4526705 L15.5154223,23.4526705 L13.8913176,23.4526705 L4.62785473,23.4526705 L3.9391723,23.4526705 L1.95065878,23.4526705 C1.10280405,23.4526705 0.415489865,24.2227841 0.415489865,25.1734091 L3.48537162,41.371875 C3.48537162,42.3219886 4.17268581,43.0926136 5.02099662,43.0926136 Z M16.4189189,32.5084091 C16.869527,32.5084091 17.234848,32.9180114 17.234848,33.4232386 C17.234848,33.4861364 17.2289189,33.5480114 17.2184291,33.6073295 C17.1422635,34.0246023 16.8134291,34.3380682 16.4189189,34.3380682 C15.9683108,34.3380682 15.6029899,33.9284659 15.6029899,33.4232386 C15.6029899,32.9180114 15.9683108,32.5084091 16.4189189,32.5084091 Z" id="Shape" fill="#000000" fill-rule="nonzero"></path>
                    <path d="M10.8693243,11.4765341 C11.3664527,12.9753409 12.1527365,14.4311932 13.1260135,15.4963636 C13.6760473,16.0992614 14.2858277,16.5763636 14.9366554,16.8657955 C15.3836149,17.0642045 15.8501858,17.1746591 16.3299831,17.1746591 C16.8093243,17.1746591 17.2758953,17.0642045 17.7233108,16.8657955 C18.3960304,16.5666477 19.0263345,16.0655114 19.5914189,15.4329545 C20.5405236,14.3708523 21.307652,12.9375 21.7938345,11.4642614 C22.1687331,11.3405114 22.561875,10.5540341 22.7215034,9.54920455 C22.8957264,8.45795455 22.7310811,7.50681818 22.3557264,7.34778409 C22.3694088,7.081875 22.3785304,6.81289773 22.3780743,6.53727273 C22.3689527,2.58392045 20.3015372,0.285340909 17.0423818,0.0403977273 C14.1991723,-0.173863636 12.0583277,1.09227273 11.0827703,3.19653409 C10.754848,3.90426136 10.5669426,4.79045455 10.4953378,5.75232955 C10.3858784,6.25346591 10.322027,6.77403409 10.322027,7.31198864 L10.3320608,7.31198864 C10.3320608,7.31659091 10.3311486,7.32068182 10.3311486,7.32477273 C10.3243074,7.32579545 10.3174662,7.32579545 10.310625,7.32732955 C9.89467905,7.40863636 9.70540541,8.40272727 9.88829392,9.54869318 C10.0552196,10.6015909 10.4789189,11.4151705 10.8693243,11.4765341 Z M10.963277,8.53107955 C11.0038682,8.39659091 11.0581419,8.29176136 11.1274662,8.23602273 C11.1566554,8.2125 11.1885811,8.19613636 11.2223311,8.19 C11.2994088,8.17465909 11.3805912,8.20840909 11.4594932,8.27948864 L11.4594932,8.27948864 L11.4604054,8.27948864 C11.4604054,8.27232955 11.4608615,8.26517045 11.4613176,8.25801136 C11.4882264,7.96090909 11.8416892,5.36573864 14.0701014,5.596875 C14.0701014,5.596875 16.0239527,6.40227273 17.8013007,5.69045455 C17.9919426,5.68585227 18.1780236,5.68431818 18.3504223,5.69147727 C19.0865372,5.72215909 19.5905068,6.14965909 20.1181926,6.42579545 C20.0985811,6.15323864 19.9120439,5.87454545 19.9211655,5.69147727 C20.0059966,5.71857955 20.0826182,5.75846591 20.1569595,5.80346591 C20.5364189,6.25755682 20.9053885,7.01897727 21.1972804,8.26414773 C21.1977365,8.26926136 21.1977365,8.274375 21.1981926,8.28 C21.1991047,8.27948864 21.1995608,8.27846591 21.200473,8.27795455 C21.200473,8.27846591 21.2013851,8.27846591 21.2013851,8.27948864 L21.2050338,8.27335227 C21.2821115,8.20585227 21.3605574,8.17465909 21.4358108,8.18948864 C21.4554223,8.19306818 21.4732095,8.20022727 21.4909966,8.20943182 C21.735,8.33727273 21.8389865,8.97340909 21.7240541,9.69903409 C21.6351182,10.2559091 21.4412838,10.7140909 21.2346791,10.9104545 C21.1525845,10.9886932 21.0677534,11.025 20.987027,11.0091477 C20.941875,11.0004545 20.9012838,10.9753977 20.8638851,10.9365341 C20.4128209,12.5089773 19.5540203,14.0752841 18.4703716,15.0264205 C17.8236486,15.5935227 17.0975676,15.9422727 16.329527,15.9422727 C15.5779054,15.9422727 14.8664189,15.6088636 14.2301858,15.0627273 C13.1269257,14.1151705 12.2517061,12.5294318 11.7951689,10.9370455 C11.7577703,10.9759091 11.7171791,11.0009659 11.6715709,11.0096591 C11.5776182,11.0275568 11.4791047,10.9753977 11.3846959,10.8695455 C11.193598,10.6547727 11.0184628,10.220625 10.9359122,9.69954545 C10.9299831,9.66528409 10.9272466,9.63255682 10.9231419,9.59880682 C10.9267905,9.23369318 10.9413851,8.87982955 10.963277,8.53107955 Z" id="Shape" fill="#000000" fill-rule="nonzero"></path>
                </g>
                <g id="noun_38103_cc-copy" fill-rule="nonzero" fill="#000000">
                    <path d="M28.2803684,43.4827895 C28.2680526,43.4827895 28.2581053,43.4766316 28.2457895,43.4766316 L4.401,43.4766316 C4.38821053,43.4766316 4.37826316,43.4827895 4.36547368,43.4827895 C4.02536842,43.5022105 3.75347368,43.7788421 3.75347368,44.1241579 C3.75347368,44.4808421 4.04384211,44.7712105 4.40147368,44.7712105 L28.2457895,44.7712105 C28.6024737,44.7712105 28.8923684,44.4808421 28.8923684,44.1241579 C28.8923684,43.7788421 28.6204737,43.5022105 28.2803684,43.4827895 Z" id="Shape"></path>
                    <path d="M30.9685263,24.8286316 L1.67684211,24.8286316 C0.858789474,24.8286316 0.196105263,25.4913158 0.196105263,26.3098421 L1.67684211,41.3502632 C1.67684211,42.1678421 2.34047368,42.8300526 3.15805263,42.8300526 L29.4877895,42.8300526 C30.3063158,42.8300526 30.969,42.1678421 30.969,41.3502632 L32.4502105,26.3098421 C32.4497368,25.4913158 31.7861053,24.8286316 30.9685263,24.8286316 Z M16.3132105,35.0483684 C15.5988947,35.0483684 15.0186316,34.4666842 15.0186316,33.7514211 C15.0186316,33.0371053 15.5993684,32.4573158 16.3132105,32.4573158 C17.0284737,32.4573158 17.6092105,33.0375789 17.6092105,33.7514211 C17.6092105,34.4666842 17.0284737,35.0483684 16.3132105,35.0483684 Z" id="Shape"></path>
                    <path d="M29.3731579,24.4160526 C29.3731579,20.6351053 26.8877368,18.6494211 23.4596842,17.5689474 C24.9134211,17.7333158 26.1843158,17.9834211 26.1843158,17.9834211 C23.2915263,16.3918421 23.3658947,10.6782632 23.3658947,10.6782632 C23.8722632,-0.387947368 16.5708947,0.191842105 16.5708947,0.191842105 L16.5637895,0.210789474 L16.5585789,0.191842105 C16.5585789,0.191842105 9.25436842,-0.385578947 9.76357895,10.6787368 C9.76357895,10.6787368 9.83415789,16.3927895 6.94089474,17.9838947 C6.94089474,17.9838947 7.72010526,17.9303684 8.76457895,17.91 C5.81352632,19.2301579 3.75347368,20.9761579 3.75347368,24.4184211 L29.3731579,24.4160526 Z M22.2404211,8.78636842 C22.2342632,9.063 22.2129474,9.33442105 22.1755263,9.60347368 C22.0661053,11.0676316 21.6942632,12.4171579 21.1272632,13.5492632 C20.1031579,15.6078947 18.4400526,16.9455789 16.5614211,16.9455789 C13.6951579,16.9455789 11.3324211,13.8372632 10.9610526,9.80242105 C10.9601053,9.80242105 13.2214737,9.42726316 14.5724211,8.89484211 C14.5724211,8.89484211 17.0147368,8.07726316 20.0046316,5.92531579 C20.0202632,5.91584211 20.0368421,5.90542105 20.0486842,5.89405263 L22.2404211,8.78636842 Z M18.5182105,19.7843684 L16.5604737,22.9651579 L14.6051053,19.7843684 C13.1807368,19.4627368 12.0836842,18.8000526 11.6422105,17.9815263 C12.7885263,18.0814737 13.7628947,18.2917895 14.0139474,18.7053158 L12.9358421,16.3027895 C13.9708421,17.3335263 15.2152105,17.9374737 16.5604737,17.9374737 C17.8749474,17.9374737 19.0956316,17.3619474 20.1168947,16.3743158 L19.3665789,17.9374737 C19.6171579,17.523 20.5616842,17.4116842 21.6734211,17.4391579 C21.4943684,18.5035263 20.2419474,19.3940526 18.5182105,19.7843684 Z" id="Shape"></path>
                </g>
                <g id="noun_38103_cc-copy-2" transform="translate(66.000000, 0.000000)" fill-rule="nonzero" fill="#000000">
                    <path d="M28.2803684,43.4827895 C28.2680526,43.4827895 28.2581053,43.4766316 28.2457895,43.4766316 L4.401,43.4766316 C4.38821053,43.4766316 4.37826316,43.4827895 4.36547368,43.4827895 C4.02536842,43.5022105 3.75347368,43.7788421 3.75347368,44.1241579 C3.75347368,44.4808421 4.04384211,44.7712105 4.40147368,44.7712105 L28.2457895,44.7712105 C28.6024737,44.7712105 28.8923684,44.4808421 28.8923684,44.1241579 C28.8923684,43.7788421 28.6204737,43.5022105 28.2803684,43.4827895 Z" id="Shape"></path>
                    <path d="M30.9685263,24.8286316 L1.67684211,24.8286316 C0.858789474,24.8286316 0.196105263,25.4913158 0.196105263,26.3098421 L1.67684211,41.3502632 C1.67684211,42.1678421 2.34047368,42.8300526 3.15805263,42.8300526 L29.4877895,42.8300526 C30.3063158,42.8300526 30.969,42.1678421 30.969,41.3502632 L32.4502105,26.3098421 C32.4497368,25.4913158 31.7861053,24.8286316 30.9685263,24.8286316 Z M16.3132105,35.0483684 C15.5988947,35.0483684 15.0186316,34.4666842 15.0186316,33.7514211 C15.0186316,33.0371053 15.5993684,32.4573158 16.3132105,32.4573158 C17.0284737,32.4573158 17.6092105,33.0375789 17.6092105,33.7514211 C17.6092105,34.4666842 17.0284737,35.0483684 16.3132105,35.0483684 Z" id="Shape"></path>
                    <path d="M29.3731579,24.4160526 C29.3731579,20.6351053 26.8877368,18.6494211 23.4596842,17.5689474 C24.9134211,17.7333158 26.1843158,17.9834211 26.1843158,17.9834211 C23.2915263,16.3918421 23.3658947,10.6782632 23.3658947,10.6782632 C23.8722632,-0.387947368 16.5708947,0.191842105 16.5708947,0.191842105 L16.5637895,0.210789474 L16.5585789,0.191842105 C16.5585789,0.191842105 9.25436842,-0.385578947 9.76357895,10.6787368 C9.76357895,10.6787368 9.83415789,16.3927895 6.94089474,17.9838947 C6.94089474,17.9838947 7.72010526,17.9303684 8.76457895,17.91 C5.81352632,19.2301579 3.75347368,20.9761579 3.75347368,24.4184211 L29.3731579,24.4160526 Z M22.2404211,8.78636842 C22.2342632,9.063 22.2129474,9.33442105 22.1755263,9.60347368 C22.0661053,11.0676316 21.6942632,12.4171579 21.1272632,13.5492632 C20.1031579,15.6078947 18.4400526,16.9455789 16.5614211,16.9455789 C13.6951579,16.9455789 11.3324211,13.8372632 10.9610526,9.80242105 C10.9601053,9.80242105 13.2214737,9.42726316 14.5724211,8.89484211 C14.5724211,8.89484211 17.0147368,8.07726316 20.0046316,5.92531579 C20.0202632,5.91584211 20.0368421,5.90542105 20.0486842,5.89405263 L22.2404211,8.78636842 Z M18.5182105,19.7843684 L16.5604737,22.9651579 L14.6051053,19.7843684 C13.1807368,19.4627368 12.0836842,18.8000526 11.6422105,17.9815263 C12.7885263,18.0814737 13.7628947,18.2917895 14.0139474,18.7053158 L12.9358421,16.3027895 C13.9708421,17.3335263 15.2152105,17.9374737 16.5604737,17.9374737 C17.8749474,17.9374737 19.0956316,17.3619474 20.1168947,16.3743158 L19.3665789,17.9374737 C19.6171579,17.523 20.5616842,17.4116842 21.6734211,17.4391579 C21.4943684,18.5035263 20.2419474,19.3940526 18.5182105,19.7843684 Z" id="Shape"></path>
                </g>
            </g>
            <g id="Group-Copy-2" transform="translate(99.000000, 0.000000)">
                <g id="noun_49772_cc-copy-2" transform="translate(33.000000, 0.000000)">
                    <path d="M11.3842399,10.8690341 C11.4786486,10.9748864 11.5776182,11.0270455 11.6711149,11.0091477 C11.716723,11.0004545 11.7573142,10.9753977 11.7947128,10.9365341 C12.25125,12.5289205 13.1264696,14.1151705 14.2297297,15.0622159 C14.8659628,15.6083523 15.5774493,15.9417614 16.3290709,15.9417614 C17.0975676,15.9417614 17.8231926,15.5930114 18.4699155,15.0259091 C19.5535642,14.0747727 20.4123649,12.5084659 20.8634291,10.9360227 C20.9008277,10.9748864 20.9414189,10.9999432 20.9865709,11.0086364 C21.0672973,11.0244886 21.1521284,10.9881818 21.234223,10.9099432 C21.4408277,10.7140909 21.6346622,10.2553977 21.723598,9.69852273 C21.8385304,8.97289773 21.7345439,8.33676136 21.4905405,8.20892045 C21.4727534,8.19971591 21.4549662,8.19255682 21.4353547,8.18897727 C21.3601014,8.17414773 21.2816554,8.20534091 21.2045777,8.27284091 L21.2009291,8.27897727 C21.2009291,8.27846591 21.2000169,8.27795455 21.2000169,8.27744318 C21.1991047,8.27795455 21.1986486,8.27846591 21.1977365,8.27948864 C21.1972804,8.27386364 21.1972804,8.26875 21.1968243,8.26363636 C20.9044764,7.01897727 20.5359628,6.25704545 20.1565034,5.80295455 C20.0821622,5.75846591 20.0055405,5.71806818 19.9207095,5.69096591 C19.9111318,5.87403409 20.098125,6.15272727 20.1177365,6.42528409 C19.5900507,6.14914773 19.0860811,5.72164773 18.3499662,5.69096591 C18.1775676,5.68380682 17.9914865,5.68534091 17.8008446,5.68994318 C16.0234966,6.40176136 14.0696453,5.59636364 14.0696453,5.59636364 C11.8416892,5.36471591 11.4877703,7.96039773 11.4608615,8.2575 C11.4604054,8.26465909 11.4599493,8.27130682 11.4599493,8.27897727 L11.4590372,8.27897727 L11.4590372,8.27897727 C11.3801351,8.20738636 11.2989527,8.17414773 11.221875,8.18948864 C11.188125,8.195625 11.1561993,8.21147727 11.1270101,8.23551136 C11.0576858,8.29125 11.0034122,8.39607955 10.9628209,8.53056818 C10.9409291,8.87982955 10.9263345,9.23318182 10.9217736,9.59778409 C10.9258784,9.63153409 10.9290709,9.66426136 10.9345439,9.69852273 C11.0180068,10.2201136 11.1931419,10.6542614 11.3842399,10.8690341 Z" id="Shape"></path>
                    <path d="M29.210625,43.5272727 L3.628125,43.5272727 C3.26782095,43.5272727 2.97638514,43.8576136 2.97638514,44.2636364 C2.97638514,44.6696591 3.26782095,45 3.628125,45 L29.210625,45 C29.570473,45 29.8619088,44.6701705 29.8619088,44.2641477 C29.8614527,43.8576136 29.5695608,43.5272727 29.210625,43.5272727 Z" id="Shape" fill="#000000" fill-rule="nonzero"></path>
                    <path d="M15.5154223,22.9407955 L15.5154223,22.9407955 L17.0930068,22.9407955 L18.7859797,22.9407955 L24.1376351,22.9407955 L27.9705405,22.9407955 L28.2081588,22.9407955 C28.2077027,22.9377273 28.2077027,22.9346591 28.2067905,22.9315909 C26.8581588,17.73 24.3670439,17.5515341 23.8302365,17.4114205 C22.7748649,17.1342614 21.4955574,17.251875 20.8141723,17.0135795 C20.7343581,17.7632386 18.7878041,20.2310795 17.5126014,21.7784659 L16.9598311,19.389375 C17.3748649,19.1142614 17.465625,18.5082955 17.465625,18.0051136 L15.3699324,18.0051136 C15.3699324,18.5042045 15.4597804,19.1045455 15.8666047,19.3822159 L15.3229561,21.7774432 C14.0472973,20.2305682 12.1021115,17.7632386 12.0218412,17.0135795 C11.3395439,17.251875 10.0611486,17.1342614 9.00532095,17.4114205 C8.46896959,17.5515341 5.97739865,17.7305114 4.62876689,22.9315909 C4.62831081,22.9346591 4.62831081,22.9377273 4.62739865,22.9407955 L13.8908615,22.9407955 L15.5154223,22.9407955 L15.5154223,22.9407955 Z" id="Shape" fill="#000000" fill-rule="nonzero"></path>
                    <path d="M5.02099662,43.0926136 L27.8172973,43.0926136 C28.6646959,43.0926136 29.3520101,42.3219886 29.3520101,41.3713636 L32.4218919,25.1734091 C32.4218919,24.2232955 31.7345777,23.4526705 30.8871791,23.4526705 L28.8927365,23.4526705 L28.2090709,23.4526705 L27.9714527,23.4526705 L24.1385473,23.4526705 L18.7859797,23.4526705 L17.0930068,23.4526705 L15.5158784,23.4526705 L15.5154223,23.4526705 L13.8913176,23.4526705 L4.62785473,23.4526705 L3.9391723,23.4526705 L1.95065878,23.4526705 C1.10280405,23.4526705 0.415489865,24.2227841 0.415489865,25.1734091 L3.48537162,41.371875 C3.48537162,42.3219886 4.17268581,43.0926136 5.02099662,43.0926136 Z M16.4189189,32.5084091 C16.869527,32.5084091 17.234848,32.9180114 17.234848,33.4232386 C17.234848,33.4861364 17.2289189,33.5480114 17.2184291,33.6073295 C17.1422635,34.0246023 16.8134291,34.3380682 16.4189189,34.3380682 C15.9683108,34.3380682 15.6029899,33.9284659 15.6029899,33.4232386 C15.6029899,32.9180114 15.9683108,32.5084091 16.4189189,32.5084091 Z" id="Shape" fill="#000000" fill-rule="nonzero"></path>
                    <path d="M10.8693243,11.4765341 C11.3664527,12.9753409 12.1527365,14.4311932 13.1260135,15.4963636 C13.6760473,16.0992614 14.2858277,16.5763636 14.9366554,16.8657955 C15.3836149,17.0642045 15.8501858,17.1746591 16.3299831,17.1746591 C16.8093243,17.1746591 17.2758953,17.0642045 17.7233108,16.8657955 C18.3960304,16.5666477 19.0263345,16.0655114 19.5914189,15.4329545 C20.5405236,14.3708523 21.307652,12.9375 21.7938345,11.4642614 C22.1687331,11.3405114 22.561875,10.5540341 22.7215034,9.54920455 C22.8957264,8.45795455 22.7310811,7.50681818 22.3557264,7.34778409 C22.3694088,7.081875 22.3785304,6.81289773 22.3780743,6.53727273 C22.3689527,2.58392045 20.3015372,0.285340909 17.0423818,0.0403977273 C14.1991723,-0.173863636 12.0583277,1.09227273 11.0827703,3.19653409 C10.754848,3.90426136 10.5669426,4.79045455 10.4953378,5.75232955 C10.3858784,6.25346591 10.322027,6.77403409 10.322027,7.31198864 L10.3320608,7.31198864 C10.3320608,7.31659091 10.3311486,7.32068182 10.3311486,7.32477273 C10.3243074,7.32579545 10.3174662,7.32579545 10.310625,7.32732955 C9.89467905,7.40863636 9.70540541,8.40272727 9.88829392,9.54869318 C10.0552196,10.6015909 10.4789189,11.4151705 10.8693243,11.4765341 Z M10.963277,8.53107955 C11.0038682,8.39659091 11.0581419,8.29176136 11.1274662,8.23602273 C11.1566554,8.2125 11.1885811,8.19613636 11.2223311,8.19 C11.2994088,8.17465909 11.3805912,8.20840909 11.4594932,8.27948864 L11.4594932,8.27948864 L11.4604054,8.27948864 C11.4604054,8.27232955 11.4608615,8.26517045 11.4613176,8.25801136 C11.4882264,7.96090909 11.8416892,5.36573864 14.0701014,5.596875 C14.0701014,5.596875 16.0239527,6.40227273 17.8013007,5.69045455 C17.9919426,5.68585227 18.1780236,5.68431818 18.3504223,5.69147727 C19.0865372,5.72215909 19.5905068,6.14965909 20.1181926,6.42579545 C20.0985811,6.15323864 19.9120439,5.87454545 19.9211655,5.69147727 C20.0059966,5.71857955 20.0826182,5.75846591 20.1569595,5.80346591 C20.5364189,6.25755682 20.9053885,7.01897727 21.1972804,8.26414773 C21.1977365,8.26926136 21.1977365,8.274375 21.1981926,8.28 C21.1991047,8.27948864 21.1995608,8.27846591 21.200473,8.27795455 C21.200473,8.27846591 21.2013851,8.27846591 21.2013851,8.27948864 L21.2050338,8.27335227 C21.2821115,8.20585227 21.3605574,8.17465909 21.4358108,8.18948864 C21.4554223,8.19306818 21.4732095,8.20022727 21.4909966,8.20943182 C21.735,8.33727273 21.8389865,8.97340909 21.7240541,9.69903409 C21.6351182,10.2559091 21.4412838,10.7140909 21.2346791,10.9104545 C21.1525845,10.9886932 21.0677534,11.025 20.987027,11.0091477 C20.941875,11.0004545 20.9012838,10.9753977 20.8638851,10.9365341 C20.4128209,12.5089773 19.5540203,14.0752841 18.4703716,15.0264205 C17.8236486,15.5935227 17.0975676,15.9422727 16.329527,15.9422727 C15.5779054,15.9422727 14.8664189,15.6088636 14.2301858,15.0627273 C13.1269257,14.1151705 12.2517061,12.5294318 11.7951689,10.9370455 C11.7577703,10.9759091 11.7171791,11.0009659 11.6715709,11.0096591 C11.5776182,11.0275568 11.4791047,10.9753977 11.3846959,10.8695455 C11.193598,10.6547727 11.0184628,10.220625 10.9359122,9.69954545 C10.9299831,9.66528409 10.9272466,9.63255682 10.9231419,9.59880682 C10.9267905,9.23369318 10.9413851,8.87982955 10.963277,8.53107955 Z" id="Shape" fill="#000000" fill-rule="nonzero"></path>
                </g>
                <g id="noun_38103_cc-copy-3" fill-rule="nonzero" fill="#000000">
                    <path d="M28.2803684,43.4827895 C28.2680526,43.4827895 28.2581053,43.4766316 28.2457895,43.4766316 L4.401,43.4766316 C4.38821053,43.4766316 4.37826316,43.4827895 4.36547368,43.4827895 C4.02536842,43.5022105 3.75347368,43.7788421 3.75347368,44.1241579 C3.75347368,44.4808421 4.04384211,44.7712105 4.40147368,44.7712105 L28.2457895,44.7712105 C28.6024737,44.7712105 28.8923684,44.4808421 28.8923684,44.1241579 C28.8923684,43.7788421 28.6204737,43.5022105 28.2803684,43.4827895 Z" id="Shape"></path>
                    <path d="M30.9685263,24.8286316 L1.67684211,24.8286316 C0.858789474,24.8286316 0.196105263,25.4913158 0.196105263,26.3098421 L1.67684211,41.3502632 C1.67684211,42.1678421 2.34047368,42.8300526 3.15805263,42.8300526 L29.4877895,42.8300526 C30.3063158,42.8300526 30.969,42.1678421 30.969,41.3502632 L32.4502105,26.3098421 C32.4497368,25.4913158 31.7861053,24.8286316 30.9685263,24.8286316 Z M16.3132105,35.0483684 C15.5988947,35.0483684 15.0186316,34.4666842 15.0186316,33.7514211 C15.0186316,33.0371053 15.5993684,32.4573158 16.3132105,32.4573158 C17.0284737,32.4573158 17.6092105,33.0375789 17.6092105,33.7514211 C17.6092105,34.4666842 17.0284737,35.0483684 16.3132105,35.0483684 Z" id="Shape"></path>
                    <path d="M29.3731579,24.4160526 C29.3731579,20.6351053 26.8877368,18.6494211 23.4596842,17.5689474 C24.9134211,17.7333158 26.1843158,17.9834211 26.1843158,17.9834211 C23.2915263,16.3918421 23.3658947,10.6782632 23.3658947,10.6782632 C23.8722632,-0.387947368 16.5708947,0.191842105 16.5708947,0.191842105 L16.5637895,0.210789474 L16.5585789,0.191842105 C16.5585789,0.191842105 9.25436842,-0.385578947 9.76357895,10.6787368 C9.76357895,10.6787368 9.83415789,16.3927895 6.94089474,17.9838947 C6.94089474,17.9838947 7.72010526,17.9303684 8.76457895,17.91 C5.81352632,19.2301579 3.75347368,20.9761579 3.75347368,24.4184211 L29.3731579,24.4160526 Z M22.2404211,8.78636842 C22.2342632,9.063 22.2129474,9.33442105 22.1755263,9.60347368 C22.0661053,11.0676316 21.6942632,12.4171579 21.1272632,13.5492632 C20.1031579,15.6078947 18.4400526,16.9455789 16.5614211,16.9455789 C13.6951579,16.9455789 11.3324211,13.8372632 10.9610526,9.80242105 C10.9601053,9.80242105 13.2214737,9.42726316 14.5724211,8.89484211 C14.5724211,8.89484211 17.0147368,8.07726316 20.0046316,5.92531579 C20.0202632,5.91584211 20.0368421,5.90542105 20.0486842,5.89405263 L22.2404211,8.78636842 Z M18.5182105,19.7843684 L16.5604737,22.9651579 L14.6051053,19.7843684 C13.1807368,19.4627368 12.0836842,18.8000526 11.6422105,17.9815263 C12.7885263,18.0814737 13.7628947,18.2917895 14.0139474,18.7053158 L12.9358421,16.3027895 C13.9708421,17.3335263 15.2152105,17.9374737 16.5604737,17.9374737 C17.8749474,17.9374737 19.0956316,17.3619474 20.1168947,16.3743158 L19.3665789,17.9374737 C19.6171579,17.523 20.5616842,17.4116842 21.6734211,17.4391579 C21.4943684,18.5035263 20.2419474,19.3940526 18.5182105,19.7843684 Z" id="Shape"></path>
                </g>
                <g id="noun_38103_cc-copy-4" transform="translate(66.000000, 0.000000)" fill-rule="nonzero" fill="#000000">
                    <path d="M28.2803684,43.4827895 C28.2680526,43.4827895 28.2581053,43.4766316 28.2457895,43.4766316 L4.401,43.4766316 C4.38821053,43.4766316 4.37826316,43.4827895 4.36547368,43.4827895 C4.02536842,43.5022105 3.75347368,43.7788421 3.75347368,44.1241579 C3.75347368,44.4808421 4.04384211,44.7712105 4.40147368,44.7712105 L28.2457895,44.7712105 C28.6024737,44.7712105 28.8923684,44.4808421 28.8923684,44.1241579 C28.8923684,43.7788421 28.6204737,43.5022105 28.2803684,43.4827895 Z" id="Shape"></path>
                    <path d="M30.9685263,24.8286316 L1.67684211,24.8286316 C0.858789474,24.8286316 0.196105263,25.4913158 0.196105263,26.3098421 L1.67684211,41.3502632 C1.67684211,42.1678421 2.34047368,42.8300526 3.15805263,42.8300526 L29.4877895,42.8300526 C30.3063158,42.8300526 30.969,42.1678421 30.969,41.3502632 L32.4502105,26.3098421 C32.4497368,25.4913158 31.7861053,24.8286316 30.9685263,24.8286316 Z M16.3132105,35.0483684 C15.5988947,35.0483684 15.0186316,34.4666842 15.0186316,33.7514211 C15.0186316,33.0371053 15.5993684,32.4573158 16.3132105,32.4573158 C17.0284737,32.4573158 17.6092105,33.0375789 17.6092105,33.7514211 C17.6092105,34.4666842 17.0284737,35.0483684 16.3132105,35.0483684 Z" id="Shape"></path>
                    <path d="M29.3731579,24.4160526 C29.3731579,20.6351053 26.8877368,18.6494211 23.4596842,17.5689474 C24.9134211,17.7333158 26.1843158,17.9834211 26.1843158,17.9834211 C23.2915263,16.3918421 23.3658947,10.6782632 23.3658947,10.6782632 C23.8722632,-0.387947368 16.5708947,0.191842105 16.5708947,0.191842105 L16.5637895,0.210789474 L16.5585789,0.191842105 C16.5585789,0.191842105 9.25436842,-0.385578947 9.76357895,10.6787368 C9.76357895,10.6787368 9.83415789,16.3927895 6.94089474,17.9838947 C6.94089474,17.9838947 7.72010526,17.9303684 8.76457895,17.91 C5.81352632,19.2301579 3.75347368,20.9761579 3.75347368,24.4184211 L29.3731579,24.4160526 Z M22.2404211,8.78636842 C22.2342632,9.063 22.2129474,9.33442105 22.1755263,9.60347368 C22.0661053,11.0676316 21.6942632,12.4171579 21.1272632,13.5492632 C20.1031579,15.6078947 18.4400526,16.9455789 16.5614211,16.9455789 C13.6951579,16.9455789 11.3324211,13.8372632 10.9610526,9.80242105 C10.9601053,9.80242105 13.2214737,9.42726316 14.5724211,8.89484211 C14.5724211,8.89484211 17.0147368,8.07726316 20.0046316,5.92531579 C20.0202632,5.91584211 20.0368421,5.90542105 20.0486842,5.89405263 L22.2404211,8.78636842 Z M18.5182105,19.7843684 L16.5604737,22.9651579 L14.6051053,19.7843684 C13.1807368,19.4627368 12.0836842,18.8000526 11.6422105,17.9815263 C12.7885263,18.0814737 13.7628947,18.2917895 14.0139474,18.7053158 L12.9358421,16.3027895 C13.9708421,17.3335263 15.2152105,17.9374737 16.5604737,17.9374737 C17.8749474,17.9374737 19.0956316,17.3619474 20.1168947,16.3743158 L19.3665789,17.9374737 C19.6171579,17.523 20.5616842,17.4116842 21.6734211,17.4391579 C21.4943684,18.5035263 20.2419474,19.3940526 18.5182105,19.7843684 Z" id="Shape"></path>
                </g>
            </g>
        </g>
    </g>
</svg>