<?xml version="1.0" encoding="UTF-8"?>
<svg width="515px" height="114px" viewBox="0 0 515 114" version="1.1" xmlns="http://www.w3.org/2000/svg" xmlns:xlink="http://www.w3.org/1999/xlink">
    <!-- Generator: Sketch 47 (45396) - http://www.bohemiancoding.com/sketch -->
    <title>logo</title>
    <desc>Created with Sketch.</desc>
    <defs></defs>
    <g id="Page-1" stroke="none" stroke-width="1" fill="none" fill-rule="evenodd">
        <g id="logo" transform="translate(1.000000, 1.000000)">
            <g id="Group-3">
                <g id="Group-2">
                    <g id="Shape">
                        <g id="path-1-link" transform="translate(2.000000, 2.000000)" fill="#00CE5B">
                            <path d="M91.595,28.802 C91.556,28.724 91.516,28.648 91.472,28.574 C91.354,28.375 91.217,28.191 91.069,28.013 C91.004,27.936 90.948,27.853 90.878,27.781 C90.86,27.76 90.846,27.737 90.826,27.718 C90.616,27.508 90.387,27.327 90.143,27.168 C90.135,27.163 90.13,27.155 90.122,27.15 L48.538,0.718 C47.861,0.288 47.08,0.06 46.278,0.06 C45.476,0.06 44.694,0.288 44.017,0.716 L2.439,27.15 C2.402,27.173 2.377,27.207 2.341,27.231 C2.084,27.404 1.841,27.6 1.626,27.826 C1.625,27.826 1.625,27.827 1.624,27.828 C1.62,27.832 1.617,27.837 1.613,27.841 C1.382,28.086 1.196,28.36 1.032,28.646 C1.018,28.671 1.006,28.697 0.992,28.723 C0.658,29.335 0.465,30.017 0.465,30.73 L0.465,77.029 C0.465,78.482 1.198,79.813 2.429,80.593 L44.013,107.04 C44.69,107.472 45.473,107.699 46.278,107.699 C47.083,107.699 47.866,107.471 48.545,107.04 L90.13,80.591 C91.359,79.814 92.093,78.482 92.093,77.029 L92.093,30.73 C92.093,30.06 91.906,29.401 91.595,28.802 L91.595,28.802 Z" id="path-1"></path>
                        </g>
                        <path d="M3.41884275,28.0446023 C3.47654224,27.9938033 3.55107933,27.9357841 3.63422266,27.8841669 L45.2154469,1.44812279 C46.1331382,0.86795751 47.1932227,0.56 48.278,0.56 C49.3643539,0.56 50.4243749,0.86883876 51.3426513,1.45208676 L92.9169984,27.8780025 C92.9330788,27.8899073 92.9480435,27.900986 92.9619848,27.9113123 C93.299338,28.1311499 93.6073771,28.3780568 93.8591242,28.6305008 C93.9730416,28.7511772 94.0014845,28.7813076 94.0264153,28.8132845 C94.0758704,28.8684946 94.1193821,28.9226431 94.1797575,29.0003169 L94.1867298,29.0092872 C94.211693,29.0412033 94.2124529,29.0421583 94.2223935,29.0539987 C94.4319027,29.305976 94.6082546,29.5492763 94.7613038,29.8073869 C94.820713,29.9073023 94.874313,30.0069575 94.9315849,30.121086 C95.3586328,30.9471975 95.593,31.8360109 95.593,32.73 L95.593,79.029 C95.593,80.9965562 94.595275,82.8070367 92.935006,83.8566877 L51.3488645,110.306413 C50.4291839,110.890187 49.3673118,111.199 48.278,111.199 C47.1866206,111.199 46.1237503,110.890042 45.2080236,110.305707 L3.62615253,83.860058 C1.96160808,82.8053507 0.965,80.9965274 0.965,79.029 L0.965,32.73 C0.965,31.778932 1.21361671,30.8504176 1.67129335,30.0118503 C1.66447698,30.0248502 1.66447698,30.0248502 1.67296935,30.0081095 C1.68925731,29.9757548 1.68925731,29.9757548 1.73075671,29.8998325 C1.94881208,29.5195652 2.17963773,29.1890068 2.47455614,28.8642735 C2.54582636,28.7718581 2.60422685,28.706163 2.67724225,28.6524768 C2.90172068,28.4338065 3.14816956,28.2330378 3.41884275,28.0446023 Z" stroke="#FFFFFF" stroke-width="3"></path>
                    </g>
                    <polygon id="Path" fill="#FFFFFF" fill-rule="nonzero" points="48.278 11.26 82.005 32.696 48.278 54.164 14.55 32.697"></polygon>
                    <path d="M48.278,100.495 L10.886,76.707 L10.886,40.345 L46.016,62.706 C46.694,63.138 47.476,63.366 48.278,63.366 C49.08,63.366 49.861,63.138 50.54,62.706 L85.673,40.345 L85.673,76.707 L48.278,100.495 Z" id="Path" fill="#00CE5B" fill-rule="nonzero"></path>
                    <path d="M3.10760237,55.0894258 L45.9266575,83.0376353 L45.9266575,83.0376353 C47.6061288,84.1338345 49.7780914,84.1204345 51.4439092,83.0035963 L76.9930899,65.8742918" id="Path-6" stroke="#FFFFFF" stroke-width="4" stroke-linecap="square"></path>
                    <ellipse id="Oval-3" fill="#FFFFFF" fill-rule="nonzero" transform="translate(73.068906, 68.088916) rotate(20.000000) translate(-73.068906, -68.088916) " cx="73.0689056" cy="68.088916" rx="6.22530929" ry="9.46981691"></ellipse>
                    <path d="M48.279,38.895 C42.492,38.895 37.603,36.057 37.603,32.697 C37.603,29.337 42.492,26.498 48.279,26.498 C54.065,26.498 58.955,29.337 58.955,32.697 C58.955,36.057 54.065,38.895 48.279,38.895" id="Shape" fill="#00CE5B" fill-rule="nonzero"></path>
                </g>
            </g>
            <path d="M131,29 L131,79.6488992 L143.015968,79.6488992 L143.015968,58.5272306 C143.015968,53.7856315 147.189179,50.8400927 150.642871,50.9119351 C153.664851,50.9837775 156.470975,53.2108922 156.470975,58.3117034 L156.470975,79.6488992 L167.911328,79.6488992 L167.911328,58.239861 C168.055232,48.5411356 164.9613,40.3511008 153.880706,40.207416 C149.707496,40.207416 145.246478,41.2132097 142.440353,44.6616454 L142.440353,29 L131,29 Z M190.792035,63.0533024 L188.057862,53.2108922 L183.237084,40.7821553 L171.436972,40.7821553 L171.436972,42.5782155 L184.388315,76.4878331 L179.351681,89.2757822 L179.351681,91 L191.079842,91 C197.41161,74.8354577 203.81533,58.7427578 210.219049,42.5782155 L210.219049,40.7821553 L198.490889,40.7821553 L193.670111,53.2108922 L190.792035,63.0533024 Z M235.618073,80.2954809 C231.804621,80.2954809 228.135074,79.0023175 225.544806,76.0567787 L225.544806,91 L214.320308,91 L214.320308,40.7821553 L225.544806,40.7821553 L225.544806,44.6616454 C228.207026,41.3568946 232.020477,40.2792584 235.761976,40.2792584 C248.137704,40.2792584 254.541424,50.193511 254.469472,60.8980301 C254.325568,71.5307068 248.209656,80.2954809 235.618073,80.2954809 Z M234.39489,51.1274623 C229.50216,51.1274623 225.544806,55.2943221 225.544806,60.4669757 C225.544806,65.6396292 229.50216,69.8783314 234.39489,69.8783314 C240.151043,69.8783314 243.029119,65.2804171 243.101071,60.6106605 C243.173023,55.9409038 240.222995,51.1274623 234.39489,51.1274623 Z M299.007702,60.1077636 C299.007702,61.6882966 298.863799,63.1251448 298.575991,64.561993 L270.658651,64.561993 C272.025737,68.1541136 275.551381,69.9501738 279.005072,70.0220162 C281.523389,70.0220162 283.897802,69.1599073 285.552696,67.363847 L297.856472,67.363847 C294.834492,75.9849363 286.631974,80.2236385 278.429457,80.0799537 C268.572046,79.8644264 258.786587,73.2549247 258.786587,60.1077636 C258.786587,46.7450753 268.931805,40.1355736 279.077024,40.207416 C289.078339,40.2792584 299.007702,46.8887601 299.007702,60.1077636 Z M271.090363,55.7253766 L286.631974,55.7253766 C285.552696,51.8458864 282.386812,50.0498262 278.717265,50.0498262 C275.335525,50.0498262 272.241593,51.9177289 271.090363,55.7253766 Z M315.700545,58.0961761 C315.700545,52.8516802 319.873755,50.6964079 323.975014,50.6245655 C325.270148,50.6245655 326.637235,50.8400927 327.788465,51.1993048 L327.932369,40.566628 C326.421379,40.207416 324.910389,39.9918888 323.543303,39.9918888 C320.377419,39.9918888 317.571294,40.9976825 315.052978,43.368482 L314.621266,40.7821553 L304.404095,40.7821553 L304.404095,79.6488992 L315.700545,79.6488992 L315.700545,58.0961761 Z M356.569228,79.7207416 L356.209468,70.3812283 C355.202142,70.5967555 354.050911,70.7404403 352.971633,70.7404403 C350.23746,70.7404403 347.719143,69.6628042 347.719143,66.2143685 L347.719143,50.9119351 L355.849709,50.9119351 L355.849709,41.2132097 L347.719143,41.2132097 L347.719143,32.8076477 L336.422694,33.8134415 L336.422694,41.2132097 L331.314109,41.2132097 L331.314109,50.9119351 L336.422694,50.9119351 L336.422694,66.2143685 C336.422694,76.3441483 341.675183,80.3673233 350.381364,80.2954809 C352.252113,80.2954809 354.338719,80.0799537 356.569228,79.7207416 Z M372.902311,58.0961761 C372.902311,52.8516802 377.075521,50.6964079 381.17678,50.6245655 C382.471914,50.6245655 383.839001,50.8400927 384.990231,51.1993048 L385.134135,40.566628 C383.623145,40.207416 382.112155,39.9918888 380.745069,39.9918888 C377.579185,39.9918888 374.77306,40.9976825 372.254744,43.368482 L371.823032,40.7821553 L361.605861,40.7821553 L361.605861,79.6488992 L372.902311,79.6488992 L372.902311,58.0961761 Z M407.727034,40.1355736 C411.540485,40.1355736 415.281984,41.5724218 417.800301,44.8053302 L417.800301,40.7821553 L429.09675,40.7821553 L429.09675,79.6488992 L417.800301,79.6488992 L417.800301,75.769409 C415.13808,79.0741599 411.324629,80.1517961 407.58313,80.1517961 C395.207402,80.1517961 388.803682,70.2375435 388.875634,59.5330243 C389.019538,48.9003476 395.13545,40.1355736 407.727034,40.1355736 Z M408.950216,69.3035921 C413.842946,69.3035921 417.800301,65.1367323 417.800301,59.9640788 C417.800301,54.7914253 413.842946,50.5527231 408.950216,50.5527231 C403.194064,50.5527231 400.315987,55.0787949 400.244035,59.820394 C400.172083,64.4901506 403.122112,69.3035921 408.950216,69.3035921 Z M461.978771,63.1251448 C459.028743,72.7520278 445.070073,71.1714948 445.070073,60.179606 C445.070073,49.1877173 459.100695,47.6790267 461.978771,57.3059096 L473.203269,57.3059096 C470.037385,33.382387 433.98948,35.0347625 433.98948,60.179606 C433.98948,85.3244496 469.965433,86.976825 473.203269,63.1251448 L461.978771,63.1251448 Z M489.608304,56.0845886 L489.608304,29.3592121 L478.311854,29.3592121 L478.311854,79.6488992 L489.608304,79.6488992 L489.608304,64.4901506 L500.760849,79.6488992 L514,79.6488992 L514,79.1460023 L499.537667,60.1077636 L512.704866,41.3568946 L512.704866,40.7821553 L500.329138,40.7821553 L489.608304,56.0845886 Z" id="hypertrack" fill="#00CE5B" fill-rule="nonzero"></path>
        </g>
    </g>
</svg>