<?xml version="1.0" encoding="UTF-8"?>
<svg width="31px" height="33px" viewBox="0 0 31 33" version="1.1" xmlns="http://www.w3.org/2000/svg" xmlns:xlink="http://www.w3.org/1999/xlink" style="background: #000000;">
    <!-- Generator: Sketch 48.2 (47327) - http://www.bohemiancoding.com/sketch -->
    <title>UI/icons/platforms/xamarin/white</title>
    <desc>Created with Sketch.</desc>
    <defs></defs>
    <g id="Symbols" stroke="none" stroke-width="1" fill="none" fill-rule="evenodd">
        <g id="UI/icons/platforms/xamarin/white" fill="#FFFFFF" fill-rule="nonzero">
            <g id="xamarin" transform="translate(0.000000, 3.000000)">
                <path d="M8.94471094,0 C8.10746875,0.00181640625 7.28790625,0.477109375 6.8665,1.20209766 L0.311210937,12.5892695 C-0.103777344,13.3161953 -0.103777344,14.266418 0.311210937,14.9933438 L6.8665,26.3806367 C7.28790625,27.105625 8.10746875,27.5810391 8.94471094,27.5827344 L22.0552891,27.5827344 C22.8925312,27.580918 23.7120937,27.105625 24.1335,26.3806367 L30.6887891,14.9933438 C31.1037773,14.266418 31.1036563,13.3161953 30.6887891,12.5892695 L24.1335,1.20209766 C23.7120937,0.476988281 22.8925312,0.0016953125 22.0552891,0 L8.94471094,0 Z M9.06374609,6.66173047 C9.08178906,6.65991406 9.10067969,6.65991406 9.11872266,6.66173047 L11.3800273,6.66173047 C11.4821568,6.66504391 11.5754743,6.72043118 11.6273008,6.80849609 L15.4634297,13.6444805 C15.4828047,13.6783867 15.4951562,13.7159258 15.4997578,13.7546758 C15.5046016,13.7159258 15.5169531,13.6783867 15.5363281,13.6444805 L19.3632539,6.80849609 C19.4169012,6.71784695 19.5142758,6.66209921 19.6196094,6.66173047 L21.8810352,6.66173047 C22.0812031,6.66342578 22.2312383,6.91566406 22.1373906,7.09294531 L18.3928086,13.7913672 L22.1373906,20.4805859 C22.2400781,20.6588359 22.0865313,20.9226992 21.8810352,20.9210039 L19.6196094,20.9210039 C19.5123731,20.9187406 19.4145586,20.8592295 19.3632539,20.7650352 L15.5363281,13.9289297 C15.5169531,13.8951445 15.5046016,13.8574844 15.4998789,13.8188555 C15.4951657,13.8576429 15.482775,13.8951032 15.4634297,13.9290508 L11.6271797,20.7650352 C11.5775896,20.856472 11.4840238,20.9155468 11.3801484,20.9210039 L9.11860156,20.9210039 C8.91310547,20.9228203 8.75955859,20.6588359 8.86224609,20.4805859 L12.6068281,13.7913672 L8.86224609,7.09294531 C8.77251562,6.93116406 8.88198437,6.69624219 9.063625,6.66173047 L9.06374609,6.66173047 Z" id="Shape"></path>
            </g>
        </g>
    </g>
</svg>