<?xml version="1.0" encoding="UTF-8"?>
<svg width="80px" height="80px" viewBox="0 0 80 80" version="1.1" xmlns="http://www.w3.org/2000/svg" xmlns:xlink="http://www.w3.org/1999/xlink">
    <!-- Generator: Sketch 48.2 (47327) - http://www.bohemiancoding.com/sketch -->
    <title>UI/icons/Consumption points/events</title>
    <desc>Created with Sketch.</desc>
    <defs></defs>
    <g id="Symbols" stroke="none" stroke-width="1" fill="none" fill-rule="evenodd">
        <g id="UI/icons/Consumption-points/events" fill="#F6CF00">
            <rect id="Rectangle-2" fill-opacity="0.0998075181" x="0" y="0" width="80" height="80" rx="7"></rect>
            <path d="M66.9753977,37.0041976 C66.5258017,31.5283488 64.1855969,26.2427137 59.6838727,22.9226201 C55.3204858,19.6947513 49.7178279,19.2912677 44.685811,20.9743707 C42.2147917,21.8138112 39.8833406,23.0183942 37.7689493,24.5480826 C36.6131802,25.3899328 35.5011894,26.290299 34.4373276,27.2456586 C33.9416192,27.6837265 33.474731,28.1506147 32.9963148,28.6117388 C32.8176292,28.7846603 32.6389436,28.9575819 32.4717861,29.1362675 C32.1028868,29.5166949 32.1432352,29.6550321 31.676347,29.4821105 C28.9672429,28.4676375 26.4368243,26.8882874 23.9121698,25.5106791 C21.7794708,24.3578689 19.3009287,22.5479567 16.7935663,23.5393736 C15.6069607,24.0248306 14.6840497,24.9937844 14.2568906,26.2026005 C13.8297316,27.4114167 13.9389611,28.7450977 14.5571144,29.868302 C15.2806597,31.0106731 16.1485913,32.0549033 17.1394094,32.9751257 C17.9694328,33.8339694 18.8052202,34.7331614 19.6986482,35.5631848 C20.9955598,36.7678715 22.2867073,37.9783223 23.5893829,39.177245 C23.8545293,39.4250992 24.4194063,39.7536501 24.4366985,40.0360887 C24.4539906,40.3185272 24.0677992,40.6989546 23.9582822,40.9064604 C23.7623044,41.2753597 23.5778548,41.6557871 23.3818771,42.0246864 C22.1444345,44.3950965 21.2128223,46.9129673 20.6093683,49.5179532 C20.0329632,52.0656639 20.0329632,54.8669929 21.6007852,57.0803886 C23.1686072,59.2937844 26.1140374,59.9163019 28.6213998,59.2707282 C31.226751,58.5963341 33.5093154,57.0458043 35.6477784,55.4664542 C36.8005887,54.6133746 37.9015225,53.7372388 39.0139844,52.8149906 C39.526985,52.3942148 40.0572777,51.9792031 40.5645143,51.5468993 C40.8296606,51.3163372 40.875773,51.1895281 41.1697397,51.2241124 C41.5391438,51.3410101 41.8932601,51.5016203 42.2245611,51.7025287 C47.0029597,53.7199467 52.65173,54.8900491 57.6606907,52.9821481 C62.7618762,51.0454268 65.9609247,46.3765452 66.77942,41.079382 C66.9753575,39.7304225 67.040986,38.365734 66.9753977,37.0041976 Z M29.7050414,29.8625379 L31.1979307,30.5081117 C30.5754132,31.2286181 29.9586597,31.9433605 29.3649624,32.6811591 C26.9901732,30.5484601 24.719137,28.3811767 22.5057412,26.0870843 C24.8862945,27.407052 27.2783758,28.6463231 29.7050414,29.8625379 Z M20.2577612,34.5314196 C19.3297489,33.6034073 18.3671523,32.6811591 17.4794884,31.7300906 C16.5918245,30.7790221 15.3986659,29.6319759 15.1738679,28.2428395 C14.9595863,26.9783642 15.4966839,25.7041618 16.5514762,24.9746224 C17.7042864,24.1330709 19.1510633,24.3290486 20.3903344,24.9227459 C20.50784,24.9595913 20.6173474,25.018256 20.7131213,25.0956674 C20.8226382,25.2397687 20.684301,25.5337353 20.793818,25.7931177 C20.8727749,25.937285 20.9696072,26.0709136 21.0820205,26.1908372 C21.4105715,26.5885567 21.808291,26.951692 22.1714263,27.3436475 C23.2550679,28.4618735 24.3329455,29.5973916 25.4165872,30.7098535 C27.3086256,32.5774396 29.3083265,34.3327112 31.4054366,35.9666684 C33.7882028,37.92627 36.276214,39.7542752 38.858355,41.4425172 L34.8581034,45.0219931 C34.6563616,45.2006787 34.3335747,45.5983982 34.0799564,45.7136793 C33.8263382,45.8289603 34.0396081,45.80014 33.7225853,45.6733309 C33.0035284,45.2802835 32.3290602,44.8106681 31.7109313,44.2726664 C29.0306474,42.3244171 26.4598805,40.2378304 23.9871025,38.0186707 C22.7247752,36.8716244 21.5027963,35.6899939 20.2577612,34.5314196 Z M30.6330537,48.4746599 C30.3563792,48.6764017 30.0566486,48.8781435 29.7972663,49.051065 C30.2605802,47.8115625 30.7975953,46.6008725 31.4054366,45.4254767 C31.9357293,45.8174322 32.4833142,46.1863315 33.025135,46.578287 L30.6330537,48.4746599 Z M36.2933522,53.5873735 C34.6279164,54.9012616 32.864776,56.0863233 31.0192452,57.1322651 C29.2900297,58.0429852 27.1976791,58.7461995 25.2551938,58.2216708 C20.3211658,56.8901749 21.2088297,50.9359098 22.4192805,47.3045575 C23.2020626,45.0229169 24.191836,42.8176323 25.3762388,40.7162467 C26.7134988,41.869057 28.0795789,42.9719122 29.4744794,44.0248122 C29.7672584,44.1812493 30.0385102,44.3750006 30.2814466,44.6012174 C30.4543681,44.8490716 30.4255479,44.6415657 30.2814466,44.9931728 C30.2114499,45.1549622 30.1325539,45.3127541 30.0451205,45.4658251 C29.6416369,46.3016125 29.2612095,47.143164 28.8923102,48.0020077 C28.753973,48.3420867 28.6329279,48.6879298 28.5118828,49.0337729 C28.4388172,49.3938033 28.3186606,49.7426449 28.1545116,50.0713021 C27.8288177,50.3271154 27.4598242,50.52235 27.0651059,50.6477073 C26.6673863,50.8321569 25.7970146,50.9070896 25.6125649,51.287517 C25.2897781,51.9734391 26.0563969,52.1809449 26.5578694,52.071428 C26.9587964,51.9504755 27.3453484,51.7861909 27.7106797,51.5814836 C28.4437697,51.228066 29.1490057,50.8195686 29.8203225,50.3595047 C32.6504717,48.4804239 35.1751262,46.1690393 37.728601,43.9441155 C38.8814113,42.9238784 40.0342215,41.8517648 41.1293913,40.7911794 C42.2519122,39.7941366 43.3107371,38.7276112 44.2996196,37.5978949 C44.6224064,37.2001754 44.9682495,36.4047363 44.1612823,36.260635 C43.6252255,36.1626461 43.2505622,37.0560741 42.9450675,37.4134453 C42.2764375,38.1800641 41.5155827,38.8659862 40.7893123,39.5807286 C40.4607613,39.9035155 40.5011097,39.9208076 40.0630418,39.8401109 C39.4462883,39.7248299 38.8295348,39.5864926 38.2127813,39.4596835 C37.394286,39.286762 36.7141279,38.5950758 36.0397339,38.1166595 C36.8755214,37.0791303 37.7689493,36.0761853 38.6681414,35.1193528 C39.1350295,34.6351725 39.6249739,34.1625203 40.1206823,33.7071602 C40.6163907,33.2518002 40.8008404,33.4996544 41.3541893,33.5918792 L45.6714638,34.3412059 C46.9568473,34.5660039 48.2998712,34.8253862 49.27976,35.7591625 C51.2510655,37.6555354 50.4325702,40.2724148 48.8416921,42.099619 C46.9454958,44.1243149 44.9445503,46.048301 42.8470786,47.8636704 C40.7431999,49.8407401 38.5470963,51.7025287 36.2818241,53.5873735 L36.2933522,53.5873735 Z M58.3408488,39.4654476 C58.0814664,41.194663 57.5627018,43.0103392 56.127453,44.1516213 C54.7273288,45.1515624 52.9920677,45.5652122 51.2914139,45.3044316 C50.2138511,45.1895139 49.1501187,44.9694313 48.1154216,44.6473298 C49.9368618,42.8316536 52.0061563,40.7623591 51.6891334,37.9610301 C51.3548185,35.0213639 48.8071078,33.7648007 46.1844644,33.3036766 L41.6481559,32.4794173 C44.2650353,30.4677633 47.2738701,28.5310421 50.6977166,28.519514 C54.1215631,28.5079859 56.5482288,31.101809 57.6491626,34.1221719 C58.2467199,35.8361363 58.4765072,37.6567589 58.3235566,39.4654476 L58.3408488,39.4654476 Z M65.8571718,38.6757725 C65.661194,42.9123503 64.2086531,47.0451751 60.8827954,49.834976 C57.5569378,52.6247769 53.0436855,53.1896539 48.8589842,52.5094959 C46.4679277,52.0832629 44.1426888,51.3469372 41.9421225,50.3191563 C43.4638321,48.9473121 45.0316541,47.6100522 46.5187793,46.2036236 C46.8876786,45.8520165 46.9799035,45.569578 47.4640838,45.6272185 C47.9482641,45.684859 48.3978601,45.903893 48.8647483,46.019174 C49.7341131,46.2433199 50.6212433,46.3918178 51.5162119,46.463006 C53.2957097,46.647584 55.0841717,46.2096349 56.577049,45.2237349 C57.9709516,44.1308299 58.922857,42.5709333 59.2573329,40.8315277 C60.0701676,37.0845705 59.1253668,33.1716091 56.6923301,30.208381 C53.9832259,27.0842652 49.9483899,26.8133548 46.259397,28.30048 C42.7029773,29.7472569 39.6826144,32.3814284 37.1060834,35.1712293 C36.7890606,35.5113083 36.4893299,35.8571514 36.1895993,36.2087585 C36.045498,36.3816801 35.4345085,37.3615688 35.1924184,37.4134453 C34.9503282,37.4653217 34.1837094,36.715995 33.9704395,36.5257814 C33.7571696,36.3355677 33.4977873,36.1626461 33.2672252,35.9493762 L31.8089202,34.7446895 C31.2992896,34.4179073 30.8309397,34.0308412 30.4140198,33.5918792 C30.3851995,33.5457668 30.2410982,33.4938903 30.2295701,33.4362498 C30.218042,33.3786093 30.667638,32.8598447 30.7483347,32.790676 C31.0711216,32.3987206 31.4112006,32.0182932 31.7455156,31.6378658 C34.2158764,28.7205922 37.1343277,26.2146154 40.3915927,24.2137676 C43.6252255,22.3058666 47.4122073,20.9628426 51.2280093,21.1530563 C55.0628164,21.3294364 58.6687345,23.0286579 61.2459307,25.8738144 C63.7559689,28.7083242 65.3212878,32.2539628 65.7245986,36.0185448 C65.8215093,36.9008695 65.8657788,37.7881834 65.8571718,38.6757725 Z" id="Shape" stroke="#F6CF00" fill-rule="nonzero"></path>
        </g>
    </g>
</svg>