<?xml version="1.0" encoding="UTF-8"?>
<svg width="78px" height="91px" viewBox="0 0 78 91" version="1.1" xmlns="http://www.w3.org/2000/svg" xmlns:xlink="http://www.w3.org/1999/xlink">
    <!-- Generator: Sketch 48.2 (47327) - http://www.bohemiancoding.com/sketch -->
    <title>Illustrator/regular</title>
    <desc>Created with Sketch.</desc>
    <defs></defs>
    <g id="Symbols" stroke="none" stroke-width="1" fill="none" fill-rule="evenodd">
        <g id="Illustrator/regular">
            <g id="noun_190160_cc" transform="translate(38.933013, 46.116025) rotate(-330.000000) translate(-38.933013, -46.116025) translate(19.433013, 11.116025)" fill="#5FE6A6" fill-rule="nonzero">
                <path d="M35.965,31.441 C35.965,26.449 35.884,26.251 31.622,20.816 C30.891,19.883 30.024,18.779 29.014,17.463 L29.014,12.688 C29.014,5.287 25.21,0.314 19.549,0.314 C13.888,0.314 10.085,5.287 10.085,12.688 L10.085,17.442 C9.069,18.767 8.2,19.878 7.465,20.817 C3.213,26.251 3.132,26.45 3.132,31.441 L3.132,51.245 C1.555,53.286 0.387,55.572 0.387,58.819 C0.387,59.108 0.556,59.351 0.796,59.476 C0.796,59.477 0.795,59.486 0.795,59.486 C0.941,59.56 2.282,60.244 4.154,61.083 L4.154,63.758 C4.154,64.172 4.49,64.508 4.904,64.508 L5.576,64.508 L4.358,68.862 C4.295,69.088 4.341,69.331 4.483,69.517 C4.625,69.705 4.846,69.814 5.081,69.814 L12.788,69.814 C12.795,69.813 12.801,69.813 12.808,69.814 C13.222,69.814 13.558,69.478 13.558,69.064 C13.558,68.933 13.525,68.811 13.466,68.704 L13.214,67.805 L17.736,67.805 C17.903,67.805 18.05,67.74 18.174,67.647 C18.527,68.876 18.976,69.71 19.55,69.71 C20.127,69.71 20.578,68.866 20.931,67.628 C21.062,67.732 21.214,67.805 21.384,67.805 L25.89,67.805 L25.593,68.863 C25.53,69.089 25.576,69.332 25.718,69.518 C25.86,69.706 26.081,69.815 26.316,69.815 L34.022,69.815 C34.256,69.815 34.478,69.706 34.62,69.518 C34.762,69.331 34.808,69.088 34.745,68.863 L33.525,64.509 L34.198,64.509 C34.612,64.509 34.948,64.173 34.948,63.759 L34.948,61.084 C36.821,60.245 38.162,59.563 38.307,59.487 C38.307,59.487 38.312,59.475 38.313,59.473 C38.549,59.347 38.715,59.106 38.715,58.82 C38.715,55.571 37.545,53.284 35.966,51.242 L35.966,31.441 L35.965,31.441 Z M29.014,19.915 C29.535,20.585 30.014,21.198 30.442,21.743 C34.465,26.873 34.465,26.873 34.465,31.442 L34.465,49.463 C34.203,49.17 33.938,48.878 33.67,48.584 C32.059,46.817 30.346,44.931 29.014,42.358 L29.014,19.915 Z M27.492,11.938 L24.161,11.938 C24.098,8.28 23.569,4.581 22.353,2.367 C25.693,3.799 27.317,7.808 27.492,11.938 Z M19.549,1.814 C21.007,1.814 22.548,5.362 22.658,11.938 L16.442,11.938 C16.553,5.362 18.093,1.814 19.549,1.814 Z M16.75,2.365 C15.532,4.576 15.002,8.279 14.939,11.939 L11.606,11.939 C11.781,7.806 13.407,3.794 16.75,2.365 Z M11.585,13.438 L27.514,13.438 L27.514,38.468 C26.98,36.496 26.654,34.198 26.654,31.429 L26.654,30.314 C26.654,25.502 24.164,20.389 19.55,20.389 C14.935,20.389 12.445,25.502 12.445,30.314 L12.445,31.429 C12.445,34.195 12.12,36.492 11.587,38.461 L11.587,13.438 L11.585,13.438 Z M22.539,23.121 C21.746,23.67 20.685,23.996 19.549,23.996 C18.41,23.996 17.35,23.669 16.559,23.121 C17.36,22.365 18.352,21.891 19.549,21.891 C20.746,21.891 21.738,22.364 22.539,23.121 Z M4.632,31.441 C4.632,26.872 4.632,26.872 8.647,21.741 C9.077,21.191 9.56,20.574 10.085,19.897 L10.085,42.356 C8.753,44.929 7.04,46.816 5.43,48.584 C5.161,48.879 4.895,49.172 4.632,49.466 L4.632,31.441 Z M3.767,56.953 L3.767,58.069 L1.912,58.069 C2.157,54.402 4.199,52.163 6.539,49.594 C8.589,47.344 10.95,44.749 12.444,40.7 L12.444,55.341 C11.334,55.867 10.497,56.861 10.175,58.069 L8.909,58.069 L8.909,56.953 C8.909,56.539 8.573,56.203 8.159,56.203 C7.745,56.203 7.409,56.539 7.409,56.953 L7.409,58.069 L5.266,58.069 L5.266,56.953 C5.266,56.539 4.93,56.203 4.516,56.203 C4.102,56.203 3.767,56.539 3.767,56.953 Z M4.455,59.569 L10.018,59.569 L10.018,61.818 C8.045,61.139 6.034,60.284 4.455,59.569 Z M5.653,61.737 C6.67,62.168 7.771,62.607 8.884,63.008 L5.653,63.008 L5.653,61.737 Z M6.068,68.314 L7.132,64.507 L10.437,64.507 L10.053,65.696 C9.979,65.925 10.019,66.175 10.16,66.368 C10.301,66.562 10.527,66.677 10.766,66.677 L11.337,66.677 L11.795,68.314 L6.068,68.314 Z M12.673,65.178 L11.798,65.178 L12.014,64.508 L12.861,64.508 L12.673,65.178 Z M13.915,66.305 L14.417,64.508 L16.223,64.508 L16.725,66.305 L13.915,66.305 Z M16.964,63.008 L11.518,63.008 L11.518,59.148 C11.518,57.647 12.74,56.425 14.242,56.425 C15.743,56.425 16.965,57.647 16.965,59.148 L16.965,63.008 L16.964,63.008 Z M19.549,67.117 C18.981,64.426 18.464,58.543 18.464,57.511 C18.464,56.912 18.951,56.425 19.549,56.425 C20.147,56.425 20.633,56.912 20.633,57.511 C20.633,58.543 20.117,64.426 19.549,67.117 Z M20.299,55.049 L20.299,51.913 L22.109,51.913 C22.523,51.913 22.859,51.577 22.859,51.163 C22.859,50.749 22.523,50.413 22.109,50.413 L20.299,50.413 L20.299,46.834 L22.109,46.834 C22.523,46.834 22.859,46.498 22.859,46.084 C22.859,45.67 22.523,45.334 22.109,45.334 L20.299,45.334 L20.299,41.757 L22.109,41.757 C22.523,41.757 22.859,41.421 22.859,41.007 C22.859,40.593 22.523,40.257 22.109,40.257 L20.299,40.257 L20.299,36.678 L22.109,36.678 C22.523,36.678 22.859,36.342 22.859,35.928 C22.859,35.514 22.523,35.178 22.109,35.178 L16.99,35.178 C16.576,35.178 16.24,35.514 16.24,35.928 C16.24,36.342 16.576,36.678 16.99,36.678 L18.799,36.678 L18.799,40.257 L16.99,40.257 C16.576,40.257 16.24,40.593 16.24,41.007 C16.24,41.421 16.576,41.757 16.99,41.757 L18.799,41.757 L18.799,45.334 L16.99,45.334 C16.576,45.334 16.24,45.67 16.24,46.084 C16.24,46.498 16.576,46.834 16.99,46.834 L18.799,46.834 L18.799,50.413 L16.99,50.413 C16.576,50.413 16.24,50.749 16.24,51.163 C16.24,51.577 16.576,51.913 16.99,51.913 L18.799,51.913 L18.799,55.049 C18.157,55.245 17.626,55.681 17.303,56.256 C16.532,55.441 15.449,54.925 14.241,54.925 C14.139,54.925 14.043,54.947 13.943,54.955 L13.943,30.314 C13.943,28.383 14.476,26.02 15.601,24.287 C16.655,25.05 18.067,25.495 19.548,25.495 C21.05,25.495 22.44,25.06 23.496,24.291 C24.62,26.023 25.152,28.384 25.152,30.314 L25.152,54.955 C25.052,54.947 24.957,54.925 24.855,54.925 C23.647,54.925 22.563,55.441 21.792,56.256 C21.472,55.681 20.94,55.246 20.299,55.049 Z M22.371,66.305 L22.875,64.508 L24.68,64.508 L25.184,66.305 L22.371,66.305 Z M22.133,63.008 L22.133,59.148 C22.133,57.647 23.355,56.425 24.857,56.425 C26.359,56.425 27.582,57.647 27.582,59.148 L27.582,63.008 L22.133,63.008 Z M26.425,65.178 L26.237,64.508 L27.085,64.508 L27.302,65.178 L26.425,65.178 Z M27.304,68.314 L27.762,66.677 L28.331,66.677 C28.571,66.677 28.796,66.563 28.937,66.368 C29.078,66.174 29.118,65.925 29.044,65.696 L28.659,64.507 L31.965,64.507 L33.03,68.314 L27.304,68.314 Z M33.446,63.008 L30.214,63.008 C31.327,62.609 32.43,62.168 33.446,61.737 L33.446,63.008 Z M29.081,61.817 L29.081,59.569 L34.645,59.569 C33.066,60.284 31.052,61.139 29.081,61.817 Z M37.189,58.069 L35.332,58.069 L35.332,56.953 C35.332,56.539 34.996,56.203 34.582,56.203 C34.168,56.203 33.832,56.539 33.832,56.953 L33.832,58.069 L31.688,58.069 L31.688,56.953 C31.688,56.539 31.352,56.203 30.938,56.203 C30.524,56.203 30.188,56.539 30.188,56.953 L30.188,58.069 L28.923,58.069 C28.602,56.86 27.764,55.867 26.652,55.34 L26.652,40.7 C28.147,44.75 30.508,47.344 32.559,49.595 C34.902,52.163 36.944,54.402 37.189,58.069 Z M19.549,26.794 C17.832,26.794 16.284,27.757 15.508,29.307 C15.323,29.677 15.473,30.128 15.843,30.313 C16.212,30.499 16.663,30.348 16.849,29.978 C17.369,28.939 18.403,28.294 19.548,28.294 C20.694,28.294 21.728,28.939 22.246,29.978 C22.377,30.241 22.642,30.393 22.918,30.393 C23.03,30.393 23.145,30.368 23.252,30.314 C23.622,30.129 23.773,29.679 23.588,29.308 C22.815,27.757 21.268,26.794 19.549,26.794 Z" id="Shape"></path>
            </g>
            <path d="M74.6005921,32.7489628 C77.2535921,32.7489628 79.4125921,30.5899628 79.4125921,27.9359628 C79.4125921,25.2829628 77.2545921,23.1239628 74.6005921,23.1239628 C71.9465921,23.1239628 69.7875921,25.2819628 69.7875921,27.9359628 C69.7885921,30.5899628 71.9475921,32.7489628 74.6005921,32.7489628 Z" id="Path" stroke="#A36EDC" fill="#F5F5F5"></path>
            <path d="M73.6491302,25.1738669 C75.4751302,25.1738669 76.9611302,26.6588669 76.9611302,28.4858669 C76.9611302,30.3128669 75.4761302,31.7988669 73.6491302,31.7988669 C71.8221302,31.7988669 70.3361302,30.3128669 70.3361302,28.4858669 C70.3371302,26.6588669 71.8231302,25.1738669 73.6491302,25.1738669 Z" id="Path" stroke="#A36EDC" fill="#F5F5F5"></path>
            <path d="M31.8845591,19.8414559 C33.2965591,19.8414559 34.4455591,18.6934559 34.4455591,17.2804559 C34.4455591,15.8674559 33.2975591,14.7194559 31.8845591,14.7194559 C30.4715591,14.7194559 29.3225591,15.8674559 29.3225591,17.2804559 C29.3225591,18.6934559 30.4725591,19.8414559 31.8845591,19.8414559 Z" id="Path" stroke="#A36EDC" fill="#F5F5F5"></path>
            <path d="M30.9330972,16.76936 C31.5180972,16.76936 31.9940972,17.24536 31.9940972,17.83036 C31.9940972,18.41536 31.5180972,18.89136 30.9330972,18.89136 C30.3480972,18.89136 29.8710972,18.41536 29.8710972,17.83036 C29.8710972,17.24536 30.3480972,16.76936 30.9330972,16.76936 Z" id="Path" stroke="#A36EDC" fill="#F5F5F5"></path>
            <path d="M58.5488813,49.6549809 C58.5488813,51.0669809 59.6968813,52.2159809 61.1098813,52.2159809 C62.5228813,52.2159809 63.6708813,51.0679809 63.6708813,49.6549809 C63.6708813,48.2419809 62.5228813,47.0939809 61.1098813,47.0939809 C59.6968813,47.0939809 58.5488813,48.2429809 58.5488813,49.6549809 Z" id="Path" stroke="#A36EDC" fill="#F5F5F5"></path>
            <path d="M61.2190534,50.203519 C61.2190534,50.788519 60.7430534,51.264519 60.1580534,51.264519 C59.5730534,51.264519 59.0970534,50.788519 59.0970534,50.203519 C59.0970534,49.618519 59.5730534,49.142519 60.1580534,49.142519 C60.7430534,49.142519 61.2190534,49.618519 61.2190534,50.203519 Z" id="Path" stroke="#A36EDC" fill="#F5F5F5"></path>
            <path d="M54.7935213,68.6490195 C54.7935213,67.2370195 53.6455213,66.0880195 52.2325213,66.0880195 C50.8195213,66.0880195 49.6715213,67.2360195 49.6715213,68.6490195 C49.6715213,70.0620195 50.8195213,71.2100195 52.2325213,71.2100195 C53.6455213,71.2100195 54.7935213,70.0610195 54.7935213,68.6490195 Z" id="Path" stroke="#A36EDC" fill="#F5F5F5"></path>
            <path d="M51.2824254,70.2595577 C50.6974254,70.2595577 50.2214254,69.7835577 50.2214254,69.1985577 C50.2214254,68.6135577 50.6974254,68.1375577 51.2824254,68.1375577 C51.8674254,68.1375577 52.3434254,68.6135577 52.3434254,69.1985577 C52.3434254,69.7835577 51.8674254,70.2595577 51.2824254,70.2595577 Z" id="Path" stroke="#A36EDC" fill="#F5F5F5"></path>
            <path d="M64.2967956,25.0606648 C65.1147956,25.0606648 65.7797956,24.3946648 65.7797956,23.5766648 C65.7797956,22.7596648 65.1147956,22.0946648 64.2967956,22.0946648 C63.4787956,22.0946648 62.8127956,22.7596648 62.8127956,23.5766648 C62.8127956,24.3946648 63.4787956,25.0606648 64.2967956,25.0606648 Z" id="Path" stroke="#A36EDC" fill="#F5F5F5"></path>
            <path d="M72.253528,42.8311999 C71.435528,42.8311999 70.769528,43.4971999 70.769528,44.3141999 C70.769528,45.1321999 71.435528,45.7981999 72.253528,45.7981999 C73.071528,45.7981999 73.737528,45.1321999 73.737528,44.3141999 C73.738528,43.4971999 73.072528,42.8311999 72.253528,42.8311999 Z" id="Path" stroke="#A36EDC" fill="#F5F5F5"></path>
            <path d="M15.8737425,23.6898529 C15.0557425,23.6898529 14.3897425,24.3558529 14.3897425,25.1738529 C14.3897425,25.9918529 15.0557425,26.6578529 15.8737425,26.6578529 C16.6917425,26.6578529 17.3577425,25.9918529 17.3577425,25.1738529 C17.3577425,24.3558529 16.6917425,23.6898529 15.8737425,23.6898529 Z" id="Path" stroke="#A36EDC" fill="#F5F5F5"></path>
            <path d="M48.0816026,77.1882028 C47.2636026,77.1882028 46.5976026,77.8542028 46.5976026,78.6722028 C46.5976026,79.4902028 47.2636026,80.1562028 48.0816026,80.1562028 C48.8996026,80.1562028 49.5656026,79.4902028 49.5656026,78.6722028 C49.5656026,77.8542028 48.9006026,77.1882028 48.0816026,77.1882028 Z" id="Path" stroke="#A36EDC" fill="#F5F5F5"></path>
            <path d="M4.9717625,58.0006362 C4.1537625,58.0006362 3.4877625,58.6666362 3.4877625,59.4846362 C3.4877625,60.3026362 4.1537625,60.9686362 4.9717625,60.9686362 C5.7897625,60.9686362 6.4557625,60.3026362 6.4557625,59.4846362 C6.4557625,58.6666362 5.7897625,58.0006362 4.9717625,58.0006362 Z" id="Path" stroke="#A36EDC" fill="#F5F5F5"></path>
            <path d="M3.44723167,50.3412011 C2.62923167,50.3412011 1.96323167,51.0072011 1.96323167,51.8252011 C1.96323167,52.6432011 2.62923167,53.3092011 3.44723167,53.3092011 C4.26523167,53.3092011 4.93123167,52.6432011 4.93123167,51.8252011 C4.93123167,51.0072011 4.26623167,50.3412011 3.44723167,50.3412011 Z" id="Path" stroke="#A36EDC" fill="#F5F5F5"></path>
            <path d="M52.9016199,62.4440514 C52.9016199,61.6260514 52.2356199,60.9600514 51.4176199,60.9600514 C50.5996199,60.9600514 49.9336199,61.6260514 49.9336199,62.4440514 C49.9336199,63.2620514 50.5996199,63.9280514 51.4176199,63.9280514 C52.2356199,63.9280514 52.9016199,63.2620514 52.9016199,62.4440514 Z" id="Path" stroke="#A36EDC" fill="#F5F5F5"></path>
            <path d="M43.5658787,9.24966619 C44.3838787,9.24966619 45.0498787,8.58366619 45.0498787,7.76566619 C45.0498787,6.94766619 44.3838787,6.28166619 43.5658787,6.28166619 C42.7478787,6.28166619 42.0818787,6.94766619 42.0818787,7.76566619 C42.0818787,8.58366619 42.7478787,9.24966619 43.5658787,9.24966619 Z" id="Path" stroke="#A36EDC" fill="#F5F5F5"></path>
            <path d="M28.5686692,24.7552316 C28.5686692,25.5732316 29.2346692,26.2392316 30.0526692,26.2392316 C30.8706692,26.2392316 31.5366692,25.5732316 31.5366692,24.7552316 C31.5366692,23.9372316 30.8706692,23.2712316 30.0526692,23.2712316 C29.2346692,23.2712316 28.5686692,23.9362316 28.5686692,24.7552316 Z" id="Path" stroke="#A36EDC" fill="#F5F5F5"></path>
            <path d="M17.9156345,39.2031923 C17.0976345,39.2031923 16.4316345,39.8691923 16.4316345,40.6871923 C16.4316345,41.5051923 17.0976345,42.1711923 17.9156345,42.1711923 C18.7336345,42.1711923 19.3996345,41.5051923 19.3996345,40.6871923 C19.3996345,39.8691923 18.7346345,39.2031923 17.9156345,39.2031923 Z" id="Path" stroke="#A36EDC" fill="#F5F5F5"></path>
        </g>
    </g>
</svg>