<?xml version="1.0" encoding="UTF-8"?>
<svg width="78px" height="91px" viewBox="0 0 78 91" version="1.1" xmlns="http://www.w3.org/2000/svg" xmlns:xlink="http://www.w3.org/1999/xlink">
    <!-- Generator: Sketch 48.2 (47327) - http://www.bohemiancoding.com/sketch -->
    <title>Illustrator/free</title>
    <desc>Created with Sketch.</desc>
    <defs></defs>
    <g id="Symbols" stroke="none" stroke-width="1" fill="none" fill-rule="evenodd">
        <g id="Illustrator/free">
            <g id="noun_1285631_cc" transform="translate(0.000000, 5.000000)">
                <g id="Group">
                    <path d="M58.6813953,1.49651163 C58.9534884,1.67790698 59.0895349,2.00986047 59.0895349,2.49418605 C59.0895349,2.88781395 58.9834186,3.20434884 58.772093,3.44651163 L58.6813953,3.5372093 C58.3485349,3.77937209 57.9857442,3.9 57.5930233,3.9 C57.291,3.9 56.9880698,3.77937209 56.6860465,3.53811628 L56.5953488,3.44651163 C56.353186,3.20434884 56.2325581,2.88781395 56.2325581,2.49418605 C56.2325581,2.04069767 56.353186,1.70874419 56.5953488,1.49651163 C56.8973721,1.16365116 57.2302326,0.997674419 57.5930233,0.997674419 C58.0465116,0.998581395 58.4093023,1.16365116 58.6813953,1.49651163 Z" id="Path" fill="#A36EDC"></path>
                    <path d="M58.1372093,2.49418605 C58.1372093,2.28286047 58.1072791,2.14681395 58.0465116,2.08604651 C57.9258837,1.99534884 57.7744186,1.95090698 57.5930233,1.95090698 L57.2302326,2.08604651 C57.1694651,2.14681395 57.1395349,2.28286047 57.1395349,2.49418605 C57.1395349,2.64565116 57.1694651,2.76627907 57.2302326,2.85697674 L57.2755814,2.85697674 C57.3662791,2.94767442 57.4723953,2.99211628 57.5930233,2.99211628 C57.7744186,2.99211628 57.9258837,2.94676744 58.0465116,2.85697674 C58.1072791,2.76627907 58.1372093,2.64565116 58.1372093,2.49418605 Z" id="Path" fill="#5FE6A6"></path>
                    <path d="M59.6337209,16.8706744 C60.1479767,16.9305349 60.5860465,17.1427674 60.9488372,17.5046512 C61.4023256,18.0497442 61.6290698,18.6383721 61.6290698,19.2732558 L61.6290698,23.2639535 C61.6290698,23.9596047 61.4023256,24.532814 60.9488372,24.9863023 C60.5860465,25.349093 60.1933256,25.5758372 59.7697674,25.6665349 L59.6790698,25.6665349 C59.8903953,24.2462093 59.9965116,22.9610233 59.9965116,21.8118837 C59.9965116,20.1493953 59.8305349,18.5023256 59.4976744,16.8697674 L59.6337209,16.8697674 L59.6337209,16.8706744 Z" id="Path" fill="#5FE6A6"></path>
                    <path d="M72.6034884,8.34418605 L72.8755814,8.48023256 C72.9962093,8.60086047 73.0569767,8.70697674 73.0569767,8.79767442 L73.0569767,10.0674419 L74.2360465,10.0674419 C74.3566744,10.0674419 74.4627907,10.1127907 74.5534884,10.2025814 C74.644186,10.294186 74.6895349,10.3993953 74.6895349,10.5209302 C74.6895349,10.6714884 74.644186,10.763093 74.5534884,10.7930233 C74.4319535,10.9136512 74.3267442,10.9744186 74.2360465,10.9744186 L73.0569767,10.9744186 L73.0569767,12.1534884 C73.0569767,12.244186 72.9971163,12.3503023 72.8755814,12.4709302 C72.8447442,12.5625349 72.7549535,12.6069767 72.6034884,12.6069767 C72.4520233,12.6069767 72.346814,12.5616279 72.2860465,12.4709302 C72.1953488,12.4110698 72.15,12.3040465 72.15,12.1534884 L72.15,10.9744186 L70.8802326,10.9744186 C70.7895349,10.9744186 70.6843256,10.9136512 70.5627907,10.7930233 L70.4267442,10.5209302 C70.4267442,10.490093 70.472093,10.3848837 70.5627907,10.2025814 C70.6534884,10.1118837 70.7596047,10.0674419 70.8802326,10.0674419 L72.15,10.0674419 L72.15,8.79767442 C72.15,8.6462093 72.1953488,8.541 72.2860465,8.48023256 C72.4674419,8.38953488 72.5735581,8.34418605 72.6034884,8.34418605 Z" id="Path" fill="#A36EDC"></path>
                    <path d="M51.6976744,37.5488372 C50.2465116,36.2183023 48.6293721,36.0069767 46.8453488,36.9139535 C43.8822558,39.0299302 40.4366512,40.0883721 36.505814,40.0883721 C32.6665814,40.0883721 29.2046512,39 26.1209302,36.8232558 C25.4561163,36.4903953 24.8511628,36.3235116 24.3069767,36.3235116 C23.4308372,36.3235116 22.6444884,36.7017209 21.9488372,37.4572326 L21.5860465,37.0953488 C18.6229535,34.163093 16.7037907,30.8671395 15.8267442,27.2093023 L15.6453488,26.3023256 L15.6453488,26.2569767 C15.3433256,24.8665814 15.1918605,23.3845814 15.1918605,21.8127907 C15.1918605,20.2101628 15.3433256,18.6683023 15.6453488,17.1872093 L15.8267442,16.4162791 L15.8267442,16.3709302 C16.6729535,12.6523256 18.5930233,9.32644186 21.5860465,6.39418605 C25.7880698,2.13230233 30.8979767,0 36.9139535,0 C42.9299302,0 48.0244186,2.13230233 52.1965116,6.39418605 C55.1895349,9.32644186 57.1096047,12.6523256 57.955814,16.3709302 C58.4093023,18.1549535 58.6360465,19.968907 58.6360465,21.8127907 C58.6360465,23.3845814 58.4845814,24.882 58.1825581,26.3023256 C57.3662791,30.3837209 55.3709302,33.9816977 52.1965116,37.0953488 L51.6976744,37.5488372 Z" id="Path" stroke="#5FE6A6"></path>
                    <path d="M47.8883721,12.8337209 C43.9276047,12.3802326 40.0430233,12.1534884 36.2337209,12.1534884 C32.4244186,12.1534884 28.781093,12.3802326 25.3046512,12.8337209 C22.6136512,13.2872093 21.2686047,14.8444884 21.2686047,17.5037442 L21.2686047,25.3953488 C21.2686047,28.0863488 22.5982326,29.6282093 25.2593023,30.0218372 C32.8171395,30.928814 40.3305349,30.928814 47.7976744,30.0218372 C50.5784651,29.6282093 51.9697674,28.0863488 51.9697674,25.3953488 L51.9697674,17.5046512 C51.9697674,14.8444884 50.6093023,13.2872093 47.8883721,12.8337209 Z" id="Path" fill="#5FE6A6"></path>
                    <path d="M47.5255814,38.1383721 C48.826186,37.4427209 50.0197674,37.714814 51.1081395,38.9546512 C51.3802326,39.5596047 51.5162791,40.1935814 51.5162791,40.8593023 L51.3802326,40.9953488 C47.2988372,44.2296279 42.5072791,45.8476744 37.0046512,45.8476744 C31.6534884,45.8476744 26.9825581,44.3665814 22.9918605,41.4043953 L22.0848837,40.6325581 C22.1447442,39.936907 22.3116279,39.3328605 22.5837209,38.8186047 C23.3700698,37.7003023 24.3069767,37.4282093 25.3953488,38.0032326 C28.7212326,40.3006047 32.4244186,41.4497442 36.505814,41.4497442 C40.7078372,41.4488372 44.381093,40.3450465 47.5255814,38.1383721 Z" id="Path" fill="#5FE6A6"></path>
                    <path d="M73.1930233,26.2569767 C73.1930233,25.6520233 73.3889302,25.153186 73.7825581,24.7604651 C74.2360465,24.3069767 74.764814,24.0802326 75.3697674,24.0802326 C75.9139535,24.0802326 76.4127907,24.3069767 76.8662791,24.7604651 C77.259907,25.154093 77.455814,25.6520233 77.455814,26.2569767 C77.455814,26.8619302 77.259907,27.3607674 76.8662791,27.7534884 C76.4127907,28.2069767 75.9139535,28.4337209 75.3697674,28.4337209 C74.764814,28.4337209 74.2360465,28.2069767 73.7825581,27.7534884 C73.3898372,27.3607674 73.1930233,26.8619302 73.1930233,26.2569767 Z" id="Path" fill="#5FE6A6"></path>
                    <path d="M39.4081395,16.417186 C36.0223953,16.2657209 32.7119302,16.2811395 29.4767442,16.4625349 L29.4313953,16.5078837 C29.2799302,16.5078837 29.1293721,16.4480233 28.977907,16.3264884 C28.8572791,16.1750233 28.7965116,16.0090465 28.7965116,15.8276512 C28.7665814,15.6462558 28.8119302,15.4947907 28.9325581,15.3741628 C29.053186,15.2226977 29.2200698,15.1474186 29.4313953,15.1474186 C32.7264419,14.936093 36.0668372,14.9206744 39.4534884,15.1020698 C39.664814,15.1020698 39.8316977,15.1773488 39.9523256,15.328814 C40.0729535,15.4494419 40.1192093,15.600907 40.0883721,15.7823023 C40.0883721,15.9936279 40.0276047,16.1596047 39.9069767,16.2811395 C39.7555116,16.4008605 39.5895349,16.4471163 39.4081395,16.417186 Z" id="Path" fill="#FFFFFF"></path>
                    <path d="M74.4174419,25.3953488 C74.2061163,25.6066744 74.1,25.894186 74.1,26.2569767 C74.1,26.6197674 74.2052093,26.9217907 74.4174419,27.1639535 C74.7194651,27.4061163 75.037814,27.5267442 75.3697674,27.5267442 C75.6717907,27.5267442 75.9438837,27.4052093 76.1860465,27.1639535 C76.4282093,26.9226977 76.5488372,26.6197674 76.5488372,26.2569767 C76.5488372,25.894186 76.4282093,25.6066744 76.1860465,25.3953488 C75.9747209,25.1232558 75.7026279,24.9872093 75.3697674,24.9872093 C75.0069767,24.9872093 74.6895349,25.1232558 74.4174419,25.3953488 Z" id="Path" fill="#A36EDC"></path>
                    <path d="M66.3906977,36.4151163 L66.3453488,35.9616279 L66.6174419,35.5988372 C67.3729535,34.7834651 68.1139535,34.3744186 68.8395349,34.3744186 C70.1401395,34.3744186 71.3037907,34.827907 72.3313953,35.7348837 C73.1476744,36.6119302 73.555814,37.5034884 73.555814,38.4104651 C73.555814,39.9214884 72.8302326,41.2366047 71.3790698,42.355814 C70.3505581,43.1113256 69.1415581,43.6255814 67.7511628,43.8976744 C67.6305349,43.2328605 67.4037907,42.627907 67.0709302,42.0837209 C66.2546512,40.7831163 65.090093,40.1337209 63.5790698,40.1337209 C63.1555116,40.1337209 62.7020233,40.2697674 62.2186047,40.5418605 C62.0372093,39.7863488 61.9465116,39.0453488 61.9465116,38.3197674 C61.9465116,36.2337209 62.7174419,35.1906977 64.2593023,35.1906977 C64.5613256,35.1906977 64.7880698,35.4636977 64.9395349,36.0069767 L64.9395349,36.0523256 L65.0755814,36.5974186 C65.1363488,37.3529302 65.1508605,37.9578837 65.1209302,38.4113721 C65.091,38.5918605 65.1363488,38.7587442 65.2569767,38.9102093 C65.3776047,39.0607674 65.5290698,39.1369535 65.7104651,39.1369535 C65.8918605,39.1668837 66.0578372,39.1215349 66.2093023,39.000907 C66.3607674,38.8802791 66.4360465,38.728814 66.4360465,38.5474186 C66.5267442,37.7311395 66.5113256,37.0191628 66.3906977,36.4151163 Z" id="Path" fill="#5FE6A6"></path>
                    <path d="M76.0953488,55.3709302 L74.8709302,55.3709302 L74.8709302,56.6406977 C74.8709302,56.7313953 74.8110698,56.8375116 74.6895349,56.9581395 C74.6586977,57.0497442 74.568907,57.094186 74.4174419,57.094186 C74.296814,57.094186 74.1906977,57.0488372 74.1,56.9581395 C74.0093023,56.8982791 73.9639535,56.7921628 73.9639535,56.6406977 L73.9639535,55.3709302 L72.7395349,55.3709302 C72.5880698,55.3709302 72.4819535,55.341 72.422093,55.2802326 C72.3313953,55.1287674 72.2860465,55.0081395 72.2860465,54.9174419 L72.422093,54.6 L72.7395349,54.4639535 L73.9639535,54.4639535 L73.9639535,53.2848837 C73.9639535,53.1334186 74.0093023,53.0282093 74.1,52.9674419 C74.1598605,52.8758372 74.2659767,52.8313953 74.4174419,52.8313953 C74.568907,52.8313953 74.6596047,52.8767442 74.6895349,52.9674419 C74.8101628,53.0880698 74.8709302,53.194186 74.8709302,53.2848837 L74.8709302,54.4639535 L76.0953488,54.4639535 C76.126186,54.4639535 76.2313953,54.5102093 76.4127907,54.6 C76.5034884,54.6906977 76.5488372,54.796814 76.5488372,54.9174419 C76.5488372,55.0389767 76.5034884,55.1596047 76.4127907,55.2802326 C76.3529302,55.341 76.245907,55.3709302 76.0953488,55.3709302 Z" id="Path" fill="#A36EDC"></path>
                    <path d="M61.3569767,42.9 L62.1732558,42.2197674 L62.2186047,42.1290698 C62.8235581,41.7055116 63.2770465,41.494186 63.5790698,41.494186 C64.545907,41.494186 65.3177442,41.9322558 65.8918605,42.8093023 C66.1938837,43.444186 66.3906977,44.0944884 66.4813953,44.7593023 L66.5267442,45.4848837 C66.5267442,47.2380698 65.5744186,48.8098605 63.6697674,50.2011628 C61.8857442,51.5915581 60.0110233,52.2872093 58.0465116,52.2872093 C57.3508605,52.2872093 56.55,52.1511628 55.6430233,51.8790698 C54.8566744,51.636907 54.1918605,51.3503023 53.6476744,51.0174419 L51.7883721,49.4755814 L51.4255814,47.072093 C51.364814,46.6186047 51.1235581,46.4217907 50.7,46.4825581 C50.2465116,46.5424186 50.0496977,46.7845814 50.1104651,47.2081395 L50.4732558,49.8837209 C51.441,57.835186 51.7584419,65.7258837 51.4255814,73.5567209 L41.3581395,73.5567209 L41.3581395,70.9709302 L42.7186047,70.9709302 C43.172093,70.9709302 43.3988372,70.7287674 43.3988372,70.2453488 C43.3988372,70.0639535 43.3380698,69.9124884 43.2174419,69.7918605 C43.0659767,69.6403953 42.9,69.5651163 42.7186047,69.5651163 L30.8825581,69.5651163 C30.4290698,69.5651163 30.2023256,69.7918605 30.2023256,70.2453488 C30.2023256,70.7287674 30.4290698,70.9709302 30.8825581,70.9709302 L32.4697674,70.9709302 L32.4697674,73.5567209 L22.4476744,73.5567209 C22.3569767,72.0148605 22.3116279,70.4875116 22.3116279,68.9755814 L22.4476744,62.0825581 C22.659,57.4569767 23.0979767,52.65 23.7627907,47.6616279 C23.8226512,47.2081395 23.6421628,46.9514651 23.2186047,46.8906977 C22.7651163,46.8308372 22.5084419,47.0113256 22.4476744,47.4348837 C21.7828605,52.1511628 21.3438837,56.7159767 21.1325581,61.1311395 L15.9627907,59.5439302 C16.4462093,57.4578837 17.3386744,54.7977209 18.6383721,51.5625349 C20.1802326,47.813093 21.5561163,44.9406977 22.7651163,42.9462558 C26.8764419,45.8177442 31.6235581,47.2543953 37.0046512,47.2543953 C42.7186047,47.2543953 47.6616279,45.6363488 51.8337209,42.4011628 L52.8767442,43.0813953 C54.3886744,44.0183023 55.613093,44.4872093 56.55,44.4872093 C58.5154186,44.4872093 60.1171395,43.9584419 61.3569767,42.9 Z" id="Path" stroke="#5FE6A6"></path>
                    <path d="M59.905814,62.127907 C60.2994419,62.127907 60.6313953,62.2947907 60.9034884,62.6267442 C61.2055116,62.868907 61.3569767,63.2017674 61.3569767,63.6253256 C61.3569767,63.9872093 61.2209302,64.3209767 60.9488372,64.623 L60.9034884,64.6683488 C60.6613256,64.8796744 60.3293721,64.9866977 59.905814,64.9866977 C59.5430233,64.9866977 59.2101628,64.8805814 58.9081395,64.6683488 L58.8627907,64.623 C58.5906977,64.2293721 58.4546512,63.8974186 58.4546512,63.6253256 C58.4546512,63.2316977 58.5906977,62.8997442 58.8627907,62.6267442 C59.164814,62.2947907 59.513093,62.127907 59.905814,62.127907 Z" id="Path" fill="#5FE6A6"></path>
                    <path d="M41.3581395,80.2674419 L41.3581395,74.9616279 L51.3802326,74.9616279 L51.4255814,80.2674419 L66.2093023,80.2674419 C66.3906977,80.2674419 66.5566744,80.3427209 66.7081395,80.494186 C66.8596047,80.6157209 66.9348837,80.7662791 66.9348837,80.9476744 C66.9348837,81.1290698 66.8596047,81.2959535 66.7081395,81.4465116 C66.5566744,81.5680465 66.3906977,81.627907 66.2093023,81.627907 L15.055814,81.627907 C14.8744186,81.627907 14.7229535,81.5680465 14.6023256,81.4465116 C14.4508605,81.2959535 14.3755814,81.1290698 14.3755814,80.9476744 C14.3755814,80.7662791 14.4508605,80.6157209 14.6023256,80.494186 C14.7229535,80.3427209 14.8744186,80.2674419 15.055814,80.2674419 L22.4930233,80.2674419 L22.4930233,74.9616279 L32.4697674,74.9616279 L32.4697674,80.2674419 L41.3581395,80.2674419 Z" id="Path" stroke="#5FE6A6"></path>
                    <path d="M44.4418605,55.0534884 L44.2151163,54.7813953 C43.1875116,53.7229535 41.9476744,53.194186 40.4965116,53.194186 L33.5581395,53.194186 C32.0770465,53.194186 30.8372093,53.7075349 29.8395349,54.7360465 L29.4767442,55.0979302 C28.5996977,56.0965116 28.1616279,57.2601628 28.1616279,58.5906977 L28.1616279,60.9932791 C28.1616279,62.4453488 28.705814,63.6987907 29.794186,64.7572326 C30.8526279,65.8147674 32.1069767,66.3444419 33.5581395,66.3444419 L40.4965116,66.3444419 C41.9177442,66.3444419 43.1575814,65.8147674 44.2151163,64.7572326 C45.2735581,63.7287209 45.8023256,62.4743721 45.8023256,60.9932791 L45.8023256,58.5906977 C45.8023256,57.1395349 45.3488372,55.9604651 44.4418605,55.0534884 Z" id="Path" fill="#5FE6A6"></path>
                    <path d="M70.9709302,69.7918605 C71.4543488,70.2453488 71.6965116,70.7586977 71.6965116,71.3337209 C71.6965116,71.9078372 71.4543488,72.422093 70.9709302,72.8755814 C70.5773023,73.2683023 70.0938837,73.4651163 69.5197674,73.4651163 C68.914814,73.4651163 68.4168837,73.2683023 68.0232558,72.8764884 C67.5697674,72.423 67.3430233,71.9087442 67.3430233,71.3346279 C67.3430233,70.7596047 67.5697674,70.2462558 68.0232558,69.7927674 C68.4168837,69.3991395 68.914814,69.2032326 69.5197674,69.2032326 C70.0938837,69.2023256 70.5773023,69.3991395 70.9709302,69.7918605 Z" id="Path" fill="#5FE6A6"></path>
                    <path d="M70.3360465,70.472093 C70.1247209,70.2299302 69.8526279,70.1093023 69.5197674,70.1093023 C69.1569767,70.1093023 68.8549535,70.2308372 68.6127907,70.472093 C68.3706279,70.744186 68.25,71.0307907 68.25,71.3337209 C68.25,71.6357442 68.3706279,71.9377674 68.6127907,72.2406977 C68.8549535,72.4520233 69.1569767,72.5581395 69.5197674,72.5581395 C69.8526279,72.5581395 70.1247209,72.4529302 70.3360465,72.2406977 C70.6081395,71.9686047 70.744186,71.6656744 70.744186,71.3337209 C70.744186,71.0307907 70.6081395,70.744186 70.3360465,70.472093 Z" id="Path" fill="#A36EDC"></path>
                    <path d="M60.2686047,63.9872093 L60.3593023,63.9872093 L60.45,63.6253256 C60.45,63.4439302 60.3901395,63.3223953 60.2686047,63.2625349 C60.177907,63.141907 60.0572791,63.0811395 59.905814,63.0811395 C59.7543488,63.0811395 59.6337209,63.141907 59.5430233,63.2625349 C59.4223953,63.3223953 59.3616279,63.4439302 59.3616279,63.6253256 L59.5430233,63.9872093 C59.6337209,64.0479767 59.7543488,64.078814 59.905814,64.078814 C60.0872093,64.077907 60.2078372,64.0479767 60.2686047,63.9872093 Z" id="Path" fill="#A36EDC"></path>
                    <path d="M69.6104651,81.627907 C69.4290698,81.627907 69.2776047,81.5680465 69.1569767,81.4465116 C69.0055116,81.2959535 68.9302326,81.1290698 68.9302326,80.9476744 C68.9302326,80.7662791 69.0055116,80.6157209 69.1569767,80.494186 C69.2776047,80.3427209 69.4290698,80.2674419 69.6104651,80.2674419 L70.9709302,80.2674419 C71.1822558,80.2674419 71.3645581,80.3427209 71.5151163,80.494186 C71.6357442,80.6157209 71.6965116,80.7662791 71.6965116,80.9476744 C71.6965116,81.1290698 71.6366512,81.2959535 71.5151163,81.4465116 C71.3636512,81.5680465 71.1822558,81.627907 70.9709302,81.627907 L69.6104651,81.627907 Z" id="Path" fill="#A36EDC"></path>
                    <path d="M26.5290698,15.3732558 C26.9526279,15.2517209 27.2247209,15.4186047 27.3453488,15.872093 C27.4659767,16.2956512 27.3,16.5677442 26.8465116,16.6883721 L26.3023256,16.7337209 C25.8488372,16.7337209 25.622093,16.5069767 25.622093,16.0534884 C25.622093,15.6 25.8488372,15.3732558 26.3023256,15.3732558 L26.5290698,15.3732558 Z" id="Path" fill="#FFFFFF"></path>
                    <path d="M14.3755814,4.21744186 C14.9805349,4.21744186 15.4938837,4.41425581 15.9174419,4.80606977 C16.3709302,5.28948837 16.5976744,5.81916279 16.5976744,6.39327907 C16.5976744,6.93837209 16.3709302,7.43630233 15.9174419,7.8897907 C15.4947907,8.2834186 14.9805349,8.47932558 14.3755814,8.47932558 C13.8014651,8.47932558 13.3171395,8.28251163 12.9244186,7.8897907 C12.4709302,7.43630233 12.244186,6.93746512 12.244186,6.39327907 C12.244186,5.81916279 12.4709302,5.28948837 12.9244186,4.80606977 C13.3171395,4.41425581 13.8014651,4.21744186 14.3755814,4.21744186 Z" id="Path" fill="#A36EDC"></path>
                    <path d="M14.3755814,5.1244186 C14.0427209,5.1244186 13.7552093,5.25955814 13.5139535,5.53255814 C13.2717907,5.77472093 13.1511628,6.06132558 13.1511628,6.39327907 C13.1511628,6.6962093 13.2717907,6.96830233 13.5139535,7.20955814 C13.7561163,7.45081395 14.0427209,7.57234884 14.3755814,7.57234884 C14.7383721,7.57234884 15.0403953,7.45081395 15.2825581,7.20955814 C15.5546512,6.96739535 15.6906977,6.6962093 15.6906977,6.39327907 C15.6906977,6.06132558 15.5546512,5.77381395 15.2825581,5.53255814 C15.0403953,5.26046512 14.7383721,5.1244186 14.3755814,5.1244186 Z" id="Path" fill="#5FE6A6"></path>
                    <path d="M12.8790698,17.5046512 C13.3017209,17.1119302 13.7706279,16.9006047 14.2848837,16.8706744 L14.2848837,16.9613721 C13.9828605,18.4125349 13.8313953,20.0296744 13.8313953,21.8136977 C13.8313953,23.1442326 13.922093,24.414 14.1034884,25.623 C13.6808372,25.5930698 13.2717907,25.3808372 12.8790698,24.9881163 C12.4555116,24.5645581 12.244186,23.9904419 12.244186,23.2657674 L12.244186,19.2750698 C12.244186,18.5776047 12.4555116,17.9880698 12.8790698,17.5046512 Z" id="Path" fill="#5FE6A6"></path>
                    <path d="M8.11744186,21.994186 C8.11744186,22.1456512 8.07209302,22.2363488 7.98139535,22.2662791 C7.86076744,22.387814 7.75465116,22.4476744 7.66395349,22.4476744 L6.39418605,22.4476744 L6.39418605,23.6267442 C6.39418605,23.7482791 6.34883721,23.8534884 6.25813953,23.945093 C6.19827907,24.0357907 6.09216279,24.0802326 5.94069767,24.0802326 C5.78923256,24.0802326 5.69853488,24.0348837 5.66860465,23.945093 C5.54797674,23.8235581 5.4872093,23.7183488 5.4872093,23.6267442 L5.4872093,22.4476744 L4.30813953,22.4476744 C4.21744186,22.4476744 4.11132558,22.387814 3.99069767,22.2662791 C3.9,22.2363488 3.85465116,22.1456512 3.85465116,21.994186 C3.85465116,21.8735581 3.9,21.7520233 3.99069767,21.6323023 C4.08139535,21.5406977 4.18751163,21.4962558 4.30813953,21.4962558 L5.4872093,21.4962558 L5.4872093,20.2718372 C5.4872093,20.1802326 5.54797674,20.0750233 5.66860465,19.9534884 L5.94069767,19.8183488 C5.97153488,19.8183488 6.07674419,19.8636977 6.25813953,19.9534884 C6.34883721,20.045093 6.39418605,20.1503023 6.39418605,20.2718372 L6.39418605,21.4962558 L7.66395349,21.4962558 C7.7845814,21.4962558 7.89069767,21.5416047 7.98139535,21.6323023 C8.07209302,21.6921628 8.11744186,21.8127907 8.11744186,21.994186 Z" id="Path" fill="#A36EDC"></path>
                    <path d="M4.58023256,37.0046512 C4.58023256,36.6119302 4.71627907,36.2790698 4.98837209,36.0069767 C5.29039535,35.7049535 5.63867442,35.5534884 6.03139535,35.5534884 C6.42502326,35.5534884 6.77239535,35.7049535 7.0744186,36.0069767 C7.37644186,36.2491395 7.52790698,36.581093 7.52790698,37.0046512 C7.52790698,37.3674419 7.39186047,37.7003023 7.11976744,38.0032326 L7.0744186,38.0485814 C6.80232558,38.2907442 6.45495349,38.4113721 6.03139535,38.4113721 C5.66860465,38.4113721 5.33574419,38.2898372 5.03372093,38.0485814 L4.98837209,38.0023256 C4.71627907,37.6096047 4.58023256,37.2776512 4.58023256,37.0046512 Z" id="Path" fill="#5FE6A6"></path>
                    <path d="M5.4872093,37.0046512 L5.66860465,37.3674419 C5.75930233,37.4273023 5.87993023,37.4581395 6.03139535,37.4581395 C6.2127907,37.4581395 6.3334186,37.4282093 6.39418605,37.3674419 L6.48488372,37.3674419 L6.5755814,37.0046512 C6.5755814,36.8241628 6.51572093,36.7026279 6.39418605,36.6427674 C6.30348837,36.5212326 6.18286047,36.4613721 6.03139535,36.4613721 C5.87993023,36.4613721 5.75930233,36.5212326 5.66860465,36.6427674 C5.54797674,36.7026279 5.4872093,36.8241628 5.4872093,37.0046512 Z" id="Path" fill="#A36EDC"></path>
                    <path d="M13.1511628,46.3011628 C13.1511628,46.604093 13.2717907,46.876186 13.5139535,47.1174419 C13.7561163,47.3586977 14.0427209,47.4802326 14.3755814,47.4802326 C14.7383721,47.4802326 15.0403953,47.3586977 15.2825581,47.1174419 C15.5546512,46.8752791 15.6906977,46.604093 15.6906977,46.3011628 C15.6906977,45.9392791 15.5546512,45.6363488 15.2825581,45.394186 C15.0403953,45.1520233 14.7383721,45.0323023 14.3755814,45.0323023 C14.0427209,45.0323023 13.7552093,45.1529302 13.5139535,45.394186 C13.2726977,45.6354419 13.1511628,45.9383721 13.1511628,46.3011628 Z" id="Path" fill="#5FE6A6"></path>
                    <path d="M15.9174419,44.7139535 C16.3709302,45.1674419 16.5976744,45.6971163 16.5976744,46.3011628 C16.5976744,46.8462558 16.3709302,47.344186 15.9174419,47.7976744 C15.4947907,48.1913023 14.9805349,48.3872093 14.3755814,48.3872093 C13.8014651,48.3872093 13.3171395,48.1903953 12.9244186,47.7976744 C12.4709302,47.344186 12.244186,46.8453488 12.244186,46.3011628 C12.244186,45.6971163 12.4709302,45.1674419 12.9244186,44.7139535 C13.3171395,44.3212326 13.8014651,44.1253256 14.3755814,44.1253256 C14.9805349,44.1244186 15.4938837,44.3212326 15.9174419,44.7139535 Z" id="Path" fill="#A36EDC"></path>
                    <path d="M2.72093023,53.6476744 C2.84155814,53.6476744 2.93225581,53.7075349 2.99302326,53.8290698 C3.11455814,53.8889302 3.1744186,53.9796279 3.1744186,54.1011628 L3.1744186,55.3700233 L4.35348837,55.3700233 C4.50495349,55.3700233 4.61106977,55.4162791 4.67093023,55.5060698 C4.76162791,55.5967674 4.80697674,55.7028837 4.80697674,55.8235116 C4.80697674,55.9450465 4.76162791,56.0502558 4.67093023,56.1418605 C4.48953488,56.2325581 4.38432558,56.277 4.35348837,56.277 L3.1744186,56.277 L3.1744186,57.5023256 C3.1744186,57.6229535 3.11455814,57.7136512 2.99302326,57.7744186 C2.93316279,57.8950465 2.84155814,57.955814 2.72093023,57.955814 C2.60030233,57.955814 2.47876744,57.8950465 2.35813953,57.7744186 C2.26744186,57.7444884 2.22209302,57.6528837 2.22209302,57.5023256 L2.22209302,56.277907 L0.997674419,56.277907 L0.680232558,56.1418605 L0.544186047,55.8244186 C0.544186047,55.7944884 0.589534884,55.6892791 0.680232558,55.5069767 C0.740093023,55.4162791 0.847116279,55.3709302 0.997674419,55.3709302 L2.22209302,55.3709302 L2.22209302,54.1011628 C2.22209302,53.9496977 2.26744186,53.859 2.35813953,53.8290698 C2.47876744,53.7084419 2.60030233,53.6476744 2.72093023,53.6476744 Z" id="Path" fill="#A36EDC"></path>
                    <path d="M15.4186047,62.944186 C15.4186047,62.2186047 15.5093023,61.5383721 15.6906977,60.9034884 L21.0872093,62.5360465 L20.9965116,68.3860465 L20.9511628,68.4313953 C19.2886744,68.4313953 17.9282093,67.8563721 16.8697674,66.7081395 C15.9020233,65.6206744 15.4186047,64.3654186 15.4186047,62.944186 Z" id="Path" fill="#5FE6A6"></path>
                    <path d="M10.6116279,71.3337209 C10.8537907,71.5758837 10.9744186,71.9078372 10.9744186,72.3313953 C10.9744186,72.7250233 10.8537907,73.0569767 10.6116279,73.3299767 L10.6116279,73.3753256 C10.3096047,73.5866512 9.96132558,73.6927674 9.56860465,73.6927674 C9.20581395,73.6927674 8.87295349,73.5875581 8.57093023,73.3753256 L8.57093023,73.3299767 C8.26890698,73.0270465 8.11744186,72.695093 8.11744186,72.3313953 C8.11744186,71.877907 8.26890698,71.5459535 8.57093023,71.3337209 C8.84302326,71.0307907 9.17588372,70.8802326 9.56860465,70.8802326 C9.96132558,70.8802326 10.3096047,71.0307907 10.6116279,71.3337209 Z" id="Path" fill="#5FE6A6"></path>
                    <path d="M9.93139535,72.694186 L10.022093,72.694186 L10.0674419,72.3313953 C10.0674419,72.15 10.022093,72.0293721 9.93139535,71.9695116 C9.84069767,71.8479767 9.72006977,71.7881163 9.56860465,71.7881163 C9.41713953,71.7881163 9.282,71.8479767 9.16046512,71.9695116 C9.06976744,72.0602093 9.0244186,72.1799302 9.0244186,72.3313953 L9.16046512,72.694186 L9.25116279,72.694186 C9.31102326,72.7540465 9.41713953,72.7848837 9.56860465,72.7848837 C9.75,72.7848837 9.87062791,72.7549535 9.93139535,72.694186 Z" id="Path" fill="#A36EDC"></path>
                    <path d="M5.26046512,80.494186 C5.382,80.3427209 5.53255814,80.2674419 5.71395349,80.2674419 L10.7023256,80.2674419 C10.8837209,80.2674419 11.0496977,80.3427209 11.2011628,80.494186 C11.3526279,80.6157209 11.427907,80.7662791 11.427907,80.9476744 C11.427907,81.1290698 11.3526279,81.2959535 11.2011628,81.4465116 C11.0496977,81.5680465 10.8837209,81.627907 10.7023256,81.627907 L5.71395349,81.627907 C5.53255814,81.627907 5.382,81.5680465 5.26046512,81.4465116 C5.109,81.2959535 5.03372093,81.1290698 5.03372093,80.9476744 C5.03372093,80.7662791 5.109,80.6157209 5.26046512,80.494186 Z" id="Path" fill="#A36EDC"></path>
                    <path d="M43.2174419,55.6883721 L42.4011628,56.6860465 C42.3104651,56.7776512 42.2805349,56.8828605 42.3104651,57.0043953 C42.3104651,57.1549535 42.355814,57.2610698 42.4465116,57.3218372 C42.5072791,57.3816977 42.5979767,57.4125349 42.7186047,57.4125349 C42.8700698,57.4125349 42.9906977,57.367186 43.0813953,57.2773953 L43.8069767,56.4157674 C44.2006047,57.0207209 44.3965116,57.7463023 44.3965116,58.5925116 L44.3965116,60.995093 C44.3965116,62.1133953 44.0183023,63.0512093 43.2627907,63.8076279 C42.4764419,64.5930698 41.5549535,64.9866977 40.4965116,64.9866977 L33.5581395,64.9866977 C32.4697674,64.9866977 31.5328605,64.5930698 30.7465116,63.8076279 C29.9601628,63.0212791 29.5674419,62.0843721 29.5674419,60.995093 L29.5674419,58.5925116 C29.5674419,57.8061628 29.7642558,57.1105116 30.1569767,56.5055581 C32.0915581,59.0759302 34.0569767,60.527093 36.0523256,60.8599535 L36.8232558,60.9053023 C38.2435814,60.9053023 39.7101628,60.3302791 41.222093,59.1820465 C41.4642558,59.0006512 41.4787674,58.7884186 41.2674419,58.5471628 C41.0561163,58.2750698 40.8293721,58.2451395 40.5872093,58.4564651 C39.1659767,59.6355349 37.7003023,60.1343721 36.1883721,59.9529767 C34.3744186,59.6500465 32.5604651,58.2596512 30.7465116,55.7799767 L30.7465116,55.7346279 C31.5020233,54.9791163 32.4398372,54.600907 33.5581395,54.600907 L40.4965116,54.600907 C41.5549535,54.6 42.4619302,54.9636977 43.2174419,55.6883721 Z" id="Path" fill="#FFFFFF"></path>
                </g>
            </g>
        </g>
    </g>
</svg>