<?xml version="1.0" encoding="UTF-8"?>
<svg width="78px" height="91px" viewBox="0 0 78 91" version="1.1" xmlns="http://www.w3.org/2000/svg" xmlns:xlink="http://www.w3.org/1999/xlink">
    <!-- Generator: Sketch 48.2 (47327) - http://www.bohemiancoding.com/sketch -->
    <title>Illustration/custom</title>
    <desc>Created with Sketch.</desc>
    <defs></defs>
    <g id="Symbols" stroke="none" stroke-width="1" fill="none" fill-rule="evenodd">
        <g id="Illustration/custom">
            <path d="M28.562,26.122 C29.974,26.122 31.123,24.974 31.123,23.561 C31.123,22.148 29.975,21 28.562,21 C27.149,21 26,22.148 26,23.561 C26,24.974 27.15,26.122 28.562,26.122 Z" id="Path" stroke="#A36EDC" fill="#F5F5F5"></path>
            <path d="M15.8737425,23.6898529 C15.0557425,23.6898529 14.3897425,24.3558529 14.3897425,25.1738529 C14.3897425,25.9918529 15.0557425,26.6578529 15.8737425,26.6578529 C16.6917425,26.6578529 17.3577425,25.9918529 17.3577425,25.1738529 C17.3577425,24.3558529 16.6917425,23.6898529 15.8737425,23.6898529 Z" id="Path" stroke="#A36EDC" fill="#F5F5F5"></path>
            <path d="M17.9156345,39.2031923 C17.0976345,39.2031923 16.4316345,39.8691923 16.4316345,40.6871923 C16.4316345,41.5051923 17.0976345,42.1711923 17.9156345,42.1711923 C18.7336345,42.1711923 19.3996345,41.5051923 19.3996345,40.6871923 C19.3996345,39.8691923 18.7346345,39.2031923 17.9156345,39.2031923 Z" id="Path" stroke="#A36EDC" fill="#F5F5F5"></path>
            <g id="noun_699320_cc" transform="translate(0.000000, 7.000000)">
                <g id="Group">
                    <g id="Shape">
                        <g>
                            <path d="M19.9137931,21.2413793 C19.9137931,21.9742069 19.3190345,22.5689655 18.5862069,22.5689655 C17.8533793,22.5689655 17.2586207,21.9742069 17.2586207,21.2413793 C17.2586207,20.5085517 17.8533793,19.9137931 18.5862069,19.9137931 C19.3190345,19.9137931 19.9137931,20.5085517 19.9137931,21.2413793" fill="#A36EDC" fill-rule="nonzero"></path>
                            <path d="M50.4482759,75.6724138 C50.4482759,76.4052414 49.8535172,77 49.1206897,77 C48.3878621,77 47.7931034,76.4052414 47.7931034,75.6724138 C47.7931034,74.9395862 48.3878621,74.3448276 49.1206897,74.3448276 C49.8535172,74.3448276 50.4482759,74.9395862 50.4482759,75.6724138" fill="#A36EDC" fill-rule="nonzero"></path>
                            <path d="M77,65.0517241 C77,65.7845517 76.4052414,66.3793103 75.6724138,66.3793103 C74.9395862,66.3793103 74.3448276,65.7845517 74.3448276,65.0517241 C74.3448276,64.3188966 74.9395862,63.7241379 75.6724138,63.7241379 C76.4052414,63.7241379 77,64.3188966 77,65.0517241" fill="#A36EDC" fill-rule="nonzero"></path>
                            <path d="M67.7068966,27.8793103 C67.7068966,28.6121379 67.1121379,29.2068966 66.3793103,29.2068966 C65.6464828,29.2068966 65.0517241,28.6121379 65.0517241,27.8793103 C65.0517241,27.1464828 65.6464828,26.5517241 66.3793103,26.5517241 C67.1121379,26.5517241 67.7068966,27.1464828 67.7068966,27.8793103" fill="#A36EDC" fill-rule="nonzero"></path>
                            <path d="M74.3448276,2.65517241 C74.3448276,3.388 73.750069,3.98275862 73.0172414,3.98275862 C72.2844138,3.98275862 71.6896552,3.388 71.6896552,2.65517241 C71.6896552,1.92234483 72.2844138,1.32758621 73.0172414,1.32758621 C73.750069,1.32758621 74.3448276,1.92234483 74.3448276,2.65517241" fill="#A36EDC" fill-rule="nonzero"></path>
                            <path d="M47.7931034,53.1034483 C47.7931034,66.3009828 37.0940862,77 23.8965517,77 C10.6990172,77 0,66.3009828 0,53.1034483 C0,39.9059138 10.6990172,29.2068966 23.8965517,29.2068966 C37.0940862,29.2068966 47.7931034,39.9059138 47.7931034,53.1034483 Z" stroke="#5FE6A6" stroke-width="2" stroke-linecap="round"></path>
                            <path d="M23.8965517,29.2068966 C21.0926897,29.2068966 18.4136207,29.7153621 15.9137759,30.6021897 C15.708,31.6602759 15.2035172,32.5072759 14.6870862,33.3131207 C13.3448966,35.4067241 15.6031207,38.0459655 17.8401034,36.9626552 C20.3492414,35.7479138 22.3923966,33.1830172 25.2453793,33.1989483 C26.7017414,33.2069138 30.4296034,30.9048793 31.1425172,31.3735172 C34.0233793,33.2719655 30.4827069,39.9988448 28.2789138,37.7605345 C26.1600862,35.6403793 24.8431207,38.6792241 25.8348276,39.7399655 C26.9247759,40.9069138 26.5318103,43.258069 25.0223448,43.7983966 C23.5035862,44.3413793 17.5427241,39.7678448 19.0070517,43.2341724 C20.6174138,47.0815172 14.183931,50.0526552 20.6784828,48.5020345 C23.7398966,47.7692069 22.7229655,50.0977931 24.1660517,51.2103103 C25.887931,52.5312586 26.0671552,52.3905345 28.9254483,51.0682586 C32.2776034,49.5388793 31.0177241,51.9245517 32.0452759,53.4831379 C33.9689483,56.3945345 38.7004655,59.1877759 41.1803966,55.340431 C41.7645345,54.4336897 41.2388103,47.6683103 45.137931,51.7758621 L47.7253966,51.7758621 C47.0337241,39.1996379 36.6466897,29.2068966 23.8965517,29.2068966 Z" stroke="#5FE6A6" stroke-width="2" stroke-linecap="round"></path>
                            <path d="M27.8793103,62.3965517 L23.8965517,61.0689655 L19.9137931,61.0689655 L16.6997069,59.7320862 L14.6034483,58.4137931 L9.29310345,59.7413793 L6.63793103,61.0689655 L3.98275862,63.7241379 L2.94856897,64.5990172 C7.01231034,71.9896897 14.8676379,77 23.8965517,77 C26.202569,77 28.4249483,76.6561552 30.5344828,76.0454655 L30.5344828,73.0172414 L33.1896552,70.362069 L34.5172414,66.3793103 L27.8793103,66.3793103 L27.8793103,62.3965517 Z" stroke="#5FE6A6" stroke-width="2" stroke-linecap="round" stroke-linejoin="round"></path>
                            <path d="M58.4137931,13.2758621 C58.4137931,20.6081207 52.4701897,26.5517241 45.137931,26.5517241 C37.8056724,26.5517241 31.862069,20.6081207 31.862069,13.2758621 C31.862069,5.94360345 37.8056724,0 45.137931,0 C52.4701897,0 58.4137931,5.94360345 58.4137931,13.2758621 Z" stroke="#5FE6A6" stroke-width="2" stroke-linecap="round"></path>
                            <path d="M77,46.4655172 C77,50.8651379 73.4341034,54.4310345 69.0344828,54.4310345 C64.6348621,54.4310345 61.0689655,50.8651379 61.0689655,46.4655172 C61.0689655,42.0658966 64.6348621,38.5 69.0344828,38.5 C73.4341034,38.5 77,42.0658966 77,46.4655172 Z" stroke="#5FE6A6" stroke-width="2" stroke-linecap="round"></path>
                            <path d="M34.5172414,6.63793103 L47.7931034,6.63793103" stroke="#5FE6A6" stroke-width="2" stroke-linecap="round" stroke-linejoin="round"></path>
                            <path d="M34.5172414,21.2413793 L45.137931,21.2413793" stroke="#5FE6A6" stroke-width="2" stroke-linecap="round" stroke-linejoin="round"></path>
                            <path d="M49.1206897,17.2586207 L57.0862069,17.2586207" stroke="#5FE6A6" stroke-width="2" stroke-linecap="round" stroke-linejoin="round"></path>
                            <path d="M53.1034483,10.6206897 L57.0862069,10.6206897" stroke="#5FE6A6" stroke-width="2" stroke-linecap="round" stroke-linejoin="round"></path>
                            <path d="M31.862069,13.2758621 L39.8275862,13.2758621" stroke="#5FE6A6" stroke-width="2" stroke-linecap="round" stroke-linejoin="round"></path>
                            <path d="M62.3965517,43.8103448 L66.3793103,43.8103448" stroke="#5FE6A6" stroke-width="2" stroke-linecap="round" stroke-linejoin="round"></path>
                            <path d="M71.6896552,49.1206897 L75.6724138,49.1206897" stroke="#5FE6A6" stroke-width="2" stroke-linecap="round" stroke-linejoin="round"></path>
                            <polygon stroke="#A36EDC" stroke-width="2" stroke-linecap="round" points="6.63793103 10.6206897 2.65517241 6.63793103 6.63793103 2.65517241 10.6206897 6.63793103"></polygon>
                            <path d="M6.63793103,2.65517241 L6.63793103,0" stroke="#A36EDC" stroke-width="2" stroke-linecap="round"></path>
                            <path d="M10.6206897,6.63793103 L13.2758621,6.63793103" stroke="#A36EDC" stroke-width="2" stroke-linecap="round"></path>
                            <path d="M6.63793103,10.6206897 L6.63793103,13.2758621" stroke="#A36EDC" stroke-width="2" stroke-linecap="round"></path>
                            <path d="M2.65517241,6.63793103 L0,6.63793103" stroke="#A36EDC" stroke-width="2" stroke-linecap="round"></path>
                        </g>
                    </g>
                </g>
            </g>
        </g>
    </g>
</svg>