<?xml version="1.0" encoding="UTF-8"?>
<svg width="43px" height="51px" viewBox="0 0 43 51" version="1.1" xmlns="http://www.w3.org/2000/svg" xmlns:xlink="http://www.w3.org/1999/xlink">
    <!-- Generator: Sketch 46.2 (44496) - http://www.bohemiancoding.com/sketch -->
    <title>noun_1154243_cc</title>
    <desc>Created with Sketch.</desc>
    <defs></defs>
    <g id="Page-2" stroke="none" stroke-width="1" fill="none" fill-rule="evenodd">
        <g id="Artboard-3-Copy-2" transform="translate(-1176.000000, -240.000000)" fill-rule="nonzero" fill="#576D94">
            <g id="Group-31" transform="translate(410.000000, 239.000000)">
                <g id="Group-30" transform="translate(547.000000, 0.000000)">
                    <g id="noun_1154243_cc" transform="translate(219.000000, 1.000000)">
                        <path d="M43,10.892834 C43,6.76845777 39.7147823,3.44604356 35.6365811,3.44604356 C31.5583798,3.44604356 28.2731622,6.76845777 28.2731622,10.892834 C28.2731622,13.6997012 29.8591293,16.2774364 32.3513634,17.5376625 C32.3513634,17.7667945 32.2947217,17.9959265 32.2947217,18.1677755 C32.068155,20.1153976 31.8982299,21.4901897 31.0486047,22.7504158 C30.4821878,23.6096609 29.2927125,24.0106419 27.1403285,24.1824909 C25.7242864,24.2970569 24.2516026,24.3543399 22.8355605,24.4116229 C21.4195184,24.4689059 19.7769096,24.5261889 18.2475841,24.6407549 C15.6987083,24.869887 12.526774,25.385434 10.204465,27.5049051 L10.204465,14.3298143 C13.9428161,12.7258902 15.75535,8.37238188 14.1693829,4.59170363 C12.5834157,0.811025384 8.27864772,-1.02203074 4.54029658,0.581893369 C0.801945438,2.18581747 -1.01058845,6.53932576 0.575378702,10.320004 C1.31172059,12.1530601 2.72776269,13.5851352 4.54029658,14.3298143 L4.54029658,36.6701857 C0.801945438,38.2741098 -1.01058845,42.6276181 0.575378702,46.4082964 C2.16134585,50.1889746 6.46611384,52.0220307 10.204465,50.4181066 C13.9428161,48.8141825 15.75535,44.4606742 14.1693829,40.679996 C13.7162494,39.5343359 12.9799075,38.5032419 12.0169989,37.7585628 C12.2435656,35.4672427 12.5834157,33.5196205 13.7162494,32.1448284 C14.7357997,30.8846024 16.831542,30.5409043 18.7007176,30.4263383 C20.1734014,30.3117723 21.6460851,30.2544893 23.1187689,30.1972063 C24.5914527,30.1399233 26.0641365,30.0826403 27.593462,29.9680743 C29.9724127,29.7962253 33.4841971,29.1661122 35.6365811,26.07283 C37.3358316,23.6096609 37.61904,21.0892087 37.9022484,18.8551716 C37.9588901,18.5687565 37.9588901,18.2823415 38.0155318,17.9959265 L38.0155318,17.9386435 C41.0175411,16.9075494 43,14.1006823 43,10.892834 Z M7.31573909,5.73736371 C8.27864772,5.73736371 9.01498961,6.48204276 9.01498961,7.45585382 C9.01498961,8.42966488 8.27864772,9.17434393 7.31573909,9.17434393 C6.35283047,9.17434393 5.61648858,8.42966488 5.61648858,7.45585382 C5.61648858,6.48204276 6.35283047,5.73736371 7.31573909,5.73736371 Z M7.31573909,45.2626363 C6.35283047,45.2626363 5.61648858,44.5179572 5.61648858,43.5441462 C5.61648858,42.5703351 6.35283047,41.8256561 7.31573909,41.8256561 C8.27864772,41.8256561 9.01498961,42.5703351 9.01498961,43.5441462 C9.01498961,44.5179572 8.27864772,45.2626363 7.31573909,45.2626363 Z M35.6365811,9.17434393 C36.5994897,9.17434393 37.3358316,9.91902298 37.3358316,10.892834 C37.3358316,11.8666451 36.5994897,12.6113242 35.6365811,12.6113242 C34.6736725,12.6113242 33.9373306,11.8666451 33.9373306,10.892834 C33.9373306,9.91902298 34.6736725,9.17434393 35.6365811,9.17434393 Z" id="Shape"></path>
                    </g>
                </g>
            </g>
        </g>
    </g>
</svg>