<?xml version="1.0" encoding="UTF-8"?>
<svg width="87px" height="172px" viewBox="0 0 87 172" version="1.1" xmlns="http://www.w3.org/2000/svg" xmlns:xlink="http://www.w3.org/1999/xlink">
    <!-- Generator: Sketch 46.2 (44496) - http://www.bohemiancoding.com/sketch -->
    <title>noun_787656_cc</title>
    <desc>Created with Sketch.</desc>
    <defs></defs>
    <g id="Page-2" stroke="none" stroke-width="1" fill="none" fill-rule="evenodd">
        <g id="Artboard-3-Copy-2" transform="translate(-513.000000, -241.000000)" fill-rule="nonzero">
            <g id="Group-31" transform="translate(410.000000, 239.000000)">
                <g id="Group-6" transform="translate(7.000000, 2.000000)">
                    <g id="noun_787656_cc" transform="translate(96.000000, 0.000000)">
                        <g id="Group">
                            <g id="Group-19" transform="translate(23.000000, 77.000000)" fill="#30D679">
                                <path d="M8.93490566,0.117380952 C8.64764151,0.117380952 8.07311321,0.412857143 7.78584906,0.708333333 L1.17877358,7.50428571 C0.604245283,8.0952381 0.604245283,8.98166667 1.17877358,9.86809524 L7.49858491,16.3685714 C7.78584906,16.6640476 8.07311321,16.9595238 8.64764151,16.9595238 C8.93490566,16.9595238 9.50943396,16.6640476 9.79669811,16.3685714 C10.3712264,15.777619 10.3712264,14.8911905 9.79669811,14.0047619 L4.6259434,8.68619048 L10.3712264,2.77666667 C10.9457547,2.18571429 10.9457547,1.29928571 10.3712264,0.412857143 C9.79669811,0.117380952 9.22216981,0.117380952 8.93490566,0.117380952 L8.93490566,0.117380952 Z" id="Shape"></path>
                                <path d="M33.3523585,0.117380952 C33.0650943,0.117380952 32.490566,0.412857143 32.2033019,0.708333333 C31.6287736,1.29928571 31.6287736,2.18571429 32.2033019,3.07214286 L37.9485849,8.98166667 L32.490566,14.0047619 C31.9160377,14.5957143 31.9160377,15.4821429 32.490566,16.3685714 C32.7778302,16.6640476 33.0650943,16.9595238 33.6396226,16.9595238 C33.9268868,16.9595238 34.5014151,16.6640476 34.7886792,16.3685714 L41.1084906,9.86809524 C41.6830189,9.27714286 41.6830189,8.39071429 41.1084906,7.50428571 L34.5014151,0.708333333 C33.9268868,0.117380952 33.6396226,0.117380952 33.3523585,0.117380952 L33.3523585,0.117380952 Z" id="Shape"></path>
                                <path d="M26.1707547,2.48119048 C25.8834906,2.48119048 25.3089623,2.77666667 25.0216981,3.07214286 L15.5419811,12.8228571 C14.9674528,13.4138095 14.9674528,14.3002381 15.5419811,15.1866667 C15.8292453,15.4821429 16.1165094,15.777619 16.6910377,15.777619 C16.9783019,15.777619 17.5528302,15.4821429 17.8400943,15.1866667 L27.3198113,5.43595238 C27.8943396,4.845 27.8943396,3.95857143 27.3198113,3.07214286 C27.0325472,2.48119048 26.4580189,2.48119048 26.1707547,2.48119048 L26.1707547,2.48119048 Z" id="Shape"></path>
                            </g>
                            <path d="M72.5,0 L14.5,0 C6.525,0 0,7.74 0,17.2 L0,154.8 C0,164.26 6.525,172 14.5,172 L72.5,172 C80.475,172 87,164.26 87,154.8 L87,17.2 C87,7.74 80.475,0 72.5,0 L72.5,0 Z M8,30 L8,16.98 C8,12.78 10.9090909,9 14.9090909,9 L73.0909091,9 C76.7272727,9 80,12.36 80,16.98 L80,30 L8,30 L8,30 Z M8,140 L8,34 L79,34 L79,140 L8,140 L8,140 Z M14.8477157,163 C11.2436548,163 8,159.545455 8,154.795455 L8,144 L79,144 L79,154.795455 C79,159.113636 76.1167513,163 72.1522843,163 L14.8477157,163 L14.8477157,163 Z" id="Shape" fill="#5A6A84"></path>
                            <path d="M18.125,13.14 C15.95,13.14 14.5,14.6 14.5,16.79 C14.5,18.98 15.95,20.44 18.125,20.44 C20.3,20.44 21.75,18.98 21.75,16.79 C21.75,14.6 20.3,13.14 18.125,13.14 L18.125,13.14 Z" id="Shape" fill="#5A6A84"></path>
                            <path d="M27.9125,13.14 C25.7375,13.14 24.2875,14.6 24.2875,16.79 C24.2875,18.98 25.7375,20.44 27.9125,20.44 C30.0875,20.44 31.5375,18.98 31.5375,16.79 C31.5375,14.6 29.725,13.14 27.9125,13.14 L27.9125,13.14 Z" id="Shape" fill="#5A6A84"></path>
                            <path d="M38.0625,13.14 C35.8875,13.14 34.4375,14.6 34.4375,16.79 C34.4375,18.98 35.8875,20.44 38.0625,20.44 C40.2375,20.44 41.6875,18.98 41.6875,16.79 C41.6875,14.6 39.875,13.14 38.0625,13.14 L38.0625,13.14 Z" id="Shape" fill="#5A6A84"></path>
                            <path d="M51.1125,149.925 C48.9375,149.925 47.4875,151.385 47.4875,153.575 C47.4875,155.765 48.9375,157.225 51.1125,157.225 C53.2875,157.225 54.7375,155.765 54.7375,153.575 C54.7375,151.385 52.925,149.925 51.1125,149.925 L51.1125,149.925 Z" id="Shape" fill="#5A6A84"></path>
                            <path d="M60.5375,149.925 C58.3625,149.925 56.9125,151.385 56.9125,153.575 C56.9125,155.765 58.3625,157.225 60.5375,157.225 C62.7125,157.225 64.1625,155.765 64.1625,153.575 C64.1625,151.385 62.7125,149.925 60.5375,149.925 L60.5375,149.925 Z" id="Shape" fill="#5A6A84"></path>
                            <path d="M70.6875,149.925 C68.5125,149.925 67.0625,151.385 67.0625,153.575 C67.0625,155.765 68.5125,157.225 70.6875,157.225 C72.8625,157.225 74.3125,155.765 74.3125,153.575 C74.3125,151.385 72.8625,149.925 70.6875,149.925 L70.6875,149.925 Z" id="Shape" fill="#5A6A84"></path>
                        </g>
                    </g>
                </g>
            </g>
        </g>
    </g>
</svg>