<?xml version="1.0" encoding="UTF-8"?>
<svg width="44px" height="34px" viewBox="0 0 44 34" version="1.1" xmlns="http://www.w3.org/2000/svg" xmlns:xlink="http://www.w3.org/1999/xlink">
    <!-- Generator: Sketch 41.2 (35397) - http://www.bohemiancoding.com/sketch -->
    <title>noun_737318_cc</title>
    <desc>Created with Sketch.</desc>
    <defs></defs>
    <g id="Page-1" stroke="none" stroke-width="1" fill="none" fill-rule="evenodd">
        <g id="noun_737318_cc" fill="#000000">
            <path d="M25.1,2.2 C25.1,2.7 25.3,3.2 25.7,3.6 L37.1,15 L2.1,15 C1,15 0.1,15.9 0.1,17 C0.1,18.1 1,19 2.1,19 L37.1,19 L25.7,30.4 C25.3,30.8 25.1,31.3 25.1,31.8 C25.1,32.3 25.3,32.8 25.7,33.2 C26.5,34 27.7,34 28.5,33.2 L43.3,18.4 C44.1,17.6 44.1,16.4 43.3,15.6 L28.5,0.7 C27.7,-0.1 26.5,-0.1 25.7,0.7 C25.3,1.1 25.1,1.6 25.1,2.2 Z" id="Shape"></path>
        </g>
    </g>
</svg>