<?xml version="1.0" encoding="UTF-8"?>
<svg width="72px" height="72px" viewBox="0 0 72 72" version="1.1" xmlns="http://www.w3.org/2000/svg" xmlns:xlink="http://www.w3.org/1999/xlink">
    <!-- Generator: Sketch 42 (36781) - http://www.bohemiancoding.com/sketch -->
    <title>noun_369842_cc</title>
    <desc>Created with Sketch.</desc>
    <defs>
        <circle id="path-1" cx="35" cy="35" r="35"></circle>
    </defs>
    <g id="Page-1" stroke="none" stroke-width="1" fill="none" fill-rule="evenodd">
        <g id="noun_369842_cc" transform="translate(1.000000, 1.000000)">
            <mask id="mask-2" fill="white">
                <use xlink:href="#path-1"></use>
            </mask>
            <use id="Mask" stroke="#00A15A" stroke-linecap="square" xlink:href="#path-1"></use>
            <g mask="url(#mask-2)" id="Group">
                <g transform="translate(-2.000000, 8.000000)">
                    <g>
                        <path d="M23.707,23.671 C24.198,23.178 24.705,22.668 26.38,22.668 L32.188,22.668 C32.56,22.668 32.861,22.367 32.861,21.996 C32.861,21.625 32.56,21.324 32.188,21.324 L26.38,21.324 C24.148,21.324 23.342,22.133 22.753,22.723 L22.702,22.774 C22.441,23.037 22.441,23.462 22.704,23.724 C22.835,23.855 23.007,23.92 23.179,23.92 C23.351,23.92 23.524,23.855 23.656,23.723 L23.707,23.671 Z M26.364,18.453 C26.376,18.449 27.593,18.131 28.66,18.131 C29.932,18.131 31.396,18.442 32.811,18.742 C34.213,19.039 35.665,19.346 36.934,19.35 L36.937,19.35 L36.946,19.35 L36.955,19.35 L36.958,19.35 C38.229,19.345 39.679,19.038 41.081,18.742 C42.497,18.441 43.961,18.131 45.232,18.131 C46.297,18.131 47.518,18.449 47.531,18.453 C47.75,18.512 47.967,18.381 48.022,18.166 C48.08,17.951 47.951,17.73 47.736,17.674 C47.682,17.659 46.404,17.325 45.232,17.325 C43.876,17.325 42.37,17.644 40.913,17.953 C39.483,18.257 38.134,18.543 36.946,18.543 C35.758,18.543 34.408,18.257 32.979,17.953 C31.522,17.644 30.017,17.325 28.66,17.325 C27.489,17.325 26.212,17.659 26.157,17.674 C25.942,17.731 25.813,17.951 25.87,18.166 C25.927,18.381 26.15,18.512 26.364,18.453 Z M73.649,60.991 L71.887,57.144 C71.833,57.027 71.727,56.943 71.6,56.917 L51.751,52.932 L49.715,47.726 C49.664,47.595 49.548,47.5 49.408,47.476 C49.36,47.468 49.313,47.472 49.266,47.48 L49.266,44.473 C51.692,41.826 53.699,38.701 53.845,35.521 C54.97,35.361 55.842,34.4 55.842,33.23 L55.842,27.42 C55.842,26.379 55.15,25.506 54.204,25.211 C55.545,23.281 56.315,19.324 55.393,15.232 C54.387,10.758 51.641,7.49 47.652,6.011 C47.131,5.115 44.065,0.439 36.953,0.439 C27.16,0.439 20.219,5.911 17.902,15.454 C17.87,15.527 17.715,15.832 17.381,15.833 C17.29,15.833 17.19,15.812 17.08,15.772 C16.96,15.727 16.827,15.743 16.721,15.811 C16.614,15.881 16.546,15.997 16.538,16.124 C16.521,16.392 16.168,22.561 18.969,25.611 C18.436,26.037 18.087,26.685 18.087,27.42 L18.087,33.231 C18.087,34.393 18.945,35.35 20.062,35.52 C20.208,38.7 22.216,41.827 24.643,44.476 L24.643,47.481 C24.596,47.473 24.549,47.469 24.501,47.477 C24.361,47.501 24.246,47.596 24.193,47.727 L22.152,52.952 L2.396,56.919 C2.269,56.944 2.162,57.028 2.108,57.146 L0.347,60.993 C0.29,61.117 0.3,61.263 0.374,61.379 C0.447,61.494 0.576,61.565 0.713,61.565 L33.552,61.565 L33.56,61.565 L73.279,61.565 C73.417,61.565 73.544,61.495 73.619,61.379 C73.695,61.261 73.706,61.115 73.649,60.991 Z M53.86,25.944 C54.532,26.099 55.036,26.701 55.036,27.42 L55.036,33.231 C55.036,33.952 54.532,34.552 53.86,34.707 L53.86,25.944 Z M20.052,34.699 C19.391,34.536 18.898,33.942 18.898,33.23 L18.898,27.42 C18.898,26.809 19.263,26.283 19.785,26.043 C19.873,26.062 19.965,26.074 20.053,26.08 L20.053,34.699 L20.052,34.699 Z M20.858,23.408 C21.15,16.24 23.003,12.465 26.26,12.465 C38.989,12.465 44.599,10.555 45.776,10.09 C46.889,11.013 52.862,16.381 53.044,25.096 L50.43,25.096 C50.276,24.289 49.562,23.57 48.675,23.385 C47.604,23.159 46.163,23.03 44.723,23.03 C43.597,23.03 42.529,23.109 41.633,23.257 C40.683,23.415 39.938,24.21 39.868,25.097 L39.286,25.097 C39.265,24.691 39.352,23.868 40.235,23.117 C40.404,22.973 40.424,22.719 40.28,22.549 C40.136,22.379 39.881,22.36 39.712,22.504 C38.648,23.409 38.456,24.453 38.48,25.098 L35.413,25.098 C35.438,24.454 35.247,23.412 34.181,22.504 C34.011,22.359 33.757,22.379 33.612,22.549 C33.467,22.719 33.489,22.974 33.658,23.117 C34.55,23.879 34.63,24.711 34.611,25.097 L34.048,25.097 C33.979,24.21 33.233,23.415 32.283,23.257 C31.387,23.11 30.319,23.03 29.194,23.03 C27.752,23.03 26.312,23.16 25.241,23.385 C24.355,23.57 23.639,24.289 23.486,25.096 L20.859,25.096 L20.859,23.408 L20.858,23.408 Z M49.655,25.416 C49.655,27.168 49.328,28.375 48.819,28.491 C47.92,28.697 46.77,28.803 45.401,28.803 C43.958,28.803 42.551,28.68 41.718,28.567 C41.288,28.506 40.956,27.848 40.784,26.71 C40.709,26.216 40.66,25.89 40.66,25.23 C40.66,24.683 41.155,24.154 41.764,24.054 C42.617,23.913 43.639,23.838 44.722,23.838 C46.109,23.838 47.49,23.96 48.51,24.175 C49.063,24.289 49.655,24.816 49.655,25.416 Z M33.253,25.229 C33.253,25.899 33.201,26.239 33.13,26.709 C33.008,27.514 32.747,28.489 32.196,28.566 C31.362,28.679 29.957,28.802 28.512,28.802 C27.144,28.802 25.994,28.697 25.094,28.49 C24.586,28.374 24.257,27.167 24.257,25.415 C24.257,24.815 24.851,24.288 25.405,24.173 C26.424,23.958 27.804,23.836 29.192,23.836 C30.273,23.836 31.296,23.911 32.149,24.051 C32.759,24.152 33.253,24.682 33.253,25.229 Z M20.858,35.152 L20.858,25.902 L23.46,25.902 C23.464,26.011 23.47,26.119 23.477,26.229 C22.577,26.369 21.811,26.979 21.444,27.552 C21.324,27.74 21.378,27.989 21.565,28.109 C21.632,28.152 21.707,28.173 21.782,28.173 C21.915,28.173 22.046,28.107 22.123,27.987 C22.386,27.577 22.95,27.145 23.559,27.034 C23.644,27.61 23.789,28.147 24.027,28.555 C23.275,28.995 22.784,29.783 22.631,30.418 C22.579,30.635 22.712,30.852 22.929,30.903 C22.961,30.912 22.992,30.916 23.024,30.916 C23.207,30.916 23.372,30.792 23.416,30.606 C23.541,30.088 23.999,29.43 24.618,29.159 C24.711,29.21 24.808,29.252 24.917,29.276 C25.875,29.497 27.085,29.608 28.515,29.608 C30.385,29.608 31.891,29.42 32.308,29.364 C33.572,29.189 33.841,27.412 33.929,26.829 C33.977,26.518 34.018,26.247 34.041,25.901 L34.341,25.901 C33.828,27.348 34.144,28.623 34.382,29.584 C34.498,30.053 34.599,30.458 34.552,30.704 C34.512,30.923 34.656,31.133 34.874,31.175 C34.899,31.18 34.925,31.182 34.95,31.182 C35.139,31.182 35.308,31.047 35.346,30.855 C35.425,30.435 35.305,29.952 35.164,29.389 C34.925,28.424 34.641,27.234 35.215,25.902 L38.68,25.902 C39.253,27.234 38.969,28.423 38.731,29.389 C38.591,29.951 38.471,30.435 38.55,30.855 C38.586,31.047 38.755,31.182 38.946,31.182 C38.971,31.182 38.996,31.18 39.02,31.175 C39.239,31.133 39.383,30.923 39.342,30.702 C39.295,30.458 39.396,30.053 39.512,29.583 C39.752,28.616 40.069,27.335 39.556,25.901 L39.877,25.901 C39.899,26.237 39.94,26.505 39.989,26.828 C40.077,27.412 40.345,29.189 41.609,29.364 C42.026,29.421 43.533,29.608 45.402,29.608 C46.832,29.608 48.043,29.497 49,29.276 C49.109,29.252 49.207,29.21 49.3,29.159 C49.918,29.43 50.377,30.089 50.502,30.606 C50.547,30.792 50.712,30.916 50.894,30.916 C50.926,30.916 50.958,30.912 50.99,30.903 C51.207,30.851 51.34,30.633 51.288,30.418 C51.134,29.78 50.642,28.995 49.892,28.555 C50.129,28.148 50.275,27.611 50.359,27.034 C50.968,27.145 51.533,27.577 51.796,27.985 C51.873,28.106 52.004,28.173 52.137,28.173 C52.211,28.173 52.286,28.152 52.354,28.109 C52.542,27.989 52.595,27.74 52.475,27.552 C52.109,26.979 51.342,26.368 50.442,26.229 C50.448,26.119 50.454,26.011 50.458,25.902 L53.057,25.902 L53.057,35.152 C53.057,40.312 47.52,45.496 43.653,48.486 C43.657,48.418 43.664,48.349 43.664,48.279 C43.664,48.056 43.483,47.875 43.26,47.875 C43.037,47.875 42.857,48.057 42.857,48.279 C42.857,49.738 41.671,50.923 40.212,50.923 L33.709,50.923 C32.251,50.923 31.063,49.738 31.063,48.279 C31.063,48.056 30.882,47.875 30.661,47.875 C30.438,47.875 30.257,48.057 30.257,48.279 C30.257,48.349 30.264,48.418 30.268,48.486 C26.396,45.494 20.858,40.311 20.858,35.152 Z M48.46,45.322 L48.46,48.24 C48.445,48.258 48.43,48.275 48.413,48.291 L47.659,49.046 C43.467,53.035 38.664,54.413 38.611,54.428 C38.598,54.432 38.589,54.443 38.577,54.447 C38.543,54.46 38.511,54.476 38.481,54.497 C38.464,54.51 38.451,54.524 38.438,54.538 C38.414,54.561 38.394,54.587 38.376,54.616 C38.369,54.626 38.36,54.632 38.355,54.642 C38.349,54.655 38.35,54.668 38.345,54.68 C38.34,54.696 38.329,54.708 38.325,54.723 C38.036,55.932 37.617,56.678 37.193,57.351 C37,56.939 36.717,56.574 36.437,56.217 C36.059,55.737 35.701,55.281 35.586,54.735 C35.583,54.717 35.571,54.702 35.565,54.686 C35.56,54.67 35.56,54.657 35.554,54.643 C35.55,54.633 35.541,54.628 35.536,54.62 C35.519,54.591 35.5,54.567 35.477,54.544 C35.461,54.528 35.448,54.512 35.43,54.499 C35.404,54.478 35.373,54.466 35.344,54.454 C35.326,54.446 35.315,54.434 35.298,54.429 C35.241,54.414 29.802,52.852 25.447,48.243 L25.447,45.325 C27.197,47.103 29.072,48.624 30.577,49.741 C31.128,50.915 32.318,51.731 33.699,51.731 L40.202,51.731 C41.583,51.731 42.773,50.915 43.325,49.741 C44.835,48.623 46.71,47.102 48.46,45.322 Z M33.18,60.577 C27.937,58.508 23.992,54.677 22.908,53.242 L24.71,48.631 C28.577,52.819 33.227,54.598 34.656,55.07 C34.267,56.051 33.343,58.561 33.18,60.577 Z M33.98,60.754 C34.084,59.135 34.771,57.063 35.207,55.889 C35.387,56.182 35.597,56.452 35.806,56.717 C36.222,57.246 36.581,57.709 36.619,58.272 C36.237,58.92 35.911,59.651 35.756,60.754 L33.98,60.754 L33.98,60.754 Z M36.572,60.754 C36.765,59.524 37.2,58.838 37.699,58.061 C38.052,57.51 38.436,56.904 38.761,56.053 C39.192,57.248 39.814,59.209 39.912,60.754 L36.572,60.754 Z M50.999,53.369 C49.778,54.904 45.86,58.619 40.716,60.617 C40.564,58.596 39.642,56.056 39.257,55.072 C40.683,54.599 45.335,52.82 49.203,48.631 L51.028,53.298 L50.999,53.369 Z M46.255,26.689 C45.433,26.961 44.514,26.961 43.692,26.689 C43.48,26.619 43.252,26.736 43.182,26.947 C43.112,27.159 43.227,27.386 43.438,27.455 C43.931,27.619 44.448,27.701 44.973,27.701 C45.497,27.701 46.014,27.619 46.507,27.455 C46.719,27.387 46.834,27.159 46.764,26.947 C46.694,26.736 46.466,26.619 46.255,26.689 Z M28.66,15.726 C29.932,15.726 31.396,16.036 32.811,16.336 C34.213,16.635 35.665,16.94 36.934,16.943 L36.937,16.944 L36.946,16.944 L36.955,16.944 L36.958,16.943 C38.229,16.94 39.679,16.634 41.081,16.336 C42.497,16.035 43.961,15.726 45.232,15.726 C45.456,15.726 45.636,15.545 45.636,15.323 C45.636,15.099 45.455,14.919 45.232,14.919 C43.876,14.919 42.37,15.239 40.913,15.548 C39.483,15.851 38.134,16.138 36.946,16.14 C35.758,16.138 34.408,15.851 32.979,15.548 C31.522,15.239 30.017,14.919 28.66,14.919 C28.438,14.919 28.257,15.1 28.257,15.323 C28.257,15.545 28.438,15.726 28.66,15.726 Z M41.687,21.324 C41.316,21.324 41.015,21.625 41.015,21.996 C41.015,22.367 41.316,22.668 41.687,22.668 L47.494,22.668 C49.171,22.668 49.679,23.18 50.17,23.673 L50.219,23.724 C50.351,23.856 50.524,23.921 50.696,23.921 C50.868,23.921 51.04,23.856 51.171,23.725 C51.435,23.463 51.435,23.038 51.173,22.775 L51.124,22.725 C50.535,22.133 49.731,21.325 47.495,21.325 L41.687,21.325 L41.687,21.324 Z M36.955,42.67 C35.401,42.67 34.45,43.406 34.41,43.438 C34.235,43.576 34.205,43.83 34.343,44.004 C34.481,44.178 34.734,44.209 34.909,44.07 C34.917,44.064 35.677,43.477 36.955,43.477 C38.201,43.477 38.998,44.068 39.005,44.073 C39.078,44.131 39.165,44.158 39.251,44.158 C39.372,44.158 39.492,44.103 39.571,44 C39.707,43.824 39.674,43.57 39.497,43.436 C39.457,43.404 38.487,42.67 36.955,42.67 Z M27.385,39.46 C27.609,39.46 27.788,39.279 27.788,39.058 C27.788,37.37 28.563,36.375 30.16,36.018 C30.784,35.879 31.343,35.549 31.774,35.096 C32.059,35.704 32.675,36.129 33.391,36.129 C33.824,36.129 34.113,36.344 34.514,36.641 C35.056,37.041 35.731,37.539 36.954,37.539 C38.18,37.539 38.853,37.041 39.395,36.641 C39.796,36.344 40.087,36.129 40.52,36.129 C41.236,36.129 41.85,35.704 42.136,35.096 C42.568,35.549 43.126,35.879 43.75,36.018 C45.346,36.375 46.122,37.37 46.122,39.058 C46.122,39.28 46.303,39.46 46.524,39.46 C46.748,39.46 46.928,39.279 46.928,39.058 C46.928,36.993 45.889,35.669 43.925,35.231 C43.123,35.053 42.46,34.461 42.192,33.69 C42.186,33.677 42.176,33.667 42.171,33.655 C41.901,33.008 41.263,32.55 40.52,32.55 C40.296,32.55 40.117,32.731 40.117,32.954 C40.117,33.176 40.297,33.356 40.52,33.356 C41.062,33.356 41.501,33.797 41.501,34.34 C41.501,34.883 41.062,35.324 40.52,35.324 C39.822,35.324 39.361,35.662 38.916,35.992 C38.424,36.355 37.914,36.731 36.954,36.731 C35.996,36.731 35.486,36.355 34.992,35.99 C34.549,35.662 34.089,35.324 33.39,35.324 C32.848,35.324 32.406,34.883 32.406,34.34 C32.406,33.797 32.848,33.356 33.39,33.356 C33.613,33.356 33.793,33.175 33.793,32.954 C33.793,32.73 33.612,32.55 33.39,32.55 C32.645,32.55 32.005,33.009 31.736,33.658 C31.731,33.669 31.721,33.678 31.717,33.69 C31.447,34.461 30.783,35.053 29.983,35.231 C28.019,35.669 26.98,36.993 26.98,39.058 C26.981,39.279 27.162,39.46 27.385,39.46 Z M44.974,24.136 C43.997,24.136 43.055,24.422 42.25,24.961 C42.064,25.086 42.016,25.338 42.139,25.522 C42.217,25.639 42.345,25.701 42.474,25.701 C42.551,25.701 42.63,25.679 42.699,25.633 C43.066,25.386 43.474,25.214 43.896,25.102 C43.85,25.226 43.822,25.359 43.822,25.5 C43.822,26.138 44.338,26.653 44.974,26.653 C45.61,26.653 46.125,26.137 46.125,25.5 C46.125,25.358 46.096,25.226 46.05,25.102 C46.474,25.214 46.882,25.386 47.25,25.633 C47.436,25.757 47.686,25.708 47.81,25.523 C47.934,25.338 47.884,25.087 47.7,24.962 C46.891,24.421 45.948,24.136 44.974,24.136 Z M26.954,44.044 C27.042,44.044 27.129,44.016 27.202,43.959 C27.378,43.822 27.41,43.568 27.272,43.393 C25.381,40.961 25.327,38.492 25.355,37.792 C25.365,37.57 25.191,37.382 24.968,37.373 C24.766,37.373 24.558,37.537 24.549,37.76 C24.518,38.528 24.575,41.24 26.635,43.889 C26.716,43.99 26.834,44.044 26.954,44.044 Z M46.642,43.393 C46.505,43.569 46.538,43.823 46.712,43.959 C46.786,44.016 46.873,44.044 46.96,44.044 C47.081,44.044 47.199,43.99 47.278,43.889 C49.339,41.239 49.396,38.527 49.365,37.76 C49.356,37.537 49.146,37.373 48.946,37.373 C48.723,37.382 48.55,37.57 48.559,37.792 C48.587,38.491 48.533,40.961 46.642,43.393 Z M30.173,26.689 C29.349,26.961 28.431,26.961 27.61,26.689 C27.398,26.619 27.17,26.736 27.099,26.947 C27.03,27.159 27.145,27.386 27.356,27.455 C27.849,27.619 28.366,27.701 28.892,27.701 C29.416,27.701 29.932,27.619 30.425,27.455 C30.637,27.387 30.752,27.159 30.682,26.947 C30.612,26.736 30.385,26.619 30.173,26.689 Z M28.896,24.136 C27.921,24.136 26.979,24.421 26.171,24.961 C25.985,25.086 25.936,25.336 26.06,25.522 C26.185,25.708 26.434,25.756 26.621,25.632 C26.988,25.386 27.396,25.213 27.818,25.101 C27.773,25.225 27.744,25.358 27.744,25.499 C27.744,26.137 28.261,26.652 28.896,26.652 C29.533,26.652 30.048,26.136 30.048,25.499 C30.048,25.357 30.019,25.225 29.973,25.101 C30.396,25.213 30.803,25.386 31.171,25.632 C31.239,25.678 31.318,25.7 31.396,25.7 C31.525,25.7 31.653,25.638 31.731,25.521 C31.855,25.335 31.805,25.085 31.62,24.96 C30.812,24.421 29.871,24.136 28.896,24.136 Z M44.106,39.049 C43.903,38.959 43.664,39.047 43.571,39.25 C43.419,39.589 43.151,39.799 42.874,39.799 L31.036,39.799 C30.761,39.799 30.492,39.589 30.339,39.25 C30.247,39.049 30.009,38.958 29.806,39.051 C29.604,39.143 29.513,39.381 29.606,39.584 C29.891,40.215 30.439,40.605 31.037,40.605 L42.875,40.605 C43.475,40.605 44.023,40.212 44.309,39.582 C44.398,39.381 44.31,39.141 44.106,39.049 Z" id="Shape" fill="#56666F" fill-rule="nonzero"></path>
                    </g>
                </g>
            </g>
        </g>
    </g>
</svg>