<?xml version="1.0" encoding="UTF-8"?>
<svg width="72px" height="72px" viewBox="0 0 72 72" version="1.1" xmlns="http://www.w3.org/2000/svg" xmlns:xlink="http://www.w3.org/1999/xlink">
    <!-- Generator: Sketch 42 (36781) - http://www.bohemiancoding.com/sketch -->
    <title>noun_369842_cc</title>
    <desc>Created with Sketch.</desc>
    <defs>
        <path d="M35,70 C54.3299662,70 70,54.3299662 70,35 C70,15.6700338 54.3299662,0 35,0 C15.6700338,0 0,15.6700338 0,35 C0,54.3299662 15.6700338,70 35,70 Z" id="path-1"></path>
    </defs>
    <g id="Page-1" stroke="none" stroke-width="1" fill="none" fill-rule="evenodd">
        <g id="noun_369842_cc" transform="translate(1.000000, 1.000000)">
            <mask id="mask-2" fill="white">
                <use xlink:href="#path-1"></use>
            </mask>
            <use id="Mask" stroke="#00A15A" stroke-linecap="square" xlink:href="#path-1"></use>
            <path d="M45.787,33.416 L43.267,33.416 C42.579,33.416 42.046,33.176 41.486,32.613 C41.33,32.456 41.074,32.456 40.916,32.613 C40.758,32.771 40.758,33.027 40.916,33.184 C41.633,33.902 42.359,34.222 43.268,34.222 L45.788,34.222 C46.009,34.222 46.19,34.042 46.19,33.819 C46.189,33.598 46.008,33.416 45.787,33.416 Z M38.289,30.133 C39.566,30.133 40.799,29.766 41.986,29.41 C42.994,29.109 43.947,28.826 44.767,28.826 C47.259,28.826 48.464,30.338 48.513,30.399 C48.644,30.574 48.845,30.665 49.048,30.665 C49.189,30.665 49.331,30.621 49.454,30.529 C49.749,30.304 49.808,29.883 49.583,29.588 C49.519,29.501 47.95,27.481 44.767,27.481 C43.749,27.481 42.706,27.794 41.603,28.123 C40.505,28.45 39.371,28.79 38.289,28.79 C37.918,28.79 37.615,29.091 37.615,29.462 C37.615,29.833 37.918,30.133 38.289,30.133 Z M36,28.033 C36.224,28.033 36.403,27.852 36.403,27.629 L36.403,26.149 C36.403,25.926 36.223,25.746 36,25.746 C35.777,25.746 35.597,25.927 35.597,26.149 L35.597,27.629 C35.596,27.853 35.777,28.033 36,28.033 Z M48.85,34.586 C48.684,34.438 48.428,34.452 48.282,34.618 C48.132,34.785 48.147,35.039 48.313,35.189 C49.17,35.953 49.114,36.862 49.112,36.898 C49.092,37.119 49.257,37.316 49.477,37.334 C49.491,37.336 49.5,37.336 49.514,37.336 C49.721,37.336 49.897,37.179 49.914,36.969 C49.92,36.914 50.018,35.628 48.85,34.586 Z M47.242,32.125 C47.562,32.479 47.961,32.916 48.734,32.916 C48.957,32.916 49.138,32.736 49.138,32.514 C49.138,32.292 48.956,32.111 48.734,32.111 C48.336,32.111 48.154,31.93 47.839,31.585 C47.47,31.179 47.013,30.675 46.007,30.675 L41.3,30.675 C41.077,30.675 40.898,30.855 40.898,31.077 C40.898,31.299 41.078,31.48 41.3,31.48 L42.251,31.48 C42.327,32.223 42.946,32.805 43.71,32.805 L44.636,32.805 C45.398,32.805 46.017,32.226 46.095,31.485 C46.678,31.51 46.932,31.781 47.242,32.125 Z M34.647,36.446 C34.803,36.603 35.059,36.603 35.217,36.446 C35.648,36.014 36.351,36.014 36.783,36.446 C36.861,36.525 36.965,36.564 37.068,36.564 C37.17,36.564 37.275,36.525 37.353,36.446 C37.511,36.289 37.509,36.033 37.353,35.875 C36.605,35.129 35.393,35.129 34.646,35.875 C34.489,36.033 34.489,36.289 34.647,36.446 Z M47.701,47.164 C47.478,47.164 47.297,47.345 47.297,47.568 C47.297,49.564 46.973,50.377 46.971,50.381 C46.885,50.586 46.979,50.822 47.184,50.91 C47.235,50.932 47.289,50.943 47.344,50.943 C47.498,50.943 47.649,50.851 47.713,50.7 C47.729,50.662 48.104,49.763 48.104,47.568 C48.104,47.345 47.924,47.164 47.701,47.164 Z M38.289,24.693 C38.314,24.693 38.342,24.689 38.369,24.685 C38.625,24.632 38.881,24.579 39.14,24.523 C40.203,24.298 41.302,24.064 42.251,24.064 C43.042,24.064 43.952,24.3 43.96,24.304 C44.179,24.363 44.396,24.232 44.454,24.016 C44.509,23.8 44.38,23.58 44.165,23.525 C44.124,23.513 43.147,23.257 42.251,23.257 C41.218,23.257 40.075,23.499 38.972,23.734 C38.716,23.789 38.46,23.841 38.208,23.894 C37.989,23.937 37.849,24.15 37.892,24.369 C37.932,24.561 38.1,24.693 38.289,24.693 Z M37.406,67.91 C37.135,67.91 36.914,68.132 36.914,68.404 C36.914,68.675 37.135,68.896 37.406,68.896 C37.679,68.896 37.898,68.675 37.898,68.404 C37.898,68.132 37.68,67.91 37.406,67.91 Z M40.828,46.517 C40.652,46.903 40.348,47.139 40.027,47.139 L31.969,47.139 C31.651,47.139 31.345,46.903 31.17,46.518 C31.078,46.316 30.842,46.225 30.636,46.318 C30.434,46.409 30.344,46.648 30.436,46.852 C30.743,47.528 31.33,47.947 31.969,47.947 L40.027,47.947 C40.668,47.947 41.254,47.528 41.562,46.852 C41.654,46.648 41.564,46.409 41.363,46.317 C41.158,46.225 40.92,46.314 40.828,46.517 Z M25.125,50.479 C25.121,50.47 24.701,49.561 24.701,47.569 C24.701,47.345 24.519,47.165 24.297,47.165 C24.075,47.165 23.895,47.346 23.895,47.569 C23.895,49.773 24.379,50.79 24.399,50.831 C24.469,50.976 24.613,51.058 24.761,51.058 C24.819,51.058 24.879,51.044 24.936,51.017 C25.135,50.92 25.219,50.68 25.125,50.479 Z M72.648,69.367 L70.886,65.522 C70.831,65.405 70.726,65.321 70.599,65.294 L52.889,61.74 C52.91,61.602 52.86,61.463 52.748,61.37 L48.535,57.883 L48.535,57.268 C57.795,57 57.91,47.664 57.91,47.569 C57.91,47.462 57.867,47.359 57.791,47.284 C56.645,46.138 56.051,45.128 55.742,44.011 C56.674,43.909 57.187,42.769 57.246,42.632 C57.293,42.523 57.289,42.398 57.234,42.29 C57.181,42.185 57.084,42.108 56.966,42.081 C56.952,42.077 55.411,41.69 55.411,39.738 L55.411,29.546 C55.411,28.455 54.909,27.666 54.429,27.158 C55.572,27.017 56.411,26.633 56.937,26.012 C57.63,25.192 57.484,24.269 57.478,24.231 C57.445,24.037 57.275,23.894 57.08,23.894 C54.326,23.894 53.502,20.491 52.84,17.757 C52.682,17.1 52.531,16.48 52.365,15.95 C50.816,11.042 47.58,8.658 42.469,8.658 C40.606,8.658 38.842,9.083 37.506,9.854 C36.846,10.235 36.334,10.678 36.005,11.127 C35.116,9.902 32.784,8.657 29.533,8.657 C24.422,8.657 21.184,11.041 19.637,15.949 C19.471,16.478 19.321,17.098 19.162,17.756 C18.5,20.489 17.676,23.893 14.923,23.893 C14.726,23.893 14.559,24.036 14.526,24.23 C14.518,24.268 14.373,25.191 15.065,26.011 C15.59,26.631 16.431,27.016 17.574,27.157 C17.092,27.665 16.592,28.454 16.592,29.545 L16.592,39.736 C16.592,41.669 15.097,42.063 15.035,42.079 C14.919,42.106 14.822,42.183 14.767,42.288 C14.713,42.395 14.709,42.52 14.755,42.63 C14.814,42.767 15.329,43.907 16.26,44.009 C15.952,45.126 15.357,46.136 14.211,47.282 C14.134,47.357 14.093,47.46 14.093,47.567 C14.093,47.663 14.208,56.998 23.465,57.266 L23.465,57.881 L19.252,61.368 C19.142,61.461 19.091,61.6 19.11,61.738 L1.4,65.295 C1.273,65.321 1.167,65.405 1.112,65.523 L-0.648,69.368 C-0.706,69.494 -0.695,69.639 -0.622,69.755 C-0.547,69.87 -0.42,69.942 -0.283,69.942 L23.6,69.942 L24.256,71.132 C24.33,71.265 24.467,71.341 24.61,71.341 C24.664,71.341 24.717,71.329 24.77,71.307 L27.912,69.942 L44.087,69.942 L47.228,71.307 C47.281,71.329 47.333,71.341 47.388,71.341 C47.531,71.341 47.669,71.265 47.742,71.132 L48.398,69.942 L72.281,69.942 C72.418,69.942 72.547,69.871 72.621,69.755 C72.695,69.639 72.705,69.493 72.648,69.367 Z M49.07,59.372 L48.535,59.685 L48.535,58.93 L49.07,59.372 Z M21.233,45.73 C21.197,45.558 21.161,45.385 21.13,45.21 C21.109,45.097 21.086,44.984 21.068,44.87 C21.025,44.585 20.991,44.298 20.964,44.011 C20.957,43.92 20.95,43.831 20.944,43.741 C20.923,43.448 20.909,43.155 20.909,42.86 C20.908,42.84 20.907,27.656 20.907,27.656 C20.907,27.288 20.924,26.924 20.95,26.562 C20.955,26.501 20.959,26.44 20.964,26.38 C21.027,25.638 21.142,24.912 21.309,24.206 C21.414,23.769 21.514,23.411 21.626,23.058 C27.414,22.983 28.678,20.744 29.793,18.761 C30.683,17.179 31.45,15.814 34.368,15.447 C34.952,15.373 35.596,15.088 36,14.526 C36.404,15.088 37.048,15.373 37.632,15.447 C40.55,15.814 41.318,17.179 42.206,18.761 C43.321,20.743 44.587,22.983 50.372,23.058 C50.485,23.406 50.579,23.75 50.663,24.097 C50.677,24.151 50.688,24.204 50.7,24.259 C50.776,24.582 50.843,24.91 50.895,25.242 C50.962,25.653 51.001,25.994 51.03,26.338 C51.038,26.427 51.044,26.519 51.05,26.609 C51.073,26.934 51.087,27.262 51.089,27.592 C51.089,27.613 51.091,42.801 51.091,42.801 C51.091,43.139 51.075,43.475 51.05,43.811 C51.046,43.854 51.044,43.897 51.04,43.939 C50.886,45.715 50.382,47.454 49.577,49.07 C49.411,49.404 49.239,49.723 49.055,50.035 C48.885,50.319 48.722,50.566 48.558,50.813 C48.495,50.905 48.433,50.998 48.37,51.088 C48.237,51.278 48.097,51.464 47.956,51.649 C47.808,51.838 47.657,52.024 47.499,52.21 C47.46,52.257 47.419,52.306 47.378,52.353 C47.237,52.515 47.095,52.677 46.946,52.835 C45.75,54.117 44.354,55.207 42.789,56.062 C42.885,55.876 42.982,55.693 43.062,55.5 C43.453,54.579 44.998,50.589 43.976,46.009 C43.806,45.236 43.517,44.82 43.251,44.495 C41.937,42.884 38.683,41.253 37.442,41.253 L36.922,41.253 C37.059,41.208 37.192,41.155 37.32,41.089 L37.451,41.038 C37.842,40.894 38.178,40.963 38.574,41.077 C38.84,41.153 39.138,41.239 39.488,41.239 C39.633,41.239 39.771,41.225 39.914,41.197 C40.371,41.124 40.807,40.794 40.986,40.346 C41.041,40.211 41.08,40.066 41.113,39.919 C41.566,40.506 42.093,41.012 42.64,41.533 C43.837,42.67 45.074,43.846 45.886,46.168 C45.945,46.334 46.101,46.439 46.267,46.439 C46.312,46.439 46.357,46.431 46.4,46.416 C46.611,46.342 46.722,46.112 46.648,45.902 C45.769,43.394 44.402,42.094 43.195,40.947 C42.261,40.058 41.453,39.291 40.992,38.102 C40.542,37.164 39.89,36.627 39.415,36.234 C39.171,36.035 38.962,35.861 38.878,35.718 C38.323,34.79 38.169,31.724 38.157,30.62 C38.153,30.399 37.973,30.222 37.753,30.222 C37.526,30.225 37.349,30.408 37.351,30.63 C37.355,31.059 37.421,34.849 38.185,36.13 C38.341,36.394 38.601,36.608 38.902,36.857 C39.343,37.22 39.892,37.672 40.252,38.423 C40.449,38.833 40.443,39.531 40.236,40.046 C40.148,40.266 39.898,40.403 39.728,40.399 C39.654,40.392 39.584,40.375 39.556,40.189 C39.488,39.681 39.201,39.308 38.806,39.212 C38.585,39.159 38.173,39.164 37.751,39.685 C37.335,40.264 36.684,40.601 35.992,40.601 C35.335,40.601 34.723,40.304 34.314,39.787 C33.864,39.16 33.41,39.156 33.179,39.213 C32.783,39.309 32.496,39.683 32.428,40.19 C32.403,40.376 32.331,40.393 32.286,40.4 C32.078,40.405 31.836,40.267 31.749,40.047 C31.543,39.531 31.536,38.834 31.732,38.424 C32.091,37.674 32.64,37.221 33.082,36.858 C33.384,36.61 33.644,36.395 33.8,36.131 C34.563,34.85 34.629,31.06 34.633,30.631 C34.635,30.408 34.458,30.226 34.235,30.223 C34.01,30.223 33.83,30.401 33.828,30.621 C33.814,31.725 33.66,34.791 33.108,35.719 C33.022,35.862 32.813,36.035 32.569,36.235 C32.094,36.628 31.442,37.165 31.006,38.075 C30.531,39.291 29.723,40.059 28.787,40.948 C27.582,42.095 26.215,43.395 25.336,45.903 C25.262,46.113 25.373,46.342 25.583,46.417 C25.627,46.433 25.673,46.44 25.717,46.44 C25.884,46.44 26.039,46.335 26.098,46.17 C26.911,43.846 28.149,42.67 29.344,41.533 C29.892,41.012 30.419,40.506 30.871,39.918 C30.904,40.065 30.945,40.209 31,40.346 C31.178,40.791 31.611,41.123 32.066,41.195 C32.213,41.225 32.351,41.239 32.496,41.239 C32.847,41.239 33.145,41.153 33.41,41.077 C33.807,40.963 34.141,40.894 34.535,41.038 L34.658,41.087 C34.788,41.153 34.924,41.206 35.062,41.253 L34.543,41.253 C33.304,41.253 30.05,42.884 28.735,44.495 C28.471,44.819 28.18,45.235 28.008,46.009 C26.987,50.589 28.532,54.579 28.922,55.499 C29.018,55.726 29.128,55.942 29.244,56.157 C27.694,55.331 26.314,54.26 25.138,53.018 C25.122,52.952 25.092,52.887 25.042,52.834 C23.107,50.76 21.802,48.308 21.233,45.73 Z M42.059,48.343 C41.076,49.055 38.672,49.64 36,49.64 C33.328,49.64 30.924,49.055 29.941,48.343 C29.38,47.936 29.593,45.718 30.523,45.718 L41.476,45.718 C42.406,45.718 42.619,47.936 42.059,48.343 Z M23.464,58.93 L23.464,59.686 L22.93,59.373 L23.464,58.93 Z M24.786,70.42 L20.022,61.779 L22.269,59.918 L23.661,60.735 L33.368,66.686 L24.786,70.42 Z M35.597,69.133 L29.767,69.133 L34.206,67.201 L35.597,68.055 L35.597,69.133 Z M34.451,66.404 L34.451,66.404 L24.271,60.164 L24.271,56.886 C24.271,56.883 24.272,56.88 24.272,56.877 L24.272,53.508 C24.348,53.51 24.426,53.51 24.503,53.512 C26.031,55.139 27.894,56.492 30.011,57.424 C30.041,57.438 30.074,57.438 30.108,57.444 C31.362,59.071 32.571,59.84 36.001,59.84 C39.413,59.84 40.657,59.056 41.934,57.392 C44.038,56.454 45.893,55.117 47.418,53.514 C47.522,53.513 47.629,53.512 47.729,53.509 L47.729,60.165 L37.551,66.405 C37.551,66.405 37.549,66.406 37.547,66.407 L36,67.354 L34.451,66.404 Z M36.403,69.133 L36.403,68.055 L37.793,67.201 L42.232,69.133 L36.403,69.133 Z M47.213,70.42 L38.633,66.688 L48.34,60.736 L49.731,59.919 L51.977,61.78 L47.213,70.42 Z M22.545,30.529 C22.667,30.621 22.809,30.665 22.95,30.665 C23.153,30.665 23.354,30.574 23.486,30.399 C23.498,30.382 24.709,28.826 27.232,28.826 C28.052,28.826 29.003,29.109 30.011,29.41 C31.2,29.765 32.431,30.133 33.71,30.133 C34.082,30.133 34.383,29.832 34.383,29.461 C34.383,29.09 34.082,28.789 33.71,28.789 C32.628,28.789 31.493,28.449 30.395,28.122 C29.291,27.793 28.249,27.48 27.232,27.48 C24.047,27.48 22.48,29.501 22.414,29.587 C22.191,29.883 22.249,30.305 22.545,30.529 Z M23.15,34.586 C21.981,35.628 22.081,36.914 22.086,36.969 C22.105,37.179 22.28,37.336 22.487,37.336 C22.499,37.336 22.51,37.336 22.523,37.334 C22.744,37.316 22.909,37.119 22.888,36.898 C22.888,36.888 22.818,35.963 23.687,35.189 C23.853,35.039 23.868,34.785 23.719,34.618 C23.571,34.452 23.315,34.438 23.15,34.586 Z M28.038,24.305 C28.048,24.301 28.956,24.065 29.747,24.065 C30.696,24.065 31.795,24.299 32.858,24.524 C33.116,24.58 33.375,24.633 33.631,24.686 C33.657,24.69 33.685,24.694 33.71,24.694 C33.898,24.694 34.066,24.561 34.106,24.37 C34.15,24.151 34.008,23.938 33.79,23.895 C33.538,23.842 33.282,23.79 33.025,23.735 C31.922,23.501 30.781,23.258 29.747,23.258 C28.851,23.258 27.873,23.514 27.833,23.526 C27.616,23.582 27.488,23.801 27.545,24.017 C27.603,24.232 27.82,24.363 28.038,24.305 Z M30.514,32.613 C29.951,33.176 29.418,33.416 28.733,33.416 L26.213,33.416 C25.99,33.416 25.81,33.598 25.81,33.819 C25.81,34.043 25.991,34.222 26.213,34.222 L28.733,34.222 C29.641,34.222 30.366,33.902 31.085,33.184 C31.242,33.027 31.242,32.771 31.084,32.613 C30.927,32.456 30.67,32.456 30.514,32.613 Z M27.364,32.816 L28.29,32.816 C29.053,32.816 29.672,32.234 29.748,31.491 L30.7,31.491 C30.923,31.491 31.104,31.31 31.104,31.088 C31.104,30.864 30.922,30.684 30.7,30.684 L25.993,30.684 C24.986,30.684 24.529,31.19 24.162,31.595 C23.848,31.942 23.665,32.122 23.266,32.122 C23.042,32.122 22.862,32.303 22.862,32.525 C22.862,32.747 23.043,32.929 23.266,32.929 C24.039,32.929 24.438,32.489 24.758,32.136 C25.069,31.793 25.322,31.521 25.904,31.495 C25.982,32.236 26.602,32.816 27.364,32.816 Z" id="Shape" fill="#56666F" fill-rule="nonzero" mask="url(#mask-2)"></path>
        </g>
    </g>
</svg>