<?xml version="1.0" encoding="UTF-8"?>
<svg width="276px" height="15px" viewBox="0 0 276 15" version="1.1" xmlns="http://www.w3.org/2000/svg" xmlns:xlink="http://www.w3.org/1999/xlink">
    <!-- Generator: Sketch 44.1 (41455) - http://www.bohemiancoding.com/sketch -->
    <title>Group 41</title>
    <desc>Created with Sketch.</desc>
    <defs></defs>
    <g id="actions" stroke="none" stroke-width="1" fill="none" fill-rule="evenodd">
        <g id="iPad-Copy" transform="translate(-556.000000, -3033.000000)">
            <g id="Group-41" transform="translate(556.000000, 3033.000000)">
                <path d="M7.69042969,3.18960938 L7.69042969,8.33853516 C8.00781409,8.33853516 8.24218674,8.40933523 8.39355469,8.5509375 C8.54492263,8.69253977 8.62060547,8.87320203 8.62060547,9.09292969 C8.62060547,9.31265735 8.54370194,9.49209891 8.38989258,9.63125977 C8.23608322,9.77042062 7.97851743,9.84 7.6171875,9.84 L6.18896484,9.84 L6.18896484,9.49576172 C5.7592752,9.6910752 5.34912305,9.83755811 4.95849609,9.93521484 C4.56786914,10.0328716 4.1967791,10.0816992 3.84521484,10.0816992 C3.35204832,10.0816992 2.92480649,9.97794049 2.56347656,9.77041992 C2.20214663,9.56289935 1.91650496,9.27603699 1.70654297,8.90982422 C1.55517502,8.64615103 1.47949219,8.31656448 1.47949219,7.92105469 L1.47949219,4.69107422 L1.22314453,4.69107422 C0.8618146,4.69107422 0.604248816,4.62149484 0.450439453,4.48233398 C0.29663009,4.34317313 0.219726562,4.16129019 0.219726562,3.93667969 C0.219726562,3.71695203 0.29663009,3.53751046 0.450439453,3.39834961 C0.604248816,3.25918876 0.8618146,3.18960938 1.22314453,3.18960938 L2.98095703,3.18960938 L2.98095703,7.65738281 C2.98095703,7.97476721 3.05786056,8.20791918 3.21166992,8.3568457 C3.36547928,8.50577223 3.60107263,8.58023438 3.91845703,8.58023438 C4.22119292,8.58023438 4.5471174,8.52042052 4.89624023,8.40079102 C5.24536307,8.28116151 5.67626697,8.06509922 6.18896484,7.75259766 L6.18896484,4.69107422 L5.64697266,4.69107422 C5.28564272,4.69107422 5.02807694,4.62149484 4.87426758,4.48233398 C4.72045822,4.34317313 4.64355469,4.16129019 4.64355469,3.93667969 C4.64355469,3.71695203 4.72045822,3.53751046 4.87426758,3.39834961 C5.02807694,3.25918876 5.28564272,3.18960938 5.64697266,3.18960938 L7.69042969,3.18960938 Z M15.1245117,4.94742188 C14.8803699,4.79605393 14.6240248,4.68252968 14.3554688,4.6068457 C14.0869127,4.53116173 13.8061538,4.49332031 13.5131836,4.49332031 C12.932126,4.49332031 12.4707048,4.5885342 12.1289062,4.77896484 C11.9775383,4.86197307 11.9018555,4.9523042 11.9018555,5.04996094 C11.9018555,5.16226619 12.0043935,5.27212837 12.2094727,5.37955078 C12.3657234,5.45767617 12.714841,5.53335901 13.2568359,5.60660156 C14.2529347,5.743321 14.9462871,5.88003838 15.3369141,6.01675781 C15.8496119,6.19742278 16.2451158,6.46597478 16.5234375,6.82242188 C16.8017592,7.17886897 16.940918,7.55484177 16.940918,7.95035156 C16.940918,8.48746362 16.7041039,8.93667788 16.2304688,9.29800781 C15.5517544,9.82047136 14.6704156,10.0816992 13.5864258,10.0816992 C13.1518533,10.0816992 12.750246,10.0438578 12.3815918,9.96817383 C12.0129376,9.89248986 11.6748062,9.78140698 11.3671875,9.63492188 C11.2939449,9.69839875 11.2158207,9.74722639 11.1328125,9.78140625 C11.0498043,9.81558611 10.9643559,9.83267578 10.8764648,9.83267578 C10.6420887,9.83267578 10.455323,9.75577225 10.3161621,9.60196289 C10.1770013,9.44815353 10.1074219,9.19058774 10.1074219,8.82925781 L10.1074219,8.32388672 C10.1074219,7.96255679 10.1770013,7.704991 10.3161621,7.55118164 C10.455323,7.39737228 10.6372059,7.32046875 10.8618164,7.32046875 C11.0424814,7.32046875 11.193847,7.37051708 11.315918,7.47061523 C11.4379889,7.57071339 11.5332028,7.74283081 11.6015625,7.98697266 C11.8310558,8.18228613 12.106932,8.32998973 12.4291992,8.43008789 C12.7514665,8.53018605 13.1225565,8.58023438 13.5424805,8.58023438 C14.2309605,8.58023438 14.7656231,8.47281357 15.1464844,8.25796875 C15.3271493,8.15054634 15.4174805,8.03824277 15.4174805,7.92105469 C15.4174805,7.72574121 15.2880872,7.56461001 15.0292969,7.43765625 C14.7705065,7.31070249 14.2358439,7.20328169 13.425293,7.11539063 C12.2192323,6.98843687 11.4135762,6.74429868 11.0083008,6.38296875 C10.6030253,6.02652166 10.4003906,5.58707292 10.4003906,5.06460938 C10.4003906,4.52749731 10.6274391,4.08072444 11.081543,3.72427734 C11.6967804,3.23599365 12.5024364,2.99185547 13.4985352,2.99185547 C13.8452166,2.99185547 14.1784652,3.02481412 14.498291,3.09073242 C14.8181168,3.15665072 15.1245103,3.25796807 15.4174805,3.3946875 C15.5102544,3.32632778 15.5969234,3.27505876 15.6774902,3.24087891 C15.758057,3.20669905 15.8325192,3.18960938 15.9008789,3.18960938 C16.1059581,3.18960938 16.2768548,3.2665129 16.4135742,3.42032227 C16.5502937,3.57413163 16.6186523,3.83169741 16.6186523,4.19302734 L16.6186523,4.55923828 C16.6186523,4.88638835 16.5795902,5.1085541 16.5014648,5.22574219 C16.3452141,5.45035269 16.1328138,5.56265625 15.8642578,5.56265625 C15.6835928,5.56265625 15.524903,5.50650447 15.3881836,5.39419922 C15.2514642,5.28189397 15.1635744,5.13296968 15.1245117,4.94742188 Z M26.2719727,7.27652344 L20.1123047,7.27652344 C20.2685555,7.66715039 20.5456523,7.98208865 20.9436035,8.22134766 C21.3415547,8.46060667 21.8798794,8.58023438 22.5585938,8.58023438 C23.1152372,8.58023438 23.8549759,8.46060667 24.777832,8.22134766 C25.1586933,8.12369092 25.4223625,8.07486328 25.5688477,8.07486328 C25.769044,8.07486328 25.9374993,8.14566335 26.0742188,8.28726563 C26.2109382,8.4288679 26.2792969,8.60708877 26.2792969,8.82193359 C26.2792969,9.01724707 26.2060554,9.18326104 26.0595703,9.31998047 C25.8642568,9.50064543 25.3881874,9.67276285 24.6313477,9.83633789 C23.8745079,9.99991293 23.1469761,10.0816992 22.4487305,10.0816992 C21.2475526,10.0816992 20.2868688,9.74234714 19.5666504,9.06363281 C18.8464319,8.38491848 18.4863281,7.54996589 18.4863281,6.55875 C18.4863281,5.50405723 18.8757285,4.64591151 19.654541,3.98428711 C20.4333535,3.32266271 21.3305613,2.99185547 22.3461914,2.99185547 C22.956546,2.99185547 23.5168432,3.09927627 24.0270996,3.31412109 C24.5373561,3.52896592 24.9169909,3.76089719 25.1660156,4.00992188 C25.5175799,4.37125181 25.8081043,4.81802468 26.0375977,5.35025391 C26.1938484,5.72134951 26.2719727,6.15103271 26.2719727,6.63931641 L26.2719727,7.27652344 Z M24.609375,5.77505859 C24.3798817,5.34536895 24.0795917,5.02432723 23.7084961,4.81192383 C23.3374005,4.59952042 22.8955104,4.49332031 22.3828125,4.49332031 C21.8749975,4.49332031 21.4355487,4.59952042 21.0644531,4.81192383 C20.6933575,5.02432723 20.3906262,5.34536895 20.15625,5.77505859 L24.609375,5.77505859 Z M31.1938477,3.18960938 L31.1938477,4.12710938 C31.8237336,3.67300554 32.3205548,3.37027419 32.6843262,3.21890625 C33.0480975,3.06753831 33.3886703,2.99185547 33.7060547,2.99185547 C34.1943384,2.99185547 34.6679665,3.17251772 35.1269531,3.53384766 C35.4394547,3.7779895 35.5957031,4.02701045 35.5957031,4.28091797 C35.5957031,4.49576279 35.521241,4.67764574 35.3723145,4.82657227 C35.2233879,4.97549879 35.0439464,5.04996094 34.8339844,5.04996094 C34.6484366,5.04996094 34.453126,4.95718843 34.2480469,4.77164063 C34.0429677,4.58609282 33.8598641,4.49332031 33.6987305,4.49332031 C33.4887685,4.49332031 33.1750509,4.62515493 32.7575684,4.88882813 C32.3400858,5.15250132 31.8188508,5.54800518 31.1938477,6.07535156 L31.1938477,8.33853516 L33.3325195,8.33853516 C33.6938495,8.33853516 33.9514152,8.40811454 34.1052246,8.54727539 C34.259034,8.68643624 34.3359375,8.86831919 34.3359375,9.09292969 C34.3359375,9.31265735 34.259034,9.49209891 34.1052246,9.63125977 C33.9514152,9.77042062 33.6938495,9.84 33.3325195,9.84 L28.7988281,9.84 C28.4374982,9.84 28.1799324,9.77042062 28.026123,9.63125977 C27.8723137,9.49209891 27.7954102,9.31021597 27.7954102,9.08560547 C27.7954102,8.86587781 27.8723137,8.68643624 28.026123,8.54727539 C28.1799324,8.40811454 28.4374982,8.33853516 28.7988281,8.33853516 L29.6923828,8.33853516 L29.6923828,4.69107422 L29.1503906,4.69107422 C28.7890607,4.69107422 28.5314949,4.62149484 28.3776855,4.48233398 C28.2238762,4.34317313 28.1469727,4.16129019 28.1469727,3.93667969 C28.1469727,3.71695203 28.2238762,3.53751046 28.3776855,3.39834961 C28.5314949,3.25918876 28.7890607,3.18960938 29.1503906,3.18960938 L31.1938477,3.18960938 Z M41.652832,9.08560547 C41.652832,9.36881001 41.5527354,9.60562405 41.3525391,9.79605469 C41.1523427,9.98648533 40.8764666,10.0816992 40.5249023,10.0816992 C40.1733381,10.0816992 39.8974619,9.98648533 39.6972656,9.79605469 C39.4970693,9.60562405 39.3969727,9.36881001 39.3969727,9.08560547 C39.3969727,8.80240093 39.4970693,8.56558689 39.6972656,8.37515625 C39.8974619,8.18472561 40.1733381,8.08951172 40.5249023,8.08951172 C40.8764666,8.08951172 41.1523427,8.18472561 41.3525391,8.37515625 C41.5527354,8.56558689 41.652832,8.80240093 41.652832,9.08560547 Z M174.990234,6.19253906 C174.990234,5.3380426 175.131835,4.47379343 175.415039,3.59976563 C175.625001,2.95523115 175.949705,2.23746489 176.38916,1.44644531 C176.706545,0.88003623 176.940917,0.532139319 177.092285,0.402744141 C177.243653,0.273348962 177.412108,0.208652344 177.597656,0.208652344 C177.812501,0.208652344 177.993163,0.281893799 178.139648,0.428378906 C178.286134,0.574864014 178.359375,0.750643506 178.359375,0.955722656 C178.359375,1.09732493 178.300782,1.26578027 178.183594,1.46109375 C177.656247,2.32535588 177.27173,3.13589465 177.030029,3.89273438 C176.788329,4.6495741 176.66748,5.41616799 176.66748,6.19253906 C176.66748,6.97379297 176.788329,7.74282825 177.030029,8.49966797 C177.27173,9.25650769 177.656247,10.0670465 178.183594,10.9313086 C178.300782,11.1217392 178.359375,11.2901946 178.359375,11.4366797 C178.359375,11.6417588 178.286134,11.8175383 178.139648,11.9640234 C177.993163,12.1105085 177.812501,12.18375 177.597656,12.18375 C177.416991,12.18375 177.258301,12.1251568 177.121582,12.0079688 C176.926269,11.8370695 176.667482,11.4537725 176.345215,10.8580664 C175.881345,9.99380427 175.563966,9.28092078 175.393066,8.71939453 C175.12451,7.86001523 174.990234,7.0177385 174.990234,6.19253906 Z M185.881348,9.84 L185.881348,9.4884375 C185.505369,9.68863381 185.090334,9.8387788 184.63623,9.93887695 C184.182127,10.0389751 183.769533,10.0890234 183.398438,10.0890234 C182.592769,10.0890234 181.938479,9.87540253 181.435547,9.4481543 C180.932615,9.02090607 180.681152,8.54849868 180.681152,8.03091797 C180.681152,7.40103201 181.002194,6.81632106 181.644287,6.27676758 C182.28638,5.7372141 183.173822,5.46744141 184.306641,5.46744141 C184.760744,5.46744141 185.285642,5.51626904 185.881348,5.61392578 L185.881348,5.25503906 C185.881348,5.03042856 185.784913,4.84732493 185.592041,4.70572266 C185.399169,4.56412039 185.031741,4.49332031 184.489746,4.49332031 C184.045408,4.49332031 183.469242,4.58121006 182.76123,4.75699219 C182.497557,4.82046907 182.292481,4.85220703 182.145996,4.85220703 C181.9458,4.85220703 181.776124,4.78018627 181.636963,4.63614258 C181.497802,4.49209889 181.428223,4.30777456 181.428223,4.08316406 C181.428223,3.9562103 181.452636,3.84634812 181.501465,3.75357422 C181.550293,3.66080032 181.618652,3.58633817 181.706543,3.53018555 C181.794434,3.47403292 181.977538,3.40689492 182.255859,3.32876953 C182.626955,3.22622996 183.005369,3.14444366 183.391113,3.0834082 C183.776857,3.02237274 184.125975,2.99185547 184.438477,2.99185547 C185.371098,2.99185547 186.094968,3.19326947 186.610107,3.59610352 C187.125247,3.99893756 187.382812,4.54946917 187.382812,5.24771484 L187.382812,8.33853516 L187.63916,8.33853516 C188.00049,8.33853516 188.258056,8.40811454 188.411865,8.54727539 C188.565675,8.68643624 188.642578,8.86831919 188.642578,9.09292969 C188.642578,9.31265735 188.565675,9.49209891 188.411865,9.63125977 C188.258056,9.77042062 188.00049,9.84 187.63916,9.84 L185.881348,9.84 Z M185.881348,7.15201172 C185.280759,7.03482363 184.726565,6.97623047 184.21875,6.97623047 C183.608395,6.97623047 183.083498,7.12515476 182.644043,7.42300781 C182.370604,7.61343845 182.233887,7.80630762 182.233887,8.00162109 C182.233887,8.14322336 182.299804,8.25796831 182.431641,8.34585938 C182.675782,8.50699299 183.010252,8.58755859 183.435059,8.58755859 C183.796389,8.58755859 184.20532,8.51675852 184.661865,8.37515625 C185.11841,8.23355398 185.524901,8.04068481 185.881348,7.79654297 L185.881348,7.15201172 Z M195.871582,3.46060547 C196.052247,3.28970618 196.237792,3.20425781 196.428223,3.20425781 C196.643067,3.20425781 196.820068,3.28116134 196.959229,3.4349707 C197.098389,3.58878007 197.167969,3.84390447 197.167969,4.20035156 L197.167969,5.16714844 C197.167969,5.52847837 197.098389,5.78482346 196.959229,5.93619141 C196.820068,6.08755935 196.638185,6.16324219 196.413574,6.16324219 C196.208495,6.16324219 196.035157,6.10464902 195.893555,5.98746094 C195.791015,5.89956987 195.71045,5.72012831 195.651855,5.44913086 C195.593261,5.17813341 195.451661,4.97671941 195.227051,4.84488281 C194.831541,4.61050664 194.326175,4.49332031 193.710938,4.49332031 C193.002926,4.49332031 192.435305,4.70083777 192.008057,5.11587891 C191.580808,5.53092004 191.367188,6.05581714 191.367188,6.69058594 C191.367188,7.27652637 191.572264,7.73916823 191.982422,8.07852539 C192.39258,8.41788256 193.073726,8.58755859 194.025879,8.58755859 C194.650882,8.58755859 195.161131,8.52408267 195.556641,8.39712891 C195.791017,8.31900352 196.013183,8.18594821 196.223145,7.99795898 C196.433107,7.80996976 196.623534,7.71597656 196.794434,7.71597656 C196.999513,7.71597656 197.176513,7.7916594 197.325439,7.94302734 C197.474366,8.09439529 197.548828,8.27261616 197.548828,8.47769531 C197.548828,8.80972822 197.32178,9.12466648 196.867676,9.42251953 C196.193844,9.86685769 195.207526,10.0890234 193.908691,10.0890234 C192.741693,10.0890234 191.833499,9.84732664 191.184082,9.36392578 C190.305171,8.71450847 189.865723,7.82584548 189.865723,6.69791016 C189.865723,5.62856887 190.222164,4.74356796 190.935059,4.04288086 C191.647953,3.34219376 192.578119,2.99185547 193.725586,2.99185547 C194.140627,2.99185547 194.526365,3.03091758 194.882812,3.10904297 C195.23926,3.18716836 195.568846,3.30435469 195.871582,3.46060547 Z M202.163086,4.69107422 L202.163086,7.70132813 C202.163086,8.02359536 202.229003,8.23599558 202.36084,8.33853516 C202.565919,8.49966877 202.932126,8.58023438 203.459473,8.58023438 C204.226078,8.58023438 204.934079,8.41666179 205.583496,8.08951172 C205.832521,7.96255796 206.027831,7.89908203 206.169434,7.89908203 C206.364747,7.89908203 206.534423,7.97232349 206.678467,8.11880859 C206.82251,8.2652937 206.894531,8.44351458 206.894531,8.65347656 C206.894531,8.84879004 206.816407,9.01724539 206.660156,9.15884766 C206.420897,9.38834099 205.94849,9.59952052 205.24292,9.79239258 C204.53735,9.98526464 203.942874,10.0816992 203.459473,10.0816992 C202.526851,10.0816992 201.827395,9.88028522 201.361084,9.47745117 C200.894773,9.07461713 200.661621,8.5802373 200.661621,7.99429688 L200.661621,4.69107422 L200.119629,4.69107422 C199.758299,4.69107422 199.500733,4.62149484 199.346924,4.48233398 C199.193114,4.34317313 199.116211,4.16129019 199.116211,3.93667969 C199.116211,3.71695203 199.193114,3.53751046 199.346924,3.39834961 C199.500733,3.25918876 199.758299,3.18960938 200.119629,3.18960938 L200.661621,3.18960938 L200.661621,1.83462891 C200.661621,1.47329897 200.7312,1.21573319 200.870361,1.06192383 C201.009522,0.908114465 201.191405,0.831210938 201.416016,0.831210938 C201.635743,0.831210938 201.815185,0.908114465 201.954346,1.06192383 C202.093507,1.21573319 202.163086,1.47329897 202.163086,1.83462891 L202.163086,3.18960938 L204.938965,3.18960938 C205.300295,3.18960938 205.557861,3.25918876 205.71167,3.39834961 C205.865479,3.53751046 205.942383,3.71939341 205.942383,3.94400391 C205.942383,4.16373157 205.865479,4.34317313 205.71167,4.48233398 C205.557861,4.62149484 205.300295,4.69107422 204.938965,4.69107422 L202.163086,4.69107422 Z M212.072754,0.340488281 L212.072754,1.92984375 L210.285645,1.92984375 L210.285645,0.340488281 L212.072754,0.340488281 Z M212.277832,3.18960938 L212.277832,8.33853516 L214.07959,8.33853516 C214.44092,8.33853516 214.698486,8.40811454 214.852295,8.54727539 C215.006104,8.68643624 215.083008,8.86831919 215.083008,9.09292969 C215.083008,9.31265735 215.006104,9.49209891 214.852295,9.63125977 C214.698486,9.77042062 214.44092,9.84 214.07959,9.84 L208.974609,9.84 C208.613279,9.84 208.355714,9.77042062 208.201904,9.63125977 C208.048095,9.49209891 207.971191,9.31021597 207.971191,9.08560547 C207.971191,8.86587781 208.048095,8.68643624 208.201904,8.54727539 C208.355714,8.40811454 208.613279,8.33853516 208.974609,8.33853516 L210.776367,8.33853516 L210.776367,4.69107422 L209.567871,4.69107422 C209.211424,4.69107422 208.955079,4.62149484 208.798828,4.48233398 C208.642577,4.34317313 208.564453,4.16129019 208.564453,3.93667969 C208.564453,3.71695203 208.641357,3.53751046 208.795166,3.39834961 C208.948975,3.25918876 209.206541,3.18960938 209.567871,3.18960938 L212.277832,3.18960938 Z M224.436035,6.63931641 C224.436035,7.21549116 224.276125,7.77334691 223.956299,8.31290039 C223.636473,8.85245387 223.160404,9.28213707 222.528076,9.60196289 C221.895749,9.92178871 221.235355,10.0816992 220.546875,10.0816992 C219.863278,10.0816992 219.208988,9.92423009 218.583984,9.60928711 C217.958981,9.29434413 217.482912,8.86588162 217.155762,8.32388672 C216.828612,7.78189182 216.665039,7.21549124 216.665039,6.62466797 C216.665039,6.02407903 216.831053,5.43448531 217.163086,4.85586914 C217.495119,4.27725297 217.972409,3.82193525 218.594971,3.48990234 C219.217532,3.15786943 219.868161,2.99185547 220.546875,2.99185547 C221.230472,2.99185547 221.888425,3.16153151 222.520752,3.50088867 C223.153079,3.84024584 223.630369,4.29678424 223.952637,4.87051758 C224.274904,5.44425092 224.436035,6.03384463 224.436035,6.63931641 Z M222.93457,6.64664063 C222.93457,6.16323977 222.761232,5.71890828 222.414551,5.31363281 C221.940916,4.76675508 221.318363,4.49332031 220.546875,4.49332031 C219.868161,4.49332031 219.30176,4.7106033 218.847656,5.14517578 C218.393552,5.57974827 218.166504,6.08267292 218.166504,6.65396484 C218.166504,7.12271719 218.395994,7.56094523 218.85498,7.96866211 C219.313967,8.37637899 219.877926,8.58023438 220.546875,8.58023438 C221.220706,8.58023438 221.787107,8.37637899 222.246094,7.96866211 C222.70508,7.56094523 222.93457,7.12027581 222.93457,6.64664063 Z M228.017578,3.18960938 L228.017578,3.69498047 C228.291017,3.4606043 228.592528,3.2848248 228.922119,3.16763672 C229.251711,3.05044863 229.609373,2.99185547 229.995117,2.99185547 C230.883794,2.99185547 231.586911,3.26773162 232.104492,3.81949219 C232.51465,4.25894751 232.719727,4.83511362 232.719727,5.54800781 L232.719727,8.33853516 C233.037111,8.33853516 233.271484,8.40811454 233.422852,8.54727539 C233.57422,8.68643624 233.649902,8.86831919 233.649902,9.09292969 C233.649902,9.31265735 233.572999,9.49209891 233.419189,9.63125977 C233.26538,9.77042062 233.007814,9.84 232.646484,9.84 L231.291504,9.84 C230.930174,9.84 230.672608,9.77042062 230.518799,9.63125977 C230.364989,9.49209891 230.288086,9.31021597 230.288086,9.08560547 C230.288086,8.86587781 230.363769,8.68643624 230.515137,8.54727539 C230.666505,8.40811454 230.900877,8.33853516 231.218262,8.33853516 L231.218262,5.5040625 C231.218262,5.17691243 231.130372,4.93765701 230.95459,4.78628906 C230.725097,4.59097559 230.380862,4.49332031 229.921875,4.49332031 C229.575194,4.49332031 229.271242,4.56045831 229.01001,4.69473633 C228.748778,4.82901434 228.417971,5.11343533 228.017578,5.54800781 L228.017578,8.33853516 C228.403322,8.33853516 228.652343,8.37515588 228.764648,8.44839844 C229.003907,8.59488354 229.123535,8.80972515 229.123535,9.09292969 C229.123535,9.31265735 229.046632,9.49209891 228.892822,9.63125977 C228.739013,9.77042062 228.481447,9.84 228.120117,9.84 L226.413574,9.84 C226.052244,9.84 225.794679,9.77042062 225.640869,9.63125977 C225.48706,9.49209891 225.410156,9.31021597 225.410156,9.08560547 C225.410156,8.8121666 225.527343,8.59976638 225.761719,8.44839844 C225.878907,8.37515588 226.130369,8.33853516 226.516113,8.33853516 L226.516113,4.69107422 C226.198729,4.69107422 225.964356,4.62027415 225.812988,4.47867188 C225.66162,4.3370696 225.585938,4.15640735 225.585938,3.93667969 C225.585938,3.71695203 225.662841,3.53751046 225.81665,3.39834961 C225.97046,3.25918876 226.228026,3.18960938 226.589355,3.18960938 L228.017578,3.18960938 Z M242.695312,14.3443945 L234.448242,14.3443945 C234.086912,14.3443945 233.829346,14.2760358 233.675537,14.1393164 C233.521728,14.002597 233.444824,13.8219347 233.444824,13.5973242 C233.444824,13.3727137 233.521728,13.1908308 233.675537,13.0516699 C233.829346,12.9125091 234.086912,12.8429297 234.448242,12.8429297 L242.695312,12.8429297 C243.05176,12.8429297 243.306884,12.9125091 243.460693,13.0516699 C243.614503,13.1908308 243.691406,13.3727137 243.691406,13.5973242 C243.691406,13.8170519 243.615723,13.9964934 243.464355,14.1356543 C243.312988,14.2748151 243.056642,14.3443945 242.695312,14.3443945 Z M248.078613,0.340488281 L248.078613,1.92984375 L246.291504,1.92984375 L246.291504,0.340488281 L248.078613,0.340488281 Z M248.283691,3.18960938 L248.283691,8.33853516 L250.085449,8.33853516 C250.446779,8.33853516 250.704345,8.40811454 250.858154,8.54727539 C251.011964,8.68643624 251.088867,8.86831919 251.088867,9.09292969 C251.088867,9.31265735 251.011964,9.49209891 250.858154,9.63125977 C250.704345,9.77042062 250.446779,9.84 250.085449,9.84 L244.980469,9.84 C244.619139,9.84 244.361573,9.77042062 244.207764,9.63125977 C244.053954,9.49209891 243.977051,9.31021597 243.977051,9.08560547 C243.977051,8.86587781 244.053954,8.68643624 244.207764,8.54727539 C244.361573,8.40811454 244.619139,8.33853516 244.980469,8.33853516 L246.782227,8.33853516 L246.782227,4.69107422 L245.57373,4.69107422 C245.217283,4.69107422 244.960938,4.62149484 244.804688,4.48233398 C244.648437,4.34317313 244.570312,4.16129019 244.570312,3.93667969 C244.570312,3.71695203 244.647216,3.53751046 244.801025,3.39834961 C244.954835,3.25918876 245.212401,3.18960938 245.57373,3.18960938 L248.283691,3.18960938 Z M259.987793,0.340488281 L259.987793,8.33853516 L260.244141,8.33853516 C260.600588,8.33853516 260.856933,8.40811454 261.013184,8.54727539 C261.169434,8.68643624 261.247559,8.86831919 261.247559,9.09292969 C261.247559,9.31265735 261.170655,9.49209891 261.016846,9.63125977 C260.863036,9.77042062 260.605471,9.84 260.244141,9.84 L258.486328,9.84 L258.486328,9.47378906 C258.14453,9.67398538 257.786867,9.82535105 257.41333,9.92789063 C257.039793,10.0304302 256.652834,10.0816992 256.252441,10.0816992 C255.124506,10.0816992 254.216312,9.75577474 253.527832,9.10391602 C252.839352,8.45205729 252.495117,7.64029783 252.495117,6.66861328 C252.495117,5.6529832 252.856442,4.78629265 253.579102,4.06851563 C254.301761,3.3507386 255.1831,2.99185547 256.223145,2.99185547 C256.613771,2.99185547 256.997068,3.05166932 257.373047,3.17129883 C257.749025,3.29092833 258.120115,3.4703699 258.486328,3.70962891 L258.486328,1.84195313 L258.22998,1.84195313 C257.868651,1.84195313 257.611085,1.77237374 257.457275,1.63321289 C257.303466,1.49405204 257.226562,1.31461047 257.226562,1.09488281 C257.226562,0.870272314 257.303466,0.688389368 257.457275,0.549228516 C257.611085,0.410067664 257.868651,0.340488281 258.22998,0.340488281 L259.987793,0.340488281 Z M258.486328,6.71255859 C258.486328,6.09243831 258.269045,5.56754121 257.834473,5.13785156 C257.3999,4.70816191 256.867679,4.49332031 256.237793,4.49332031 C255.61279,4.49332031 255.08301,4.70816191 254.648438,5.13785156 C254.213865,5.56754121 253.996582,6.08511416 253.996582,6.69058594 C253.996582,7.24234651 254.191893,7.69522284 254.58252,8.04922852 C254.973146,8.40323419 255.524899,8.58023438 256.237793,8.58023438 C256.945804,8.58023438 257.497557,8.40323419 257.893066,8.04922852 C258.288576,7.69522284 258.486328,7.24967065 258.486328,6.71255859 Z M267.165527,4.94742188 C266.921385,4.79605393 266.66504,4.68252968 266.396484,4.6068457 C266.127928,4.53116173 265.847169,4.49332031 265.554199,4.49332031 C264.973142,4.49332031 264.51172,4.5885342 264.169922,4.77896484 C264.018554,4.86197307 263.942871,4.9523042 263.942871,5.04996094 C263.942871,5.16226619 264.045409,5.27212837 264.250488,5.37955078 C264.406739,5.45767617 264.755857,5.53335901 265.297852,5.60660156 C266.29395,5.743321 266.987303,5.88003838 267.37793,6.01675781 C267.890628,6.19742278 268.286131,6.46597478 268.564453,6.82242188 C268.842775,7.17886897 268.981934,7.55484177 268.981934,7.95035156 C268.981934,8.48746362 268.74512,8.93667788 268.271484,9.29800781 C267.59277,9.82047136 266.711431,10.0816992 265.627441,10.0816992 C265.192869,10.0816992 264.791262,10.0438578 264.422607,9.96817383 C264.053953,9.89248986 263.715822,9.78140698 263.408203,9.63492188 C263.334961,9.69839875 263.256836,9.74722639 263.173828,9.78140625 C263.09082,9.81558611 263.005372,9.83267578 262.91748,9.83267578 C262.683104,9.83267578 262.496339,9.75577225 262.357178,9.60196289 C262.218017,9.44815353 262.148438,9.19058774 262.148438,8.82925781 L262.148438,8.32388672 C262.148438,7.96255679 262.218017,7.704991 262.357178,7.55118164 C262.496339,7.39737228 262.678222,7.32046875 262.902832,7.32046875 C263.083497,7.32046875 263.234863,7.37051708 263.356934,7.47061523 C263.479005,7.57071339 263.574218,7.74283081 263.642578,7.98697266 C263.872071,8.18228613 264.147948,8.32998973 264.470215,8.43008789 C264.792482,8.53018605 265.163572,8.58023438 265.583496,8.58023438 C266.271976,8.58023438 266.806639,8.47281357 267.1875,8.25796875 C267.368165,8.15054634 267.458496,8.03824277 267.458496,7.92105469 C267.458496,7.72574121 267.329103,7.56461001 267.070312,7.43765625 C266.811522,7.31070249 266.27686,7.20328169 265.466309,7.11539063 C264.260248,6.98843687 263.454592,6.74429868 263.049316,6.38296875 C262.644041,6.02652166 262.441406,5.58707292 262.441406,5.06460938 C262.441406,4.52749731 262.668455,4.08072444 263.122559,3.72427734 C263.737796,3.23599365 264.543452,2.99185547 265.539551,2.99185547 C265.886232,2.99185547 266.219481,3.02481412 266.539307,3.09073242 C266.859132,3.15665072 267.165526,3.25796807 267.458496,3.3946875 C267.55127,3.32632778 267.637939,3.27505876 267.718506,3.24087891 C267.799073,3.20669905 267.873535,3.18960938 267.941895,3.18960938 C268.146974,3.18960938 268.31787,3.2665129 268.45459,3.42032227 C268.591309,3.57413163 268.659668,3.83169741 268.659668,4.19302734 L268.659668,4.55923828 C268.659668,4.88638835 268.620606,5.1085541 268.54248,5.22574219 C268.38623,5.45035269 268.173829,5.56265625 267.905273,5.56265625 C267.724608,5.56265625 267.565919,5.50650447 267.429199,5.39419922 C267.29248,5.28189397 267.20459,5.13296968 267.165527,4.94742188 Z M275.185547,6.19253906 C275.185547,7.04703552 275.043947,7.91372607 274.760742,8.79263672 C274.55078,9.43717119 274.226076,10.1524961 273.786621,10.9386328 C273.469237,11.5050419 273.234864,11.8541595 273.083496,11.9859961 C272.932128,12.1178327 272.763673,12.18375 272.578125,12.18375 C272.36328,12.18375 272.182618,12.1105085 272.036133,11.9640234 C271.889648,11.8175383 271.816406,11.6417588 271.816406,11.4366797 C271.816406,11.2901946 271.874999,11.1217392 271.992188,10.9313086 C272.519534,10.0670465 272.904052,9.25650769 273.145752,8.49966797 C273.387452,7.74282825 273.508301,6.97379297 273.508301,6.19253906 C273.508301,5.41616799 273.387452,4.6495741 273.145752,3.89273438 C272.904052,3.13589465 272.519534,2.32535588 271.992188,1.46109375 C271.874999,1.26578027 271.816406,1.09732493 271.816406,0.955722656 C271.816406,0.750643506 271.889648,0.574864014 272.036133,0.428378906 C272.182618,0.281893799 272.36328,0.208652344 272.578125,0.208652344 C272.75879,0.208652344 272.91748,0.267245508 273.054199,0.384433594 C273.249513,0.550450049 273.508299,0.933746997 273.830566,1.53433594 C274.294436,2.39859807 274.611816,3.10904019 274.782715,3.66568359 C275.051271,4.52994573 275.185547,5.37222246 275.185547,6.19253906 Z" id="text" fill="#8D9BA2"></path>
                <path d="M50.859375,9.84 L50.859375,9.4884375 C50.4833966,9.68863381 50.0683616,9.8387788 49.6142578,9.93887695 C49.160154,10.0389751 48.7475604,10.0890234 48.3764648,10.0890234 C47.5707968,10.0890234 46.9165064,9.87540253 46.4135742,9.4481543 C45.910642,9.02090607 45.6591797,8.54849868 45.6591797,8.03091797 C45.6591797,7.40103201 45.9802214,6.81632106 46.6223145,6.27676758 C47.2644075,5.7372141 48.1518498,5.46744141 49.284668,5.46744141 C49.7387718,5.46744141 50.2636689,5.51626904 50.859375,5.61392578 L50.859375,5.25503906 C50.859375,5.03042856 50.7629404,4.84732493 50.5700684,4.70572266 C50.3771963,4.56412039 50.0097683,4.49332031 49.4677734,4.49332031 C49.0234353,4.49332031 48.4472692,4.58121006 47.7392578,4.75699219 C47.4755846,4.82046907 47.2705085,4.85220703 47.1240234,4.85220703 C46.9238271,4.85220703 46.7541511,4.78018627 46.6149902,4.63614258 C46.4758294,4.49209889 46.40625,4.30777456 46.40625,4.08316406 C46.40625,3.9562103 46.4306638,3.84634812 46.4794922,3.75357422 C46.5283206,3.66080032 46.5966792,3.58633817 46.6845703,3.53018555 C46.7724614,3.47403292 46.955565,3.40689492 47.2338867,3.32876953 C47.6049823,3.22622996 47.9833965,3.14444366 48.3691406,3.0834082 C48.7548847,3.02237274 49.1040023,2.99185547 49.4165039,2.99185547 C50.3491258,2.99185547 51.0729955,3.19326947 51.5881348,3.59610352 C52.1032741,3.99893756 52.3608398,4.54946917 52.3608398,5.24771484 L52.3608398,8.33853516 L52.6171875,8.33853516 C52.9785174,8.33853516 53.2360832,8.40811454 53.3898926,8.54727539 C53.5437019,8.68643624 53.6206055,8.86831919 53.6206055,9.09292969 C53.6206055,9.31265735 53.5437019,9.49209891 53.3898926,9.63125977 C53.2360832,9.77042062 52.9785174,9.84 52.6171875,9.84 L50.859375,9.84 Z" id="Path" fill="#885AE7"></path>
                <path d="M50.859375,7.15201172 C50.2587861,7.03482363 49.7045924,6.97623047 49.1967773,6.97623047 C48.5864227,6.97623047 48.0615256,7.12515476 47.6220703,7.42300781 C47.3486314,7.61343845 47.2119141,7.80630762 47.2119141,8.00162109 C47.2119141,8.14322336 47.2778314,8.25796831 47.409668,8.34585938 C47.6538098,8.50699299 47.9882791,8.58755859 48.4130859,8.58755859 C48.7744159,8.58755859 49.1833473,8.51675852 49.6398926,8.37515625 C50.0964378,8.23355398 50.5029279,8.04068481 50.859375,7.79654297 L50.859375,7.15201172 Z" id="Path" fill="#FFFFFF"></path>
                <path d="M60.1318359,4.94742188 C59.8876941,4.79605393 59.631349,4.68252968 59.362793,4.6068457 C59.0942369,4.53116173 58.813478,4.49332031 58.5205078,4.49332031 C57.9394502,4.49332031 57.4780291,4.5885342 57.1362305,4.77896484 C56.9848625,4.86197307 56.9091797,4.9523042 56.9091797,5.04996094 C56.9091797,5.16226619 57.0117177,5.27212837 57.2167969,5.37955078 C57.3730477,5.45767617 57.7221653,5.53335901 58.2641602,5.60660156 C59.2602589,5.743321 59.9536113,5.88003838 60.3442383,6.01675781 C60.8569362,6.19742278 61.25244,6.46597478 61.5307617,6.82242188 C61.8090834,7.17886897 61.9482422,7.55484177 61.9482422,7.95035156 C61.9482422,8.48746362 61.7114281,8.93667788 61.237793,9.29800781 C60.5590786,9.82047136 59.6777398,10.0816992 58.59375,10.0816992 C58.1591775,10.0816992 57.7575702,10.0438578 57.388916,9.96817383 C57.0202618,9.89248986 56.6821304,9.78140698 56.3745117,9.63492188 C56.3012692,9.69839875 56.2231449,9.74722639 56.1401367,9.78140625 C56.0571285,9.81558611 55.9716801,9.83267578 55.8837891,9.83267578 C55.6494129,9.83267578 55.4626472,9.75577225 55.3234863,9.60196289 C55.1843255,9.44815353 55.1147461,9.19058774 55.1147461,8.82925781 L55.1147461,8.32388672 C55.1147461,7.96255679 55.1843255,7.704991 55.3234863,7.55118164 C55.4626472,7.39737228 55.6445301,7.32046875 55.8691406,7.32046875 C56.0498056,7.32046875 56.2011713,7.37051708 56.3232422,7.47061523 C56.4453131,7.57071339 56.540527,7.74283081 56.6088867,7.98697266 C56.8383801,8.18228613 57.1142562,8.32998973 57.4365234,8.43008789 C57.7587907,8.53018605 58.1298807,8.58023438 58.5498047,8.58023438 C59.2382847,8.58023438 59.7729473,8.47281357 60.1538086,8.25796875 C60.3344736,8.15054634 60.4248047,8.03824277 60.4248047,7.92105469 C60.4248047,7.72574121 60.2954115,7.56461001 60.0366211,7.43765625 C59.7778307,7.31070249 59.2431681,7.20328169 58.4326172,7.11539063 C57.2265565,6.98843687 56.4209005,6.74429868 56.015625,6.38296875 C55.6103495,6.02652166 55.4077148,5.58707292 55.4077148,5.06460938 C55.4077148,4.52749731 55.6347634,4.08072444 56.0888672,3.72427734 C56.7041046,3.23599365 57.5097606,2.99185547 58.5058594,2.99185547 C58.8525408,2.99185547 59.1857894,3.02481412 59.5056152,3.09073242 C59.8254411,3.15665072 60.1318345,3.25796807 60.4248047,3.3946875 C60.5175786,3.32632778 60.6042476,3.27505876 60.6848145,3.24087891 C60.7653813,3.20669905 60.8398434,3.18960938 60.9082031,3.18960938 C61.1132823,3.18960938 61.284179,3.2665129 61.4208984,3.42032227 C61.5576179,3.57413163 61.6259766,3.83169741 61.6259766,4.19302734 L61.6259766,4.55923828 C61.6259766,4.88638835 61.5869145,5.1085541 61.5087891,5.22574219 C61.3525383,5.45035269 61.1401381,5.56265625 60.871582,5.56265625 C60.6909171,5.56265625 60.5322272,5.50650447 60.3955078,5.39419922 C60.2587884,5.28189397 60.1708986,5.13296968 60.1318359,4.94742188 Z" id="Path" fill="#885AE7"></path>
                <path d="M69.1333008,4.94742188 C68.8891589,4.79605393 68.6328138,4.68252968 68.3642578,4.6068457 C68.0957018,4.53116173 67.8149429,4.49332031 67.5219727,4.49332031 C66.9409151,4.49332031 66.4794939,4.5885342 66.1376953,4.77896484 C65.9863274,4.86197307 65.9106445,4.9523042 65.9106445,5.04996094 C65.9106445,5.16226619 66.0131826,5.27212837 66.2182617,5.37955078 C66.3745125,5.45767617 66.7236301,5.53335901 67.265625,5.60660156 C68.2617237,5.743321 68.9550762,5.88003838 69.3457031,6.01675781 C69.858401,6.19742278 70.2539049,6.46597478 70.5322266,6.82242188 C70.8105483,7.17886897 70.949707,7.55484177 70.949707,7.95035156 C70.949707,8.48746362 70.712893,8.93667788 70.2392578,9.29800781 C69.5605435,9.82047136 68.6792046,10.0816992 67.5952148,10.0816992 C67.1606424,10.0816992 66.759035,10.0438578 66.3903809,9.96817383 C66.0217267,9.89248986 65.6835953,9.78140698 65.3759766,9.63492188 C65.302734,9.69839875 65.2246098,9.74722639 65.1416016,9.78140625 C65.0585933,9.81558611 64.973145,9.83267578 64.8852539,9.83267578 C64.6508777,9.83267578 64.464112,9.75577225 64.3249512,9.60196289 C64.1857903,9.44815353 64.1162109,9.19058774 64.1162109,8.82925781 L64.1162109,8.32388672 C64.1162109,7.96255679 64.1857903,7.704991 64.3249512,7.55118164 C64.464112,7.39737228 64.645995,7.32046875 64.8706055,7.32046875 C65.0512704,7.32046875 65.2026361,7.37051708 65.324707,7.47061523 C65.446778,7.57071339 65.5419918,7.74283081 65.6103516,7.98697266 C65.8398449,8.18228613 66.115721,8.32998973 66.4379883,8.43008789 C66.7602555,8.53018605 67.1313456,8.58023438 67.5512695,8.58023438 C68.2397495,8.58023438 68.7744122,8.47281357 69.1552734,8.25796875 C69.3359384,8.15054634 69.4262695,8.03824277 69.4262695,7.92105469 C69.4262695,7.72574121 69.2968763,7.56461001 69.0380859,7.43765625 C68.7792956,7.31070249 68.244633,7.20328169 67.434082,7.11539063 C66.2280213,6.98843687 65.4223653,6.74429868 65.0170898,6.38296875 C64.6118144,6.02652166 64.4091797,5.58707292 64.4091797,5.06460938 C64.4091797,4.52749731 64.6362282,4.08072444 65.090332,3.72427734 C65.7055695,3.23599365 66.5112255,2.99185547 67.5073242,2.99185547 C67.8540056,2.99185547 68.1872543,3.02481412 68.5070801,3.09073242 C68.8269059,3.15665072 69.1332993,3.25796807 69.4262695,3.3946875 C69.5190434,3.32632778 69.6057125,3.27505876 69.6862793,3.24087891 C69.7668461,3.20669905 69.8413083,3.18960938 69.909668,3.18960938 C70.1147471,3.18960938 70.2856438,3.2665129 70.4223633,3.42032227 C70.5590827,3.57413163 70.6274414,3.83169741 70.6274414,4.19302734 L70.6274414,4.55923828 C70.6274414,4.88638835 70.5883793,5.1085541 70.5102539,5.22574219 C70.3540031,5.45035269 70.1416029,5.56265625 69.8730469,5.56265625 C69.6923819,5.56265625 69.5336921,5.50650447 69.3969727,5.39419922 C69.2602532,5.28189397 69.1723635,5.13296968 69.1333008,4.94742188 Z" id="Path" fill="#885AE7"></path>
                <polygon id="Path" fill="#885AE7" points="77.0507812 0.340488281 77.0507812 1.92984375 75.2636719 1.92984375 75.2636719 0.340488281"></polygon>
                <path d="M77.2558594,3.18960938 L77.2558594,8.33853516 L79.0576172,8.33853516 C79.4189471,8.33853516 79.6765129,8.40811454 79.8303223,8.54727539 C79.9841316,8.68643624 80.0610352,8.86831919 80.0610352,9.09292969 C80.0610352,9.31265735 79.9841316,9.49209891 79.8303223,9.63125977 C79.6765129,9.77042062 79.4189471,9.84 79.0576172,9.84 L73.9526367,9.84 C73.5913068,9.84 73.333741,9.77042062 73.1799316,9.63125977 C73.0261223,9.49209891 72.9492188,9.31021597 72.9492188,9.08560547 C72.9492188,8.86587781 73.0261223,8.68643624 73.1799316,8.54727539 C73.333741,8.40811454 73.5913068,8.33853516 73.9526367,8.33853516 L75.7543945,8.33853516 L75.7543945,4.69107422 L74.5458984,4.69107422 C74.1894513,4.69107422 73.9331063,4.62149484 73.7768555,4.48233398 C73.6206047,4.34317313 73.5424805,4.16129019 73.5424805,3.93667969 C73.5424805,3.71695203 73.619384,3.53751046 73.7731934,3.39834961 C73.9270027,3.25918876 74.1845685,3.18960938 74.5458984,3.18960938 L77.2558594,3.18960938 Z" id="Path" fill="#885AE7"></path>
                <path d="M87.1655273,3.63638672 L87.1655273,3.18960938 L88.9233398,3.18960938 C89.2846698,3.18960938 89.5422356,3.25918876 89.6960449,3.39834961 C89.8498543,3.53751046 89.9267578,3.71939341 89.9267578,3.94400391 C89.9267578,4.16373157 89.8498543,4.34317313 89.6960449,4.48233398 C89.5422356,4.62149484 89.2846698,4.69107422 88.9233398,4.69107422 L88.6669922,4.69107422 L88.6669922,10.1549414 C88.6669922,10.6822878 88.5559093,11.1424883 88.3337402,11.5355566 C88.1115712,11.928625 87.7709984,12.2667564 87.3120117,12.5499609 C86.853025,12.8331655 86.3354521,12.9747656 85.7592773,12.9747656 L84.0600586,12.9747656 C83.6987287,12.9747656 83.4411629,12.9051862 83.2873535,12.7660254 C83.1335442,12.6268645 83.0566406,12.447423 83.0566406,12.2276953 C83.0566406,12.0030848 83.1335442,11.8212019 83.2873535,11.682041 C83.4411629,11.5428802 83.6987287,11.4733008 84.0600586,11.4733008 L85.715332,11.4733008 C86.1743187,11.4733008 86.5307604,11.3487903 86.784668,11.0997656 C87.0385755,10.8507409 87.1655273,10.5358027 87.1655273,10.1549414 L87.1655273,9.42251953 C86.8334944,9.63736436 86.495363,9.79849556 86.151123,9.90591797 C85.806883,10.0133404 85.4541034,10.0670508 85.0927734,10.0670508 C84.0722605,10.0670508 83.2177769,9.72647802 82.5292969,9.04532227 C81.8408169,8.36416652 81.496582,7.52311047 81.496582,6.52212891 C81.496582,5.5162645 81.8408169,4.67276708 82.5292969,3.99161133 C83.2177769,3.31045558 84.0722605,2.96988281 85.0927734,2.96988281 C85.4736347,2.96988281 85.8361799,3.0248139 86.1804199,3.13467773 C86.5246599,3.24454156 86.8530258,3.41177622 87.1655273,3.63638672 Z" id="Path" fill="#885AE7"></path>
                <path d="M87.1582031,6.51480469 C87.1582031,5.96304412 86.9543477,5.48453328 86.5466309,5.07925781 C86.138914,4.67398235 85.6494169,4.47134766 85.078125,4.47134766 C84.5068331,4.47134766 84.017336,4.67398235 83.6096191,5.07925781 C83.2019023,5.48453328 82.9980469,5.96304412 82.9980469,6.51480469 C82.9980469,7.0714481 83.2019023,7.55117963 83.6096191,7.95401367 C84.017336,8.35684772 84.5068331,8.55826172 85.078125,8.55826172 C85.6494169,8.55826172 86.138914,8.35684772 86.5466309,7.95401367 C86.9543477,7.55117963 87.1582031,7.0714481 87.1582031,6.51480469 Z" id="Path" fill="#FFFFFF"></path>
                <path d="M92.9956055,3.18960938 L92.9956055,3.69498047 C93.2690443,3.4606043 93.570555,3.2848248 93.9001465,3.16763672 C94.229738,3.05044863 94.5874004,2.99185547 94.9731445,2.99185547 C95.8618208,2.99185547 96.5649388,3.26773162 97.0825195,3.81949219 C97.4926778,4.25894751 97.6977539,4.83511362 97.6977539,5.54800781 L97.6977539,8.33853516 C98.0151383,8.33853516 98.249511,8.40811454 98.4008789,8.54727539 C98.5522469,8.68643624 98.6279297,8.86831919 98.6279297,9.09292969 C98.6279297,9.31265735 98.5510262,9.49209891 98.3972168,9.63125977 C98.2434074,9.77042062 97.9858417,9.84 97.6245117,9.84 L96.2695312,9.84 C95.9082013,9.84 95.6506355,9.77042062 95.4968262,9.63125977 C95.3430168,9.49209891 95.2661133,9.31021597 95.2661133,9.08560547 C95.2661133,8.86587781 95.3417961,8.68643624 95.4931641,8.54727539 C95.644532,8.40811454 95.8789047,8.33853516 96.1962891,8.33853516 L96.1962891,5.5040625 C96.1962891,5.17691243 96.1083993,4.93765701 95.9326172,4.78628906 C95.7031239,4.59097559 95.358889,4.49332031 94.8999023,4.49332031 C94.5532209,4.49332031 94.2492689,4.56045831 93.9880371,4.69473633 C93.7268053,4.82901434 93.3959981,5.11343533 92.9956055,5.54800781 L92.9956055,8.33853516 C93.3813496,8.33853516 93.6303705,8.37515588 93.7426758,8.44839844 C93.9819348,8.59488354 94.1015625,8.80972515 94.1015625,9.09292969 C94.1015625,9.31265735 94.024659,9.49209891 93.8708496,9.63125977 C93.7170402,9.77042062 93.4594745,9.84 93.0981445,9.84 L91.3916016,9.84 C91.0302716,9.84 90.7727058,9.77042062 90.6188965,9.63125977 C90.4650871,9.49209891 90.3881836,9.31021597 90.3881836,9.08560547 C90.3881836,8.8121666 90.5053699,8.59976638 90.7397461,8.44839844 C90.8569342,8.37515588 91.1083965,8.33853516 91.4941406,8.33853516 L91.4941406,4.69107422 C91.1767562,4.69107422 90.9423836,4.62027415 90.7910156,4.47867188 C90.6396477,4.3370696 90.5639648,4.15640735 90.5639648,3.93667969 C90.5639648,3.71695203 90.6408684,3.53751046 90.7946777,3.39834961 C90.9484871,3.25918876 91.2060529,3.18960938 91.5673828,3.18960938 L92.9956055,3.18960938 Z" id="Path" fill="#885AE7"></path>
                <path d="M107.67334,14.3443945 L99.4262695,14.3443945 C99.0649396,14.3443945 98.8073738,14.2760358 98.6535645,14.1393164 C98.4997551,14.002597 98.4228516,13.8219347 98.4228516,13.5973242 C98.4228516,13.3727137 98.4997551,13.1908308 98.6535645,13.0516699 C98.8073738,12.9125091 99.0649396,12.8429297 99.4262695,12.8429297 L107.67334,12.8429297 C108.029787,12.8429297 108.284911,12.9125091 108.438721,13.0516699 C108.59253,13.1908308 108.669434,13.3727137 108.669434,13.5973242 C108.669434,13.8170519 108.593751,13.9964934 108.442383,14.1356543 C108.291015,14.2748151 108.03467,14.3443945 107.67334,14.3443945 Z" id="Path" fill="#885AE7"></path>
                <path d="M113.869629,9.84 L113.869629,9.4884375 C113.49365,9.68863381 113.078616,9.8387788 112.624512,9.93887695 C112.170408,10.0389751 111.757814,10.0890234 111.386719,10.0890234 C110.581051,10.0890234 109.92676,9.87540253 109.423828,9.4481543 C108.920896,9.02090607 108.669434,8.54849868 108.669434,8.03091797 C108.669434,7.40103201 108.990475,6.81632106 109.632568,6.27676758 C110.274661,5.7372141 111.162104,5.46744141 112.294922,5.46744141 C112.749026,5.46744141 113.273923,5.51626904 113.869629,5.61392578 L113.869629,5.25503906 C113.869629,5.03042856 113.773194,4.84732493 113.580322,4.70572266 C113.38745,4.56412039 113.020022,4.49332031 112.478027,4.49332031 C112.033689,4.49332031 111.457523,4.58121006 110.749512,4.75699219 C110.485839,4.82046907 110.280762,4.85220703 110.134277,4.85220703 C109.934081,4.85220703 109.764405,4.78018627 109.625244,4.63614258 C109.486083,4.49209889 109.416504,4.30777456 109.416504,4.08316406 C109.416504,3.9562103 109.440918,3.84634812 109.489746,3.75357422 C109.538574,3.66080032 109.606933,3.58633817 109.694824,3.53018555 C109.782715,3.47403292 109.965819,3.40689492 110.244141,3.32876953 C110.615236,3.22622996 110.99365,3.14444366 111.379395,3.0834082 C111.765139,3.02237274 112.114256,2.99185547 112.426758,2.99185547 C113.35938,2.99185547 114.083249,3.19326947 114.598389,3.59610352 C115.113528,3.99893756 115.371094,4.54946917 115.371094,5.24771484 L115.371094,8.33853516 L115.627441,8.33853516 C115.988771,8.33853516 116.246337,8.40811454 116.400146,8.54727539 C116.553956,8.68643624 116.630859,8.86831919 116.630859,9.09292969 C116.630859,9.31265735 116.553956,9.49209891 116.400146,9.63125977 C116.246337,9.77042062 115.988771,9.84 115.627441,9.84 L113.869629,9.84 Z" id="Path" fill="#885AE7"></path>
                <path d="M113.869629,7.15201172 C113.26904,7.03482363 112.714846,6.97623047 112.207031,6.97623047 C111.596677,6.97623047 111.07178,7.12515476 110.632324,7.42300781 C110.358885,7.61343845 110.222168,7.80630762 110.222168,8.00162109 C110.222168,8.14322336 110.288085,8.25796831 110.419922,8.34585938 C110.664064,8.50699299 110.998533,8.58755859 111.42334,8.58755859 C111.78467,8.58755859 112.193601,8.51675852 112.650146,8.37515625 C113.106692,8.23355398 113.513182,8.04068481 113.869629,7.79654297 L113.869629,7.15201172 Z" id="Path" fill="#FFFFFF"></path>
                <path d="M123.859863,3.46060547 C124.040528,3.28970618 124.226073,3.20425781 124.416504,3.20425781 C124.631349,3.20425781 124.808349,3.28116134 124.94751,3.4349707 C125.086671,3.58878007 125.15625,3.84390447 125.15625,4.20035156 L125.15625,5.16714844 C125.15625,5.52847837 125.086671,5.78482346 124.94751,5.93619141 C124.808349,6.08755935 124.626466,6.16324219 124.401855,6.16324219 C124.196776,6.16324219 124.023438,6.10464902 123.881836,5.98746094 C123.779296,5.89956987 123.698731,5.72012831 123.640137,5.44913086 C123.581543,5.17813341 123.439943,4.97671941 123.215332,4.84488281 C122.819822,4.61050664 122.314456,4.49332031 121.699219,4.49332031 C120.991207,4.49332031 120.423586,4.70083777 119.996338,5.11587891 C119.56909,5.53092004 119.355469,6.05581714 119.355469,6.69058594 C119.355469,7.27652637 119.560545,7.73916823 119.970703,8.07852539 C120.380861,8.41788256 121.062007,8.58755859 122.01416,8.58755859 C122.639163,8.58755859 123.149412,8.52408267 123.544922,8.39712891 C123.779298,8.31900352 124.001464,8.18594821 124.211426,7.99795898 C124.421388,7.80996976 124.611816,7.71597656 124.782715,7.71597656 C124.987794,7.71597656 125.164794,7.7916594 125.313721,7.94302734 C125.462647,8.09439529 125.537109,8.27261616 125.537109,8.47769531 C125.537109,8.80972822 125.310061,9.12466648 124.855957,9.42251953 C124.182126,9.86685769 123.195807,10.0890234 121.896973,10.0890234 C120.729975,10.0890234 119.821781,9.84732664 119.172363,9.36392578 C118.293453,8.71450847 117.854004,7.82584548 117.854004,6.69791016 C117.854004,5.62856887 118.210446,4.74356796 118.92334,4.04288086 C119.636234,3.34219376 120.566401,2.99185547 121.713867,2.99185547 C122.128908,2.99185547 122.514647,3.03091758 122.871094,3.10904297 C123.227541,3.18716836 123.557127,3.30435469 123.859863,3.46060547 Z" id="Path" fill="#885AE7"></path>
                <path d="M130.151367,4.69107422 L130.151367,7.70132813 C130.151367,8.02359536 130.217284,8.23599558 130.349121,8.33853516 C130.5542,8.49966877 130.920408,8.58023438 131.447754,8.58023438 C132.214359,8.58023438 132.92236,8.41666179 133.571777,8.08951172 C133.820802,7.96255796 134.016113,7.89908203 134.157715,7.89908203 C134.353028,7.89908203 134.522704,7.97232349 134.666748,8.11880859 C134.810792,8.2652937 134.882812,8.44351458 134.882812,8.65347656 C134.882812,8.84879004 134.804688,9.01724539 134.648438,9.15884766 C134.409178,9.38834099 133.936771,9.59952052 133.231201,9.79239258 C132.525631,9.98526464 131.931155,10.0816992 131.447754,10.0816992 C130.515132,10.0816992 129.815676,9.88028522 129.349365,9.47745117 C128.883054,9.07461713 128.649902,8.5802373 128.649902,7.99429688 L128.649902,4.69107422 L128.10791,4.69107422 C127.74658,4.69107422 127.489014,4.62149484 127.335205,4.48233398 C127.181396,4.34317313 127.104492,4.16129019 127.104492,3.93667969 C127.104492,3.71695203 127.181396,3.53751046 127.335205,3.39834961 C127.489014,3.25918876 127.74658,3.18960938 128.10791,3.18960938 L128.649902,3.18960938 L128.649902,1.83462891 C128.649902,1.47329897 128.719482,1.21573319 128.858643,1.06192383 C128.997803,0.908114465 129.179686,0.831210938 129.404297,0.831210938 C129.624025,0.831210938 129.803466,0.908114465 129.942627,1.06192383 C130.081788,1.21573319 130.151367,1.47329897 130.151367,1.83462891 L130.151367,3.18960938 L132.927246,3.18960938 C133.288576,3.18960938 133.546142,3.25918876 133.699951,3.39834961 C133.853761,3.53751046 133.930664,3.71939341 133.930664,3.94400391 C133.930664,4.16373157 133.853761,4.34317313 133.699951,4.48233398 C133.546142,4.62149484 133.288576,4.69107422 132.927246,4.69107422 L130.151367,4.69107422 Z" id="Path" fill="#885AE7"></path>
                <polygon id="Path" fill="#885AE7" points="140.061035 0.340488281 140.061035 1.92984375 138.273926 1.92984375 138.273926 0.340488281"></polygon>
                <path d="M140.266113,3.18960938 L140.266113,8.33853516 L142.067871,8.33853516 C142.429201,8.33853516 142.686767,8.40811454 142.840576,8.54727539 C142.994386,8.68643624 143.071289,8.86831919 143.071289,9.09292969 C143.071289,9.31265735 142.994386,9.49209891 142.840576,9.63125977 C142.686767,9.77042062 142.429201,9.84 142.067871,9.84 L136.962891,9.84 C136.601561,9.84 136.343995,9.77042062 136.190186,9.63125977 C136.036376,9.49209891 135.959473,9.31021597 135.959473,9.08560547 C135.959473,8.86587781 136.036376,8.68643624 136.190186,8.54727539 C136.343995,8.40811454 136.601561,8.33853516 136.962891,8.33853516 L138.764648,8.33853516 L138.764648,4.69107422 L137.556152,4.69107422 C137.199705,4.69107422 136.94336,4.62149484 136.787109,4.48233398 C136.630859,4.34317313 136.552734,4.16129019 136.552734,3.93667969 C136.552734,3.71695203 136.629638,3.53751046 136.783447,3.39834961 C136.937257,3.25918876 137.194822,3.18960938 137.556152,3.18960938 L140.266113,3.18960938 Z" id="Path" fill="#885AE7"></path>
                <path d="M152.424316,6.63931641 C152.424316,7.21549116 152.264406,7.77334691 151.94458,8.31290039 C151.624754,8.85245387 151.148685,9.28213707 150.516357,9.60196289 C149.88403,9.92178871 149.223636,10.0816992 148.535156,10.0816992 C147.851559,10.0816992 147.197269,9.92423009 146.572266,9.60928711 C145.947262,9.29434413 145.471193,8.86588162 145.144043,8.32388672 C144.816893,7.78189182 144.65332,7.21549124 144.65332,6.62466797 C144.65332,6.02407903 144.819334,5.43448531 145.151367,4.85586914 C145.4834,4.27725297 145.96069,3.82193525 146.583252,3.48990234 C147.205814,3.15786943 147.856442,2.99185547 148.535156,2.99185547 C149.218753,2.99185547 149.876706,3.16153151 150.509033,3.50088867 C151.141361,3.84024584 151.618651,4.29678424 151.940918,4.87051758 C152.263185,5.44425092 152.424316,6.03384463 152.424316,6.63931641 Z" id="Path" fill="#885AE7"></path>
                <path d="M150.922852,6.64664063 C150.922852,6.16323977 150.749513,5.71890828 150.402832,5.31363281 C149.929197,4.76675508 149.306644,4.49332031 148.535156,4.49332031 C147.856442,4.49332031 147.290041,4.7106033 146.835938,5.14517578 C146.381834,5.57974827 146.154785,6.08267292 146.154785,6.65396484 C146.154785,7.12271719 146.384275,7.56094523 146.843262,7.96866211 C147.302248,8.37637899 147.866208,8.58023438 148.535156,8.58023438 C149.208988,8.58023438 149.775388,8.37637899 150.234375,7.96866211 C150.693362,7.56094523 150.922852,7.12027581 150.922852,6.64664063 Z" id="Path" fill="#FFFFFF"></path>
                <path d="M156.005859,3.18960938 L156.005859,3.69498047 C156.279298,3.4606043 156.580809,3.2848248 156.9104,3.16763672 C157.239992,3.05044863 157.597654,2.99185547 157.983398,2.99185547 C158.872075,2.99185547 159.575193,3.26773162 160.092773,3.81949219 C160.502932,4.25894751 160.708008,4.83511362 160.708008,5.54800781 L160.708008,8.33853516 C161.025392,8.33853516 161.259765,8.40811454 161.411133,8.54727539 C161.562501,8.68643624 161.638184,8.86831919 161.638184,9.09292969 C161.638184,9.31265735 161.56128,9.49209891 161.407471,9.63125977 C161.253661,9.77042062 160.996096,9.84 160.634766,9.84 L159.279785,9.84 C158.918455,9.84 158.660889,9.77042062 158.50708,9.63125977 C158.353271,9.49209891 158.276367,9.31021597 158.276367,9.08560547 C158.276367,8.86587781 158.35205,8.68643624 158.503418,8.54727539 C158.654786,8.40811454 158.889159,8.33853516 159.206543,8.33853516 L159.206543,5.5040625 C159.206543,5.17691243 159.118653,4.93765701 158.942871,4.78628906 C158.713378,4.59097559 158.369143,4.49332031 157.910156,4.49332031 C157.563475,4.49332031 157.259523,4.56045831 156.998291,4.69473633 C156.737059,4.82901434 156.406252,5.11343533 156.005859,5.54800781 L156.005859,8.33853516 C156.391603,8.33853516 156.640624,8.37515588 156.75293,8.44839844 C156.992189,8.59488354 157.111816,8.80972515 157.111816,9.09292969 C157.111816,9.31265735 157.034913,9.49209891 156.881104,9.63125977 C156.727294,9.77042062 156.469728,9.84 156.108398,9.84 L154.401855,9.84 C154.040526,9.84 153.78296,9.77042062 153.62915,9.63125977 C153.475341,9.49209891 153.398438,9.31021597 153.398438,9.08560547 C153.398438,8.8121666 153.515624,8.59976638 153.75,8.44839844 C153.867188,8.37515588 154.11865,8.33853516 154.504395,8.33853516 L154.504395,4.69107422 C154.18701,4.69107422 153.952637,4.62027415 153.80127,4.47867188 C153.649902,4.3370696 153.574219,4.15640735 153.574219,3.93667969 C153.574219,3.71695203 153.651122,3.53751046 153.804932,3.39834961 C153.958741,3.25918876 154.216307,3.18960938 154.577637,3.18960938 L156.005859,3.18960938 Z" id="Path" fill="#885AE7"></path>
                <path d="M168.149414,4.94742188 C167.905272,4.79605393 167.648927,4.68252968 167.380371,4.6068457 C167.111815,4.53116173 166.831056,4.49332031 166.538086,4.49332031 C165.957028,4.49332031 165.495607,4.5885342 165.153809,4.77896484 C165.002441,4.86197307 164.926758,4.9523042 164.926758,5.04996094 C164.926758,5.16226619 165.029296,5.27212837 165.234375,5.37955078 C165.390626,5.45767617 165.739743,5.53335901 166.281738,5.60660156 C167.277837,5.743321 167.971189,5.88003838 168.361816,6.01675781 C168.874514,6.19742278 169.270018,6.46597478 169.54834,6.82242188 C169.826662,7.17886897 169.96582,7.55484177 169.96582,7.95035156 C169.96582,8.48746362 169.729006,8.93667788 169.255371,9.29800781 C168.576657,9.82047136 167.695318,10.0816992 166.611328,10.0816992 C166.176756,10.0816992 165.775148,10.0438578 165.406494,9.96817383 C165.03784,9.89248986 164.699709,9.78140698 164.39209,9.63492188 C164.318847,9.69839875 164.240723,9.74722639 164.157715,9.78140625 C164.074707,9.81558611 163.989258,9.83267578 163.901367,9.83267578 C163.666991,9.83267578 163.480225,9.75577225 163.341064,9.60196289 C163.201904,9.44815353 163.132324,9.19058774 163.132324,8.82925781 L163.132324,8.32388672 C163.132324,7.96255679 163.201904,7.704991 163.341064,7.55118164 C163.480225,7.39737228 163.662108,7.32046875 163.886719,7.32046875 C164.067384,7.32046875 164.218749,7.37051708 164.34082,7.47061523 C164.462891,7.57071339 164.558105,7.74283081 164.626465,7.98697266 C164.855958,8.18228613 165.131834,8.32998973 165.454102,8.43008789 C165.776369,8.53018605 166.147459,8.58023438 166.567383,8.58023438 C167.255863,8.58023438 167.790525,8.47281357 168.171387,8.25796875 C168.352052,8.15054634 168.442383,8.03824277 168.442383,7.92105469 C168.442383,7.72574121 168.31299,7.56461001 168.054199,7.43765625 C167.795409,7.31070249 167.260746,7.20328169 166.450195,7.11539063 C165.244135,6.98843687 164.438479,6.74429868 164.033203,6.38296875 C163.627928,6.02652166 163.425293,5.58707292 163.425293,5.06460938 C163.425293,4.52749731 163.652341,4.08072444 164.106445,3.72427734 C164.721683,3.23599365 165.527339,2.99185547 166.523438,2.99185547 C166.870119,2.99185547 167.203368,3.02481412 167.523193,3.09073242 C167.843019,3.15665072 168.149413,3.25796807 168.442383,3.3946875 C168.535157,3.32632778 168.621826,3.27505876 168.702393,3.24087891 C168.782959,3.20669905 168.857422,3.18960938 168.925781,3.18960938 C169.13086,3.18960938 169.301757,3.2665129 169.438477,3.42032227 C169.575196,3.57413163 169.643555,3.83169741 169.643555,4.19302734 L169.643555,4.55923828 C169.643555,4.88638835 169.604493,5.1085541 169.526367,5.22574219 C169.370116,5.45035269 169.157716,5.56265625 168.88916,5.56265625 C168.708495,5.56265625 168.549805,5.50650447 168.413086,5.39419922 C168.276367,5.28189397 168.188477,5.13296968 168.149414,4.94742188 Z" id="Path" fill="#885AE7"></path>
            </g>
        </g>
    </g>
</svg>