<?xml version="1.0" encoding="UTF-8"?>
<svg width="53px" height="53px" viewBox="0 0 53 53" version="1.1" xmlns="http://www.w3.org/2000/svg" xmlns:xlink="http://www.w3.org/1999/xlink">
    <!-- Generator: Sketch 46.2 (44496) - http://www.bohemiancoding.com/sketch -->
    <title>noun_995500_cc</title>
    <desc>Created with Sketch.</desc>
    <defs></defs>
    <g id="Page-2" stroke="none" stroke-width="1" fill="none" fill-rule="evenodd">
        <g id="Artboard-3-Copy-2" transform="translate(-851.000000, -348.000000)" fill-rule="nonzero">
            <g id="Group-31" transform="translate(410.000000, 239.000000)">
                <g id="Group-18" transform="translate(407.000000, 3.000000)">
                    <g id="Group-20" transform="translate(1.000000, 106.000000)">
                        <g id="noun_995500_cc" transform="translate(33.000000, 0.000000)">
                            <g id="Group">
                                <rect id="Rectangle-path" fill="#30D679" x="10.9261538" y="2.12" width="1.22307692" height="1.22307692"></rect>
                                <rect id="Rectangle-path" fill="#30D679" x="10.9261538" y="4.97384615" width="1.22307692" height="1.22307692"></rect>
                                <rect id="Rectangle-path" fill="#30D679" x="10.9261538" y="10.6815385" width="1.22307692" height="1.22307692"></rect>
                                <rect id="Rectangle-path" fill="#30D679" x="10.9261538" y="7.82769231" width="1.22307692" height="1.22307692"></rect>
                                <rect id="Rectangle-path" fill="#30D679" x="14.5953846" y="11.66" width="1.22307692" height="1.22307692"></rect>
                                <rect id="Rectangle-path" fill="#30D679" x="14.5953846" y="5.95230769" width="1.22307692" height="1.22307692"></rect>
                                <rect id="Rectangle-path" fill="#30D679" x="14.5953846" y="8.80615385" width="1.22307692" height="1.22307692"></rect>
                                <rect id="Rectangle-path" fill="#30D679" x="14.5953846" y="3.09846154" width="1.22307692" height="1.22307692"></rect>
                                <rect id="Rectangle-path" fill="#30D679" x="18.2646154" y="2.12" width="1.22307692" height="1.22307692"></rect>
                                <rect id="Rectangle-path" fill="#30D679" x="18.2646154" y="10.6815385" width="1.22307692" height="1.22307692"></rect>
                                <rect id="Rectangle-path" fill="#30D679" x="18.2646154" y="7.82769231" width="1.22307692" height="1.22307692"></rect>
                                <rect id="Rectangle-path" fill="#30D679" x="18.2646154" y="4.97384615" width="1.22307692" height="1.22307692"></rect>
                                <rect id="Rectangle-path" fill="#30D679" x="21.9338462" y="9.78461538" width="1.22307692" height="1.22307692"></rect>
                                <rect id="Rectangle-path" fill="#30D679" x="21.9338462" y="6.93076923" width="1.22307692" height="1.22307692"></rect>
                                <rect id="Rectangle-path" fill="#30D679" x="21.9338462" y="12.6384615" width="1.22307692" height="1.22307692"></rect>
                                <rect id="Rectangle-path" fill="#30D679" x="21.9338462" y="4.07692308" width="1.22307692" height="1.22307692"></rect>
                                <rect id="Rectangle-path" fill="#30D679" x="25.6846154" y="8.64307692" width="1.22307692" height="1.22307692"></rect>
                                <rect id="Rectangle-path" fill="#30D679" x="25.6846154" y="2.93538462" width="1.22307692" height="1.22307692"></rect>
                                <rect id="Rectangle-path" fill="#30D679" x="25.6846154" y="5.78923077" width="1.22307692" height="1.22307692"></rect>
                                <rect id="Rectangle-path" fill="#30D679" x="25.6846154" y="0.0815384615" width="1.22307692" height="1.22307692"></rect>
                                <path d="M51.7769231,28.7830769 L28.9461538,28.7830769 C28.62,28.7830769 28.2938462,29.0276923 28.2938462,29.4353846 L28.2938462,35.1430769 C28.2938462,35.4692308 28.5384615,35.7953846 28.9461538,35.7953846 L51.7769231,35.7953846 C52.1030769,35.7953846 52.4292308,35.5507692 52.4292308,35.1430769 L52.4292308,29.4353846 C52.3476923,29.0276923 52.1030769,28.7830769 51.7769231,28.7830769 Z M51.1246154,34.4907692 L29.5169231,34.4907692 L29.5169231,30.0061538 L51.1246154,30.0061538 L51.1246154,34.4907692 Z" id="Shape" fill="#8094B3"></path>
                                <rect id="Rectangle-path" fill="#8094B3" x="42.8076923" y="31.6369231" width="1.22307692" height="1.22307692"></rect>
                                <rect id="Rectangle-path" fill="#8094B3" x="45.4984615" y="31.6369231" width="1.22307692" height="1.22307692"></rect>
                                <rect id="Rectangle-path" fill="#8094B3" x="48.1892308" y="31.6369231" width="1.22307692" height="1.22307692"></rect>
                                <rect id="Rectangle-path" fill="#8094B3" x="31.8" y="31.6369231" width="6.03384615" height="1.22307692"></rect>
                                <path d="M51.7769231,37.3446154 L28.9461538,37.3446154 C28.62,37.3446154 28.2938462,37.5892308 28.2938462,37.9969231 L28.2938462,43.7046154 C28.2938462,44.0307692 28.5384615,44.3569231 28.9461538,44.3569231 L51.7769231,44.3569231 C52.1030769,44.3569231 52.4292308,44.1123077 52.4292308,43.7046154 L52.4292308,37.9969231 C52.3476923,37.6707692 52.1030769,37.3446154 51.7769231,37.3446154 Z M51.1246154,43.0523077 L29.5169231,43.0523077 L29.5169231,38.5676923 L51.1246154,38.5676923 L51.1246154,43.0523077 Z" id="Shape" fill="#8094B3"></path>
                                <rect id="Rectangle-path" fill="#8094B3" x="45.4984615" y="40.1984615" width="1.22307692" height="1.22307692"></rect>
                                <rect id="Rectangle-path" fill="#8094B3" x="42.8076923" y="40.1984615" width="1.22307692" height="1.22307692"></rect>
                                <rect id="Rectangle-path" fill="#8094B3" x="48.1892308" y="40.1984615" width="1.22307692" height="1.22307692"></rect>
                                <rect id="Rectangle-path" fill="#8094B3" x="31.8" y="40.1984615" width="6.03384615" height="1.22307692"></rect>
                                <path d="M51.7769231,45.9876923 L28.9461538,45.9876923 C28.62,45.9876923 28.2938462,46.2323077 28.2938462,46.64 L28.2938462,52.3476923 C28.2938462,52.6738462 28.5384615,53 28.9461538,53 L51.7769231,53 C52.1030769,53 52.4292308,52.7553846 52.4292308,52.3476923 L52.4292308,46.64 C52.3476923,46.2323077 52.1030769,45.9876923 51.7769231,45.9876923 Z M51.1246154,51.6953846 L29.5169231,51.6953846 L29.5169231,47.2107692 L51.1246154,47.2107692 L51.1246154,51.6953846 Z" id="Shape" fill="#8094B3"></path>
                                <rect id="Rectangle-path" fill="#8094B3" x="42.8076923" y="48.8415385" width="1.22307692" height="1.22307692"></rect>
                                <rect id="Rectangle-path" fill="#8094B3" x="48.1892308" y="48.8415385" width="1.22307692" height="1.22307692"></rect>
                                <rect id="Rectangle-path" fill="#8094B3" x="45.4984615" y="48.8415385" width="1.22307692" height="1.22307692"></rect>
                                <rect id="Rectangle-path" fill="#8094B3" x="31.8" y="48.8415385" width="6.03384615" height="1.22307692"></rect>
                                <path d="M36.7738462,14.84 C37.0184615,14.5138462 37.1815385,14.1876923 37.1815385,13.78 C37.1815385,11.4969231 32.6153846,10.3553846 28.7830769,9.78461538 L28.5384615,11.0076923 C34.0015385,11.8230769 35.9584615,13.1276923 35.9584615,13.8615385 C35.9584615,13.9430769 35.8769231,14.1061538 35.7953846,14.1876923 C35.7953846,14.1876923 35.7953846,14.1876923 35.7953846,14.1876923 L35.6323077,14.4323077 C34.1646154,15.8184615 27.9676923,17.3676923 18.9169231,17.3676923 C9.86615385,17.3676923 3.58769231,15.8184615 2.20153846,14.4323077 L2.03846154,14.2692308 C2.03846154,14.2692308 2.03846154,14.2692308 2.03846154,14.2692308 C1.95692308,14.1061538 1.87538462,14.0246154 1.87538462,13.9430769 C1.87538462,13.2907692 3.83230769,11.9861538 9.13230769,11.1707692 L8.96923077,9.78461538 C5.21846154,10.3553846 0.652307692,11.5784615 0.652307692,13.78 C0.652307692,14.1061538 0.815384615,14.5138462 0.978461538,14.84 C0.978461538,14.84 0.978461538,14.9215385 1.06,14.9215385 L14.0246154,31.0661538 L14.0246154,44.52 C14.0246154,44.6830769 14.1061538,44.9276923 14.2692308,45.0092308 C14.3507692,45.0907692 14.5138462,45.0907692 14.5953846,45.0907692 C14.6769231,45.0907692 14.7584615,45.0907692 14.84,45.0907692 L23.4015385,41.8292308 C23.6461538,41.7476923 23.8092308,41.5030769 23.8092308,41.2584615 L23.8092308,31.0661538 L36.7738462,14.84 C36.6923077,14.9215385 36.6923077,14.9215385 36.7738462,14.84 Z M22.6676923,30.4953846 C22.5861538,30.6584615 22.5046154,30.8215385 22.5046154,30.9846154 L22.5046154,40.8507692 L15.1661538,43.6230769 L15.1661538,30.8215385 C15.1661538,30.6584615 15.0846154,30.5769231 15.0030769,30.4138462 L3.99538462,16.6338462 C7.50153846,17.8569231 13.2092308,18.5092308 18.8353846,18.5092308 C24.5430769,18.5092308 30.2507692,17.8569231 33.6753846,16.6338462 L22.6676923,30.4953846 Z" id="Shape" fill="#8094B3"></path>
                            </g>
                        </g>
                    </g>
                </g>
            </g>
        </g>
    </g>
</svg>