<?xml version="1.0" encoding="UTF-8"?>
<svg width="21px" height="15px" viewBox="0 0 21 15" version="1.1" xmlns="http://www.w3.org/2000/svg" xmlns:xlink="http://www.w3.org/1999/xlink">
    <!-- Generator: Sketch 41.2 (35397) - http://www.bohemiancoding.com/sketch -->
    <title>noun_156612_cc</title>
    <desc>Created with Sketch.</desc>
    <defs></defs>
    <g id="Page-1" stroke="none" stroke-width="1" fill="none" fill-rule="evenodd">
        <g id="Artboard-3-Copy-7" transform="translate(-661.000000, -866.000000)" fill="#6E3353">
            <g id="noun_648858_cc" transform="translate(442.000000, 840.000000)">
                <g id="Artboard-45">
                    <g id="Group-61-Copy" transform="translate(219.000000, 0.000000)">
                        <g id="noun_156612_cc" transform="translate(0.000000, 26.000000)">
                            <g id="Group">
                                <g>
                                    <ellipse id="Oval" cx="14.362069" cy="4.16129032" rx="0.531034483" ry="0.532258065"></ellipse>
                                    <ellipse id="Oval" cx="14.8931034" cy="7.04032258" rx="0.531034483" ry="0.532258065"></ellipse>
                                    <ellipse id="Oval" cx="15.9310345" cy="5.39516129" rx="0.531034483" ry="0.532258065"></ellipse>
                                    <ellipse id="Oval" cx="13.3241379" cy="5.80645161" rx="0.531034483" ry="0.532258065"></ellipse>
                                    <path d="M18.5137931,14.8306452 C17.2827586,14.8306452 15.9068966,13.9354839 15.1586207,13.0887097 C13.6862069,11.4677419 12.1413793,10.6693548 10.4034483,10.6693548 C8.11034483,10.6693548 6.58965517,12.0483871 5.64827586,13.0887097 C4.87586207,13.9112903 3.5,14.8064516 2.26896552,14.8064516 L2.26896552,14.8064516 C1.52068966,14.8064516 0.868965517,14.4677419 0.45862069,13.8387097 C-0.362068966,12.6532258 0.193103448,8.78225806 1.11034483,5.73387097 C1.59310345,4.11290323 2.65517241,1.30645161 4.07931034,0.725806452 C5.04482759,0.338709677 6.03448276,0.14516129 7.16896552,0.14516129 C7.79655172,0.14516129 8.4,0.193548387 8.97931034,0.266129032 C9.4862069,0.314516129 9.96896552,0.362903226 10.4275862,0.362903226 C10.8862069,0.362903226 11.3689655,0.314516129 11.8758621,0.266129032 C12.4551724,0.217741935 13.0344828,0.14516129 13.6862069,0.14516129 C14.8206897,0.14516129 15.7862069,0.314516129 16.7758621,0.725806452 C18.2241379,1.30645161 19.262069,4.11290323 19.7448276,5.73387097 C20.662069,8.78225806 21.2172414,12.6532258 20.3965517,13.8387097 C19.8896552,14.4919355 19.262069,14.8306452 18.5137931,14.8306452 Z M10.3793103,9.72580645 C12.4068966,9.72580645 14.1931034,10.6209677 15.8586207,12.4596774 C16.4862069,13.1370968 17.6206897,13.8629032 18.5137931,13.8629032 C18.9482759,13.8629032 19.2862069,13.6935484 19.5517241,13.3064516 C20.0103448,12.6290323 19.7931034,9.36290323 18.7793103,6.02419355 C18.0551724,3.60483871 17.1137931,1.93548387 16.3655172,1.62096774 C15.5206897,1.28225806 14.6517241,1.11290323 13.637931,1.11290323 C13.0586207,1.11290323 12.4793103,1.16129032 11.9241379,1.20967742 C11.3931034,1.25806452 10.8862069,1.30645161 10.3793103,1.30645161 C9.87241379,1.30645161 9.36551724,1.25806452 8.83448276,1.20967742 C8.27931034,1.16129032 7.72413793,1.11290323 7.12068966,1.11290323 C6.10689655,1.11290323 5.26206897,1.28225806 4.39310345,1.62096774 C3.64482759,1.93548387 2.70344828,3.60483871 1.97931034,6.02419355 C0.965517241,9.36290323 0.724137931,12.6290323 1.20689655,13.3064516 C1.44827586,13.6693548 1.7862069,13.8629032 2.22068966,13.8629032 L2.22068966,13.8629032 C3.1137931,13.8629032 4.24827586,13.1370968 4.87586207,12.4596774 C5.9862069,11.2741935 7.72413793,9.72580645 10.3793103,9.72580645 Z" id="Shape"></path>
                                    <path d="M6.03448276,7.52419355 C5.04482759,7.52419355 4.24827586,6.72580645 4.24827586,5.73387097 C4.24827586,4.74193548 5.04482759,3.94354839 6.03448276,3.94354839 C7.02413793,3.94354839 7.82068966,4.74193548 7.82068966,5.73387097 C7.82068966,6.72580645 7.02413793,7.52419355 6.03448276,7.52419355 Z M6.03448276,4.88709677 C5.57586207,4.88709677 5.2137931,5.25 5.2137931,5.70967742 C5.2137931,6.16935484 5.57586207,6.53225806 6.03448276,6.53225806 C6.49310345,6.53225806 6.85517241,6.16935484 6.85517241,5.70967742 C6.85517241,5.25 6.49310345,4.88709677 6.03448276,4.88709677 Z" id="Shape"></path>
                                </g>
                            </g>
                        </g>
                    </g>
                </g>
            </g>
        </g>
    </g>
</svg>