<?xml version="1.0" encoding="UTF-8"?>
<svg width="67px" height="67px" viewBox="0 0 67 67" version="1.1" xmlns="http://www.w3.org/2000/svg" xmlns:xlink="http://www.w3.org/1999/xlink">
    <!-- Generator: Sketch 46.2 (44496) - http://www.bohemiancoding.com/sketch -->
    <title>noun_6468_cc</title>
    <desc>Created with Sketch.</desc>
    <defs></defs>
    <g id="Page-2" stroke="none" stroke-width="1" fill="none" fill-rule="evenodd">
        <g id="Artboard-3-Copy-2" transform="translate(-1163.000000, -332.000000)" fill="#63799D">
            <g id="Group-31" transform="translate(410.000000, 239.000000)">
                <g id="Group-28" transform="translate(547.000000, 1.000000)">
                    <g id="Group-27" transform="translate(206.000000, 0.000000)">
                        <g id="Group-32" transform="translate(0.000000, 81.000000)">
                            <g id="noun_6468_cc" transform="translate(0.000000, 11.000000)">
                                <g id="Group">
                                    <path d="M35.33178,2.68 C36.01853,2.68 36.57731,3.23878 36.57731,3.92553 L36.57731,28.52726 C36.57731,29.21401 36.01853,29.77279 35.33178,29.77279 L3.92553,29.77279 C3.23878,29.77346 2.68,29.21468 2.68,28.52726 L2.68,3.92553 C2.68,3.23878 3.23878,2.68 3.92553,2.68 L35.33178,2.68 L35.33178,2.68 Z M35.33178,0 L3.92553,0 C1.75875,0 0,1.75875 0,3.92553 L0,28.52726 C0,30.69404 1.75875,32.45279 3.92553,32.45279 L35.33178,32.45279 C37.49856,32.45279 39.25731,30.69404 39.25731,28.52726 L39.25731,3.92553 C39.25798,1.75875 37.49923,0 35.33178,0 L35.33178,0 Z" id="Shape" fill-rule="nonzero"></path>
                                    <path d="M35.33178,37.22721 C36.01853,37.22721 36.57731,37.78599 36.57731,38.47274 L36.57731,63.07447 C36.57731,63.76122 36.01853,64.32 35.33178,64.32 L3.92553,64.32 C3.23878,64.32 2.68,63.76122 2.68,63.07447 L2.68,38.47274 C2.68,37.78599 3.23878,37.22721 3.92553,37.22721 L35.33178,37.22721 L35.33178,37.22721 Z M35.33178,34.54721 L3.92553,34.54721 C1.75875,34.54721 0,36.30596 0,38.47274 L0,63.07447 C0,65.24125 1.75875,67 3.92553,67 L35.33178,67 C37.49856,67 39.25731,65.24125 39.25731,63.07447 L39.25731,38.47274 C39.25798,36.30596 37.49923,34.54721 35.33178,34.54721 L35.33178,34.54721 Z" id="Shape" fill-rule="nonzero"></path>
                                    <path d="M63.07447,2.68 C63.76122,2.68 64.32,3.23878 64.32,3.92553 L64.32,19.62899 C64.32,20.31574 63.76122,20.87452 63.07447,20.87452 L45.27726,20.87452 C44.59051,20.87452 44.03173,20.31574 44.03173,19.62899 L44.03173,3.92553 C44.03173,3.23878 44.59051,2.68 45.27726,2.68 L63.07447,2.68 L63.07447,2.68 Z M63.07447,0 L45.27726,0 C43.11048,0 41.35173,1.75875 41.35173,3.92553 L41.35173,19.62899 C41.35173,21.79577 43.11048,23.55452 45.27726,23.55452 L63.07447,23.55452 C65.24125,23.55452 67,21.79577 67,19.62899 L67,3.92553 C67,1.75875 65.24125,0 63.07447,0 L63.07447,0 Z" id="Shape" fill-rule="nonzero"></path>
                                    <path d="M63.07447,28.85221 C63.76122,28.85221 64.32,29.41099 64.32,30.09774 L64.32,63.07447 C64.32,63.76122 63.76122,64.32 63.07447,64.32 L45.27726,64.32 C44.59051,64.32 44.03173,63.76122 44.03173,63.07447 L44.03173,30.09774 C44.03173,29.41099 44.59051,28.85221 45.27726,28.85221 L63.07447,28.85221 L63.07447,28.85221 Z M63.07447,26.17221 L45.27726,26.17221 C43.11048,26.17221 41.35173,27.93096 41.35173,30.09774 L41.35173,63.07447 C41.35173,65.24125 43.11048,67 45.27726,67 L63.07447,67 C65.24125,67 67,65.24125 67,63.07447 L67,30.09774 C67,27.93096 65.24125,26.17221 63.07447,26.17221 L63.07447,26.17221 Z" id="Shape" fill-rule="nonzero"></path>
                                    <rect id="Rectangle-path" x="1.83178" y="1.83178" width="35.85572" height="5.23471"></rect>
                                    <rect id="Rectangle-path" x="1.83178" y="36.37899" width="35.85572" height="5.23471"></rect>
                                    <rect id="Rectangle-path" x="43.26994" y="28.26596" width="21.63631" height="5.23471"></rect>
                                    <rect id="Rectangle-path" x="43.26994" y="1.83178" width="21.63631" height="5.23471"></rect>
                                    <path d="M4.64578,11.12334 L34.41589,11.12334" id="Shape" stroke="#607396" stroke-width="4" stroke-linejoin="round"></path>
                                    <path d="M4.64578,15.83411 L34.41589,15.83411" id="Shape" stroke="#607396" stroke-width="4" stroke-linejoin="round"></path>
                                    <path d="M4.64578,20.54488 L34.41589,20.54488" id="Shape" stroke="#607396" stroke-width="4" stroke-linejoin="round"></path>
                                    <path d="M4.64578,25.25565 L34.41589,25.25565" id="Shape" stroke="#607396" stroke-width="4" stroke-linejoin="round"></path>
                                    <path d="M9.715,45.80053 L34.54721,45.80053" id="Shape" stroke="#607396" stroke-width="4" stroke-linejoin="round"></path>
                                    <path d="M9.715,50.51197 L34.54721,50.51197" id="Shape" stroke="#607396" stroke-width="4" stroke-linejoin="round"></path>
                                    <path d="M9.715,55.22274 L34.54721,55.22274" id="Shape" stroke="#607396" stroke-width="4" stroke-linejoin="round"></path>
                                    <path d="M9.715,59.93351 L34.54721,59.93351" id="Shape" stroke="#607396" stroke-width="4" stroke-linejoin="round"></path>
                                    <path d="M46.0625,37.42553 L62.28923,37.42553" id="Shape" stroke="#607396" stroke-width="4" stroke-linejoin="round"></path>
                                    <path d="M46.0625,45.27726 L62.28923,45.27726" id="Shape" stroke="#607396" stroke-width="4" stroke-linejoin="round"></path>
                                    <path d="M46.0625,53.12899 L62.28923,53.12899" id="Shape" stroke="#607396" stroke-width="4" stroke-linejoin="round"></path>
                                    <path d="M46.0625,60.98072 L62.28923,60.98072" id="Shape" stroke="#607396" stroke-width="4" stroke-linejoin="round"></path>
                                    <path d="M45.66988,11.12334 L62.68185,11.12334" id="Shape" stroke="#607396" stroke-width="4" stroke-linejoin="round" stroke-dasharray="5,5"></path>
                                    <path d="M45.66988,15.83411 L62.68185,15.83411" id="Shape" stroke="#607396" stroke-width="4" stroke-linejoin="round" stroke-dasharray="5,5"></path>
                                    <path d="M6.28527,45.80053 L6.7,45.80053" id="Shape" stroke="#607396" stroke-width="4" fill-rule="nonzero" stroke-linecap="square"></path>
                                    <path d="M6.28527,50.51197 L6.7,50.51197" id="Shape" stroke="#607396" stroke-width="4" fill-rule="nonzero" stroke-linecap="square"></path>
                                    <path d="M6.28527,55.22274 L6.7,55.22274" id="Shape" stroke="#607396" stroke-width="4" fill-rule="nonzero" stroke-linecap="square"></path>
                                    <path d="M6.28527,59.93351 L6.7,59.93351" id="Shape" stroke="#607396" stroke-width="4" fill-rule="nonzero" stroke-linecap="square"></path>
                                </g>
                            </g>
                        </g>
                    </g>
                </g>
            </g>
        </g>
    </g>
</svg>