<?xml version="1.0" encoding="UTF-8"?>
<svg width="51px" height="51px" viewBox="0 0 51 51" version="1.1" xmlns="http://www.w3.org/2000/svg" xmlns:xlink="http://www.w3.org/1999/xlink">
    <!-- Generator: Sketch 46.2 (44496) - http://www.bohemiancoding.com/sketch -->
    <title>Slack_Mark_Monochrome_Black</title>
    <desc>Created with Sketch.</desc>
    <defs></defs>
    <g id="Page-2" stroke="none" stroke-width="1" fill="none" fill-rule="evenodd">
        <g id="Artboard-3-Copy-2" transform="translate(-1171.000000, -540.000000)" fill-rule="nonzero">
            <g id="Group-31" transform="translate(410.000000, 239.000000)">
                <g id="Group-29" transform="translate(547.000000, 301.000000)">
                    <g id="Group-22" transform="translate(214.000000, 0.000000)">
                        <g id="Group-26">
                            <g id="Slack_Mark_Monochrome_Black">
                                <rect id="Rectangle-path" fill="#2D333A" transform="translate(25.500000, 25.500000) rotate(-18.518296) translate(-25.500000, -25.500000) " x="22" y="22" width="7" height="7"></rect>
                                <g id="Group" fill="#63799D">
                                    <rect id="Rectangle-path" transform="translate(25.620716, 25.417299) rotate(-18.518296) translate(-25.620716, -25.417299) " x="22.0588951" y="21.9769037" width="7.12364211" height="6.88079068"></rect>
                                    <path d="M48.8142857,18.4166667 C43.5928571,1.01190476 36.0642857,-3.03571429 18.6595238,2.18571429 C1.2547619,7.40714286 -2.79285714,14.9357143 2.42857143,32.3404762 C7.65,49.7452381 15.1785714,53.7928571 32.5833333,48.5714286 C49.9880952,43.35 54.0357143,35.8214286 48.8142857,18.4166667 Z M40.0309524,29.7095238 L36.752381,30.802381 L37.8857143,34.202381 C38.3309524,35.5785714 37.602381,37.0761905 36.2261905,37.5214286 C35.9428571,37.602381 35.6190476,37.6833333 35.3357143,37.6428571 C34.2833333,37.602381 33.2714286,36.9142857 32.9071429,35.8619048 L31.7738095,32.4619048 L25.0142857,34.7285714 L26.147619,38.1285714 C26.5928571,39.5047619 25.8642857,41.002381 24.4880952,41.447619 C24.2047619,41.5285714 23.8809524,41.6095238 23.597619,41.5690476 C22.5452381,41.5285714 21.5333333,40.8404762 21.1690476,39.7880952 L20.0357143,36.3880952 L16.7571429,37.4809524 C16.4738095,37.5619048 16.15,37.6428571 15.8666667,37.602381 C14.8142857,37.5619048 13.802381,36.8738095 13.4380952,35.8214286 C12.9928571,34.4452381 13.7214286,32.947619 15.097619,32.502381 L18.3761905,31.4095238 L16.1904762,24.8928571 L12.9119048,25.9857143 C12.6285714,26.0666667 12.3047619,26.147619 12.0214286,26.1071429 C10.9690476,26.0666667 9.95714286,25.3785714 9.59285714,24.3261905 C9.14761905,22.95 9.87619048,21.452381 11.252381,21.0071429 L14.5309524,19.9142857 L13.397619,16.5142857 C12.952381,15.1380952 13.6809524,13.6404762 15.0571429,13.1952381 C16.4333333,12.75 17.9309524,13.4785714 18.3761905,14.8547619 L19.5095238,18.2547619 L26.2690476,15.9880952 L25.1357143,12.5880952 C24.6904762,11.2119048 25.4190476,9.71428571 26.7952381,9.26904762 C28.1714286,8.82380952 29.6690476,9.55238095 30.1142857,10.9285714 L31.247619,14.3285714 L34.5261905,13.2357143 C35.902381,12.7904762 37.4,13.5190476 37.8452381,14.8952381 C38.2904762,16.2714286 37.5619048,17.7690476 36.1857143,18.2142857 L32.9071429,19.3071429 L35.0928571,25.8238095 L38.3714286,24.7309524 C39.747619,24.2857143 41.2452381,25.0142857 41.6904762,26.3904762 C42.1357143,27.7666667 41.4071429,29.2642857 40.0309524,29.7095238 Z" id="Shape"></path>
                                </g>
                            </g>
                        </g>
                    </g>
                </g>
            </g>
        </g>
    </g>
</svg>