<?xml version="1.0" encoding="UTF-8"?>
<svg width="70px" height="70px" viewBox="0 0 70 70" version="1.1" xmlns="http://www.w3.org/2000/svg" xmlns:xlink="http://www.w3.org/1999/xlink">
    <!-- Generator: Sketch 41.2 (35397) - http://www.bohemiancoding.com/sketch -->
    <title>Group 66</title>
    <desc>Created with Sketch.</desc>
    <defs>
        <rect id="path-1" x="0" y="0" width="70" height="70" rx="4"></rect>
        <mask id="mask-2" maskContentUnits="userSpaceOnUse" maskUnits="objectBoundingBox" x="0" y="0" width="70" height="70" fill="white">
            <use xlink:href="#path-1"></use>
        </mask>
    </defs>
    <g id="Page-1" stroke="none" stroke-width="1" fill="none" fill-rule="evenodd">
        <g id="Artboard-3-Copy-7" transform="translate(-1038.000000, -4642.000000)">
            <g id="Group-50" transform="translate(0.000000, 3756.000000)">
                <g id="Group-27" transform="translate(0.000000, 277.000000)">
                    <g id="Group-48" transform="translate(0.000000, 409.000000)">
                        <g id="Group-47">
                            <g id="Group-30">
                                <g id="Group-23" transform="translate(170.000000, 100.000000)">
                                    <g id="UNFILLED" transform="translate(758.000000, 100.000000)">
                                        <g id="Group-66" transform="translate(110.000000, 0.000000)">
                                            <g id="Group-51" stroke-linecap="square" stroke="#FFFFFF" opacity="0.5">
                                                <g id="Group-20-Copy-2">
                                                    <use id="Rectangle-2" mask="url(#mask-2)" xlink:href="#path-1"></use>
                                                </g>
                                            </g>
                                            <g id="github-seeklogo.com" transform="translate(17.000000, 22.000000)" fill="#FFFFFF">
                                                <path d="M19.0001573,0 C8.50803562,0 0,8.48139074 0,18.9441569 C0,27.3141816 5.44412339,34.4152602 12.9934672,36.9202131 C13.9430346,37.0955753 14.2916498,36.5092564 14.2916498,36.0088933 C14.2916498,35.5571547 14.2740302,34.0648491 14.2658497,32.481882 C8.97998759,33.6278548 7.86460776,30.2467174 7.86460776,30.2467174 C7.00030633,28.0570405 5.75498244,27.4747996 5.75498244,27.4747996 C4.03109915,26.2990247 5.8849265,26.3231801 5.8849265,26.3231801 C7.79287106,26.4568194 8.79749949,28.2753808 8.79749949,28.2753808 C10.4921217,31.1715266 13.2423432,30.3342418 14.3265742,29.8501913 C14.4971062,28.6257918 14.9895095,27.7900754 15.5328834,27.3170048 C11.3126889,26.8379737 6.87634032,25.2135973 6.87634032,17.9547239 C6.87634032,15.8864516 7.61856342,14.1965105 8.83399711,12.8698423 C8.63672117,12.3926934 7.98637137,10.4659032 9.01805838,7.85648581 C9.01805838,7.85648581 10.6135707,7.34733883 14.2444546,9.79833401 C15.7600498,9.37859365 17.3854523,9.16809605 19.0001573,9.16088079 C20.6148624,9.16809605 22.2415235,9.37859365 23.7599502,9.79833401 C27.3864293,7.34733883 28.979739,7.85648581 28.979739,7.85648581 C30.0139433,10.4659032 29.3632788,12.3926934 29.1660028,12.8698423 C30.3842683,14.1965105 31.1214572,15.8864516 31.1214572,17.9547239 C31.1214572,25.2308513 26.6766135,26.8329546 22.4457214,27.3019469 C23.1272201,27.8898345 23.7344648,29.0427087 23.7344648,30.8101358 C23.7344648,33.3448909 23.7124406,35.3849294 23.7124406,36.0088933 C23.7124406,36.5130209 24.0544483,37.1037317 25.0175449,36.9177033 C32.5627985,34.409927 38,27.3113582 38,18.9441569 C38,8.48139074 29.4932231,0 19.0001573,0 Z M7.11617677,26.9863514 C7.07433034,27.0804635 6.92582278,27.1086972 6.79052989,27.0440736 C6.65271989,26.9822731 6.57531982,26.8539669 6.61999793,26.7595411 C6.66090042,26.6626054 6.80972261,26.6356266 6.94721794,26.700564 C7.08534258,26.7623643 7.16400123,26.8919255 7.11617677,26.9863514 Z M8.0507734,27.8178216 C7.96015863,27.9015815 7.78301933,27.8626817 7.66282887,27.7302974 C7.53854818,27.5982266 7.51526524,27.4216093 7.60713854,27.3365946 C7.70058502,27.2528347 7.87237557,27.2920482 7.99697089,27.4241189 C8.12125152,27.5577582 8.14547841,27.7331206 8.0507734,27.8178216 Z M8.69194207,28.8816594 C8.57552727,28.9622822 8.38517331,28.8866786 8.26749994,28.7182179 C8.1510851,28.5497571 8.1510851,28.3477295 8.27001704,28.2667931 C8.38800498,28.1858566 8.57552727,28.2586368 8.69477378,28.4258427 C8.81087399,28.5971268 8.81087399,28.7991542 8.69194207,28.8816594 Z M9.77629551,30.1137338 C9.67215144,30.2282372 9.45033404,30.1974938 9.28798252,30.0412676 C9.12185545,29.888492 9.07560415,29.6717202 9.18006287,29.557217 C9.28546545,29.4424003 9.50854142,29.4747121 9.67215144,29.6296835 C9.83702001,29.7821454 9.88736155,30.0004856 9.77629551,30.1137338 Z M11.1777171,30.5296682 C11.1317805,30.6780518 10.9181435,30.7454988 10.7029334,30.6824437 C10.4880379,30.6175064 10.3473963,30.4437126 10.3908158,30.2937605 C10.4354939,30.1444359 10.6500748,30.0741654 10.8668581,30.1416124 C11.0814389,30.2062361 11.2223952,30.3787751 11.1777171,30.5296682 Z M12.7725937,30.7060968 C12.7779424,30.8623229 12.5954543,30.9918841 12.3695467,30.9947076 C12.1423805,30.9997269 11.9586338,30.8733029 11.9561168,30.7195863 C11.9561168,30.5617915 12.1345146,30.4334852 12.3616808,30.4297207 C12.5875885,30.4253288 12.7725937,30.5508116 12.7725937,30.7060968 Z M14.3393812,30.6462154 C14.3664398,30.7986773 14.2094371,30.9552171 13.9851026,30.9969402 C13.7645437,31.0370947 13.5603458,30.9429825 13.5323433,30.7917756 C13.5049701,30.6355493 13.6648045,30.4790094 13.8850488,30.4385414 C14.1096979,30.3996416 14.3107495,30.491244 14.3393812,30.6462154 Z" id="Shape"></path>
                                            </g>
                                        </g>
                                    </g>
                                </g>
                            </g>
                        </g>
                    </g>
                </g>
            </g>
        </g>
    </g>
</svg>