<?xml version="1.0" encoding="UTF-8"?>
<svg width="60px" height="58px" viewBox="0 0 60 58" version="1.1" xmlns="http://www.w3.org/2000/svg" xmlns:xlink="http://www.w3.org/1999/xlink">
    <!-- Generator: Sketch 42 (36781) - http://www.bohemiancoding.com/sketch -->
    <title>Group</title>
    <desc>Created with Sketch.</desc>
    <defs></defs>
    <g id="Page-1" stroke="none" stroke-width="1" fill="none" fill-rule="evenodd">
        <g id="Group" transform="translate(1.000000, 1.000000)" stroke-width="2">
            <path d="M5,27 L18,27" id="Shape" stroke="#56666F" stroke-linecap="round"></path>
            <path d="M22,27 L32,27" id="Shape" stroke="#56666F" stroke-linecap="round"></path>
            <path d="M39,31 L28,31" id="Shape" stroke="#56666F" stroke-linecap="round"></path>
            <path d="M24,31 L10,31" id="Shape" stroke="#56666F" stroke-linecap="round"></path>
            <path d="M6,31 L5,31" id="Shape" stroke="#56666F" stroke-linecap="round"></path>
            <path d="M5,35 L14,35" id="Shape" stroke="#56666F" stroke-linecap="round"></path>
            <path d="M18,35 L20,35" id="Shape" stroke="#56666F" stroke-linecap="round"></path>
            <path d="M24,35 L37,35" id="Shape" stroke="#56666F" stroke-linecap="round"></path>
            <path d="M5,39 L18,39" id="Shape" stroke="#56666F" stroke-linecap="round"></path>
            <path d="M22,39 L30,39" id="Shape" stroke="#56666F" stroke-linecap="round"></path>
            <path d="M31,43 L28,43" id="Shape" stroke="#56666F" stroke-linecap="round"></path>
            <path d="M24,43 L10,43" id="Shape" stroke="#56666F" stroke-linecap="round"></path>
            <path d="M6,43 L5,43" id="Shape" stroke="#56666F" stroke-linecap="round"></path>
            <path d="M5,47 L18,47" id="Shape" stroke="#56666F" stroke-linecap="round"></path>
            <path d="M22,47 L30,47" id="Shape" stroke="#56666F" stroke-linecap="round"></path>
            <polygon id="Shape" stroke="#56666F" stroke-linecap="round" stroke-linejoin="round" points="35 56 57 56 57 42 35 42"></polygon>
            <path d="M55,42 L51,42 L51,37 C51,34.243 48.757,32 46,32 C43.243,32 41,34.243 41,37 L41,42 L37,42 L37,37 C37,32.037 41.038,28 46,28 C50.962,28 55,32.037 55,37 L55,42 L55,42 Z" id="Shape" stroke="#56666F" stroke-linecap="round" stroke-linejoin="round"></path>
            <path d="M50,22 L0,22 L0,17.165 C0,15.417 1.417,14 3.165,14 L46.835,14 C48.583,14 50,15.417 50,17.165 L50,22 L50,22 Z" id="Shape" stroke="#56666F"></path>
            <path d="M58,8 L8,8 L8,3.165 C8,1.417 9.417,0 11.165,0 L54.835,0 C56.583,0 58,1.417 58,3.165 L58,8 L58,8 Z" id="Shape" stroke="#56666F"></path>
            <path d="M8,8 L8,14 L46.835,14 C48.583,14 50,15.417 50,17.165 L50,22 L50,28.95 C52.958,30.426 55,33.475 55,37 L55,37.983 C56.67,37.896 58,36.526 58,34.835 L58,8 L8,8 L8,8 Z" id="Shape" stroke="#56666F"></path>
            <path d="M35,42 L37,42 L37,37 C37,32.037 41.038,28 46,28 C47.438,28 48.793,28.347 50,28.95 L50,22 L0,22 L0,50.835 C0,52.583 1.417,54 3.165,54 L35,54 L35,42 L35,42 Z" id="Shape" stroke="#56666F"></path>
            <path d="M5,18 L8,18" id="Shape" stroke="#4FEFA2" stroke-linecap="round"></path>
            <path d="M13,18 L16,18" id="Shape" stroke="#4FEFA2" stroke-linecap="round"></path>
            <path d="M13,4 L16,4" id="Shape" stroke="#4FEFA2" stroke-linecap="round"></path>
            <path d="M21,4 L24,4" id="Shape" stroke="#4FEFA2" stroke-linecap="round"></path>
            <path d="M44,48 L48,48" id="Shape" stroke="#4FEFA2" stroke-linecap="round" stroke-linejoin="round"></path>
            <path d="M46,51 L46,48" id="Shape" stroke="#4FEFA2" stroke-linecap="round" stroke-linejoin="round"></path>
        </g>
    </g>
</svg>