<?xml version="1.0" encoding="UTF-8"?>
<svg width="17px" height="17px" viewBox="0 0 17 17" version="1.1" xmlns="http://www.w3.org/2000/svg" xmlns:xlink="http://www.w3.org/1999/xlink">
    <!-- Generator: Sketch 41.2 (35397) - http://www.bohemiancoding.com/sketch -->
    <title>Group 62</title>
    <desc>Created with Sketch.</desc>
    <defs></defs>
    <g id="Page-1" stroke="none" stroke-width="1" fill="none" fill-rule="evenodd">
        <g id="Artboard-3-Copy-7" transform="translate(-442.000000, -864.000000)" fill="#6E3353">
            <g id="noun_648858_cc" transform="translate(442.000000, 840.000000)">
                <g id="Artboard-45">
                    <g id="Group-61">
                        <g id="Group-62" transform="translate(0.000000, 24.000000)">
                            <path d="M8.5,1.4875 C12.3728968,1.4875 15.5125,4.62710319 15.5125,8.5 C15.5125,12.3728968 12.3728968,15.5125 8.5,15.5125 C4.62710319,15.5125 1.4875,12.3728968 1.4875,8.5 C1.49335106,4.62952937 4.62952937,1.49335106 8.5,1.4875 L8.5,1.4875 Z M8.5,0 C3.80557963,-2.87450344e-16 5.74900688e-16,3.80557963 0,8.5 C-5.74900688e-16,13.1944204 3.80557963,17 8.5,17 C13.1944204,17 17,13.1944204 17,8.5 C17,6.24565984 16.1044669,4.08365158 14.5104076,2.48959236 C12.9163484,0.895533143 10.7543402,1.38038523e-16 8.5,0 Z" id="Shape"></path>
                            <path d="M11.209375,8.73375 L7.0975,11.103125 C7.01508911,11.1482168 6.91498988,11.146426 6.83424461,11.0984153 C6.75349934,11.0504046 6.70411821,10.9633152 6.704375,10.869375 L6.704375,6.12 C6.70184231,6.02277247 6.75265037,5.93193524 6.83682217,5.8832042 C6.92099397,5.83447315 7.02506844,5.83564155 7.108125,5.88625 L11.22,8.26625 C11.3048963,8.31454087 11.3564427,8.4055267 11.3542235,8.50317127 C11.3520043,8.60081585 11.2963775,8.68936593 11.209375,8.73375 Z" id="Shape"></path>
                        </g>
                    </g>
                </g>
            </g>
        </g>
    </g>
</svg>