<?xml version="1.0" encoding="UTF-8"?>
<svg width="14px" height="15px" viewBox="0 0 14 15" version="1.1" xmlns="http://www.w3.org/2000/svg" xmlns:xlink="http://www.w3.org/1999/xlink">
    <!-- Generator: Sketch 44.1 (41455) - http://www.bohemiancoding.com/sketch -->
    <title>noun_596904_cc</title>
    <desc>Created with Sketch.</desc>
    <defs></defs>
    <g id="Page-1" stroke="none" stroke-width="1" fill="none" fill-rule="evenodd">
        <g id="Artboard-3-Copy-9" transform="translate(-428.000000, -867.000000)" fill-rule="nonzero" fill="#A6B5BF">
            <g id="noun_596904_cc" transform="translate(428.000000, 867.000000)">
                <g id="Group" transform="translate(0.000000, 0.205520)">
                    <path d="M6.85452935,0.123894444 C6.68990848,0.123894444 6.54063553,0.277650243 6.54295983,0.444342605 L6.54295983,1.07047231 L0.311569485,1.07047231 C0.146021695,1.07283876 -7.79248326e-05,1.22804597 -3.24531804e-08,1.38599827 L-3.24531804e-08,2.33257614 C1.55460227e-05,2.49778553 0.148436359,2.64808631 0.311569485,2.64810209 L0.778923761,2.64810209 L0.778923761,10.378488 C0.778923761,10.6352315 0.992752363,10.8517769 1.24627804,10.8517769 L6.54295983,10.8517769 L6.54295983,11.3595844 L4.60051862,13.4745864 C4.48963415,13.5959062 4.49774898,13.808476 4.61755369,13.9207559 C4.7373584,14.0330516 4.94725188,14.0248322 5.05813635,13.9035124 L6.54295983,12.2864419 L6.54295983,13.3759846 C6.54063864,13.542677 6.68990692,13.6960068 6.85452935,13.6960068 C7.01915178,13.6960068 7.16842629,13.542677 7.16609887,13.3759846 L7.16609887,12.2864419 L8.65092235,13.9035124 C8.76180683,14.0248322 8.97170031,14.0330516 9.09150502,13.9207559 C9.21130973,13.808476 9.21942456,13.5959062 9.10854008,13.4745864 L7.16609887,11.3595844 L7.16609887,10.8517769 L12.4627807,10.8517769 C12.7163063,10.8517769 12.9301349,10.6352315 12.9301349,10.378488 L12.9301349,2.64810209 L13.3974892,2.64810209 C13.5606223,2.64808631 13.7090432,2.49778553 13.7090587,2.33257614 L13.7090587,1.38599827 C13.7090432,1.22078888 13.5606223,1.07048809 13.3974892,1.07047231 L7.16609887,1.07047231 L7.16609887,0.444342605 C7.16842006,0.277650243 7.01915022,0.123894444 6.85452935,0.123894444 L6.85452935,0.123894444 Z M0.623139003,1.70152422 L13.0859197,1.70152422 L13.0859197,2.01705018 L0.623139003,2.01705018 L0.623139003,1.70152422 Z M1.4020628,2.64810209 L12.3069959,2.64810209 L12.3069959,10.220725 L1.4020628,10.220725 L1.4020628,2.64810209 Z" id="Shape"></path>
                </g>
            </g>
        </g>
    </g>
</svg>