<?xml version="1.0" encoding="UTF-8"?>
<svg width="72px" height="80px" viewBox="0 0 72 80" version="1.1" xmlns="http://www.w3.org/2000/svg" xmlns:xlink="http://www.w3.org/1999/xlink">
    <!-- Generator: Sketch 47.1 (45422) - http://www.bohemiancoding.com/sketch -->
    <title>Group 3</title>
    <desc>Created with Sketch.</desc>
    <defs></defs>
    <g id="Page-1" stroke="none" stroke-width="1" fill="none" fill-rule="evenodd">
        <g id="Docs-Home-Page" transform="translate(-120.000000, -4367.000000)">
            <g id="Group-18" transform="translate(123.000000, 4367.000000)">
                <g id="Group-19">
                    <g id="Group-3">
                        <g id="Group-2" fill-rule="nonzero" fill="#00CE5B">
                            <path d="M67.9575806,21.3348148 C67.9286452,21.277037 67.8989677,21.2207407 67.8663226,21.1659259 C67.7787742,21.0185185 67.677129,20.8822222 67.5673226,20.7503704 C67.5190968,20.6933333 67.4775484,20.6318519 67.4256129,20.5785185 C67.4122581,20.562963 67.401871,20.5459259 67.3870323,20.5318519 C67.2312258,20.3762963 67.0613226,20.2422222 66.8802903,20.1244444 C66.8743548,20.1207407 66.8706452,20.1148148 66.8647097,20.1111111 L36.0120645,0.531851852 C35.5097742,0.213333333 34.9303226,0.0444444444 34.3352903,0.0444444444 C33.7402581,0.0444444444 33.1600645,0.213333333 32.6577742,0.53037037 L1.80958065,20.1111111 C1.78212903,20.1281481 1.76358065,20.1533333 1.73687097,20.1711111 C1.54619355,20.2992593 1.36590323,20.4444444 1.2063871,20.6118519 C1.20564516,20.6118519 1.20564516,20.6125926 1.20490323,20.6133333 C1.20193548,20.6162963 1.19970968,20.62 1.19674194,20.622963 C1.02535484,20.8044444 0.887354839,21.0074074 0.765677419,21.2192593 C0.755290323,21.2377778 0.746387097,21.257037 0.736,21.2762963 C0.488193548,21.7296296 0.345,22.2348148 0.345,22.762963 L0.345,57.0585185 C0.345,58.1348148 0.88883871,59.1207407 1.80216129,59.6985185 L32.6548065,79.2888889 C33.1570968,79.6088889 33.7380323,79.777037 34.3352903,79.777037 C34.9325484,79.777037 35.5134839,79.6081481 36.0172581,79.2888889 L66.8706452,59.697037 C67.7824839,59.1214815 68.3270645,58.1348148 68.3270645,57.0585185 L68.3270645,22.762963 C68.3270645,22.2666667 68.1883226,21.7785185 67.9575806,21.3348148 L67.9575806,21.3348148 Z M34.3352903,6.85925926 L59.3585484,22.7377778 L34.3352903,38.64 L9.31129032,22.7385185 L34.3352903,6.85925926 Z M35.3666316,45.2812235 C35.0367484,45.3966964 34.6887685,45.4562963 34.3352903,45.4562963 C33.7402581,45.4562963 33.1600645,45.2874074 32.6570323,44.9674074 L6.59283871,28.4037037 L6.59283871,55.3385185 L34.3352903,72.9592593 L35.3666316,72.3042509 L35.3666316,74.8043372 L35.3666316,72.3042509 L62.0799677,55.3385185 L62.0799677,28.4037037 L36.0135484,44.9674074 C35.8090407,45.0973118 35.5920616,45.2023136 35.3666316,45.2812235 L35.3666316,41.4078668 L35.3666316,45.2812235 Z" id="Shape"></path>
                            <path d="M34.3360323,27.3296296 C30.0424516,27.3296296 26.415129,25.2274074 26.415129,22.7385185 C26.415129,20.2496296 30.0424516,18.1466667 34.3360323,18.1466667 C38.628871,18.1466667 42.2569355,20.2496296 42.2569355,22.7385185 C42.2569355,25.2274074 38.628871,27.3296296 34.3360323,27.3296296" id="Shape"></path>
                        </g>
                        <path d="M0,39 L32.2118782,59.0206572 L32.2118782,59.0206572 C33.8663899,60.0489863 35.9675166,60.0227576 37.5958431,58.9534481 L56,46.8675803" id="Path-6" stroke="#FFFFFF" stroke-width="4" stroke-linecap="square"></path>
                        <ellipse id="Oval-3" fill="#FFFFFF" transform="translate(54.500000, 48.000000) rotate(20.000000) translate(-54.500000, -48.000000) " cx="54.5" cy="48" rx="4.5" ry="7"></ellipse>
                    </g>
                </g>
            </g>
        </g>
    </g>
</svg>