<?xml version="1.0" encoding="UTF-8"?>
<svg width="1858px" height="338px" viewBox="0 0 1858 338" version="1.1" xmlns="http://www.w3.org/2000/svg" xmlns:xlink="http://www.w3.org/1999/xlink">
    <!-- Generator: Sketch 41.2 (35397) - http://www.bohemiancoding.com/sketch -->
    <title>Group</title>
    <desc>Created with Sketch.</desc>
    <defs></defs>
    <g id="Page-1" stroke="none" stroke-width="1" fill="none" fill-rule="evenodd">
        <g id="Group" transform="translate(929.000000, 169.000000) scale(1, -1) translate(-929.000000, -169.000000) " fill="#FFFFFF">
            <path d="M349,316.6 L288.5,295.4 L288.2,148.7 C288.1,68 288.3,2 288.7,2 C289.2,2 317.4,12.9 351.5,26.3 L413.5,50.6 L413.8,194.3 L414,338 L411.8,337.9 C410.5,337.8 382.3,328.2 349,316.6 Z M364,250 C365.1,248.9 366,247.5 366,247 C366,246.4 362.8,240.9 358.9,234.8 C355.1,228.7 352.1,223.2 352.3,222.6 C352.6,221.9 358.2,218.8 364.8,215.6 C376.4,209.9 379.4,207.4 378.3,204.2 C378,203.5 377,202.5 375.9,201.9 C374.3,201.1 371.5,202.1 361,207 C353.9,210.4 347.3,213 346.4,212.8 C345.5,212.6 341.6,207.6 337.7,201.5 C330.7,190.4 329.5,189 327.3,189 C325.6,189 322,192.6 322,194.3 C322,195 324.9,200.3 328.6,205.9 C332.2,211.6 335,216.9 334.8,217.8 C334.6,218.7 329.2,222 322.5,225.3 C315.9,228.5 310.2,231.7 309.7,232.4 C308.5,234.2 309.4,237.2 311.5,238.6 C313.3,239.8 314.9,239.2 326,234 C332.9,230.7 339.5,228 340.7,228 C342,228 343.4,228.9 344.1,230.2 C344.7,231.4 348.1,236.8 351.6,242.2 C358.4,252.7 360.2,253.8 364,250 Z M372.4,173.2 C373.1,171.7 374.7,167.4 376,163.6 L378.2,156.8 L376.2,154.8 C374.8,153.3 373.5,152.9 371.7,153.4 C369.5,153.9 368.7,155.4 365.8,164.1 L362.5,174.2 L364.8,176.1 C367.7,178.4 370.3,177.4 372.4,173.2 Z M381,130 C382.7,128.3 383,126.7 383,119 C383,111.3 382.7,109.7 381,108 C379.9,106.9 378.6,106 378,106 C376.6,106 373,109.7 372.9,111.3 C372,128.3 375.2,135.8 381,130 Z M324,95 C329.6,89.8 330.4,86.6 326.6,84.9 C323.7,83.5 322.2,84.3 314.1,91 C307,96.9 305.8,99.6 309,102.2 C311.2,103.9 311.3,103.9 315.1,101.8 C317.2,100.6 321.2,97.6 324,95 Z M370.6,84.5 C372.1,82.2 372.1,81.8 370.7,79.6 C368.6,76.4 359.5,72 354.9,72 C348.9,72 345.8,76.8 349.8,80.2 C350.7,81 353.3,82 355.5,82.3 C357.7,82.7 360.6,83.8 362,84.9 C365.5,87.7 368.6,87.5 370.6,84.5 Z" id="Shape"></path>
            <path d="M143,193.5 C143,115.1 143.2,51 143.4,51 C143.6,51 172.7,39.5 208,25.5 C243.4,11.5 273,0 273.8,0 C275.1,0 275.2,17.9 274.5,145.7 C274.1,225.9 273.5,291.9 273,292.3 C271.9,293.5 147.3,336 144.9,336 C143,336 143,333.8 143,193.5 Z M215,144 C219.5,139.5 216.8,136.8 205.3,134.6 C195.4,132.7 193.3,133.1 192.4,136.7 C191.4,140.3 194.4,142.7 202,144.4 C211,146.3 212.7,146.3 215,144 Z M250.5,143 C260.9,140.4 264.5,136.6 260.2,132.7 C258.4,131 256.5,131.3 242.7,135.1 C237.8,136.4 235.8,140.1 238.5,143 C240.7,145.4 240.6,145.4 250.5,143 Z M174,132 C177.8,128.2 176.8,126.8 165.3,120.1 C157.7,115.6 155.4,115.6 153,119.9 C151.6,122.6 153.9,125 162.5,129.9 C170.6,134.6 171.3,134.7 174,132 Z" id="Shape"></path>
            <path d="M63.3,313.7 L0,292.5 L0,146.3 C0,4 0.1,0 1.9,0 C2.9,0 32,11 66.5,24.5 C101,38 129.4,49 129.6,49 C129.8,49 130,113.4 130,192 C130,327.6 129.9,335 128.3,334.9 C127.3,334.9 98,325.3 63.3,313.7 Z M70,219.7 C71.4,217.1 71.4,216.8 69.4,215.1 C67,213.2 52.1,210.5 49,211.5 C46.2,212.4 45.3,216.6 47.5,219 C49.4,221.1 57.3,222.9 64,222.7 C67.8,222.5 68.7,222.1 70,219.7 Z M98.5,204.7 C100.7,197.4 100.5,190.5 98,188 C96.9,186.9 95.6,186 95,186 C92.6,186 90,190.1 90,194 C90,196.1 89.5,200.3 88.9,203.1 C87.8,208 87.9,208.5 89.9,210.1 C93.4,212.9 96.7,210.8 98.5,204.7 Z M89,164 C90.1,162.9 91,161.6 91,161 C91,158.6 83.1,143.2 81.5,142.6 C78.9,141.6 76.5,142.7 75.3,145.3 C74.4,147.2 75,149.2 78.6,156.8 C83.2,166.8 85,168 89,164 Z M79,121.2 C81,119.6 81.2,118.5 81.2,110.4 C81.2,105.5 81.1,101 81.1,100.3 C81,98.3 77.2,96.8 75.1,97.9 C70.3,100.5 69,115.1 73.1,120.4 C75.5,123.5 76.1,123.6 79,121.2 Z M118.4,101.4 C122.4,97.5 119.9,94.8 108.6,90.5 C100.8,87.6 97.9,87.8 96.2,91.4 C94.6,94.9 96.3,96.6 105,99.9 C113.8,103.3 116.3,103.6 118.4,101.4 Z" id="Shape"></path>
            <path d="M1737,174 L1737,89 L1755.5,89 L1774,89 L1774,108.1 L1774,127.2 L1779.4,132.8 L1784.8,138.4 L1791.6,127.6 C1795.4,121.7 1802.6,110.7 1807.5,103.2 L1816.5,89.5 L1837.3,89.2 C1857,89 1858,89.1 1858,90.8 C1858,91.9 1847.4,109 1834.4,128.9 L1810.9,165.1 L1833.9,188.9 C1846.6,202 1857,213.2 1857,213.9 C1857,214.7 1850.8,215 1835.2,215 L1813.4,215 L1794.6,194.5 C1784.3,183.2 1775.4,174.2 1774.9,174.6 C1774.4,174.9 1774,192.7 1774,217.1 L1774,259 L1755.5,259 L1737,259 L1737,174 Z" id="Shape"></path>
            <path d="M518,170.5 L518,89 L536.5,89 L555,89 L555.2,121.3 L555.5,153.5 L585.9,153.8 C607.5,154 616.7,153.7 617.6,152.9 C618.7,152 619,145.7 619,120.4 L619,89 L637.5,89 L656,89 L656,170.5 L656,252 L637.5,252 L619,252 L618.8,220.8 L618.5,189.5 L588.1,189.2 C566.5,189 557.3,189.3 556.4,190.1 C555.3,191 555,197.1 555,221.6 L555,252 L536.5,252 L518,252 L518,170.5 Z" id="Shape"></path>
            <path d="M1214,235 L1214,218 L1237.3,218 C1254.1,218 1260.9,217.7 1261.8,216.8 C1262.7,215.9 1263,200.2 1263,152.3 L1263,89 L1281.5,89 L1300,89 L1300.2,153.3 L1300.5,217.5 L1325.3,217.8 L1350,218 L1350,235 L1350,252 L1282,252 L1214,252 L1214,235 Z" id="Shape"></path>
            <path d="M890,215.7 C882.7,214 876.7,210.7 871,205.4 C868.4,203 866,201.3 865.7,201.7 C865.3,202 865,205.2 865,208.7 L865,215 L846.5,215 L828,215 L828,134 L828,53 L846.5,53 L865,53 L865,77.5 C865,91 865.4,102 865.8,102 C866.3,102 867.9,100.6 869.5,99 C879.5,88.6 897,84.6 915.5,88.5 C934.6,92.5 949.8,107.1 956.3,127.5 C958.2,133.7 958.5,136.7 958.5,152.5 C958.5,168.3 958.2,171.4 956.3,177.5 C951.1,194 937,208.9 921.9,214 C913.9,216.7 898,217.6 890,215.7 Z M904.5,182.1 C912,178.5 915,175.3 919.2,166.5 C922.1,160.4 922.5,158.5 922.5,151.5 C922.5,144.8 922,142.5 919.7,137.5 C912.1,121.2 897.1,114.9 882.5,121.9 C873.3,126.2 867.4,134.5 864.9,146.7 C862,160.6 870,176.8 882.5,182.6 C889.6,186 896.8,185.8 904.5,182.1 Z" id="Shape"></path>
            <path d="M1027.5,216.1 C1004.2,211 986.8,194.4 980.4,171 C977.9,161.9 977.9,140.1 980.4,131 C985.5,112.5 1000.4,96.6 1018.5,90.4 C1025.1,88.2 1028.8,87.6 1039.1,87.2 C1055.1,86.7 1063.7,88.1 1073.8,93 C1081.7,96.8 1095,107.8 1095,110.5 C1095,112 1075.8,129 1074.1,129 C1073.5,129 1070.9,127.4 1068.4,125.5 C1061.9,120.5 1058.8,119.1 1051.6,117.6 C1037.1,114.5 1023.8,120.5 1017.5,132.8 C1014.3,139.2 1012.7,139 1059,139 L1101,139 L1101,147.9 C1101,172.5 1095.1,189.1 1081.7,201.7 C1070.2,212.6 1061.3,216 1043.5,216.6 C1036.9,216.8 1029.7,216.5 1027.5,216.1 Z M1047.1,185.5 C1053.5,183.2 1057.3,179.8 1060.8,173.2 C1066.6,162.4 1067.8,163 1040,163 C1012.4,163 1013.2,162.7 1017.4,171.5 C1023.5,183.9 1035.5,189.6 1047.1,185.5 Z" id="Shape"></path>
            <path d="M1187.7,215.9 C1181.2,214.4 1176.4,211.3 1170.6,204.9 C1167.5,201.5 1165,198.3 1165,197.8 C1165,197.3 1164.6,197.2 1164,197.5 C1163.5,197.8 1163,201.9 1163,206.6 L1163,215 L1144.5,215 L1126,215 L1126,152 L1126,89 L1144.4,89 L1162.9,89 L1163.2,119.8 C1163.6,155 1164.1,157.4 1172.6,166.9 C1178.1,173 1185.1,176.6 1194.8,178.1 L1202,179.3 L1202,198.1 L1202,217 L1196.8,216.9 C1193.9,216.8 1189.8,216.4 1187.7,215.9 Z" id="Shape"></path>
            <path d="M1433.7,215.9 C1427.2,214.4 1422.4,211.3 1416.6,204.9 C1413.5,201.5 1411,198.3 1411,197.8 C1411,197.3 1410.6,197.2 1410,197.5 C1409.5,197.8 1409,201.9 1409,206.6 L1409,215 L1390.5,215 L1372,215 L1372,152 L1372,89 L1390.4,89 L1408.9,89 L1409.2,119.8 C1409.6,155 1410.1,157.4 1418.6,166.9 C1424.1,173 1431.1,176.6 1440.8,178.1 L1448,179.3 L1448,198.1 L1448,217 L1442.8,216.9 C1439.9,216.8 1435.8,216.4 1433.7,215.9 Z" id="Shape"></path>
            <path d="M1651.3,215.9 C1615.7,209.9 1592.9,174.3 1600.5,136.2 C1604.6,115.9 1620.2,97.8 1640,90.5 C1646.5,88 1649.3,87.6 1661.5,87.2 C1678,86.7 1685.7,88.1 1696.1,93.6 C1703.5,97.5 1715,107.3 1715,109.7 C1715,111.2 1696.1,132 1694.7,132 C1694.3,132 1691.7,130.3 1689,128.1 C1681.8,122.4 1675.4,119.6 1668.3,119.2 C1652.2,118.1 1639.5,128.9 1635.9,146.8 C1631.9,166.3 1649,186.8 1667.3,184.6 C1673.8,183.9 1681.5,180.2 1687.2,175.1 C1689.9,172.7 1692.4,171 1692.9,171.2 C1694.6,171.8 1715,194.2 1715,195.5 C1715,198.7 1699.7,210.2 1691.6,213.1 C1681,216.8 1663.9,218 1651.3,215.9 Z" id="Shape"></path>
            <path d="M1505,215.4 C1493.1,213.3 1489.3,212.4 1481.2,209.8 C1476.1,208.2 1471.7,206.3 1471.4,205.5 C1470.8,203.9 1478.7,179.3 1480.1,178.4 C1480.7,178.1 1485.5,179.1 1490.8,180.6 C1499,183 1502.3,183.5 1512.5,183.5 C1524,183.5 1524.7,183.4 1529.9,180.5 C1534.6,177.9 1535.7,176.7 1538.3,171.2 C1540.1,167.3 1540.9,164.5 1540.3,163.9 C1539.8,163.4 1536.7,163.6 1532.5,164.5 C1523.2,166.4 1500.5,166.4 1492.2,164.5 C1478.6,161.3 1467.4,152.7 1463.4,142.5 C1461.9,138.5 1461.5,134.9 1461.5,125 C1461.5,111.2 1462.5,108.1 1469.2,100.5 C1476.9,91.7 1485.3,88.2 1500.5,87.3 C1515.2,86.5 1528,90.1 1536.7,97.4 C1538.4,98.8 1540,99.7 1540.4,99.3 C1540.7,99 1541,96.5 1541,93.8 L1541,89 L1558.5,89 L1576,89 L1576,129.8 C1576,152.6 1575.5,173.3 1575,176.8 C1572.7,190.7 1566.9,200.3 1556.7,207.4 C1548.3,213.2 1540.3,215.1 1522.5,215.5 C1514.3,215.7 1506.4,215.7 1505,215.4 Z M1529.4,142.5 C1538.9,140.5 1541,138.9 1541,134 C1541,128.9 1539.8,126 1536.1,121.7 C1531.3,116.2 1524.9,113.7 1516,113.6 C1509.5,113.5 1507.8,113.9 1503.8,116.2 C1495,121.4 1493.9,131.2 1501.5,137.8 C1508,143.6 1517.1,145.1 1529.4,142.5 Z" id="Shape"></path>
            <path d="M679,213.3 C679,212.3 689.8,184.1 702.9,150.5 C724.7,94.9 726.6,89.4 725.4,87.4 C722.3,82.7 715.3,81.8 708.1,85 C700.7,88.4 700.5,88.3 694.4,75.3 C691.4,68.8 689,62.7 689.2,61.6 C690,56.1 706.5,51.5 723,52.2 C732.1,52.6 734.6,53 739.3,55.4 C746,58.7 751.5,64.6 756.3,73.8 C760.1,81.2 809,210.5 809,213.3 C809,214.8 807.3,215 790.2,215 L771.4,215 L758.4,174.6 C751.3,152.4 745.4,134.3 745.2,134.5 C745.1,134.6 738.9,152.7 731.6,174.6 L718.3,214.5 L698.7,214.8 C680.4,215 679,214.9 679,213.3 Z" id="Shape"></path>
        </g>
    </g>
</svg>