<?xml version="1.0" standalone="no"?>
<!DOCTYPE svg PUBLIC "-//W3C//DTD SVG 20010904//EN"
 "http://www.w3.org/TR/2001/REC-SVG-20010904/DTD/svg10.dtd">
<svg version="1.0" xmlns="http://www.w3.org/2000/svg"
 width="2055.000000pt" height="498.000000pt" viewBox="0 0 2055.000000 498.000000"
 preserveAspectRatio="xMidYMid meet">
<metadata>
Created by potrace 1.13, written by Peter Selinger 2001-2015
</metadata>
<g transform="translate(0.000000,498.000000) scale(0.100000,-0.100000)"
fill="#000000" stroke="none">
<path d="M4610 4006 l-605 -212 -3 -1467 c-1 -807 1 -1467 5 -1467 5 0 287
109 628 243 l620 243 3 1437 2 1437 -22 -1 c-13 -1 -295 -97 -628 -213z m150
-666 c11 -11 20 -25 20 -30 0 -6 -32 -61 -71 -122 -38 -61 -68 -116 -66 -122
3 -7 59 -38 125 -70 116 -57 146 -82 135 -114 -3 -7 -13 -17 -24 -23 -16 -8
-44 2 -149 51 -71 34 -137 60 -146 58 -9 -2 -48 -52 -87 -113 -70 -111 -82
-125 -104 -125 -17 0 -53 36 -53 53 0 7 29 60 66 116 36 57 64 110 62 119 -2
9 -56 42 -123 75 -66 32 -123 64 -128 71 -12 18 -3 48 18 62 18 12 34 6 145
-46 69 -33 135 -60 147 -60 13 0 27 9 34 22 6 12 40 66 75 120 68 105 86 116
124 78z m84 -768 c7 -15 23 -58 36 -96 l22 -68 -20 -20 c-14 -15 -27 -19 -45
-14 -22 5 -30 20 -59 107 l-33 101 23 19 c29 23 55 13 76 -29z m86 -432 c17
-17 20 -33 20 -110 0 -77 -3 -93 -20 -110 -11 -11 -24 -20 -30 -20 -14 0 -50
37 -51 53 -9 170 23 245 81 187z m-570 -350 c56 -52 64 -84 26 -101 -29 -14
-44 -6 -125 61 -71 59 -83 86 -51 112 22 17 23 17 61 -4 21 -12 61 -42 89 -68z
m466 -105 c15 -23 15 -27 1 -49 -21 -32 -112 -76 -158 -76 -60 0 -91 48 -51
82 9 8 35 18 57 21 22 4 51 15 65 26 35 28 66 26 86 -4z"/>
<path d="M2550 2775 c0 -784 2 -1425 4 -1425 2 0 293 -115 646 -255 354 -140
650 -255 658 -255 13 0 14 179 7 1457 -4 802 -10 1462 -15 1466 -11 12 -1257
437 -1281 437 -19 0 -19 -22 -19 -1425z m720 -495 c45 -45 18 -72 -97 -94 -99
-19 -120 -15 -129 21 -10 36 20 60 96 77 90 19 107 19 130 -4z m355 -10 c104
-26 140 -64 97 -103 -18 -17 -37 -14 -175 24 -49 13 -69 50 -42 79 22 24 21
24 120 0z m-765 -110 c38 -38 28 -52 -87 -119 -76 -45 -99 -45 -123 -2 -14 27
9 51 95 100 81 47 88 48 115 21z"/>
<path d="M1753 3977 l-633 -212 0 -1462 c0 -1423 1 -1463 19 -1463 10 0 301
110 646 245 345 135 629 245 631 245 2 0 4 644 4 1430 0 1356 -1 1430 -17
1429 -10 0 -303 -96 -650 -212z m67 -940 c14 -26 14 -29 -6 -46 -24 -19 -173
-46 -204 -36 -28 9 -37 51 -15 75 19 21 98 39 165 37 38 -2 47 -6 60 -30z
m285 -150 c22 -73 20 -142 -5 -167 -11 -11 -24 -20 -30 -20 -24 0 -50 41 -50
80 0 21 -5 63 -11 91 -11 49 -10 54 10 70 35 28 68 7 86 -54z m-95 -407 c11
-11 20 -24 20 -30 0 -24 -79 -178 -95 -184 -26 -10 -50 1 -62 27 -9 19 -3 39
33 115 46 100 64 112 104 72z m-100 -428 c20 -16 22 -27 22 -108 0 -49 -1 -94
-1 -101 -1 -20 -39 -35 -60 -24 -48 26 -61 172 -20 225 24 31 30 32 59 8z
m394 -198 c40 -39 15 -66 -98 -109 -78 -29 -107 -27 -124 9 -16 35 1 52 88 85
88 34 113 37 134 15z"/>
<path d="M18490 2580 l0 -850 185 0 185 0 0 191 0 191 54 56 54 56 68 -108
c38 -59 110 -169 159 -244 l90 -137 208 -3 c197 -2 207 -1 207 16 0 11 -106
182 -236 381 l-235 362 230 238 c127 131 231 243 231 250 0 8 -62 11 -218 11
l-218 0 -188 -205 c-103 -113 -192 -203 -197 -199 -5 3 -9 181 -9 425 l0 419
-185 0 -185 0 0 -850z"/>
<path d="M6300 2545 l0 -815 185 0 185 0 2 323 3 322 304 3 c216 2 308 -1 317
-9 11 -9 14 -72 14 -325 l0 -314 185 0 185 0 0 815 0 815 -185 0 -185 0 -2
-312 -3 -313 -304 -3 c-216 -2 -308 1 -317 9 -11 9 -14 70 -14 315 l0 304
-185 0 -185 0 0 -815z"/>
<path d="M13260 3190 l0 -170 233 0 c168 0 236 -3 245 -12 9 -9 12 -166 12
-645 l0 -633 185 0 185 0 2 643 3 642 248 3 247 2 0 170 0 170 -680 0 -680 0
0 -170z"/>
<path d="M10020 2997 c-73 -17 -133 -50 -190 -103 -26 -24 -50 -41 -53 -37 -4
3 -7 35 -7 70 l0 63 -185 0 -185 0 0 -810 0 -810 185 0 185 0 0 245 c0 135 4
245 8 245 5 0 21 -14 37 -30 100 -104 275 -144 460 -105 191 40 343 186 408
390 19 62 22 92 22 250 0 158 -3 189 -22 250 -52 165 -193 314 -344 365 -80
27 -239 36 -319 17z m145 -336 c75 -36 105 -68 147 -156 29 -61 33 -80 33
-150 0 -67 -5 -90 -28 -140 -76 -163 -226 -226 -372 -156 -92 43 -151 126
-176 248 -29 139 51 301 176 359 71 34 143 32 220 -5z"/>
<path d="M11395 3001 c-233 -51 -407 -217 -471 -451 -25 -91 -25 -309 0 -400
51 -185 200 -344 381 -406 66 -22 103 -28 206 -32 160 -5 246 9 347 58 79 38
212 148 212 175 0 15 -192 185 -209 185 -6 0 -32 -16 -57 -35 -65 -50 -96 -64
-168 -79 -145 -31 -278 29 -341 152 -32 64 -48 62 415 62 l420 0 0 89 c0 246
-59 412 -193 538 -115 109 -204 143 -382 149 -66 2 -138 -1 -160 -5z m196
-306 c64 -23 102 -57 137 -123 58 -108 70 -102 -208 -102 -276 0 -268 -3 -226
85 61 124 181 181 297 140z"/>
<path d="M12997 2999 c-65 -15 -113 -46 -171 -110 -31 -34 -56 -66 -56 -71 0
-5 -4 -6 -10 -3 -5 3 -10 44 -10 91 l0 84 -185 0 -185 0 0 -630 0 -630 184 0
185 0 3 308 c4 352 9 376 94 471 55 61 125 97 222 112 l72 12 0 188 0 189 -52
-1 c-29 -1 -70 -5 -91 -10z"/>
<path d="M15457 2999 c-65 -15 -113 -46 -171 -110 -31 -34 -56 -66 -56 -71 0
-5 -4 -6 -10 -3 -5 3 -10 44 -10 91 l0 84 -185 0 -185 0 0 -630 0 -630 184 0
185 0 3 308 c4 352 9 376 94 471 55 61 125 97 222 112 l72 12 0 188 0 189 -52
-1 c-29 -1 -70 -5 -91 -10z"/>
<path d="M17633 2999 c-356 -60 -584 -416 -508 -797 41 -203 197 -384 395
-457 65 -25 93 -29 215 -33 165 -5 242 9 346 64 74 39 189 137 189 161 0 15
-189 223 -203 223 -4 0 -30 -17 -57 -39 -72 -57 -136 -85 -207 -89 -161 -11
-288 97 -324 276 -40 195 131 400 314 378 65 -7 142 -44 199 -95 27 -24 52
-41 57 -39 17 6 221 230 221 243 0 32 -153 147 -234 176 -106 37 -277 49 -403
28z"/>
<path d="M16170 2994 c-119 -21 -157 -30 -238 -56 -51 -16 -95 -35 -98 -43 -6
-16 73 -262 87 -271 6 -3 54 7 107 22 82 24 115 29 217 29 115 0 122 -1 174
-30 47 -26 58 -38 84 -93 18 -39 26 -67 20 -73 -5 -5 -36 -3 -78 6 -93 19
-320 19 -403 0 -136 -32 -248 -118 -288 -220 -15 -40 -19 -76 -19 -175 0 -138
10 -169 77 -245 77 -88 161 -123 313 -132 147 -8 275 28 362 101 17 14 33 23
37 19 3 -3 6 -28 6 -55 l0 -48 175 0 175 0 0 408 c0 228 -5 435 -10 470 -23
139 -81 235 -183 306 -84 58 -164 77 -342 81 -82 2 -161 2 -175 -1z m244 -729
c95 -20 116 -36 116 -85 0 -51 -12 -80 -49 -123 -48 -55 -112 -80 -201 -81
-65 -1 -82 3 -122 26 -88 52 -99 150 -23 216 65 58 156 73 279 47z"/>
<path d="M7910 2973 c0 -10 108 -292 239 -628 218 -556 237 -611 225 -631 -31
-47 -101 -56 -173 -24 -74 34 -76 33 -137 -97 -30 -65 -54 -126 -52 -137 8
-55 173 -101 338 -94 91 4 116 8 163 32 67 33 122 92 170 184 38 74 527 1367
527 1395 0 15 -17 17 -188 17 l-188 0 -130 -404 c-71 -222 -130 -403 -132
-401 -1 1 -63 182 -136 401 l-133 399 -196 3 c-183 2 -197 1 -197 -15z"/>
</g>
</svg>
