<?xml version="1.0" encoding="UTF-8"?>
<svg width="2040px" height="949px" viewBox="0 0 2040 949" version="1.1" xmlns="http://www.w3.org/2000/svg" xmlns:xlink="http://www.w3.org/1999/xlink">
    <!-- Generator: Sketch 41.2 (35397) - http://www.bohemiancoding.com/sketch -->
    <title>Layer_1</title>
    <desc>Created with Sketch.</desc>
    <defs></defs>
    <g id="Page-1" stroke="none" stroke-width="1" fill="none" fill-rule="evenodd" opacity="0.341224351">
        <g id="Artboard-3-Copy-8" transform="translate(-49.000000, -326.000000)" stroke-width="3" stroke="#000000">
            <g id="Layer_1" transform="translate(49.000000, 326.000000)">
                <g id="Group-2">
                    <g transform="translate(0.000000, 0.570891)" opacity="0.0978078477">
                        <polyline id="Shape" points="1115.1 249.860728 705 249.860728 704.6 259.944793 184 272.269762 183 249.860728 0 249.860728"></polyline>
                        <path d="M178.6,44.9301129 L196.6,947.453952" id="Shape"></path>
                        <path d="M306.6,44.9301129 L324.6,947.453952" id="Shape"></path>
                        <polyline id="Shape" points="437.6 44.9301129 448.6 496.248055 453.4 673.503513 455.6 947.453952"></polyline>
                        <path d="M568.6,44.9301129 L586.6,947.453952" id="Shape"></path>
                        <path d="M700.6,44.9301129 L718.6,947.453952" id="Shape"></path>
                        <polyline id="Shape" points="827.6 44.9301129 838.6 496.248055 843.4 673.503513 845.6 947.453952"></polyline>
                        <polyline id="Shape" points="953.6 44.9301129 964.6 496.248055 969.4 673.503513 971.6 947.453952"></polyline>
                        <path d="M191,504.203262 L116,504.203262" id="Shape"></path>
                        <path d="M1053,504.203262 L843,504.203262" id="Shape"></path>
                        <path d="M190,491.878294 L315,488.516939" id="Shape"></path>
                        <path d="M1046,388.796738 L117,388.796738" id="Shape"></path>
                        <path d="M320,499.721455 L448,497.480552" id="Shape"></path>
                        <path d="M449,498.601004 L577,496.3601" id="Shape"></path>
                        <path d="M580,498.601004 L708,492.998745" id="Shape"></path>
                        <path d="M708,507.564617 L836,505.323714" id="Shape"></path>
                        <path d="M897,244.258469 L886,23.5294856" id="Shape"></path>
                        <path d="M766,249.860728 L760,59.3839398" id="Shape"></path>
                        <path d="M640,261.065245 L637,44.9301129" id="Shape"></path>
                        <path d="M506,261.065245 L503,17.9272271" id="Shape"></path>
                        <path d="M375,267.787955 L371,17.9272271" id="Shape"></path>
                        <path d="M246,267.787955 L242,0" id="Shape"></path>
                        <path d="M247,492.998745 L262,877.313676" id="Shape"></path>
                        <polyline id="Shape" points="379 499.721455 381.5 654.343789 387.1 689.638018 390 870.590966"></polyline>
                        <path d="M507,497.480552 L513,672.271016" id="Shape"></path>
                        <path d="M513,672.271016 L518,707.005019" id="Shape"></path>
                        <path d="M518,707.005019 L518,885.156838" id="Shape"></path>
                        <path d="M644,496.3601 L644,678.993726" id="Shape"></path>
                        <path d="M644,678.993726 L652,909.806775" id="Shape"></path>
                        <path d="M772,504.203262 L772,672.271016" id="Shape"></path>
                        <path d="M772,672.271016 L781,885.156838" id="Shape"></path>
                        <path d="M902,505.323714 L910,916.529486" id="Shape"></path>
                        <path d="M1023,249.860728 L1018,89.6361355" id="Shape"></path>
                        <path d="M1022,506.444166 L1021,885.156838" id="Shape"></path>
                        <path d="M192,664.427854 L80,664.427854" id="Shape"></path>
                        <path d="M1066,664.427854 L1021,664.427854" id="Shape"></path>
                        <path d="M192,674.51192 L384,671.150565" id="Shape"></path>
                        <path d="M1021,664.427854 L772,668.909661" id="Shape"></path>
                        <path d="M384,671.150565 L453.4,673.503513" id="Shape"></path>
                        <path d="M453.4,673.503513 L581.5,671.150565" id="Shape"></path>
                        <path d="M581.5,671.150565 L772,668.909661" id="Shape"></path>
                        <path d="M1046,350.70138 L117,350.70138" id="Shape"></path>
                        <path d="M1046,429.132999 L117,429.132999" id="Shape"></path>
                    </g>
                    <g transform="translate(924.000000, 0.570891)" opacity="0.0978078477">
                        <polyline id="Shape" points="1115.1 249.860728 705 249.860728 704.6 259.944793 184 272.269762 183 249.860728 0 249.860728"></polyline>
                        <path d="M178.6,44.9301129 L196.6,947.453952" id="Shape"></path>
                        <path d="M306.6,44.9301129 L324.6,947.453952" id="Shape"></path>
                        <polyline id="Shape" points="437.6 44.9301129 448.6 496.248055 453.4 673.503513 455.6 947.453952"></polyline>
                        <path d="M568.6,44.9301129 L586.6,947.453952" id="Shape"></path>
                        <path d="M700.6,44.9301129 L718.6,947.453952" id="Shape"></path>
                        <polyline id="Shape" points="827.6 44.9301129 838.6 496.248055 843.4 673.503513 845.6 947.453952"></polyline>
                        <polyline id="Shape" points="953.6 44.9301129 964.6 496.248055 969.4 673.503513 971.6 947.453952"></polyline>
                        <path d="M191,504.203262 L116,504.203262" id="Shape"></path>
                        <path d="M1053,504.203262 L843,504.203262" id="Shape"></path>
                        <path d="M190,491.878294 L315,488.516939" id="Shape"></path>
                        <path d="M1046,388.796738 L117,388.796738" id="Shape"></path>
                        <path d="M320,499.721455 L448,497.480552" id="Shape"></path>
                        <path d="M449,498.601004 L577,496.3601" id="Shape"></path>
                        <path d="M580,498.601004 L708,492.998745" id="Shape"></path>
                        <path d="M708,507.564617 L836,505.323714" id="Shape"></path>
                        <path d="M897,244.258469 L886,23.5294856" id="Shape"></path>
                        <path d="M766,249.860728 L760,59.3839398" id="Shape"></path>
                        <path d="M640,261.065245 L637,44.9301129" id="Shape"></path>
                        <path d="M506,261.065245 L503,17.9272271" id="Shape"></path>
                        <path d="M375,267.787955 L371,17.9272271" id="Shape"></path>
                        <path d="M246,267.787955 L242,0" id="Shape"></path>
                        <path d="M247,492.998745 L262,877.313676" id="Shape"></path>
                        <polyline id="Shape" points="379 499.721455 381.5 654.343789 387.1 689.638018 390 870.590966"></polyline>
                        <path d="M507,497.480552 L513,672.271016" id="Shape"></path>
                        <path d="M513,672.271016 L518,707.005019" id="Shape"></path>
                        <path d="M518,707.005019 L518,885.156838" id="Shape"></path>
                        <path d="M644,496.3601 L644,678.993726" id="Shape"></path>
                        <path d="M644,678.993726 L652,909.806775" id="Shape"></path>
                        <path d="M772,504.203262 L772,672.271016" id="Shape"></path>
                        <path d="M772,672.271016 L781,885.156838" id="Shape"></path>
                        <path d="M902,505.323714 L910,916.529486" id="Shape"></path>
                        <path d="M1023,249.860728 L1018,89.6361355" id="Shape"></path>
                        <path d="M1022,506.444166 L1021,885.156838" id="Shape"></path>
                        <path d="M192,664.427854 L80,664.427854" id="Shape"></path>
                        <path d="M1066,664.427854 L1021,664.427854" id="Shape"></path>
                        <path d="M192,674.51192 L384,671.150565" id="Shape"></path>
                        <path d="M1021,664.427854 L772,668.909661" id="Shape"></path>
                        <path d="M384,671.150565 L453.4,673.503513" id="Shape"></path>
                        <path d="M453.4,673.503513 L581.5,671.150565" id="Shape"></path>
                        <path d="M581.5,671.150565 L772,668.909661" id="Shape"></path>
                        <path d="M1046,350.70138 L117,350.70138" id="Shape"></path>
                        <path d="M1046,429.132999 L117,429.132999" id="Shape"></path>
                    </g>
                </g>
            </g>
        </g>
    </g>
</svg>