<?xml version="1.0" encoding="UTF-8"?>
<svg width="3722px" height="949px" viewBox="0 0 3722 949" version="1.1" xmlns="http://www.w3.org/2000/svg" xmlns:xlink="http://www.w3.org/1999/xlink">
    <!-- Generator: Sketch 41.2 (35397) - http://www.bohemiancoding.com/sketch -->
    <title>Group 2</title>
    <desc>Created with Sketch.</desc>
    <defs></defs>
    <g id="Page-1" stroke="none" stroke-width="1" fill="none" fill-rule="evenodd" opacity="0.341224351">
        <g id="Group-2" stroke-width="3" stroke="#000000">
            <g id="Group-3">
                <g id="map">
                    <g id="Page-1">
                        <g id="Artboard-3-Copy-8" opacity="0.0978078477">
                            <g id="Layer_1">
                                <g id="Group-2">
                                    <g id="Group" transform="translate(0.000000, 0.570891)">
                                        <polyline id="Shape" points="999.1 249.860728 589 249.860728 588.6 259.944793 68 272.269762 67 249.860728 5.68434189e-14 249.860728"></polyline>
                                        <path d="M62.6,44.9301129 L80.6,947.453952" id="Shape"></path>
                                        <path d="M190.6,44.9301129 L208.6,947.453952" id="Shape"></path>
                                        <polyline id="Shape" points="321.6 44.9301129 332.6 496.248055 337.4 673.503513 339.6 947.453952"></polyline>
                                        <path d="M452.6,44.9301129 L470.6,947.453952" id="Shape"></path>
                                        <path d="M584.6,44.9301129 L602.6,947.453952" id="Shape"></path>
                                        <polyline id="Shape" points="711.6 44.9301129 722.6 496.248055 727.4 673.503513 729.6 947.453952"></polyline>
                                        <polyline id="Shape" points="837.6 44.9301129 848.6 496.248055 853.4 673.503513 855.6 947.453952"></polyline>
                                        <path d="M75,504.203262 L0,504.203262" id="Shape"></path>
                                        <path d="M937,504.203262 L727,504.203262" id="Shape"></path>
                                        <path d="M74,491.878294 L199,488.516939" id="Shape"></path>
                                        <path d="M930,388.796738 L1,388.796738" id="Shape"></path>
                                        <path d="M204,499.721455 L332,497.480552" id="Shape"></path>
                                        <path d="M333,498.601004 L461,496.3601" id="Shape"></path>
                                        <path d="M464,498.601004 L592,492.998745" id="Shape"></path>
                                        <path d="M592,507.564617 L720,505.323714" id="Shape"></path>
                                        <path d="M781,244.258469 L770,23.5294856" id="Shape"></path>
                                        <path d="M650,249.860728 L644,59.3839398" id="Shape"></path>
                                        <path d="M524,261.065245 L521,44.9301129" id="Shape"></path>
                                        <path d="M390,261.065245 L387,17.9272271" id="Shape"></path>
                                        <path d="M259,267.787955 L255,17.9272271" id="Shape"></path>
                                        <path d="M130,267.787955 L126,0" id="Shape"></path>
                                        <path d="M131,492.998745 L146,877.313676" id="Shape"></path>
                                        <polyline id="Shape" points="263 499.721455 265.5 654.343789 271.1 689.638018 274 870.590966"></polyline>
                                        <path d="M391,497.480552 L397,672.271016" id="Shape"></path>
                                        <path d="M397,672.271016 L402,707.005019" id="Shape"></path>
                                        <path d="M402,707.005019 L402,885.156838" id="Shape"></path>
                                        <path d="M528,496.3601 L528,678.993726" id="Shape"></path>
                                        <path d="M528,678.993726 L536,909.806775" id="Shape"></path>
                                        <path d="M656,504.203262 L656,672.271016" id="Shape"></path>
                                        <path d="M656,672.271016 L665,885.156838" id="Shape"></path>
                                        <path d="M786,505.323714 L794,916.529486" id="Shape"></path>
                                        <path d="M907,249.860728 L902,89.6361355" id="Shape"></path>
                                        <path d="M906,506.444166 L905,885.156838" id="Shape"></path>
                                        <path d="M76,664.427854 L1,664.427854" id="Shape"></path>
                                        <path d="M950,664.427854 L905,664.427854" id="Shape"></path>
                                        <path d="M76,674.51192 L268,671.150565" id="Shape"></path>
                                        <path d="M905,664.427854 L656,668.909661" id="Shape"></path>
                                        <path d="M268,671.150565 L337.4,673.503513" id="Shape"></path>
                                        <path d="M337.4,673.503513 L465.5,671.150565" id="Shape"></path>
                                        <path d="M465.5,671.150565 L656,668.909661" id="Shape"></path>
                                        <path d="M930,350.70138 L1,350.70138" id="Shape"></path>
                                        <path d="M930,429.132999 L1,429.132999" id="Shape"></path>
                                    </g>
                                    <g id="Group" transform="translate(808.000000, 0.570891)">
                                        <polyline id="Shape" points="1046.1 249.860728 705 249.860728 704.6 259.944793 184 272.269762 183 249.860728 0 249.860728"></polyline>
                                        <path d="M178.6,44.9301129 L196.6,947.453952" id="Shape"></path>
                                        <path d="M306.6,44.9301129 L324.6,947.453952" id="Shape"></path>
                                        <polyline id="Shape" points="437.6 44.9301129 448.6 496.248055 453.4 673.503513 455.6 947.453952"></polyline>
                                        <path d="M568.6,44.9301129 L586.6,947.453952" id="Shape"></path>
                                        <path d="M700.6,44.9301129 L718.6,947.453952" id="Shape"></path>
                                        <polyline id="Shape" points="827.6 44.9301129 838.6 496.248055 843.4 673.503513 845.6 947.453952"></polyline>
                                        <polyline id="Shape" points="953.6 44.9301129 964.6 496.248055 969.4 673.503513 971.6 947.453952"></polyline>
                                        <path d="M191,504.203262 L116,504.203262" id="Shape"></path>
                                        <path d="M1053,504.203262 L843,504.203262" id="Shape"></path>
                                        <path d="M190,491.878294 L315,488.516939" id="Shape"></path>
                                        <path d="M1046,388.796738 L117,388.796738" id="Shape"></path>
                                        <path d="M320,499.721455 L448,497.480552" id="Shape"></path>
                                        <path d="M449,498.601004 L577,496.3601" id="Shape"></path>
                                        <path d="M580,498.601004 L708,492.998745" id="Shape"></path>
                                        <path d="M708,507.564617 L836,505.323714" id="Shape"></path>
                                        <path d="M897,244.258469 L886,23.5294856" id="Shape"></path>
                                        <path d="M766,249.860728 L760,59.3839398" id="Shape"></path>
                                        <path d="M640,261.065245 L637,44.9301129" id="Shape"></path>
                                        <path d="M506,261.065245 L503,17.9272271" id="Shape"></path>
                                        <path d="M375,267.787955 L371,17.9272271" id="Shape"></path>
                                        <path d="M246,267.787955 L242,0" id="Shape"></path>
                                        <path d="M247,492.998745 L262,877.313676" id="Shape"></path>
                                        <polyline id="Shape" points="379 499.721455 381.5 654.343789 387.1 689.638018 390 870.590966"></polyline>
                                        <path d="M507,497.480552 L513,672.271016" id="Shape"></path>
                                        <path d="M513,672.271016 L518,707.005019" id="Shape"></path>
                                        <path d="M518,707.005019 L518,885.156838" id="Shape"></path>
                                        <path d="M644,496.3601 L644,678.993726" id="Shape"></path>
                                        <path d="M644,678.993726 L652,909.806775" id="Shape"></path>
                                        <path d="M772,504.203262 L772,672.271016" id="Shape"></path>
                                        <path d="M772,672.271016 L781,885.156838" id="Shape"></path>
                                        <path d="M902,505.323714 L910,916.529486" id="Shape"></path>
                                        <path d="M1023,249.860728 L1018,89.6361355" id="Shape"></path>
                                        <path d="M1022,506.444166 L1021,885.156838" id="Shape"></path>
                                        <path d="M192,664.427854 L80,664.427854" id="Shape"></path>
                                        <path d="M1046,664.427854 L1021,664.427854" id="Shape"></path>
                                        <path d="M192,674.51192 L384,671.150565" id="Shape"></path>
                                        <path d="M1021,664.427854 L772,668.909661" id="Shape"></path>
                                        <path d="M384,671.150565 L453.4,673.503513" id="Shape"></path>
                                        <path d="M453.4,673.503513 L581.5,671.150565" id="Shape"></path>
                                        <path d="M581.5,671.150565 L772,668.909661" id="Shape"></path>
                                        <path d="M1046,350.70138 L117,350.70138" id="Shape"></path>
                                        <path d="M1046,429.132999 L117,429.132999" id="Shape"></path>
                                    </g>
                                </g>
                            </g>
                        </g>
                    </g>
                </g>
                <g id="map" transform="translate(1861.000000, 0.000000)">
                    <g id="Page-1">
                        <g id="Artboard-3-Copy-8" opacity="0.0978078477">
                            <g id="Layer_1">
                                <g id="Group-2">
                                    <g id="Group" transform="translate(0.000000, 0.570891)">
                                        <polyline id="Shape" points="999.1 249.860728 589 249.860728 588.6 259.944793 68 272.269762 67 249.860728 5.68434189e-14 249.860728"></polyline>
                                        <path d="M62.6,44.9301129 L80.6,947.453952" id="Shape"></path>
                                        <path d="M190.6,44.9301129 L208.6,947.453952" id="Shape"></path>
                                        <polyline id="Shape" points="321.6 44.9301129 332.6 496.248055 337.4 673.503513 339.6 947.453952"></polyline>
                                        <path d="M452.6,44.9301129 L470.6,947.453952" id="Shape"></path>
                                        <path d="M584.6,44.9301129 L602.6,947.453952" id="Shape"></path>
                                        <polyline id="Shape" points="711.6 44.9301129 722.6 496.248055 727.4 673.503513 729.6 947.453952"></polyline>
                                        <polyline id="Shape" points="837.6 44.9301129 848.6 496.248055 853.4 673.503513 855.6 947.453952"></polyline>
                                        <path d="M75,504.203262 L0,504.203262" id="Shape"></path>
                                        <path d="M937,504.203262 L727,504.203262" id="Shape"></path>
                                        <path d="M74,491.878294 L199,488.516939" id="Shape"></path>
                                        <path d="M930,388.796738 L1,388.796738" id="Shape"></path>
                                        <path d="M204,499.721455 L332,497.480552" id="Shape"></path>
                                        <path d="M333,498.601004 L461,496.3601" id="Shape"></path>
                                        <path d="M464,498.601004 L592,492.998745" id="Shape"></path>
                                        <path d="M592,507.564617 L720,505.323714" id="Shape"></path>
                                        <path d="M781,244.258469 L770,23.5294856" id="Shape"></path>
                                        <path d="M650,249.860728 L644,59.3839398" id="Shape"></path>
                                        <path d="M524,261.065245 L521,44.9301129" id="Shape"></path>
                                        <path d="M390,261.065245 L387,17.9272271" id="Shape"></path>
                                        <path d="M259,267.787955 L255,17.9272271" id="Shape"></path>
                                        <path d="M130,267.787955 L126,0" id="Shape"></path>
                                        <path d="M131,492.998745 L146,877.313676" id="Shape"></path>
                                        <polyline id="Shape" points="263 499.721455 265.5 654.343789 271.1 689.638018 274 870.590966"></polyline>
                                        <path d="M391,497.480552 L397,672.271016" id="Shape"></path>
                                        <path d="M397,672.271016 L402,707.005019" id="Shape"></path>
                                        <path d="M402,707.005019 L402,885.156838" id="Shape"></path>
                                        <path d="M528,496.3601 L528,678.993726" id="Shape"></path>
                                        <path d="M528,678.993726 L536,909.806775" id="Shape"></path>
                                        <path d="M656,504.203262 L656,672.271016" id="Shape"></path>
                                        <path d="M656,672.271016 L665,885.156838" id="Shape"></path>
                                        <path d="M786,505.323714 L794,916.529486" id="Shape"></path>
                                        <path d="M907,249.860728 L902,89.6361355" id="Shape"></path>
                                        <path d="M906,506.444166 L905,885.156838" id="Shape"></path>
                                        <path d="M76,664.427854 L1,664.427854" id="Shape"></path>
                                        <path d="M950,664.427854 L905,664.427854" id="Shape"></path>
                                        <path d="M76,674.51192 L268,671.150565" id="Shape"></path>
                                        <path d="M905,664.427854 L656,668.909661" id="Shape"></path>
                                        <path d="M268,671.150565 L337.4,673.503513" id="Shape"></path>
                                        <path d="M337.4,673.503513 L465.5,671.150565" id="Shape"></path>
                                        <path d="M465.5,671.150565 L656,668.909661" id="Shape"></path>
                                        <path d="M930,350.70138 L1,350.70138" id="Shape"></path>
                                        <path d="M930,429.132999 L1,429.132999" id="Shape"></path>
                                    </g>
                                    <g id="Group" transform="translate(808.000000, 0.570891)">
                                        <polyline id="Shape" points="1046.1 249.860728 705 249.860728 704.6 259.944793 184 272.269762 183 249.860728 0 249.860728"></polyline>
                                        <path d="M178.6,44.9301129 L196.6,947.453952" id="Shape"></path>
                                        <path d="M306.6,44.9301129 L324.6,947.453952" id="Shape"></path>
                                        <polyline id="Shape" points="437.6 44.9301129 448.6 496.248055 453.4 673.503513 455.6 947.453952"></polyline>
                                        <path d="M568.6,44.9301129 L586.6,947.453952" id="Shape"></path>
                                        <path d="M700.6,44.9301129 L718.6,947.453952" id="Shape"></path>
                                        <polyline id="Shape" points="827.6 44.9301129 838.6 496.248055 843.4 673.503513 845.6 947.453952"></polyline>
                                        <polyline id="Shape" points="953.6 44.9301129 964.6 496.248055 969.4 673.503513 971.6 947.453952"></polyline>
                                        <path d="M191,504.203262 L116,504.203262" id="Shape"></path>
                                        <path d="M1053,504.203262 L843,504.203262" id="Shape"></path>
                                        <path d="M190,491.878294 L315,488.516939" id="Shape"></path>
                                        <path d="M1046,388.796738 L117,388.796738" id="Shape"></path>
                                        <path d="M320,499.721455 L448,497.480552" id="Shape"></path>
                                        <path d="M449,498.601004 L577,496.3601" id="Shape"></path>
                                        <path d="M580,498.601004 L708,492.998745" id="Shape"></path>
                                        <path d="M708,507.564617 L836,505.323714" id="Shape"></path>
                                        <path d="M897,244.258469 L886,23.5294856" id="Shape"></path>
                                        <path d="M766,249.860728 L760,59.3839398" id="Shape"></path>
                                        <path d="M640,261.065245 L637,44.9301129" id="Shape"></path>
                                        <path d="M506,261.065245 L503,17.9272271" id="Shape"></path>
                                        <path d="M375,267.787955 L371,17.9272271" id="Shape"></path>
                                        <path d="M246,267.787955 L242,0" id="Shape"></path>
                                        <path d="M247,492.998745 L262,877.313676" id="Shape"></path>
                                        <polyline id="Shape" points="379 499.721455 381.5 654.343789 387.1 689.638018 390 870.590966"></polyline>
                                        <path d="M507,497.480552 L513,672.271016" id="Shape"></path>
                                        <path d="M513,672.271016 L518,707.005019" id="Shape"></path>
                                        <path d="M518,707.005019 L518,885.156838" id="Shape"></path>
                                        <path d="M644,496.3601 L644,678.993726" id="Shape"></path>
                                        <path d="M644,678.993726 L652,909.806775" id="Shape"></path>
                                        <path d="M772,504.203262 L772,672.271016" id="Shape"></path>
                                        <path d="M772,672.271016 L781,885.156838" id="Shape"></path>
                                        <path d="M902,505.323714 L910,916.529486" id="Shape"></path>
                                        <path d="M1023,249.860728 L1018,89.6361355" id="Shape"></path>
                                        <path d="M1022,506.444166 L1021,885.156838" id="Shape"></path>
                                        <path d="M192,664.427854 L80,664.427854" id="Shape"></path>
                                        <path d="M1046,664.427854 L1021,664.427854" id="Shape"></path>
                                        <path d="M192,674.51192 L384,671.150565" id="Shape"></path>
                                        <path d="M1021,664.427854 L772,668.909661" id="Shape"></path>
                                        <path d="M384,671.150565 L453.4,673.503513" id="Shape"></path>
                                        <path d="M453.4,673.503513 L581.5,671.150565" id="Shape"></path>
                                        <path d="M581.5,671.150565 L772,668.909661" id="Shape"></path>
                                        <path d="M1046,350.70138 L117,350.70138" id="Shape"></path>
                                        <path d="M1046,429.132999 L117,429.132999" id="Shape"></path>
                                    </g>
                                </g>
                            </g>
                        </g>
                    </g>
                </g>
            </g>
        </g>
    </g>
</svg>