<?xml version="1.0" encoding="UTF-8"?>
<svg width="52px" height="91px" viewBox="0 0 52 91" version="1.1" xmlns="http://www.w3.org/2000/svg" xmlns:xlink="http://www.w3.org/1999/xlink">
    <!-- Generator: Sketch 42 (36781) - http://www.bohemiancoding.com/sketch -->
    <title>noun_195985_cc</title>
    <desc>Created with Sketch.</desc>
    <defs></defs>
    <g id="Page-1" stroke="none" stroke-width="1" fill="none" fill-rule="evenodd">
        <g id="noun_195985_cc" fill-rule="nonzero">
            <g id="Group">
                <path d="M51.3,85.1 C35.2,67.3 29.3,33.9 27.7,22.1 C29.4,21.4 30.5,19.8 30.5,17.9 C30.5,15.4 28.5,13.4 26,13.4 C23.5,13.4 21.5,15.4 21.5,17.9 C21.5,19.8 22.7,21.4 24.3,22.1 C23,31.3 19.2,53.5 10,71.2 C10,71.3 9.9,71.3 9.9,71.4 C9.8,71.6 9.7,71.8 9.6,72 C6.9,77.1 3.9,81.5 0.7,85 C0.3,85.4 0.3,86 0.6,86.4 C0.9,86.8 1.5,87 2,86.7 L16.1,79.5 L25.1,90 L25.2,90 C25.2,90 25.2,90.1 25.3,90.1 L25.3,90.1 L25.4,90.1 L25.5,90.2 L25.6,90.2 C25.6,90.2 25.7,90.2 25.8,90.3 L25.9,90.3 L26.1,90.3 L26.1,90.3 L26.1,90.3 L26.3,90.3 L26.4,90.3 L26.5,90.3 L26.5,90.3 L26.6,90.3 C26.7,90.3 26.7,90.2 26.7,90.2 L26.7,90.2 C26.8,90.2 26.8,90.1 26.9,90 L26.9,90 L35.9,79.5 L50,86.7 C50.5,86.9 51.1,86.8 51.4,86.4 C51.7,86.1 51.6,85.5 51.3,85.1 Z M16.3,62.7 L18.5,65.5 L13.6,69 C14.6,66.9 15.5,64.8 16.3,62.7 Z M19.2,54.9 L20,55.9 L18.5,57.1 C18.7,56.4 18.9,55.6 19.2,54.9 Z M38.4,69.2 L33.4,65.6 L35.6,62.8 C36.5,64.9 37.4,67.1 38.4,69.2 Z M20.2,52.6 L22.6,49.6 L24.4,52.3 L21.6,54.5 L20.2,52.6 Z M28.1,38.3 L27.1,39.9 L27.1,36.5 L28.1,38.3 Z M31.5,52.6 L30.1,54.4 L27.5,52.4 L29.3,49.8 L31.5,52.6 Z M27.1,54.9 L28.6,56.1 L27.1,58 L27.1,54.9 Z M27.1,48.9 L27.1,47 L27.8,47.9 L27.1,48.9 Z M24.9,36.5 L24.9,39.9 L23.9,38.3 L24.9,36.5 Z M24.9,48.9 L24.2,47.8 L24.9,46.9 L24.9,48.9 Z M24.9,54.9 L24.9,58.5 L23.2,56.3 L24.9,54.9 Z M27.4,61.3 L30.4,57.5 L34.3,60.6 L31.5,64.2 L27.4,61.3 Z M30.2,66.1 L27.1,70.1 L27.1,63.9 L30.2,66.1 Z M31.8,55.8 L32.6,54.8 C32.9,55.6 33.1,56.4 33.4,57.1 L31.8,55.8 Z M29.2,46 L27.4,43.7 L28.9,41.3 C29.2,42.5 29.5,43.8 29.8,45.1 L29.2,46 Z M23,41.2 L24.6,43.7 L22.8,45.9 L22.1,44.9 C22.4,43.6 22.7,42.4 23,41.2 Z M17.6,60.6 L21.3,57.6 L24.2,61.3 L20.3,64.1 L17.6,60.6 Z M24.9,63.8 L24.9,70.1 L21.7,66 L24.9,63.8 Z M32,67.4 L39,72.4 L35.2,76.8 L27.7,73 L32,67.4 Z M5.8,82.4 C7.7,79.8 9.5,77 11.2,73.8 L14.7,77.9 L5.8,82.4 Z M12.9,72.3 L19.9,67.3 L24.3,73 L16.8,76.8 L12.9,72.3 Z M24.9,86.4 L18.3,78.7 L24.9,75.3 L24.9,86.4 Z M27.1,86.4 L27.1,75.3 L33.7,78.7 L27.1,86.4 Z M37.3,77.9 L40.8,73.9 C42.4,76.9 44.2,79.8 46.2,82.4 L37.3,77.9 Z" id="Shape" fill="#56666F"></path>
                <polygon id="Shape" fill="#4FEFA2" points="16 30 11.8 30 16.3 24 7.2 31.3 11.2 31.3 4.9 38"></polygon>
                <polygon id="Shape" fill="#4FEFA2" points="44.3 6.5 40.1 6.5 44.6 0.5 35.5 7.9 39.6 7.9 33.2 14.6"></polygon>
                <polygon id="Shape" fill="#4FEFA2" points="46.9 38 40.5 31.3 44.6 31.3 35.5 24 40 30 35.8 30"></polygon>
                <polygon id="Shape" fill="#4FEFA2" points="7.5 6.5 18.6 14.6 12.2 7.9 16.3 7.9 7.2 0.5 11.7 6.5"></polygon>
            </g>
        </g>
    </g>
</svg>