<?xml version="1.0" encoding="UTF-8"?>
<svg width="68px" height="90px" viewBox="0 0 68 90" version="1.1" xmlns="http://www.w3.org/2000/svg" xmlns:xlink="http://www.w3.org/1999/xlink">
    <!-- Generator: Sketch 42 (36781) - http://www.bohemiancoding.com/sketch -->
    <title>noun_298398_cc</title>
    <desc>Created with Sketch.</desc>
    <defs></defs>
    <g id="Page-1" stroke="none" stroke-width="1" fill="none" fill-rule="evenodd">
        <g id="noun_298398_cc" fill-rule="nonzero">
            <path d="M61.566,57.269 L56.177,57.269 C55.906,57.269 55.687,57.05 55.687,56.779 C55.687,56.508 55.906,56.29 56.177,56.29 L61.566,56.29 C61.837,56.29 62.056,56.509 62.056,56.779 C62.057,57.05 61.838,57.269 61.566,57.269 Z" id="Shape" fill="#56666F"></path>
            <path d="M34.128,35.219 C33.857,35.219 33.638,35 33.638,34.729 L33.638,29.34 C33.638,29.069 33.858,28.85 34.128,28.85 C34.398,28.85 34.619,29.07 34.619,29.34 L34.619,34.729 C34.619,35 34.399,35.219 34.128,35.219 Z" id="Shape" fill="#56666F"></path>
            <path d="M12.08,57.269 L6.69,57.269 C6.419,57.269 6.2,57.05 6.2,56.779 C6.2,56.508 6.42,56.29 6.69,56.29 L12.08,56.29 C12.351,56.29 12.57,56.509 12.57,56.779 C12.57,57.05 12.351,57.269 12.08,57.269 Z" id="Shape" fill="#56666F"></path>
            <path d="M34.128,84.707 C33.857,84.707 33.638,84.487 33.638,84.217 L33.638,78.828 C33.638,78.557 33.858,78.338 34.128,78.338 C34.398,78.338 34.619,78.557 34.619,78.828 L34.619,84.217 C34.619,84.487 34.399,84.707 34.128,84.707 Z" id="Shape" fill="#56666F"></path>
            <path d="M55.428,51.562 C55.211,51.562 55.014,51.417 54.955,51.199 C54.885,50.937 55.039,50.67 55.301,50.599 L60.506,49.204 C60.768,49.133 61.035,49.289 61.106,49.55 C61.176,49.812 61.02,50.08 60.76,50.151 L55.555,51.546 C55.512,51.557 55.469,51.562 55.428,51.562 Z" id="Shape" fill="#56666F"></path>
            <path d="M53.221,46.245 C53.053,46.245 52.887,46.157 52.797,46 C52.662,45.767 52.742,45.467 52.977,45.331 L57.647,42.635 C57.879,42.5 58.18,42.58 58.315,42.815 C58.452,43.049 58.372,43.349 58.137,43.484 L53.467,46.18 C53.389,46.225 53.305,46.245 53.221,46.245 Z" id="Shape" fill="#56666F"></path>
            <path d="M49.719,41.678 C49.594,41.678 49.469,41.63 49.373,41.534 C49.182,41.343 49.182,41.033 49.373,40.841 L53.184,37.03 C53.375,36.839 53.686,36.839 53.877,37.03 C54.068,37.221 54.068,37.531 53.877,37.723 L50.066,41.534 C49.971,41.63 49.846,41.678 49.719,41.678 Z" id="Shape" fill="#56666F"></path>
            <path d="M45.152,38.176 C45.068,38.176 44.984,38.155 44.906,38.11 C44.672,37.975 44.592,37.675 44.726,37.441 L47.423,32.772 C47.558,32.537 47.859,32.458 48.093,32.592 C48.327,32.728 48.407,33.027 48.271,33.261 L45.576,37.93 C45.484,38.088 45.32,38.176 45.152,38.176 Z" id="Shape" fill="#56666F"></path>
            <path d="M39.836,35.97 C39.795,35.97 39.752,35.965 39.709,35.953 C39.447,35.883 39.293,35.615 39.363,35.353 L40.758,30.149 C40.826,29.887 41.094,29.732 41.358,29.802 C41.62,29.872 41.774,30.141 41.704,30.402 L40.309,35.607 C40.25,35.825 40.053,35.97 39.836,35.97 Z" id="Shape" fill="#56666F"></path>
            <path d="M28.421,35.97 C28.205,35.97 28.007,35.825 27.948,35.607 L26.553,30.402 C26.483,30.141 26.638,29.872 26.899,29.802 C27.16,29.733 27.429,29.887 27.499,30.149 L28.894,35.353 C28.964,35.615 28.809,35.883 28.547,35.953 C28.506,35.964 28.463,35.97 28.421,35.97 Z" id="Shape" fill="#56666F"></path>
            <path d="M23.106,38.176 C22.937,38.176 22.772,38.088 22.681,37.931 L19.985,33.261 C19.85,33.027 19.93,32.727 20.164,32.592 C20.399,32.457 20.698,32.537 20.833,32.772 L23.529,37.441 C23.664,37.675 23.584,37.975 23.349,38.11 C23.273,38.155 23.189,38.176 23.106,38.176 Z" id="Shape" fill="#56666F"></path>
            <path d="M18.538,41.678 C18.413,41.678 18.287,41.63 18.191,41.534 L14.38,37.723 C14.189,37.532 14.189,37.222 14.38,37.03 C14.571,36.839 14.881,36.839 15.073,37.03 L18.884,40.841 C19.075,41.032 19.075,41.342 18.884,41.534 C18.789,41.63 18.663,41.678 18.538,41.678 Z" id="Shape" fill="#56666F"></path>
            <path d="M15.036,46.245 C14.953,46.245 14.869,46.224 14.791,46.18 L10.121,43.484 C9.887,43.348 9.806,43.049 9.941,42.815 C10.077,42.581 10.376,42.5 10.61,42.635 L15.28,45.331 C15.514,45.467 15.595,45.766 15.46,46 C15.37,46.157 15.205,46.245 15.036,46.245 Z" id="Shape" fill="#56666F"></path>
            <path d="M12.831,51.562 C12.789,51.562 12.747,51.557 12.704,51.545 L7.499,50.15 C7.237,50.08 7.082,49.811 7.152,49.549 C7.222,49.288 7.491,49.132 7.752,49.203 L12.957,50.598 C13.218,50.668 13.374,50.936 13.304,51.198 C13.245,51.417 13.047,51.562 12.831,51.562 Z" id="Shape" fill="#56666F"></path>
            <path d="M7.625,64.371 C7.409,64.371 7.21,64.226 7.152,64.008 C7.082,63.746 7.237,63.478 7.499,63.407 L12.704,62.012 C12.964,61.942 13.234,62.097 13.304,62.359 C13.374,62.62 13.219,62.888 12.957,62.959 L7.752,64.354 C7.709,64.365 7.667,64.371 7.625,64.371 Z" id="Shape" fill="#56666F"></path>
            <path d="M10.367,70.988 C10.197,70.988 10.033,70.9 9.942,70.743 C9.807,70.509 9.887,70.209 10.122,70.074 L14.792,67.378 C15.027,67.242 15.326,67.323 15.461,67.557 C15.596,67.792 15.516,68.091 15.281,68.227 L10.611,70.923 C10.534,70.967 10.45,70.988 10.367,70.988 Z" id="Shape" fill="#56666F"></path>
            <path d="M14.727,76.671 C14.602,76.671 14.476,76.623 14.38,76.527 C14.189,76.336 14.189,76.025 14.38,75.834 L18.191,72.023 C18.382,71.832 18.693,71.832 18.884,72.023 C19.075,72.214 19.075,72.524 18.884,72.715 L15.073,76.527 C14.978,76.623 14.853,76.671 14.727,76.671 Z" id="Shape" fill="#56666F"></path>
            <path d="M20.409,81.031 C20.326,81.031 20.242,81.01 20.164,80.965 C19.93,80.83 19.85,80.53 19.985,80.296 L22.681,75.626 C22.816,75.393 23.116,75.312 23.35,75.447 C23.584,75.582 23.665,75.882 23.53,76.116 L20.834,80.786 C20.743,80.942 20.578,81.031 20.409,81.031 Z" id="Shape" fill="#56666F"></path>
            <path d="M27.027,83.772 C26.985,83.772 26.942,83.766 26.9,83.754 C26.639,83.685 26.483,83.416 26.554,83.154 L27.949,77.95 C28.019,77.688 28.289,77.532 28.549,77.603 C28.81,77.673 28.966,77.942 28.896,78.204 L27.5,83.409 C27.441,83.628 27.244,83.772 27.027,83.772 Z" id="Shape" fill="#56666F"></path>
            <path d="M41.23,83.772 C41.013,83.772 40.816,83.627 40.757,83.409 L39.362,78.205 C39.292,77.943 39.446,77.675 39.708,77.604 C39.97,77.533 40.237,77.69 40.308,77.951 L41.703,83.155 C41.773,83.417 41.619,83.685 41.357,83.755 C41.314,83.767 41.271,83.772 41.23,83.772 Z" id="Shape" fill="#56666F"></path>
            <path d="M47.848,81.031 C47.68,81.031 47.514,80.942 47.424,80.786 L44.727,76.117 C44.592,75.883 44.672,75.583 44.907,75.447 C45.141,75.312 45.442,75.392 45.577,75.627 L48.272,80.296 C48.409,80.53 48.329,80.83 48.094,80.965 C48.016,81.01 47.932,81.031 47.848,81.031 Z" id="Shape" fill="#56666F"></path>
            <path d="M53.531,76.671 C53.404,76.671 53.279,76.623 53.183,76.527 L49.372,72.715 C49.181,72.524 49.181,72.214 49.372,72.023 C49.563,71.832 49.874,71.832 50.065,72.023 L53.876,75.834 C54.067,76.025 54.067,76.336 53.876,76.527 C53.781,76.623 53.656,76.671 53.531,76.671 Z" id="Shape" fill="#56666F"></path>
            <path d="M57.891,70.988 C57.807,70.988 57.723,70.967 57.647,70.923 L52.977,68.227 C52.743,68.091 52.663,67.791 52.797,67.557 C52.931,67.323 53.233,67.243 53.467,67.378 L58.137,70.074 C58.371,70.209 58.451,70.509 58.315,70.743 C58.225,70.9 58.061,70.988 57.891,70.988 Z" id="Shape" fill="#56666F"></path>
            <path d="M60.633,64.371 C60.59,64.371 60.547,64.365 60.506,64.353 L55.301,62.958 C55.039,62.888 54.885,62.619 54.955,62.358 C55.023,62.096 55.291,61.94 55.555,62.011 L60.76,63.406 C61.02,63.476 61.176,63.745 61.106,64.007 C61.047,64.227 60.85,64.371 60.633,64.371 Z" id="Shape" fill="#56666F"></path>
            <path d="M58.529,54.889 C58.404,54.889 58.297,54.793 58.285,54.665 C58.273,54.53 58.373,54.411 58.508,54.399 L61.442,54.142 C61.573,54.128 61.696,54.23 61.708,54.366 C61.72,54.501 61.62,54.619 61.485,54.631 L58.551,54.888 C58.543,54.889 58.537,54.889 58.529,54.889 Z" id="Shape" fill="#56666F"></path>
            <path d="M58.252,52.771 C58.135,52.771 58.031,52.687 58.01,52.568 C57.989,52.435 58.076,52.308 58.209,52.285 L61.107,51.773 C61.242,51.751 61.369,51.838 61.392,51.972 C61.415,52.105 61.326,52.232 61.193,52.256 L58.295,52.767 C58.279,52.769 58.266,52.771 58.252,52.771 Z" id="Shape" fill="#56666F"></path>
            <path d="M57.156,48.643 C57.054,48.643 56.961,48.581 56.926,48.482 C56.879,48.355 56.946,48.214 57.072,48.168 L59.828,47.165 C59.957,47.118 60.096,47.184 60.142,47.311 C60.189,47.438 60.122,47.579 59.996,47.624 L57.238,48.628 C57.211,48.638 57.184,48.643 57.156,48.643 Z" id="Shape" fill="#56666F"></path>
            <path d="M56.332,46.67 C56.24,46.67 56.152,46.618 56.109,46.529 C56.052,46.406 56.105,46.26 56.228,46.203 L58.892,44.961 C59.015,44.903 59.162,44.957 59.218,45.079 C59.275,45.202 59.222,45.348 59.099,45.405 L56.435,46.647 C56.402,46.663 56.367,46.67 56.332,46.67 Z" id="Shape" fill="#56666F"></path>
            <path d="M54.193,42.974 C54.117,42.974 54.041,42.938 53.992,42.87 C53.916,42.759 53.941,42.606 54.053,42.529 L56.465,40.841 C56.576,40.763 56.729,40.79 56.807,40.901 C56.883,41.012 56.858,41.165 56.746,41.242 L54.334,42.93 C54.291,42.959 54.242,42.974 54.193,42.974 Z" id="Shape" fill="#56666F"></path>
            <path d="M52.895,41.279 C52.825,41.279 52.754,41.249 52.706,41.192 C52.62,41.088 52.634,40.934 52.737,40.847 L54.991,38.955 C55.095,38.868 55.249,38.881 55.337,38.985 C55.425,39.089 55.409,39.243 55.306,39.33 L53.052,41.222 C53.006,41.26 52.949,41.279 52.895,41.279 Z" id="Shape" fill="#56666F"></path>
            <path d="M49.875,38.259 C49.818,38.259 49.764,38.24 49.717,38.202 C49.613,38.115 49.6,37.96 49.686,37.857 L51.579,35.602 C51.667,35.498 51.821,35.485 51.925,35.572 C52.029,35.659 52.042,35.814 51.954,35.917 L50.063,38.172 C50.014,38.23 49.943,38.259 49.875,38.259 Z" id="Shape" fill="#56666F"></path>
            <path d="M48.178,36.959 C48.129,36.959 48.08,36.945 48.037,36.915 C47.926,36.837 47.9,36.685 47.976,36.574 L49.665,34.162 C49.741,34.051 49.895,34.024 50.007,34.102 C50.119,34.18 50.144,34.332 50.066,34.443 L48.378,36.855 C48.33,36.923 48.256,36.959 48.178,36.959 Z" id="Shape" fill="#56666F"></path>
            <path d="M44.482,34.82 C44.447,34.82 44.412,34.813 44.378,34.797 C44.255,34.739 44.202,34.594 44.259,34.471 L45.501,31.807 C45.56,31.684 45.706,31.631 45.827,31.688 C45.95,31.745 46.003,31.891 45.946,32.014 L44.704,34.678 C44.664,34.767 44.574,34.82 44.482,34.82 Z" id="Shape" fill="#56666F"></path>
            <path d="M42.51,33.998 C42.483,33.998 42.453,33.993 42.426,33.983 C42.299,33.937 42.233,33.796 42.28,33.669 L43.284,30.912 C43.331,30.785 43.472,30.721 43.598,30.766 C43.725,30.812 43.791,30.953 43.744,31.08 L42.74,33.838 C42.703,33.936 42.609,33.998 42.51,33.998 Z" id="Shape" fill="#56666F"></path>
            <path d="M38.383,32.901 C38.369,32.901 38.354,32.9 38.34,32.897 C38.207,32.874 38.117,32.747 38.141,32.613 L38.653,29.715 C38.676,29.581 38.803,29.493 38.936,29.516 C39.069,29.539 39.159,29.666 39.135,29.8 L38.623,32.698 C38.604,32.817 38.498,32.901 38.383,32.901 Z" id="Shape" fill="#56666F"></path>
            <path d="M36.264,32.623 L36.243,32.623 C36.108,32.611 36.009,32.492 36.02,32.357 L36.278,29.423 C36.29,29.288 36.411,29.188 36.542,29.2 C36.677,29.212 36.778,29.33 36.767,29.465 L36.509,32.399 C36.496,32.527 36.391,32.623 36.264,32.623 Z" id="Shape" fill="#56666F"></path>
            <path d="M31.993,32.623 C31.868,32.623 31.761,32.527 31.749,32.399 L31.493,29.465 C31.481,29.33 31.581,29.212 31.716,29.2 C31.849,29.186 31.969,29.287 31.981,29.423 L32.238,32.357 C32.25,32.492 32.15,32.61 32.015,32.623 L31.993,32.623 Z" id="Shape" fill="#56666F"></path>
            <path d="M29.875,32.901 C29.758,32.901 29.655,32.818 29.634,32.698 L29.123,29.8 C29.1,29.667 29.188,29.54 29.321,29.516 C29.455,29.494 29.582,29.581 29.605,29.715 L30.116,32.613 C30.139,32.746 30.051,32.873 29.917,32.897 C29.903,32.899 29.889,32.901 29.875,32.901 Z" id="Shape" fill="#56666F"></path>
            <path d="M25.748,33.998 C25.648,33.998 25.554,33.936 25.518,33.836 L24.514,31.079 C24.468,30.952 24.534,30.811 24.66,30.765 C24.787,30.72 24.928,30.784 24.974,30.911 L25.978,33.668 C26.024,33.795 25.958,33.936 25.832,33.982 C25.804,33.993 25.775,33.998 25.748,33.998 Z" id="Shape" fill="#56666F"></path>
            <path d="M23.775,34.82 C23.683,34.82 23.594,34.767 23.553,34.678 L22.31,32.014 C22.253,31.891 22.306,31.745 22.429,31.688 C22.552,31.63 22.698,31.684 22.755,31.807 L23.997,34.471 C24.054,34.594 24.001,34.739 23.878,34.796 C23.845,34.812 23.81,34.82 23.775,34.82 Z" id="Shape" fill="#56666F"></path>
            <path d="M20.08,36.959 C20.003,36.959 19.927,36.922 19.879,36.855 L18.19,34.443 C18.112,34.333 18.139,34.18 18.251,34.102 C18.361,34.024 18.514,34.051 18.592,34.162 L20.281,36.574 C20.359,36.684 20.331,36.837 20.22,36.915 C20.177,36.945 20.128,36.959 20.08,36.959 Z" id="Shape" fill="#56666F"></path>
            <path d="M18.384,38.259 C18.314,38.259 18.244,38.23 18.196,38.172 L16.304,35.917 C16.217,35.813 16.231,35.659 16.334,35.572 C16.437,35.485 16.592,35.499 16.679,35.602 L18.571,37.857 C18.658,37.961 18.644,38.115 18.541,38.202 C18.495,38.241 18.439,38.259 18.384,38.259 Z" id="Shape" fill="#56666F"></path>
            <path d="M15.364,41.279 C15.309,41.279 15.253,41.26 15.207,41.221 L12.952,39.329 C12.848,39.242 12.835,39.087 12.922,38.984 C13.009,38.88 13.164,38.867 13.267,38.954 L15.522,40.846 C15.626,40.933 15.639,41.087 15.552,41.191 C15.504,41.249 15.435,41.279 15.364,41.279 Z" id="Shape" fill="#56666F"></path>
            <path d="M14.064,42.975 C14.015,42.975 13.966,42.96 13.924,42.931 L11.511,41.242 C11.4,41.164 11.373,41.012 11.451,40.901 C11.529,40.79 11.681,40.764 11.792,40.841 L14.204,42.53 C14.315,42.608 14.342,42.76 14.264,42.871 C14.218,42.938 14.142,42.975 14.064,42.975 Z" id="Shape" fill="#56666F"></path>
            <path d="M11.925,46.67 C11.89,46.67 11.855,46.663 11.822,46.648 L9.158,45.406 C9.035,45.348 8.982,45.203 9.039,45.08 C9.096,44.957 9.242,44.904 9.365,44.962 L12.029,46.204 C12.152,46.262 12.204,46.407 12.147,46.53 C12.105,46.618 12.017,46.67 11.925,46.67 Z" id="Shape" fill="#56666F"></path>
            <path d="M11.103,48.643 C11.075,48.643 11.047,48.638 11.02,48.628 L8.262,47.624 C8.135,47.578 8.069,47.437 8.116,47.311 C8.162,47.183 8.304,47.118 8.43,47.165 L11.188,48.169 C11.315,48.215 11.381,48.356 11.334,48.482 C11.297,48.581 11.203,48.643 11.103,48.643 Z" id="Shape" fill="#56666F"></path>
            <path d="M9.729,54.889 C9.722,54.889 9.715,54.889 9.708,54.888 L6.774,54.631 C6.639,54.619 6.539,54.501 6.551,54.366 C6.562,54.23 6.681,54.13 6.816,54.142 L9.75,54.399 C9.885,54.411 9.985,54.53 9.973,54.665 C9.961,54.793 9.854,54.889 9.729,54.889 Z" id="Shape" fill="#56666F"></path>
            <path d="M10.006,52.771 C9.992,52.771 9.977,52.769 9.963,52.767 L7.065,52.256 C6.932,52.232 6.843,52.105 6.866,51.972 C6.889,51.838 7.017,51.752 7.15,51.773 L10.048,52.285 C10.181,52.308 10.27,52.435 10.247,52.568 C10.226,52.687 10.123,52.771 10.006,52.771 Z" id="Shape" fill="#56666F"></path>
            <path d="M6.794,59.415 C6.669,59.415 6.561,59.319 6.55,59.191 C6.538,59.056 6.638,58.937 6.773,58.925 L9.707,58.669 C9.839,58.655 9.96,58.757 9.972,58.892 C9.984,59.027 9.884,59.145 9.749,59.158 L6.815,59.414 C6.809,59.415 6.802,59.415 6.794,59.415 Z" id="Shape" fill="#56666F"></path>
            <path d="M7.107,61.788 C6.99,61.788 6.887,61.705 6.866,61.586 C6.843,61.452 6.931,61.325 7.065,61.302 L9.963,60.791 C10.096,60.77 10.223,60.856 10.247,60.989 C10.27,61.123 10.182,61.25 10.048,61.273 L7.15,61.784 C7.135,61.787 7.121,61.788 7.107,61.788 Z" id="Shape" fill="#56666F"></path>
            <path d="M8.345,66.408 C8.245,66.408 8.151,66.346 8.115,66.247 C8.069,66.12 8.134,65.979 8.261,65.933 L11.019,64.93 C11.146,64.884 11.287,64.949 11.333,65.076 C11.379,65.203 11.314,65.344 11.187,65.389 L8.429,66.393 C8.401,66.403 8.373,66.408 8.345,66.408 Z" id="Shape" fill="#56666F"></path>
            <path d="M9.261,68.62 C9.169,68.62 9.08,68.567 9.039,68.478 C8.982,68.355 9.035,68.209 9.158,68.152 L11.822,66.91 C11.945,66.852 12.09,66.906 12.147,67.028 C12.204,67.151 12.151,67.297 12.029,67.354 L9.365,68.596 C9.331,68.612 9.296,68.62 9.261,68.62 Z" id="Shape" fill="#56666F"></path>
            <path d="M11.652,72.762 C11.575,72.762 11.499,72.726 11.451,72.658 C11.373,72.548 11.4,72.394 11.511,72.317 L13.924,70.628 C14.034,70.551 14.188,70.577 14.265,70.689 C14.343,70.799 14.316,70.953 14.205,71.03 L11.793,72.719 C11.75,72.747 11.701,72.762 11.652,72.762 Z" id="Shape" fill="#56666F"></path>
            <path d="M13.11,74.661 C13.04,74.661 12.971,74.631 12.922,74.573 C12.835,74.469 12.849,74.315 12.952,74.227 L15.207,72.335 C15.311,72.248 15.465,72.262 15.552,72.365 C15.639,72.468 15.626,72.623 15.522,72.71 L13.267,74.603 C13.221,74.642 13.166,74.661 13.11,74.661 Z" id="Shape" fill="#56666F"></path>
            <path d="M16.492,78.043 C16.436,78.043 16.381,78.023 16.335,77.985 C16.231,77.898 16.218,77.744 16.305,77.64 L18.197,75.385 C18.284,75.281 18.439,75.267 18.542,75.355 C18.646,75.442 18.659,75.596 18.572,75.7 L16.68,77.955 C16.631,78.013 16.562,78.043 16.492,78.043 Z" id="Shape" fill="#56666F"></path>
            <path d="M18.391,79.5 C18.342,79.5 18.293,79.485 18.25,79.455 C18.139,79.378 18.112,79.225 18.19,79.114 L19.879,76.702 C19.957,76.592 20.109,76.564 20.22,76.642 C20.33,76.719 20.358,76.872 20.28,76.983 L18.591,79.394 C18.543,79.463 18.468,79.5 18.391,79.5 Z" id="Shape" fill="#56666F"></path>
            <path d="M22.533,81.891 C22.498,81.891 22.463,81.884 22.429,81.869 C22.306,81.811 22.253,81.666 22.31,81.543 L23.553,78.88 C23.61,78.757 23.756,78.704 23.878,78.761 C24.001,78.819 24.054,78.965 23.997,79.087 L22.755,81.751 C22.713,81.839 22.625,81.891 22.533,81.891 Z" id="Shape" fill="#56666F"></path>
            <path d="M24.744,82.808 C24.716,82.808 24.688,82.803 24.66,82.793 C24.533,82.746 24.467,82.605 24.514,82.479 L25.518,79.721 C25.564,79.594 25.706,79.529 25.832,79.575 C25.959,79.622 26.025,79.763 25.978,79.889 L24.974,82.646 C24.938,82.745 24.844,82.808 24.744,82.808 Z" id="Shape" fill="#56666F"></path>
            <path d="M29.364,84.045 C29.35,84.045 29.336,84.044 29.321,84.041 C29.188,84.018 29.099,83.891 29.123,83.758 L29.634,80.859 C29.657,80.726 29.785,80.638 29.918,80.661 C30.051,80.684 30.14,80.811 30.117,80.944 L29.606,83.843 C29.584,83.961 29.481,84.045 29.364,84.045 Z" id="Shape" fill="#56666F"></path>
            <path d="M31.737,84.357 C31.73,84.357 31.723,84.357 31.716,84.356 C31.581,84.344 31.481,84.225 31.493,84.09 L31.749,81.156 C31.761,81.021 31.881,80.921 32.015,80.933 C32.15,80.945 32.249,81.064 32.238,81.199 L31.981,84.133 C31.97,84.262 31.863,84.357 31.737,84.357 Z" id="Shape" fill="#56666F"></path>
            <path d="M36.52,84.357 C36.395,84.357 36.288,84.261 36.276,84.133 L36.02,81.2 C36.008,81.065 36.108,80.946 36.243,80.934 C36.374,80.919 36.497,81.022 36.509,81.157 L36.765,84.091 C36.777,84.226 36.677,84.345 36.542,84.357 L36.52,84.357 Z" id="Shape" fill="#56666F"></path>
            <path d="M38.893,84.045 C38.778,84.045 38.674,83.961 38.653,83.843 L38.141,80.944 C38.118,80.811 38.207,80.684 38.34,80.661 C38.475,80.64 38.6,80.726 38.623,80.859 L39.135,83.758 C39.158,83.891 39.069,84.018 38.936,84.041 C38.922,84.044 38.906,84.045 38.893,84.045 Z" id="Shape" fill="#56666F"></path>
            <path d="M43.514,82.808 C43.414,82.808 43.319,82.746 43.284,82.646 L42.28,79.889 C42.233,79.762 42.3,79.621 42.426,79.575 C42.555,79.529 42.694,79.595 42.74,79.721 L43.744,82.479 C43.789,82.606 43.724,82.747 43.598,82.793 C43.568,82.803 43.541,82.808 43.514,82.808 Z" id="Shape" fill="#56666F"></path>
            <path d="M45.725,81.891 C45.633,81.891 45.543,81.839 45.502,81.75 L44.26,79.086 C44.203,78.963 44.256,78.817 44.379,78.76 C44.502,78.703 44.647,78.756 44.705,78.879 L45.947,81.542 C46.004,81.665 45.951,81.811 45.828,81.868 C45.795,81.884 45.76,81.891 45.725,81.891 Z" id="Shape" fill="#56666F"></path>
            <path d="M49.867,79.5 C49.789,79.5 49.713,79.463 49.666,79.395 L47.977,76.984 C47.901,76.874 47.926,76.721 48.038,76.643 C48.15,76.565 48.302,76.592 48.38,76.704 L50.068,79.115 C50.146,79.225 50.121,79.378 50.009,79.456 C49.965,79.485 49.916,79.5 49.867,79.5 Z" id="Shape" fill="#56666F"></path>
            <path d="M51.766,78.043 C51.696,78.043 51.627,78.013 51.578,77.955 L49.686,75.7 C49.6,75.596 49.614,75.442 49.717,75.355 C49.82,75.268 49.975,75.281 50.063,75.385 L51.954,77.64 C52.042,77.744 52.028,77.898 51.925,77.985 C51.877,78.023 51.822,78.043 51.766,78.043 Z" id="Shape" fill="#56666F"></path>
            <path d="M55.146,74.661 C55.091,74.661 55.035,74.641 54.99,74.603 L52.736,72.711 C52.632,72.624 52.617,72.47 52.705,72.366 C52.793,72.262 52.947,72.249 53.051,72.335 L55.305,74.227 C55.409,74.315 55.422,74.469 55.336,74.573 C55.287,74.631 55.217,74.661 55.146,74.661 Z" id="Shape" fill="#56666F"></path>
            <path d="M56.605,72.762 C56.556,72.762 56.507,72.747 56.464,72.718 L54.052,71.029 C53.941,70.952 53.915,70.8 53.991,70.688 C54.069,70.578 54.221,70.55 54.333,70.628 L56.745,72.316 C56.856,72.393 56.882,72.546 56.806,72.657 C56.758,72.726 56.682,72.762 56.605,72.762 Z" id="Shape" fill="#56666F"></path>
            <path d="M58.996,68.62 C58.961,68.62 58.926,68.612 58.892,68.597 L56.228,67.355 C56.105,67.297 56.052,67.152 56.109,67.03 C56.168,66.907 56.312,66.855 56.435,66.911 L59.099,68.153 C59.222,68.211 59.275,68.356 59.218,68.479 C59.176,68.567 59.088,68.62 58.996,68.62 Z" id="Shape" fill="#56666F"></path>
            <path d="M59.912,66.408 C59.885,66.408 59.855,66.403 59.828,66.393 L57.072,65.39 C56.945,65.343 56.879,65.202 56.926,65.076 C56.971,64.949 57.112,64.883 57.238,64.93 L59.996,65.933 C60.123,65.98 60.189,66.121 60.142,66.247 C60.105,66.347 60.012,66.408 59.912,66.408 Z" id="Shape" fill="#56666F"></path>
            <path d="M61.15,61.788 C61.136,61.788 61.121,61.787 61.107,61.784 L58.209,61.273 C58.076,61.25 57.988,61.123 58.01,60.989 C58.033,60.856 58.16,60.768 58.295,60.791 L61.193,61.302 C61.326,61.325 61.414,61.452 61.39,61.586 C61.371,61.705 61.268,61.788 61.15,61.788 Z" id="Shape" fill="#56666F"></path>
            <path d="M61.463,59.415 C61.455,59.415 61.449,59.415 61.442,59.414 L58.508,59.158 C58.373,59.145 58.274,59.027 58.285,58.892 C58.296,58.757 58.418,58.658 58.551,58.669 L61.485,58.925 C61.62,58.937 61.719,59.056 61.708,59.191 C61.695,59.319 61.588,59.415 61.463,59.415 Z" id="Shape" fill="#56666F"></path>
            <path d="M58.893,34.562 L60.329,33.126 L61.716,34.512 L65.872,30.355 L60.329,24.812 L56.173,28.97 L57.558,30.356 L56.122,31.792 C50.835,27.09 44.05,24.04 36.579,23.465 L36.579,21.604 L38.05,21.604 L38.05,20.31 C41.923,18.751 44.663,14.958 44.663,10.535 C44.662,4.726 39.938,0 34.128,0 C28.32,0 23.594,4.726 23.594,10.535 C23.594,14.959 26.336,18.752 30.209,20.31 L30.209,21.602 L31.679,21.602 L31.679,23.446 C24.108,23.97 17.226,27.033 11.88,31.789 L10.444,30.353 L11.83,28.967 L7.672,24.809 L2.129,30.352 L6.287,34.509 L7.673,33.123 L9.109,34.559 C3.87,40.45 0.683,48.2 0.683,56.683 C0.683,75.054 15.629,90 34,90 C52.371,90 67.318,75.054 67.318,56.683 C67.318,48.2 64.131,40.45 58.893,34.562 Z M30.209,14.109 L30.209,18.707 C27.168,17.243 25.064,14.129 25.064,10.535 C25.064,5.537 29.13,1.471 34.128,1.471 C39.127,1.471 43.193,5.537 43.193,10.535 C43.193,14.13 41.089,17.243 38.048,18.707 L38.048,14.109 L40.007,14.109 L40.007,10.189 L28.249,10.189 L28.249,14.109 L30.209,14.109 Z M34,86.08 C17.764,86.08 4.602,72.919 4.602,56.683 C4.602,40.446 17.764,27.285 34,27.285 C50.236,27.285 63.398,40.447 63.398,56.683 C63.398,72.919 50.236,86.08 34,86.08 Z" id="Shape" fill="#56666F"></path>
            <path d="M55.189,52.697 L36.849,55.93 C36.847,55.931 36.843,55.934 36.839,55.934 C36.507,54.675 35.362,53.742 33.999,53.742 C32.378,53.742 31.06,55.061 31.06,56.682 C31.06,56.691 31.061,56.699 31.061,56.706 C31.048,56.707 31.035,56.707 31.022,56.709 L26.194,57.561 C25.927,57.608 25.75,57.862 25.797,58.128 C25.839,58.365 26.046,58.533 26.279,58.533 C26.307,58.533 26.336,58.53 26.364,58.525 L31.192,57.673 C31.206,57.671 31.218,57.665 31.232,57.662 C31.637,58.801 32.723,59.62 34,59.62 C35.621,59.62 36.939,58.302 36.939,56.681 C36.939,56.59 36.935,56.501 36.925,56.412 L36.935,56.412 L55.273,53.179 C55.408,53.155 55.496,53.028 55.472,52.895 C55.449,52.763 55.322,52.676 55.189,52.697 Z M34,58.643 C32.919,58.643 32.04,57.763 32.04,56.683 C32.04,55.602 32.919,54.723 34,54.723 C35.082,54.723 35.961,55.602 35.961,56.683 C35.961,57.763 35.082,58.643 34,58.643 Z" id="Shape" fill="#4FEFA2"></path>
            <path d="M34,60.458 C29.407,60.458 25.67,64.194 25.67,68.787 C25.67,73.38 29.406,77.117 34,77.117 C38.594,77.117 42.33,73.38 42.33,68.787 C42.33,64.194 38.594,60.458 34,60.458 Z M34.246,76.621 L34.246,74.667 C34.246,74.532 34.137,74.422 34.001,74.422 C33.865,74.422 33.756,74.532 33.756,74.667 L33.756,76.621 C29.622,76.494 26.295,73.167 26.168,69.032 L28.122,69.032 C28.257,69.032 28.367,68.923 28.367,68.787 C28.367,68.651 28.257,68.542 28.122,68.542 L26.168,68.542 C26.295,64.408 29.622,61.081 33.756,60.954 L33.756,62.907 C33.756,63.043 33.865,63.152 34.001,63.152 C34.137,63.152 34.246,63.043 34.246,62.907 L34.246,60.954 C38.379,61.081 41.707,64.408 41.834,68.542 L39.879,68.542 C39.744,68.542 39.635,68.651 39.635,68.787 C39.635,68.923 39.744,69.032 39.879,69.032 L41.834,69.032 C41.707,73.167 38.379,76.494 34.246,76.621 Z" id="Shape" fill="#56666F"></path>
            <path d="M37.639,65.149 C37.543,65.053 37.387,65.053 37.291,65.149 L34.316,68.126 C34.219,68.08 34.114,68.052 34.001,68.052 C33.596,68.052 33.266,68.382 33.266,68.787 C33.266,69.192 33.596,69.522 34.001,69.522 C34.406,69.522 34.737,69.192 34.737,68.787 C34.737,68.674 34.708,68.568 34.663,68.473 L37.64,65.496 C37.734,65.4 37.734,65.245 37.639,65.149 Z M34,69.032 C33.865,69.032 33.755,68.922 33.755,68.787 C33.755,68.652 33.865,68.542 34,68.542 C34.135,68.542 34.245,68.652 34.245,68.787 C34.245,68.922 34.135,69.032 34,69.032 Z" id="Shape" fill="#56666F"></path>
            <path d="M34.246,43.718 L34.246,38.528 C34.246,38.392 34.136,38.283 34,38.283 C33.864,38.283 33.755,38.392 33.755,38.528 L33.755,43.718 C33.47,43.82 33.265,44.089 33.265,44.407 C33.265,44.813 33.595,45.142 34,45.142 C34.404,45.142 34.734,44.812 34.734,44.407 C34.734,44.089 34.529,43.819 34.246,43.718 Z M34,44.652 C33.865,44.652 33.755,44.542 33.755,44.407 C33.755,44.272 33.865,44.162 34,44.162 C34.135,44.162 34.245,44.272 34.245,44.407 C34.246,44.542 34.135,44.652 34,44.652 Z" id="Shape" fill="#56666F"></path>
            <path d="M34,36.078 C29.407,36.078 25.67,39.815 25.67,44.408 C25.67,49.001 29.406,52.738 34,52.738 C38.594,52.738 42.33,49.001 42.33,44.408 C42.33,39.815 38.594,36.078 34,36.078 Z M38.131,51.07 L37.643,50.225 C37.575,50.107 37.424,50.068 37.307,50.135 C37.192,50.202 37.151,50.353 37.219,50.47 L37.707,51.316 C36.67,51.873 35.494,52.202 34.246,52.241 L34.246,51.266 C34.246,51.131 34.137,51.021 34.001,51.021 C33.865,51.021 33.756,51.131 33.756,51.266 L33.756,52.241 C32.506,52.202 31.331,51.873 30.295,51.316 L30.783,50.47 C30.851,50.353 30.811,50.202 30.694,50.135 C30.577,50.068 30.427,50.107 30.359,50.225 L29.871,51.07 C28.844,50.432 27.975,49.564 27.338,48.537 L28.183,48.05 C28.3,47.982 28.341,47.832 28.273,47.715 C28.205,47.598 28.056,47.558 27.938,47.625 L27.092,48.113 C26.535,47.077 26.206,45.901 26.168,44.652 L27.142,44.652 C27.277,44.652 27.387,44.543 27.387,44.407 C27.387,44.271 27.277,44.162 27.142,44.162 L26.168,44.162 C26.206,42.912 26.535,41.737 27.092,40.701 L27.938,41.189 C27.977,41.211 28.019,41.222 28.061,41.222 C28.145,41.222 28.228,41.178 28.273,41.099 C28.341,40.982 28.3,40.832 28.183,40.764 L27.338,40.276 C27.976,39.249 28.844,38.381 29.871,37.743 L30.359,38.588 C30.404,38.667 30.487,38.711 30.571,38.711 C30.613,38.711 30.654,38.7 30.694,38.678 C30.811,38.611 30.851,38.461 30.783,38.344 L30.294,37.498 C31.33,36.941 32.506,36.612 33.755,36.574 L33.755,37.548 C33.755,37.683 33.864,37.793 34,37.793 C34.136,37.793 34.245,37.683 34.245,37.548 L34.245,36.574 C35.494,36.613 36.669,36.941 37.706,37.498 L37.218,38.344 C37.15,38.461 37.191,38.611 37.306,38.678 C37.345,38.7 37.388,38.711 37.429,38.711 C37.513,38.711 37.597,38.667 37.642,38.588 L38.13,37.743 C39.157,38.381 40.025,39.249 40.663,40.276 L39.817,40.764 C39.7,40.832 39.659,40.982 39.727,41.099 C39.772,41.178 39.856,41.222 39.94,41.222 C39.981,41.222 40.024,41.211 40.061,41.189 L40.909,40.701 C41.466,41.737 41.794,42.912 41.833,44.162 L40.858,44.162 C40.723,44.162 40.614,44.271 40.614,44.407 C40.614,44.542 40.723,44.652 40.858,44.652 L41.833,44.652 C41.794,45.902 41.466,47.077 40.909,48.113 L40.061,47.625 C39.946,47.558 39.795,47.598 39.727,47.715 C39.659,47.832 39.7,47.982 39.817,48.05 L40.661,48.537 C40.025,49.564 39.156,50.433 38.131,51.07 Z" id="Shape" fill="#56666F"></path>
        </g>
    </g>
</svg>