<?xml version="1.0" encoding="UTF-8"?>
<svg width="48px" height="82px" viewBox="0 0 48 82" version="1.1" xmlns="http://www.w3.org/2000/svg" xmlns:xlink="http://www.w3.org/1999/xlink">
    <!-- Generator: Sketch 42 (36781) - http://www.bohemiancoding.com/sketch -->
    <title>noun_110445_cc</title>
    <desc>Created with Sketch.</desc>
    <defs></defs>
    <g id="Page-1" stroke="none" stroke-width="1" fill="none" fill-rule="evenodd">
        <g id="noun_110445_cc" fill-rule="nonzero" fill="#000000">
            <g id="Group">
                <path d="M44.9621723,53.214 C44.9291723,50.091 42.5861723,47.561 39.7121723,47.561 C39.0941723,47.561 38.5101723,47.699 37.9591723,47.914 C37.8611723,45.143 35.5611723,42.914 32.7281723,42.914 C31.8501723,42.914 31.0341723,43.148 30.3061723,43.526 C29.4071723,41.944 27.7101723,40.86 25.7441723,40.86 C25.1331723,40.86 24.5561723,40.984 24.0101723,41.173 L24.0101723,33.178 C24.0101723,30.323 21.6561723,28 18.7601723,28 C15.8651723,28 13.5101723,30.323 13.5101723,33.178 L13.5101723,54.51 C10.5181723,54.651 8.16317232,56.334 7.49617232,59.048 C6.61817232,62.615 6.90617232,66.643 8.35417232,71.016 C9.44217232,74.307 11.9731723,77.616 16.0921723,81.13 C16.4231723,81.412 16.8291723,81.551 17.2321723,81.551 C17.7291723,81.551 18.2231723,81.342 18.5701723,80.934 C19.2011723,80.196 19.1121723,79.086 18.3751723,78.457 C14.8101723,75.413 12.5611723,72.539 11.6901723,69.912 C10.4371723,66.124 10.1821723,62.844 10.9101723,59.888 C11.2071723,58.68 12.2901723,58.124 13.5101723,58.02 L13.5101723,61.174 C13.5101723,62.145 14.2981723,62.932 15.2681723,62.932 C16.2391723,62.932 17.0261723,62.145 17.0261723,61.174 L17.0261723,33.178 C17.0261723,32.261 17.8041723,31.515 18.7601723,31.515 C19.7171723,31.515 20.4951723,32.261 20.4951723,33.178 L20.4951723,53.063 C20.4951723,54.034 21.2821723,54.821 22.2521723,54.821 C23.2231723,54.821 24.0101723,54.034 24.0101723,53.063 L24.0101723,46.039 C24.0101723,45.121 24.7881723,44.375 25.7441723,44.375 C26.7001723,44.375 27.4781723,45.121 27.4781723,46.039 L27.4781723,48.092 L27.4781723,53.064 L27.4781723,54.024 C27.4781723,54.994 28.2651723,55.781 29.2361723,55.781 C30.2061723,55.781 30.9931723,54.994 30.9931723,54.024 L30.9931723,53.064 L30.9931723,48.092 C30.9931723,47.175 31.7711723,46.429 32.7271723,46.429 C33.6831723,46.429 34.4611723,47.175 34.4611723,48.092 L34.4611723,55.61 C34.4611723,56.581 35.2481723,57.368 36.2191723,57.368 C37.1891723,57.368 37.9761723,56.581 37.9761723,55.61 L37.9761723,53.282 C37.9761723,52.086 38.7711723,51.077 39.7111723,51.077 C40.6511723,51.077 41.4451723,52.086 41.4451723,53.282 C41.4451723,53.325 41.4461723,53.368 41.4501723,53.411 C41.4621723,53.561 42.4961723,68.488 37.6591723,79.062 C37.2551723,79.945 37.6441723,80.988 38.5261723,81.391 C38.7631723,81.499 39.0111723,81.55 39.2561723,81.55 C39.9231723,81.55 40.5601723,81.169 40.8561723,80.524 C45.9551723,69.382 45.0481723,54.456 44.9621723,53.214 Z" id="Shape"></path>
                <path d="M47.618,6.862 C47.633,6.827 47.639,6.79 47.651,6.754 C47.676,6.682 47.703,6.61 47.718,6.534 C47.74,6.421 47.753,6.305 47.753,6.187 C47.753,6.069 47.74,5.953 47.718,5.839 C47.703,5.77 47.679,5.705 47.657,5.639 C47.642,5.596 47.634,5.552 47.617,5.51 C47.586,5.437 47.545,5.37 47.506,5.302 C47.487,5.271 47.475,5.238 47.455,5.209 C47.391,5.114 47.318,5.025 47.237,4.944 L43.329,1.038 C42.642,0.351 41.53,0.351 40.844,1.038 C40.158,1.725 40.157,2.838 40.844,3.523 L41.75,4.429 L5.767,4.429 C4.797,4.429 4.01,5.216 4.01,6.186 C4.01,7.157 4.797,7.944 5.767,7.944 L41.753,7.944 L40.845,8.853 C40.158,9.54 40.158,10.652 40.845,11.338 C41.188,11.681 41.638,11.853 42.087,11.853 C42.537,11.853 42.986,11.682 43.33,11.338 L47.238,7.429 C47.319,7.348 47.391,7.26 47.456,7.164 C47.474,7.138 47.484,7.109 47.501,7.082 C47.543,7.011 47.586,6.939 47.618,6.862 Z" id="Shape"></path>
                <path d="M42.087,14.863 L6.102,14.863 L7.01,13.954 C7.697,13.267 7.697,12.155 7.01,11.469 C6.323,10.783 5.211,10.782 4.525,11.469 L0.616,15.378 C0.536,15.459 0.463,15.548 0.399,15.643 C0.38,15.67 0.369,15.7 0.352,15.728 C0.311,15.798 0.268,15.869 0.237,15.945 C0.221,15.981 0.215,16.019 0.203,16.056 C0.178,16.127 0.151,16.198 0.137,16.273 C0.114,16.387 0.102,16.503 0.102,16.621 C0.102,16.739 0.114,16.855 0.137,16.969 C0.151,17.036 0.175,17.098 0.196,17.162 C0.211,17.207 0.22,17.253 0.238,17.297 C0.267,17.367 0.306,17.431 0.344,17.496 C0.364,17.53 0.378,17.566 0.4,17.599 C0.463,17.694 0.537,17.783 0.617,17.863 L4.526,21.77 C4.869,22.113 5.319,22.285 5.768,22.285 C6.218,22.285 6.667,22.114 7.011,21.77 C7.698,21.083 7.698,19.97 7.011,19.285 L6.104,18.378 L42.088,18.378 C43.059,18.378 43.846,17.591 43.846,16.621 C43.846,15.651 43.058,14.863 42.087,14.863 Z" id="Shape"></path>
            </g>
        </g>
    </g>
</svg>