<?xml version="1.0" encoding="UTF-8"?>
<svg width="86px" height="85px" viewBox="0 0 86 85" version="1.1" xmlns="http://www.w3.org/2000/svg" xmlns:xlink="http://www.w3.org/1999/xlink">
    <!-- Generator: Sketch 42 (36781) - http://www.bohemiancoding.com/sketch -->
    <title>noun_728474_cc</title>
    <desc>Created with Sketch.</desc>
    <defs></defs>
    <g id="Page-1" stroke="none" stroke-width="1" fill="none" fill-rule="evenodd">
        <g id="noun_728474_cc" fill-rule="nonzero">
            <g id="Group" transform="translate(0.335021, 0.000000)">
                <path d="M0,0 L0,13.6345763 L0,16.3648211 L0,84.5709981 L85.0954422,84.5709981 L85.0954422,16.3648211 L85.0954422,13.6345763 L85.0954422,0 L0,0 Z M82.3482665,70.9364218 L64.5083755,70.9364218 L64.5083755,73.6666667 L82.3482665,73.6666667 L82.3482665,81.8574011 L2.74717569,81.8574011 L2.74717569,27.2858004 L41.1741332,27.2858004 L41.1741332,24.5555556 L2.74717569,24.5555556 L2.74717569,16.3648211 L82.3482665,16.3648211 L82.3482665,70.9364218 L82.3482665,70.9364218 Z M2.74717569,13.6345763 L2.74717569,2.73024482 L82.3482665,2.73024482 L82.3482665,13.6345763 L2.74717569,13.6345763 Z" id="Shape" fill="#56666F"></path>
                <rect id="Rectangle-path" fill="#4FEFA2" x="6.86793923" y="6.82561205" width="2.74717569" height="2.73024482"></rect>
                <rect id="Rectangle-path" fill="#4FEFA2" x="12.3455395" y="6.82561205" width="2.74717569" height="2.73024482"></rect>
                <rect id="Rectangle-path" fill="#4FEFA2" x="17.8398909" y="6.82561205" width="2.74717569" height="2.73024482"></rect>
                <rect id="Rectangle-path" fill="#4FEFA2" x="32.9326062" y="6.82561205" width="45.2948968" height="2.73024482"></rect>
                <path d="M10.9719517,38.1901318 L10.9719517,60.0154426 C10.9719517,62.279548 12.8145695,64.1108098 15.0927152,64.1108098 L61.7611998,64.1108098 C64.0393455,64.1108098 65.8819634,62.279548 65.8819634,60.0154426 L65.8819634,58.6503202 L71.3763148,58.6503202 C72.8839112,58.6503202 74.1234905,57.4350282 74.1234905,55.9200753 L74.1234905,42.2854991 C74.1234905,40.787194 72.8839112,39.5552542 71.3763148,39.5552542 L65.8819634,39.5552542 L65.8819634,38.1901318 C65.8819634,35.9260264 64.0393455,34.0947646 61.7611998,34.0947646 L15.0927152,34.0947646 C12.8313206,34.0947646 10.9719517,35.9426742 10.9719517,38.1901318 Z M71.3763148,42.2854991 L71.3763148,55.9200753 L65.8819634,55.9200753 L65.8819634,42.2854991 L71.3763148,42.2854991 Z M63.1347877,38.1901318 L63.1347877,39.5552542 L63.1347877,58.6503202 L63.1347877,60.0154426 C63.1347877,60.7645951 62.5149981,61.380565 61.7611998,61.380565 L15.0927152,61.380565 C14.338917,61.380565 13.7191274,60.7645951 13.7191274,60.0154426 L13.7191274,38.1901318 C13.7191274,37.4409793 14.338917,36.8250094 15.0927152,36.8250094 L61.7611998,36.8250094 C62.5149981,36.8250094 63.1347877,37.4409793 63.1347877,38.1901318 Z" id="Shape" fill="#56666F"></path>
                <path d="M30.2021815,58.6503202 L37.0701208,58.6503202 L39.8172965,58.6503202 L46.6852357,58.6503202 L49.4156603,58.6503202 L60.387612,58.6503202 L60.387612,39.5552542 L49.4156603,39.5552542 L46.6684846,39.5552542 L39.8005454,39.5552542 L37.0533697,39.5552542 L30.1854305,39.5552542 L27.4382548,39.5552542 L16.4663031,39.5552542 L16.4663031,58.6503202 L27.4382548,58.6503202 L30.2021815,58.6503202 Z M57.6404363,42.2854991 L57.6404363,55.9200753 L49.4156603,55.9200753 L49.4156603,42.2854991 L57.6404363,42.2854991 Z M46.6684846,42.2854991 L46.6684846,55.9200753 L39.8005454,55.9200753 L39.8005454,42.2854991 L46.6684846,42.2854991 Z M37.0533697,42.2854991 L37.0533697,55.9200753 L30.1854305,55.9200753 L30.1854305,42.2854991 L37.0533697,42.2854991 Z M19.2134788,55.9200753 L19.2134788,42.2854991 L27.4550058,42.2854991 L27.4550058,55.9200753 L19.2134788,55.9200753 Z" id="Shape" fill="#56666F"></path>
                <rect id="Rectangle-path" fill="#4FEFA2" x="48.0420725" y="70.9364218" width="10.9719517" height="2.73024482"></rect>
                <rect id="Rectangle-path" fill="#4FEFA2" x="45.2948968" y="24.5555556" width="8.24152707" height="2.73024482"></rect>
            </g>
        </g>
    </g>
</svg>