<?xml version="1.0" encoding="UTF-8"?>
<svg width="55px" height="60px" viewBox="0 0 55 60" version="1.1" xmlns="http://www.w3.org/2000/svg" xmlns:xlink="http://www.w3.org/1999/xlink">
    <!-- Generator: Sketch 42 (36781) - http://www.bohemiancoding.com/sketch -->
    <title>noun_569031_cc</title>
    <desc>Created with Sketch.</desc>
    <defs></defs>
    <g id="Page-1" stroke="none" stroke-width="1" fill="none" fill-rule="evenodd">
        <g id="noun_569031_cc" fill-rule="nonzero">
            <g id="Group">
                <g id="Shape">
                    <g>
                        <path d="M41.0001,36 C36.0371,36 32.0001,40.037 32.0001,45 C32.0001,49.963 36.0371,54 41.0001,54 C45.9631,54 50.0001,49.963 50.0001,45 C50.0001,40.037 45.9631,36 41.0001,36 M41.0001,56 C34.9351,56 30.0001,51.065 30.0001,45 C30.0001,38.935 34.9351,34 41.0001,34 C47.0651,34 52.0001,38.935 52.0001,45 C52.0001,51.065 47.0651,56 41.0001,56" fill="#56666F"></path>
                        <path d="M54.0001,60 C53.7351,60 53.4721,59.896 53.2751,59.688 L47.4281,53.536 C47.0471,53.137 47.0631,52.503 47.4641,52.123 C47.8631,51.741 48.4971,51.759 48.8771,52.159 L54.7251,58.312 C55.1051,58.711 55.0891,59.345 54.6881,59.725 C54.4951,59.909 54.2481,60 54.0001,60" fill="#56666F"></path>
                        <path d="M15.9435,21 L34.0565,21 L30.8765,16.546 C30.6315,16.204 30.2345,16 29.8135,16 L20.1865,16 C19.7655,16 19.3685,16.204 19.1245,16.546 L15.9435,21 Z M36.0005,23 L14.0005,23 C13.6255,23 13.2825,22.791 13.1115,22.458 C12.9395,22.125 12.9685,21.724 13.1865,21.419 L17.4975,15.384 C18.1165,14.518 19.1215,14 20.1865,14 L29.8135,14 C30.8795,14 31.8835,14.518 32.5035,15.384 L36.8135,21.419 C37.0315,21.724 37.0605,22.125 36.8885,22.458 C36.7175,22.791 36.3755,23 36.0005,23 L36.0005,23 Z" fill="#56666F"></path>
                        <path d="M17.0001,27 C15.8971,27 15.0001,27.897 15.0001,29 C15.0001,30.103 15.8971,31 17.0001,31 C18.1031,31 19.0001,30.103 19.0001,29 C19.0001,27.897 18.1031,27 17.0001,27 M17.0001,33 C14.7941,33 13.0001,31.206 13.0001,29 C13.0001,26.794 14.7941,25 17.0001,25 C19.2061,25 21.0001,26.794 21.0001,29 C21.0001,31.206 19.2061,33 17.0001,33" fill="#56666F"></path>
                        <path d="M33.0001,27 C31.8971,27 31.0001,27.897 31.0001,29 C31.0001,30.103 31.8971,31 33.0001,31 C34.1031,31 35.0001,30.103 35.0001,29 C35.0001,27.897 34.1031,27 33.0001,27 M33.0001,33 C30.7941,33 29.0001,31.206 29.0001,29 C29.0001,26.794 30.7941,25 33.0001,25 C35.2061,25 37.0001,26.794 37.0001,29 C37.0001,31.206 35.2061,33 33.0001,33" fill="#56666F"></path>
                        <path d="M36.8732,28 L38.4382,28 C38.7482,28 39.0002,27.748 39.0002,27.438 L39.0002,23.562 C39.0002,23.252 38.7482,23 38.4382,23 L11.5612,23 C11.2522,23 11.0002,23.252 11.0002,23.562 L11.0002,27.438 C11.0002,27.748 11.2522,28 11.5612,28 L13.1272,28 C13.5712,26.276 15.1402,25 17.0002,25 C18.8602,25 20.4292,26.276 20.8732,28 L29.1272,28 C29.5712,26.276 31.1402,25 33.0002,25 C34.8602,25 36.4292,26.276 36.8732,28 M38.4382,30 L36.0002,30 C35.4472,30 35.0002,29.553 35.0002,29 C35.0002,27.897 34.1022,27 33.0002,27 C31.8972,27 31.0002,27.897 31.0002,29 C31.0002,29.553 30.5532,30 30.0002,30 L20.0002,30 C19.4472,30 19.0002,29.553 19.0002,29 C19.0002,27.897 18.1022,27 17.0002,27 C15.8972,27 15.0002,27.897 15.0002,29 C15.0002,29.553 14.5532,30 14.0002,30 L11.5612,30 C10.1492,30 9.0002,28.851 9.0002,27.438 L9.0002,23.562 C9.0002,22.149 10.1492,21 11.5612,21 L38.4382,21 C39.8512,21 41.0002,22.149 41.0002,23.562 L41.0002,27.438 C41.0002,28.851 39.8512,30 38.4382,30" fill="#56666F"></path>
                        <path d="M25.0001,40 L10.0001,40 C9.4471,40 9.0001,39.553 9.0001,39 C9.0001,38.447 9.4471,38 10.0001,38 L25.0001,38 C25.5531,38 26.0001,38.447 26.0001,39 C26.0001,39.553 25.5531,40 25.0001,40" fill="#4FEFA2"></path>
                        <path d="M25.0001,45 L10.0001,45 C9.4471,45 9.0001,44.553 9.0001,44 C9.0001,43.447 9.4471,43 10.0001,43 L25.0001,43 C25.5531,43 26.0001,43.447 26.0001,44 C26.0001,44.553 25.5531,45 25.0001,45" fill="#4FEFA2"></path>
                        <path d="M25.0001,50 L10.0001,50 C9.4471,50 9.0001,49.553 9.0001,49 C9.0001,48.447 9.4471,48 10.0001,48 L25.0001,48 C25.5531,48 26.0001,48.447 26.0001,49 C26.0001,49.553 25.5531,50 25.0001,50" fill="#4FEFA2"></path>
                        <path d="M25.0001,23 C24.4471,23 24.0001,22.553 24.0001,22 L24.0001,15 C24.0001,14.447 24.4471,14 25.0001,14 C25.5531,14 26.0001,14.447 26.0001,15 L26.0001,22 C26.0001,22.553 25.5531,23 25.0001,23" fill="#56666F"></path>
                        <path d="M3.0001,4 C2.4481,4 2.0001,4.448 2.0001,5 L2.0001,57 C2.0001,57.552 2.4481,58 3.0001,58 L44.0001,58 L44.0001,55.582 C43.0271,55.86 42.0221,56 41.0001,56 C34.9351,56 30.0001,51.065 30.0001,45 C30.0001,44.976 30.0041,44.898 30.0051,44.875 C30.0001,39.197 34.2161,34.577 39.8061,34.068 C40.1871,34.026 40.5901,34 41.0001,34 C43.6041,34 46.0521,34.897 48.0001,36.52 L48.0001,5 C48.0001,4.448 47.5521,4 47.0001,4 L33.0001,4 C32.4471,4 32.0001,3.553 32.0001,3 L32.0001,2 L18.0001,2 L18.0001,3 C18.0001,3.553 17.5531,4 17.0001,4 L3.0001,4 Z M45.0001,60 L3.0001,60 C1.3461,60 0.0001,58.654 0.0001,57 L0.0001,5 C0.0001,3.346 1.3461,2 3.0001,2 L16.0001,2 C16.0001,0.897 16.8971,0 18.0001,0 L32.0001,0 C33.1031,0 34.0001,0.897 34.0001,2 L47.0001,2 C48.6541,2 50.0001,3.346 50.0001,5 L50.0001,39.019 C50.0001,39.449 49.7251,39.831 49.3161,39.968 C48.9071,40.102 48.4591,39.963 48.1991,39.618 C46.4781,37.318 43.8541,36 41.0001,36 C40.6641,36 40.3331,36.022 40.0061,36.059 C35.4341,36.475 32.0001,40.238 32.0001,44.814 C32.0001,44.825 32.0051,44.928 32.0041,44.938 C32.0001,49.963 36.0371,54 41.0001,54 C42.2441,54 43.4551,53.746 44.6001,53.246 C44.9081,53.109 45.2651,53.141 45.5481,53.325 C45.8301,53.51 46.0001,53.824 46.0001,54.162 L46.0001,59 C46.0001,59.553 45.5531,60 45.0001,60 L45.0001,60 Z" fill="#56666F"></path>
                        <path d="M6.0001,8 L6.0001,54 L34.6821,54 C31.8531,52.008 30.0001,48.716 30.0001,45 C30.0001,44.976 30.0041,44.898 30.0051,44.875 C30.0001,39.197 34.2161,34.577 39.8061,34.068 C41.1361,33.922 42.6381,34.028 44.0001,34.418 L44.0001,8 L34.0001,8 C34.0001,9.103 33.1031,10 32.0001,10 L18.0001,10 C16.8971,10 16.0001,9.103 16.0001,8 L6.0001,8 Z M41.0001,56 L6.0001,56 C4.8971,56 4.0001,55.103 4.0001,54 L4.0001,8 C4.0001,6.897 4.8971,6 6.0001,6 L17.0001,6 C17.5531,6 18.0001,6.447 18.0001,7 L18.0001,8 L32.0001,8 L32.0001,7 C32.0001,6.447 32.4471,6 33.0001,6 L44.0001,6 C45.1031,6 46.0001,6.897 46.0001,8 L46.0001,35.838 C46.0001,36.176 45.8301,36.49 45.5481,36.675 C45.2651,36.86 44.9071,36.891 44.6001,36.754 C43.1461,36.119 41.5451,35.891 40.0061,36.059 C35.4341,36.475 32.0001,40.238 32.0001,44.814 C32.0001,44.825 32.0051,44.928 32.0041,44.938 L32.0001,45 C32.0001,49.963 36.0371,54 41.0001,54 C41.5531,54 42.0001,54.447 42.0001,55 C42.0001,55.553 41.5531,56 41.0001,56 L41.0001,56 Z" fill="#56666F"></path>
                        <path d="M44.0001,56 L41.0001,56 C40.4471,56 40.0001,55.553 40.0001,55 C40.0001,54.447 40.4471,54 41.0001,54 C42.2331,54 43.4341,53.752 44.5671,53.262 C44.9071,53.116 45.3001,53.169 45.5891,53.399 C45.8781,53.631 46.0161,54.003 45.9461,54.366 C45.7671,55.313 44.9481,56 44.0001,56" fill="#56666F"></path>
                        <path d="M18.0001,2 L18.0001,8 L31.9991,8 L32.0001,2 L18.0001,2 Z M32.0001,8 L32.0001,9 L32.0011,8 L32.0001,8 Z M32.0001,10 L18.0001,10 C16.8971,10 16.0001,9.103 16.0001,8 L16.0001,2 C16.0001,0.897 16.8971,0 18.0001,0 L32.0001,0 C33.1031,0 34.0001,0.897 34.0001,2 L34.0001,8 C34.0001,9.103 33.1031,10 32.0001,10 L32.0001,10 Z" fill="#4FEFA2"></path>
                    </g>
                </g>
            </g>
        </g>
    </g>
</svg>