<?xml version="1.0" encoding="UTF-8"?>
<svg width="88px" height="96px" viewBox="0 0 88 96" version="1.1" xmlns="http://www.w3.org/2000/svg" xmlns:xlink="http://www.w3.org/1999/xlink">
    <!-- Generator: Sketch 42 (36781) - http://www.bohemiancoding.com/sketch -->
    <title>noun_703015_cc</title>
    <desc>Created with Sketch.</desc>
    <defs></defs>
    <g id="Page-1" stroke="none" stroke-width="1" fill="none" fill-rule="evenodd">
        <g id="noun_703015_cc" fill-rule="nonzero">
            <g id="Group">
                <g transform="translate(0.000000, 13.000000)" fill="#56666F">
                    <g transform="translate(8.000000, 0.000000)" id="Shape">
                        <path d="M65.727,2.825 C67.289,2.825 68.558,4.094 68.558,5.649 L68.558,80.275 L62.913,80.275 L62.913,5.648 C62.912,4.094 64.181,2.825 65.727,2.825 L65.727,2.825 Z M65.727,0.403 C62.839,0.403 60.493,2.751 60.493,5.648 L60.493,82.708 L70.977,82.708 L70.977,5.648 C70.977,2.751 68.63,0.403 65.727,0.403 L65.727,0.403 Z"></path>
                        <path d="M50.635,14.929 C52.195,14.929 53.465,16.198 53.465,17.759 L53.465,80.278 L47.819,80.278 L47.819,17.755 C47.818,16.198 49.089,14.929 50.635,14.929 L50.635,14.929 Z M50.635,12.505 C47.748,12.505 45.399,14.855 45.399,17.755 L45.399,82.708 L55.899,82.708 L55.899,17.755 C55.898,14.858 53.551,12.505 50.635,12.505 L50.635,12.505 Z"></path>
                        <path d="M20.46,41.603 C22.021,41.603 23.291,42.854 23.291,44.4 L23.291,80.275 L17.661,80.275 L17.661,44.399 C17.661,42.854 18.915,41.603 20.46,41.603 L20.46,41.603 Z M20.46,39.166 C17.559,39.166 15.225,41.506 15.225,44.399 L15.225,82.708 L25.71,82.708 L25.71,44.399 C25.712,41.506 23.364,39.166 20.46,39.166 L20.46,39.166 Z"></path>
                        <path d="M35.554,29.445 C37.116,29.445 38.384,30.724 38.384,32.277 L38.384,80.278 L32.741,80.278 L32.741,32.276 C32.741,30.724 33.994,29.445 35.554,29.445 L35.554,29.445 Z M35.554,27.031 C32.669,27.031 30.304,29.379 30.304,32.274 L30.304,82.708 L40.79,82.708 L40.79,32.276 C40.791,29.381 38.459,27.031 35.554,27.031 L35.554,27.031 Z"></path>
                        <path d="M5.368,56.108 C6.929,56.108 8.197,57.372 8.197,58.927 L8.197,80.274 L2.555,80.274 L2.555,58.928 C2.555,57.372 3.823,56.108 5.368,56.108 L5.368,56.108 Z M5.368,53.691 C2.483,53.691 0.132,56.029 0.132,58.927 L0.132,82.707 L10.616,82.707 L10.616,58.927 C10.618,56.029 8.284,53.691 5.368,53.691 L5.368,53.691 Z"></path>
                    </g>
                    <rect id="Rectangle-path" x="0.288" y="80.333" width="87.424" height="2.417"></rect>
                </g>
                <polygon id="Shape" fill="#4FEFA2" points="14.184 57.896 12.58 56.076 72.926 2.794 74.544 4.625"></polygon>
                <path d="M12.07,60.971 C10.32,60.971 8.893,59.543 8.893,57.795 C8.893,56.037 10.321,54.617 12.07,54.617 C13.836,54.617 15.251,56.037 15.251,57.795 C15.251,59.543 13.835,60.971 12.07,60.971 Z M12.07,57.034 C11.662,57.034 11.315,57.363 11.315,57.795 C11.315,58.21 11.663,58.546 12.07,58.546 C12.493,58.546 12.83,58.21 12.83,57.795 C12.83,57.363 12.493,57.034 12.07,57.034 Z" id="Shape" fill="#4FEFA2"></path>
                <polygon id="Shape" fill="#4FEFA2" points="70.287 1.796 76.876 0.176 75.229 6.769"></polygon>
            </g>
        </g>
    </g>
</svg>