<?xml version="1.0" encoding="UTF-8"?>
<svg width="28px" height="28px" viewBox="0 0 28 28" version="1.1" xmlns="http://www.w3.org/2000/svg" xmlns:xlink="http://www.w3.org/1999/xlink">
    <!-- Generator: Sketch 42 (36781) - http://www.bohemiancoding.com/sketch -->
    <title>noun_428398_cc</title>
    <desc>Created with Sketch.</desc>
    <defs></defs>
    <g id="Page-1" stroke="none" stroke-width="1" fill="none" fill-rule="evenodd">
        <g id="noun_428398_cc" fill-rule="nonzero" fill="#000000">
            <g id="Group">
                <g id="Shape">
                    <g>
                        <polyline points="12.657 16.658 11.343 15.342 26.343 0.342 27.657 1.658 12.657 16.658"></polyline>
                        <polyline points="28 10 26 10 26 2 18 2 18 0 28 0 28 10"></polyline>
                        <path d="M23,28 L3,28 C1.346,28 0,26.654 0,25 L0,5 C0,3.346 1.346,2 3,2 L14,2 L14,4 L3,4 C2.448,4 2,4.449 2,5 L2,25 C2,25.551 2.448,26 3,26 L23,26 C23.552,26 24,25.551 24,25 L24,14 L26,14 L26,25 C26,26.654 24.654,28 23,28"></path>
                    </g>
                </g>
            </g>
        </g>
    </g>
</svg>