<?xml version="1.0" encoding="UTF-8"?>
<svg width="87px" height="96px" viewBox="0 0 87 96" version="1.1" xmlns="http://www.w3.org/2000/svg" xmlns:xlink="http://www.w3.org/1999/xlink">
    <!-- Generator: Sketch 46.2 (44496) - http://www.bohemiancoding.com/sketch -->
    <title>noun_1195689_cc</title>
    <desc>Created with Sketch.</desc>
    <defs></defs>
    <g id="Page-2" stroke="none" stroke-width="1" fill="none" fill-rule="evenodd">
        <g id="Artboard-3-Copy-2" transform="translate(-514.000000, -497.000000)">
            <g id="Group-31" transform="translate(410.000000, 239.000000)">
                <g id="Group-7" transform="translate(0.000000, 258.000000)">
                    <g id="noun_1195689_cc" transform="translate(104.000000, 0.000000)">
                        <path d="M73.422484,0 L13.577516,0 C6.09099175,0 0,6.03980488 0,13.4634146 L0,82.5365854 C0,89.9601951 6.09099175,96 13.577516,96 L73.422484,96 C80.9090083,96 87,89.9601951 87,82.5365854 L87,13.4634146 C87,6.03980488 80.9090083,0 73.422484,0 Z M78.735425,82.5365854 C78.735425,85.4411707 76.3516855,87.804878 73.422484,87.804878 L13.577516,87.804878 C10.6483145,87.804878 8.26457496,85.4411707 8.26457496,82.5365854 L8.26457496,66.7317073 L78.735425,66.7317073 L78.735425,82.5365854 Z M78.735425,58.5365854 L8.26457496,58.5365854 L8.26457496,37.4634146 L78.735425,37.4634146 L78.735425,58.5365854 Z M78.735425,29.2682927 L8.26457496,29.2682927 L8.26457496,13.4634146 C8.26457496,10.5588293 10.6483145,8.19512195 13.577516,8.19512195 L73.422484,8.19512195 C76.3516855,8.19512195 78.735425,10.5588293 78.735425,13.4634146 L78.735425,29.2682927 Z M13.9848415,23.6101463 L22.2494165,23.6101463 L22.2494165,14.6353171 L13.9848415,14.6353171 L13.9848415,23.6101463 L13.9848415,23.6101463 Z M28.7430111,23.6101463 L37.007586,23.6101463 L37.007586,14.6353171 L28.7430111,14.6353171 L28.7430111,23.6101463 Z M22.2494165,43.5125854 L13.9848415,43.5125854 L13.9848415,52.4874146 L22.2494165,52.4874146 L22.2494165,43.5125854 Z M37.007586,43.5125854 L28.7430111,43.5125854 L28.7430111,52.4874146 L37.007586,52.4874146 L37.007586,43.5125854 Z M22.2494165,72.780878 L13.9848415,72.780878 L13.9848415,81.7557073 L22.2494165,81.7557073 L22.2494165,72.780878 Z M37.007586,72.780878 L28.7430111,72.780878 L28.7430111,81.7557073 L37.007586,81.7557073 L37.007586,72.780878 Z M44.8778227,23.6101463 L53.1423977,23.6101463 L53.1423977,14.6353171 L44.8778227,14.6353171 L44.8778227,23.6101463 Z M53.1423977,43.5125854 L44.8778227,43.5125854 L44.8778227,52.4874146 L53.1423977,52.4874146 L53.1423977,43.5125854 Z M53.1423977,72.780878 L44.8778227,72.780878 L44.8778227,81.7557073 L53.1423977,81.7557073 L53.1423977,72.780878 Z" id="Shape" fill="#5A6A84" fill-rule="nonzero"></path>
                        <path d="M67.5,82 C69.98539,82 72,79.98539 72,77.5 C72,75.01461 69.98539,73 67.5,73 C65.01461,73 63,75.01461 63,77.5 C63,79.98539 65.01461,82 67.5,82 Z" id="Path" fill="#30D679"></path>
                        <path d="M67.5,53 C69.98539,53 72,50.98539 72,48.5 C72,46.01461 69.98539,44 67.5,44 C65.01461,44 63,46.01461 63,48.5 C63,50.98539 65.01461,53 67.5,53 Z" id="Path" fill="#30D679"></path>
                        <path d="M67.5,15 C65.01461,15 63,17.01461 63,19.5 C63,21.98539 65.01461,24 67.5,24 C69.98539,24 72,21.98539 72,19.5 C72,17.01461 69.98539,15 67.5,15 Z" id="Path" fill="#30D679"></path>
                    </g>
                </g>
            </g>
        </g>
    </g>
</svg>