<?xml version="1.0" encoding="UTF-8"?>
<svg width="72px" height="72px" viewBox="0 0 72 72" version="1.1" xmlns="http://www.w3.org/2000/svg" xmlns:xlink="http://www.w3.org/1999/xlink">
    <!-- Generator: Sketch 42 (36781) - http://www.bohemiancoding.com/sketch -->
    <title>noun_369842_cc</title>
    <desc>Created with Sketch.</desc>
    <defs>
        <path d="M35,70 C54.3299662,70 70,54.3299662 70,35 C70,15.6700338 54.3299662,0 35,0 C15.6700338,0 0,15.6700338 0,35 C0,54.3299662 15.6700338,70 35,70 Z" id="path-1"></path>
    </defs>
    <g id="Page-1" stroke="none" stroke-width="1" fill="none" fill-rule="evenodd">
        <g id="noun_369842_cc" transform="translate(1.000000, 1.000000)">
            <mask id="mask-2" fill="white">
                <use xlink:href="#path-1"></use>
            </mask>
            <use id="Mask" stroke="#00A15A" stroke-linecap="square" xlink:href="#path-1"></use>
            <path d="M19.283,39.06 L19.283,42.484 C19.283,45.284 20.868,48.114 22.808,50.606 L22.808,56.275 C22.586,56.275 22.406,56.456 22.406,56.678 L22.406,61.114 L21.881,61.255 C21.741,61.293 21.632,61.401 21.595,61.542 C21.558,61.681 21.599,61.831 21.702,61.933 C23.35,63.56 28.581,65.288 35.028,65.288 C38.463,65.288 41.796,64.867 44.412,64.102 C46.147,63.596 47.417,62.995 48.184,62.317 C48.297,62.217 48.345,62.063 48.309,61.917 C48.272,61.771 48.157,61.658 48.011,61.623 L47.631,61.532 C47.645,61.461 47.652,61.389 47.652,61.317 L47.652,56.678 C47.652,56.455 47.471,56.275 47.249,56.275 L47.249,50.868 C49.232,48.315 50.776,45.468 50.776,42.484 L50.776,39.06 C51.856,38.868 52.681,37.927 52.681,36.791 L52.681,31.025 C52.681,29.889 51.856,28.949 50.776,28.756 L50.776,23.143 C50.776,19.562 49.572,16.257 47.549,13.609 C47.522,13.569 47.495,13.527 47.468,13.488 C47.453,13.467 47.433,13.455 47.415,13.438 C44.529,9.763 40.052,7.396 35.027,7.396 C30.005,7.396 25.527,9.763 22.641,13.437 C22.623,13.455 22.603,13.467 22.588,13.488 C22.561,13.527 22.534,13.569 22.507,13.609 C20.485,16.257 19.281,19.562 19.281,23.143 L19.281,28.756 C18.2,28.948 17.375,29.889 17.375,31.025 L17.375,36.791 C17.377,37.927 18.202,38.867 19.283,39.06 Z M50.776,29.585 C51.407,29.762 51.874,30.337 51.874,31.025 L51.874,36.791 C51.874,37.479 51.407,38.053 50.776,38.231 L50.776,29.585 Z M46.442,56.98 C46.442,57.119 46.375,57.265 46.242,57.414 C44.775,58.357 40.714,59.335 35.028,59.335 C29.344,59.335 25.283,58.357 23.817,57.414 C23.684,57.266 23.616,57.119 23.616,56.98 L23.616,51.601 C24.971,53.212 26.414,54.65 27.567,55.796 L27.977,56.206 C28.759,56.987 30.448,58.229 31.646,58.229 L38.142,58.229 C39.348,58.229 41.55,57.004 42.356,56.2 C43.643,54.912 45.103,53.451 46.442,51.86 L46.442,56.98 L46.442,56.98 Z M39.975,47.251 C39.777,47.149 39.535,47.227 39.433,47.426 C39.351,47.584 39.214,47.68 39.065,47.68 L30.994,47.68 C30.847,47.68 30.709,47.584 30.629,47.426 C30.525,47.229 30.282,47.151 30.085,47.252 C29.887,47.354 29.809,47.596 29.91,47.795 C30.129,48.221 30.545,48.486 30.994,48.486 L31.976,48.486 C32.906,49.559 32.758,52.412 31.285,52.518 C28.804,52.697 27.672,50.659 27.672,50.659 L29.399,46.805 C29.399,46.805 30.809,45.865 35.03,45.865 L35.032,45.865 C39.253,45.865 40.663,46.805 40.663,46.805 C40.663,46.805 40.663,46.805 42.39,50.659 C42.39,50.659 41.259,52.697 38.777,52.518 C37.303,52.412 37.156,49.559 38.087,48.486 L39.067,48.486 C39.517,48.486 39.933,48.22 40.153,47.793 C40.252,47.596 40.173,47.353 39.975,47.251 Z M20.089,29.119 C20.089,25.791 23.361,23.588 24.688,23.588 C24.854,23.588 25.002,23.486 25.064,23.332 C25.124,23.177 25.085,23.002 24.963,22.889 C22.749,20.836 22.667,15.176 23.239,13.985 C23.997,13.012 24.871,12.135 25.843,11.375 C28.694,12.441 31.778,13.03 35,13.03 C38.237,13.03 41.335,12.434 44.196,11.36 C45.175,12.124 46.056,13.006 46.819,13.985 C47.391,15.176 47.309,20.837 45.096,22.889 C44.974,23.002 44.935,23.177 44.994,23.332 C45.055,23.486 45.204,23.588 45.37,23.588 C46.696,23.588 49.969,25.791 49.969,29.119 L49.969,32.831 L47.119,32.831 C46.997,31.293 46.187,29.947 44.998,29.1 L45.467,29.1 L46.358,29.776 C46.504,29.886 46.676,29.94 46.844,29.94 C47.088,29.94 47.329,29.829 47.489,29.62 C47.759,29.265 47.687,28.759 47.333,28.49 L46.226,27.651 C46.22,27.647 46.212,27.644 46.207,27.639 C46.184,27.621 46.158,27.61 46.134,27.595 C46.113,27.582 46.091,27.571 46.069,27.56 C46.047,27.549 46.021,27.541 45.996,27.534 C45.971,27.524 45.945,27.515 45.919,27.51 C45.897,27.505 45.873,27.503 45.85,27.499 C45.821,27.495 45.79,27.491 45.76,27.489 C45.76,27.489 45.746,27.487 45.739,27.487 L38.393,27.487 C37.947,27.487 37.585,27.848 37.585,28.295 C37.585,28.74 37.946,29.101 38.393,29.101 L39.132,29.101 C38.362,29.65 37.749,30.404 37.381,31.288 C36.726,30.697 35.901,30.365 35.028,30.365 C34.158,30.365 33.332,30.697 32.677,31.287 C32.309,30.404 31.696,29.65 30.926,29.101 L31.665,29.101 C32.11,29.101 32.471,28.741 32.471,28.295 C32.471,27.849 32.111,27.487 31.665,27.487 L24.32,27.487 L24.301,27.489 C24.272,27.491 24.244,27.495 24.215,27.498 C24.19,27.503 24.166,27.505 24.142,27.509 C24.118,27.515 24.094,27.523 24.072,27.531 C24.046,27.54 24.017,27.548 23.991,27.559 C23.971,27.569 23.953,27.58 23.933,27.59 C23.906,27.606 23.879,27.619 23.853,27.639 C23.848,27.642 23.842,27.644 23.837,27.647 L22.785,28.432 C22.428,28.698 22.353,29.203 22.62,29.561 C22.777,29.773 23.021,29.885 23.266,29.885 C23.434,29.885 23.603,29.832 23.747,29.725 L24.585,29.1 L25.058,29.1 C23.868,29.948 23.058,31.293 22.937,32.831 L20.087,32.831 L20.087,29.119 L20.089,29.119 Z M46.334,33.234 C46.334,35.588 44.419,37.504 42.065,37.504 C39.711,37.504 37.797,35.588 37.797,33.234 C37.797,31.242 39.172,29.568 41.021,29.099 L43.109,29.099 C44.959,29.568 46.334,31.242 46.334,33.234 Z M32.262,33.234 C32.262,35.588 30.348,37.504 27.993,37.504 C25.638,37.504 23.724,35.588 23.724,33.234 C23.724,31.242 25.099,29.568 26.949,29.099 L29.038,29.099 C30.887,29.568 32.262,31.242 32.262,33.234 Z M20.089,33.637 L22.939,33.637 C23.145,36.248 25.332,38.31 27.994,38.31 C29.98,38.31 31.698,37.161 32.531,35.495 L32.802,37.757 C32.827,37.963 33.001,38.112 33.202,38.112 C33.218,38.112 33.235,38.112 33.251,38.11 C33.473,38.083 33.63,37.881 33.604,37.662 L33.068,33.196 C33.064,32.839 33.025,32.493 32.951,32.159 C33.492,31.53 34.239,31.171 35.029,31.171 C35.822,31.171 36.568,31.53 37.109,32.159 C37.036,32.493 36.997,32.841 36.994,33.196 L36.456,37.662 C36.43,37.882 36.588,38.083 36.809,38.11 C36.825,38.112 36.842,38.112 36.858,38.112 C37.059,38.112 37.233,37.963 37.258,37.757 L37.529,35.495 C38.362,37.161 40.08,38.31 42.066,38.31 C44.728,38.31 46.914,36.248 47.121,33.637 L49.971,33.637 L49.971,34.077 C48.665,36.817 44.548,45.555 43.197,49.605 L42.032,45.46 C41.507,44.796 38.957,43.425 36.068,43.14 C36.297,43.005 36.493,42.834 36.703,42.65 C36.86,42.513 37.033,42.359 37.248,42.197 C37.417,42.068 37.615,41.976 37.825,41.877 C38.239,41.683 38.732,41.45 38.921,40.895 C39.772,41.875 41.079,43.208 42.433,43.897 C42.492,43.926 42.553,43.94 42.616,43.94 C42.763,43.94 42.904,43.861 42.974,43.721 C43.077,43.522 42.997,43.28 42.799,43.179 C40.854,42.187 38.903,39.616 38.636,39.256 C38.624,39.239 38.613,39.223 38.599,39.206 C38.466,39.031 38.216,38.994 38.038,39.126 C37.861,39.258 37.821,39.508 37.951,39.686 C37.956,39.693 37.968,39.709 37.986,39.735 C38.119,39.926 38.19,40.151 38.19,40.386 C38.19,40.782 38.016,40.897 37.481,41.149 C37.254,41.255 36.998,41.376 36.76,41.554 C36.529,41.731 36.338,41.897 36.169,42.045 C35.748,42.418 35.536,42.604 35.029,42.604 C35.029,42.604 35.02,42.608 35.015,42.608 C35.009,42.608 35.005,42.604 35,42.604 C34.494,42.604 34.282,42.418 33.86,42.045 C33.691,41.897 33.503,41.731 33.268,41.554 C33.032,41.375 32.775,41.255 32.548,41.147 C32.013,40.897 31.84,40.782 31.84,40.386 C31.84,40.151 31.909,39.926 32.044,39.735 C32.062,39.71 32.074,39.693 32.078,39.686 C32.208,39.508 32.168,39.258 31.992,39.126 C31.813,38.995 31.564,39.031 31.43,39.206 C31.417,39.223 31.406,39.239 31.394,39.256 C31.126,39.615 29.174,42.187 27.23,43.179 C27.032,43.28 26.953,43.522 27.055,43.721 C27.125,43.861 27.267,43.94 27.413,43.94 C27.476,43.94 27.538,43.926 27.597,43.897 C28.95,43.208 30.259,41.876 31.11,40.895 C31.297,41.452 31.791,41.683 32.205,41.877 C32.414,41.977 32.612,42.068 32.782,42.197 C32.996,42.359 33.171,42.513 33.326,42.65 C33.537,42.836 33.735,43.007 33.965,43.142 C31.087,43.433 28.552,44.798 28.027,45.46 L26.862,49.605 C25.509,45.554 21.393,36.817 20.088,34.077 L20.088,33.637 L20.089,33.637 Z M18.185,31.025 C18.185,30.337 18.652,29.761 19.284,29.585 L19.284,38.231 C18.652,38.052 18.185,37.478 18.185,36.791 L18.185,31.025 Z M36.388,26.684 C35.845,26.684 35.404,26.243 35.404,25.699 C35.404,25.475 35.222,25.296 35.001,25.296 C34.777,25.296 34.598,25.476 34.598,25.699 C34.598,26.243 34.156,26.684 33.612,26.684 C33.389,26.684 33.209,26.865 33.209,27.086 C33.209,27.31 33.39,27.49 33.612,27.49 C34.172,27.49 34.673,27.231 35.002,26.829 C35.331,27.231 35.831,27.49 36.39,27.49 C36.614,27.49 36.794,27.309 36.794,27.086 C36.792,26.864 36.611,26.684 36.388,26.684 Z M30.204,30.535 L25.802,30.535 C25.579,30.535 25.399,30.716 25.399,30.939 C25.399,31.162 25.58,31.341 25.802,31.341 L26.543,31.341 C26.542,31.351 26.538,31.361 26.538,31.37 L26.538,32.079 C26.538,32.317 26.73,32.511 26.968,32.511 L29.037,32.511 C29.275,32.511 29.468,32.318 29.468,32.079 L29.468,31.37 C29.468,31.36 29.464,31.35 29.462,31.341 L30.204,31.341 C30.427,31.341 30.606,31.161 30.606,30.939 C30.606,30.716 30.427,30.535 30.204,30.535 Z M44.266,30.535 L39.865,30.535 C39.642,30.535 39.462,30.716 39.462,30.939 C39.462,31.162 39.643,31.341 39.865,31.341 L40.606,31.341 C40.606,31.351 40.601,31.361 40.601,31.37 L40.601,32.079 C40.601,32.317 40.792,32.511 41.032,32.511 L43.1,32.511 C43.339,32.511 43.532,32.318 43.532,32.079 L43.532,31.37 C43.532,31.36 43.527,31.35 43.526,31.341 L44.266,31.341 C44.49,31.341 44.67,31.161 44.67,30.939 C44.67,30.716 44.489,30.535 44.266,30.535 Z M28.003,23.588 L42.066,23.588 C42.288,23.588 42.469,23.407 42.469,23.184 C42.469,22.961 42.287,22.782 42.066,22.782 L28.003,22.782 C27.78,22.782 27.599,22.962 27.599,23.184 C27.599,23.407 27.78,23.588 28.003,23.588 Z M30.276,21.4 L39.791,21.4 C40.013,21.4 40.194,21.22 40.194,20.997 C40.194,20.774 40.012,20.594 39.791,20.594 L30.276,20.594 C30.054,20.594 29.874,20.774 29.874,20.997 C29.874,21.22 30.055,21.4 30.276,21.4 Z M71.648,70.032 L69.9,66.222 C69.846,66.105 69.739,66.021 69.613,65.994 L49.627,62.008 C49.47,61.978 49.308,62.042 49.216,62.175 C48.345,63.441 46.225,64.271 44.601,64.746 C41.922,65.528 38.524,65.958 35.029,65.958 C28.523,65.958 22.259,64.148 20.771,61.839 C20.68,61.698 20.512,61.625 20.347,61.663 L0.245,65.995 C0.116,66.022 0.01,66.111 -0.041,66.233 L-1.654,70.042 C-1.706,70.166 -1.694,70.31 -1.619,70.421 C-1.544,70.534 -1.418,70.603 -1.283,70.603 L71.282,70.603 C71.419,70.603 71.547,70.533 71.622,70.417 C71.695,70.302 71.706,70.156 71.648,70.032 Z" id="Shape" fill="#56666F" fill-rule="nonzero" mask="url(#mask-2)"></path>
        </g>
    </g>
</svg>