<?xml version="1.0" encoding="UTF-8"?>
<svg width="51px" height="86px" viewBox="0 0 51 86" version="1.1" xmlns="http://www.w3.org/2000/svg" xmlns:xlink="http://www.w3.org/1999/xlink">
    <!-- Generator: Sketch 46.2 (44496) - http://www.bohemiancoding.com/sketch -->
    <title>noun_1156494_cc</title>
    <desc>Created with Sketch.</desc>
    <defs></defs>
    <g id="Page-2" stroke="none" stroke-width="1" fill="none" fill-rule="evenodd">
        <g id="Artboard-3-Copy-2" transform="translate(-1171.000000, -429.000000)" fill-rule="nonzero">
            <g id="Group-31" transform="translate(410.000000, 239.000000)">
                <g id="Group-28" transform="translate(547.000000, 1.000000)">
                    <g id="Group-23" transform="translate(214.000000, 189.000000)">
                        <g id="noun_1156494_cc">
                            <g id="Group">
                                <path d="M47.2211887,0.181662921 L3.89428302,0.181662921 C2.14488679,0.181662921 0.721698113,1.60501124 0.721698113,3.35496629 L0.721698113,82.2208315 C0.721698113,83.9707865 2.14488679,85.3941348 3.89428302,85.3941348 L47.2211887,85.3941348 C48.9696226,85.3941348 50.3928113,83.9698202 50.3928113,82.2208315 L50.3928113,3.35496629 C50.3928113,1.60501124 48.9705849,0.181662921 47.2211887,0.181662921 Z M3.89428302,2.59739326 L47.2211887,2.59739326 C47.6426604,2.59739326 47.9871509,2.93752809 47.9871509,3.35496629 L47.9871509,9.08991011 L3.12735849,9.08991011 L3.12735849,3.35496629 C3.12735849,2.93752809 3.47088679,2.59739326 3.89428302,2.59739326 Z M47.9871509,11.5056404 L47.9871509,67.9061798 L3.12735849,67.9061798 L3.12735849,11.5056404 L47.9871509,11.5056404 Z M47.2211887,82.9784045 L3.89428302,82.9784045 C3.47184906,82.9784045 3.12735849,82.6382697 3.12735849,82.2208315 L3.12735849,70.3209438 L47.9871509,70.3209438 L47.9871509,82.2198652 C47.9871509,82.6382697 47.6436226,82.9784045 47.2211887,82.9784045 Z" id="Shape" fill="#576D94"></path>
                                <path d="M25.5586981,71.8370562 C22.9942642,71.8370562 20.9090377,73.9223146 20.9090377,76.4858876 C20.9090377,79.0494607 22.9942642,81.1347191 25.5586981,81.1347191 C28.1212075,81.1347191 30.206434,79.0494607 30.206434,76.4858876 C30.206434,73.9223146 28.1212075,71.8370562 25.5586981,71.8370562 Z M25.5586981,78.7180225 C24.3212264,78.7180225 23.3146981,77.7169438 23.3146981,76.4849213 C23.3146981,75.2528989 24.3212264,74.2518202 25.5586981,74.2518202 C26.7952075,74.2518202 27.8007736,75.2528989 27.8007736,76.4849213 C27.8007736,77.7169438 26.7952075,78.7180225 25.5586981,78.7180225 Z" id="Shape" fill="#576D94"></path>
                                <polygon id="Shape" fill="#576D94" points="7.72313208 59.7786966 7.72313208 16.4202022 14.3973962 16.4202022 14.3973962 14.0044719 5.3174717 14.0044719 5.3174717 59.7786966"></polygon>
                                <polygon id="Shape" fill="#576D94" points="37.2107547 64.7502697 45.7989623 64.7502697 45.7989623 19.614764 43.3933019 19.614764 43.3933019 62.3345393 37.2107547 62.3345393"></polygon>
                                <rect id="Rectangle-path" fill="#576D94" x="23.4407547" y="4.50195506" width="4.23203774" height="2.41573034"></rect>
                                <path d="M36.0079245,45.5365169 L14.1933962,45.5365169 L14.1933962,54.1123596 L26.942434,54.1123596 L26.942434,57.3040225 C25.4230189,57.8113258 24.3164151,59.2317753 24.3164151,60.9208539 C24.3164151,63.0331685 26.0340566,64.7502697 28.1452642,64.7502697 C30.2564717,64.7502697 31.9741132,63.0331685 31.9741132,60.9208539 C31.9741132,59.2317753 30.8684717,57.8113258 29.3480943,57.3040225 L29.3480943,51.6966292 L16.5990566,51.6966292 L16.5990566,47.9522472 L38.4135849,47.9522472 L38.4135849,40.3707191 L23.3146981,40.3707191 L23.3146981,35.2696629 L31.2716604,35.2696629 L31.2716604,20.468 C32.7910755,19.9597303 33.8976792,18.5392809 33.8976792,16.8511685 C33.8976792,14.7398202 32.1800377,13.0227191 30.0688302,13.0227191 C27.9576226,13.0227191 26.2399811,14.7398202 26.2399811,16.8511685 C26.2399811,18.5402472 27.3456226,19.9597303 28.866,20.468 L28.866,32.8539326 L20.9090377,32.8539326 L20.9090377,42.7864494 L36.0079245,42.7864494 L36.0079245,45.5365169 Z M28.1452642,62.3345393 C27.3610189,62.3345393 26.7220755,61.7006517 26.7220755,60.9208539 C26.7220755,60.1410562 27.3600566,59.5071685 28.1452642,59.5071685 C28.9304717,59.5071685 29.5684528,60.1410562 29.5684528,60.9208539 C29.5684528,61.7006517 28.9295094,62.3345393 28.1452642,62.3345393 Z M30.0678679,15.4384494 C30.8521132,15.4384494 31.4910566,16.0723371 31.4910566,16.8511685 C31.4910566,17.6309663 30.8530755,18.2648539 30.0678679,18.2648539 C29.2826604,18.2648539 28.6446792,17.6309663 28.6446792,16.8511685 C28.6456415,16.0713708 29.2836226,15.4384494 30.0678679,15.4384494 Z" id="Shape" fill="#1ED26A"></path>
                            </g>
                        </g>
                    </g>
                </g>
            </g>
        </g>
    </g>
</svg>