<?xml version="1.0" encoding="UTF-8"?>
<svg width="70px" height="70px" viewBox="0 0 70 70" version="1.1" xmlns="http://www.w3.org/2000/svg" xmlns:xlink="http://www.w3.org/1999/xlink">
    <!-- Generator: Sketch 41.2 (35397) - http://www.bohemiancoding.com/sketch -->
    <title>Group 51</title>
    <desc>Created with Sketch.</desc>
    <defs>
        <rect id="path-1" x="0" y="0" width="70" height="70" rx="4"></rect>
        <mask id="mask-2" maskContentUnits="userSpaceOnUse" maskUnits="objectBoundingBox" x="0" y="0" width="70" height="70" fill="white">
            <use xlink:href="#path-1"></use>
        </mask>
    </defs>
    <g id="Page-1" stroke="none" stroke-width="1" fill="none" fill-rule="evenodd">
        <g id="Artboard-3-Copy-7" transform="translate(-1038.000000, -4542.000000)" stroke="#FFFFFF">
            <g id="Group-50" transform="translate(0.000000, 3756.000000)">
                <g id="Group-27" transform="translate(0.000000, 277.000000)">
                    <g id="Group-48" transform="translate(0.000000, 409.000000)">
                        <g id="Group-47">
                            <g id="Group-30">
                                <g id="Group-23" transform="translate(170.000000, 100.000000)">
                                    <g id="UNFILLED" transform="translate(758.000000, 0.000000)">
                                        <g id="Group-51" transform="translate(110.000000, 0.000000)">
                                            <g id="Group-20-Copy-2">
                                                <use id="Rectangle-2" mask="url(#mask-2)" stroke-linecap="square" opacity="0.5" xlink:href="#path-1"></use>
                                                <path d="M29.5608227,57.1914512 C43.9014052,57.1914512 51.7431614,45.311015 51.7431614,35.009115 C51.7431614,34.67167 51.7362883,34.3357475 51.721152,34.0013438 C53.2434458,32.9008538 54.5666195,31.52752 55.6101095,29.9641838 C54.2132158,30.58511 52.709922,31.003115 51.1329058,31.1915976 C52.742602,30.2263863 53.9783733,28.6995326 54.5612995,26.8793138 C53.0549645,27.7723225 51.3867483,28.4213701 49.6106108,28.7717325 C48.187877,27.2562775 46.1624571,26.3085488 43.9196758,26.3085488 C39.6142333,26.3085488 36.1227583,29.8000238 36.1227583,34.103945 C36.1227583,34.71575 36.1911583,35.3108375 36.3249208,35.8816012 C29.8450984,35.5555588 24.0994396,32.4532088 20.2545634,27.7358426 C19.5849959,28.8880138 19.1989134,30.2263863 19.1989134,31.65444 C19.1989134,34.3593075 20.5752859,36.7472513 22.6683459,38.144145 C21.3892547,38.104625 20.1876821,37.7535 19.1373509,37.169055 C19.1362032,37.2017656 19.1362032,37.2336563 19.1362032,37.2686163 C19.1362032,41.0443325 21.8235907,44.1968437 25.3910657,44.91125 C24.7359395,45.0898525 24.046612,45.1856125 23.3352457,45.1856125 C22.8336407,45.1856125 22.3449557,45.1362431 21.869952,45.0450125 C22.8625207,48.1428025 25.7406682,50.3969837 29.1531032,50.4600662 C26.4847157,52.5516049 23.1232032,53.7972587 19.4698483,53.7972587 C18.8413207,53.7972587 18.2203958,53.7615081 17.6101095,53.6893362 C21.0605445,55.90096 25.1577445,57.1914512 29.5612257,57.1914512" id="twitter" stroke-width="0.5" fill="#FFFFFF"></path>
                                            </g>
                                        </g>
                                    </g>
                                </g>
                            </g>
                        </g>
                    </g>
                </g>
            </g>
        </g>
    </g>
</svg>