<?xml version="1.0" encoding="UTF-8"?>
<svg width="52px" height="47px" viewBox="0 0 52 47" version="1.1" xmlns="http://www.w3.org/2000/svg" xmlns:xlink="http://www.w3.org/1999/xlink">
    <!-- Generator: Sketch 46.2 (44496) - http://www.bohemiancoding.com/sketch -->
    <title>Group</title>
    <desc>Created with Sketch.</desc>
    <defs></defs>
    <g id="Page-2" stroke="none" stroke-width="1" fill="none" fill-rule="evenodd">
        <g id="Artboard-3-Copy-2" transform="translate(-1171.000000, -617.000000)" fill-rule="nonzero" fill="#55678D">
            <g id="Group-31" transform="translate(410.000000, 239.000000)">
                <g id="Group-29" transform="translate(547.000000, 303.000000)">
                    <g id="Group-22" transform="translate(214.000000, 0.000000)">
                        <g id="Group-25" transform="translate(0.000000, 75.000000)">
                            <g id="Group">
                                <g id="Shape">
                                    <path d="M40.5140388,36.558479 L14.9411036,36.558479 L14.9411036,39.2380627 C14.4443259,41.9848656 11.9821295,44.0717083 9.0195069,44.0717083 C5.69861613,44.0717083 3.00650229,41.4496267 3.00650229,38.2151249 C3.00650229,36.2192175 4.03158625,34.4565031 5.59694682,33.3991772 L3.87266771,31 L3.87266771,31 C1.53195254,32.5869582 0,35.2267922 0,38.2151249 C0,43.0668775 4.03817078,47 9.0195069,47 C13.4867458,47 17.1954518,43.8368182 17.9133818,39.6846282 L17.9133818,39.6846282 L40.3924016,39.6846282 C40.9130183,40.5569413 41.8829395,41.1434166 42.9934977,41.1434166 C44.6539431,41.1434166 46,39.8323758 46,38.2151249 C46,36.5978741 44.6539431,35.2868333 42.9934977,35.2868333 C41.9643642,35.2868333 41.0560012,35.7904619 40.5140388,36.558479 Z"></path>
                                    <path d="M6.27397638,36.811654 C6.32593215,36.6849801 6.38742131,36.5603398 6.45868381,36.4386176 C7.01119056,35.4948909 8.01148444,34.9651952 9.04161589,34.9601211 L20.3184858,15.6983053 L20.3184858,15.6983053 C16.9955528,12.9941579 16.0406312,8.23981839 18.2678188,4.4355999 C20.7502303,0.19543814 26.2458051,-1.2587051 30.5425288,1.18768003 C33.1804949,2.68963394 34.753275,5.31263481 35,8.09526346 L35,8.09526346 L32.0160284,8.35325413 C31.8519354,6.49766511 30.803333,4.74839033 29.044261,3.74684404 C26.1797785,2.11592061 22.5160619,3.08534942 20.861121,5.91212393 C19.2404067,8.68043631 20.1472767,12.2034402 22.8758878,13.8797902 L24.5248517,14.8186452 L11.7523815,36.6350685 L11.7523815,36.6350685 C12.1153315,37.3826249 12.1544745,38.2694794 11.8084975,39.0696663 C11.3863469,40.196538 10.2866523,41 8.9965357,41 C7.34159474,41 6,39.6778754 6,38.0469519 C6,37.6059262 6.09810295,37.1874812 6.27397638,36.811654 Z"></path>
                                    <path d="M25.8204425,11.9365519 L38.4799074,33.8047036 L39.9875341,32.9366045 L40.0130998,32.9807671 C40.0255435,32.9734856 40.0380229,32.9662417 40.0505379,32.9590355 C42.9203736,31.3065696 46.5765888,32.2640181 48.2169232,35.0975565 C49.8572575,37.931095 48.8605497,41.56772 45.9907141,43.220186 C44.221523,44.2388951 42.153472,44.2657185 40.4431018,43.4725834 L39.1661151,46.16952 L39.1661151,46.16952 C41.7293829,47.3536458 44.8260303,47.3112002 47.4757581,45.7854735 C51.7805116,43.3067747 53.2755733,37.8518372 50.8150718,33.6015295 C48.5935022,29.7639565 43.9068659,28.2205106 39.8490793,29.7813919 L39.8490793,29.7813919 L28.6162733,10.3776724 C29.1001313,9.49770418 29.1273502,8.40013014 28.5912733,7.47410264 C27.7711061,6.05733345 25.9429985,5.5786092 24.5080806,6.40484216 C23.0731628,7.23107506 22.5748089,9.0493876 23.3949761,10.4661568 C23.9162317,11.3665816 24.8446158,11.8881102 25.8204425,11.9365519 Z"></path>
                                </g>
                            </g>
                        </g>
                    </g>
                </g>
            </g>
        </g>
    </g>
</svg>