<?xml version="1.0" encoding="UTF-8"?>
<svg width="160px" height="164px" viewBox="0 0 160 164" version="1.1" xmlns="http://www.w3.org/2000/svg" xmlns:xlink="http://www.w3.org/1999/xlink">
    <!-- Generator: Sketch 48.2 (47327) - http://www.bohemiancoding.com/sketch -->
    <title>noun_1241390_cc</title>
    <desc>Created with Sketch.</desc>
    <defs></defs>
    <g id="Artboard-Copy-2" stroke="none" stroke-width="1" fill="none" fill-rule="evenodd" transform="translate(-169.000000, -119.000000)">
        <g id="noun_1241390_cc" transform="translate(172.000000, 122.000000)" fill-rule="nonzero" stroke="#FFFFFF" stroke-width="5">
            <rect id="Rectangle-path" x="54" y="111" width="48" height="3"></rect>
            <rect id="Rectangle-path" x="35" y="133" width="84" height="3"></rect>
            <rect id="Rectangle-path" x="13" y="155" width="128" height="3"></rect>
            <path d="M154,59.9696544 C153.980749,40.635748 138.308917,24.9673219 118.970809,24.9480746 L116.753108,24.9480746 C109.453941,9.81027372 94.1839217,0.135721031 77.3758271,0 C57.2982263,0.0653293806 39.8827377,13.8820799 35.256979,33.4154057 C34.0443183,33.2961447 32.8256084,33.2495056 31.6073774,33.2757384 C20.4055484,33.0093314 9.9386894,38.8318235 4.25943832,48.488818 C-1.41981277,58.1458125 -1.41981277,70.12116 4.25943832,79.7781545 C9.9386894,89.435149 20.4055484,95.2576412 31.6073774,94.9912342 L118.918422,94.9912342 C138.276986,95.0008824 153.980721,79.3240042 154,59.9696544 Z M118.970809,91.4995513 L31.659764,91.4995513 C21.7158552,91.7506784 12.4178988,86.5903568 7.37201794,78.0199676 C2.32613705,69.4495785 2.32613705,58.8173941 7.37201794,50.2470049 C12.4178988,41.6766158 21.7158552,36.5162942 31.659764,36.7674213 C33.1940589,36.7018953 34.7305954,36.8250261 36.2348627,37.134048 L37.9810836,37.5879668 L38.3303278,35.8421253 C41.9494292,17.1207013 58.303969,3.57044309 77.3758271,3.49168293 C93.2218872,3.63874275 107.536841,12.9823318 114.046466,27.4271694 L114.517946,28.4397575 L118.970809,28.4397575 C136.388075,28.4397575 150.507558,42.5561732 150.507558,59.9696544 C150.507558,77.3831356 136.388075,91.4995513 118.970809,91.4995513 Z" id="Shape"></path>
        </g>
    </g>
</svg>