<svg xmlns="http://www.w3.org/2000/svg" width="31" height="33" viewBox="0 0 31 33">
    <g fill="#000" fill-rule="evenodd">
        <path d="M21.656 7.706c-2.909 0-4.138 1.414-6.164 1.414-2.078 0-3.662-1.406-6.181-1.406-2.467 0-5.1 1.535-6.77 4.149C.195 15.549.593 22.49 4.394 28.406c1.359 2.117 3.177 4.491 5.558 4.517h.043c2.069 0 2.684-1.38 5.532-1.397h.043c2.805 0 3.368 1.388 5.428 1.388h.043c2.381-.025 4.294-2.657 5.653-4.765.979-1.518 1.342-2.28 2.095-3.995-5.497-2.125-6.38-10.063-.943-13.105-1.662-2.118-3.991-3.343-6.19-3.343z"/>
        <path d="M21.015 0c-1.731.12-3.748 1.243-4.934 2.709-1.074 1.328-1.957 3.3-1.61 5.211h.138c1.844 0 3.731-1.131 4.83-2.58 1.066-1.38 1.87-3.334 1.576-5.34z"/>
    </g>
</svg>
