<?xml version="1.0" encoding="UTF-8"?>
<svg width="91px" height="86px" viewBox="0 0 91 86" version="1.1" xmlns="http://www.w3.org/2000/svg" xmlns:xlink="http://www.w3.org/1999/xlink">
    <!-- Generator: Sketch 46.2 (44496) - http://www.bohemiancoding.com/sketch -->
    <title>Shape</title>
    <desc>Created with Sketch.</desc>
    <defs></defs>
    <g id="Page-2" stroke="none" stroke-width="1" fill="none" fill-rule="evenodd">
        <g id="Desktop-Copy-15" transform="translate(-269.000000, -462.000000)" stroke="#394456" stroke-width="2" fill="#FFFFFF" fill-rule="nonzero">
            <g id="Group-10" transform="translate(122.000000, 105.000000)">
                <g id="platformCard-Copy-3" transform="translate(0.000000, 358.000000)">
                    <g id="logo" transform="translate(149.000000, 0.000000)">
                        <path d="M79.0908164,84 L65.0029336,84 L65.9915391,71.9997054 L59.0709609,71.9997054 L58.0823555,84 L28.9176445,84 L27.9286992,71.9997054 L21.0088008,71.9997054 L21.9977461,84 L7.90884375,84 L0,31.9996399 L19.7727891,0 L67.2272109,0 L87,31.9996399 L79.0908164,84 Z M63.2727891,15.9998199 L50.5616133,15.9998199 L51.4091836,21.9999673 L35.5908164,21.9999673 L36.4383867,15.9998199 L23.7272109,15.9998199 L15.8180273,31.9999836 L19.7727891,63.9996235 L67.2272109,63.9996235 L71.1819727,31.9999836 L63.2727891,15.9998199 Z M56.3522109,53.3798268 C55.260293,53.3798268 54.375,50.0488943 54.375,45.9400566 C54.375,41.8308753 55.260293,38.4999427 56.3522109,38.4999427 C57.4441289,38.4999427 58.3294219,41.8308753 58.3294219,45.9400566 C58.3294219,50.0488943 57.4441289,53.3798268 56.3522109,53.3798268 Z M31.3893281,53.9999509 C30.2974102,53.9999509 29.4117773,50.6690183 29.4117773,46.559837 C29.4117773,42.4509993 30.2974102,39.1200668 31.3893281,39.1200668 C32.4812461,39.1200668 33.3665391,42.4509993 33.3665391,46.559837 C33.3665391,50.6690183 32.4812461,53.9999509 31.3893281,53.9999509 Z" id="Shape"></path>
                    </g>
                </g>
            </g>
        </g>
    </g>
</svg>