<?xml version="1.0" encoding="UTF-8"?>
<svg width="99px" height="83px" viewBox="0 0 99 83" version="1.1" xmlns="http://www.w3.org/2000/svg" xmlns:xlink="http://www.w3.org/1999/xlink">
    <!-- Generator: Sketch 46.2 (44496) - http://www.bohemiancoding.com/sketch -->
    <title>Group</title>
    <desc>Created with Sketch.</desc>
    <defs></defs>
    <g id="Page-2" stroke="none" stroke-width="1" fill="none" fill-rule="evenodd">
        <g id="Desktop-Copy-15" transform="translate(-809.000000, -462.000000)" stroke="#424E60" fill-rule="nonzero" stroke-width="2" fill="#FFFFFF">
            <g id="Group-10" transform="translate(122.000000, 105.000000)">
                <g id="platformCard-Copy-5" transform="translate(559.000000, 359.000000)">
                    <g id="Group" transform="translate(129.000000, 0.000000)">
                        <path d="M82.018933,73.9684524 L68.0750167,68.9839286 L68.0058734,34.4919643 C67.9828256,15.5178571 68.0289212,0 68.1211123,0 C68.2363513,0 74.7358296,2.56279762 82.5951279,5.71339286 L96.884761,11.4267857 L96.9539044,45.2133929 L97,79 L96.4929485,78.9764881 C96.1933272,78.9529762 89.6938489,76.6958333 82.018933,73.9684524 Z M85.4761023,58.3095238 C85.729628,58.0508929 85.9370582,57.7217262 85.9370582,57.6041667 C85.9370582,57.4630952 85.1995287,56.1699405 84.3006647,54.7357143 C83.4248485,53.3014881 82.7334146,52.0083333 82.7795102,51.8672619 C82.8486536,51.7026786 84.1393302,50.9738095 85.6604847,50.2214286 C88.3340289,48.88125 89.0254628,48.2934524 88.771937,47.5410714 C88.7027936,47.3764881 88.4723157,47.141369 88.2187899,47.0002976 C87.8500252,46.8122024 87.2046869,47.0473214 84.7846684,48.1994048 C83.148275,48.9988095 81.6271205,49.610119 81.4196903,49.5630952 C81.2122601,49.5160714 80.3133961,48.3404762 79.4145321,46.90625 C77.8011864,44.2964286 77.5246129,43.9672619 77.0175614,43.9672619 C76.6257488,43.9672619 75.7960282,44.8136905 75.7960282,45.2133929 C75.7960282,45.3779762 76.4644143,46.6241071 77.3171827,47.9407738 C78.1469033,49.2809524 78.7922416,50.5270833 78.746146,50.7386905 C78.7000504,50.9502976 77.4554695,51.7261905 75.9112672,52.5020833 C74.3901127,53.2544643 73.0763884,54.0068452 72.9611494,54.1714286 C72.6845758,54.5946429 72.892006,55.3 73.3760097,55.6291667 C73.79087,55.9113095 74.1596347,55.7702381 76.71794,54.547619 C78.3082379,53.7717262 79.8293924,53.1369048 80.105966,53.1369048 C80.4055873,53.1369048 80.7282564,53.3485119 80.889591,53.6541667 C81.0278778,53.9363095 81.8115028,55.2059524 82.6181757,56.4755952 C84.1854257,58.9443452 84.6002861,59.2029762 85.4761023,58.3095238 Z M87.4121171,40.252381 C87.5734517,39.8997024 87.9422164,38.8886905 88.2418377,37.9952381 L88.7488892,36.3964286 L88.2879333,35.9261905 C87.9652642,35.5735119 87.6656429,35.4794643 87.2507825,35.5970238 C86.743731,35.7145833 86.5593487,36.0672619 85.8909626,38.1127976 L85.1303854,40.4875 L85.6604847,40.9342262 C86.3288707,41.475 86.9281134,41.239881 87.4121171,40.252381 Z M89.3942275,30.0952381 C89.78604,29.6955357 89.8551834,29.3193452 89.8551834,27.5089286 C89.8551834,25.6985119 89.78604,25.3223214 89.3942275,24.922619 C89.1407018,24.6639881 88.8410804,24.452381 88.7027936,24.452381 C88.3801245,24.452381 87.5504039,25.3223214 87.5273561,25.6985119 C87.3199259,29.6955357 88.0574554,31.4589286 89.3942275,30.0952381 Z M76.2569841,21.8660714 C77.5476607,20.6434524 77.732043,19.8910714 76.8562268,19.491369 C76.1878407,19.1622024 75.8421238,19.3502976 73.9752524,20.9255952 C72.3388589,22.3127976 72.0622854,22.947619 72.7998148,23.5589286 C73.3068663,23.958631 73.3299141,23.958631 74.2057303,23.464881 C74.689734,23.1827381 75.6116459,22.477381 76.2569841,21.8660714 Z M86.9972568,19.3973214 C87.3429737,18.8565476 87.3429737,18.7625 87.0203046,18.2452381 C86.5363009,17.4928571 84.4389515,16.4583333 83.3787529,16.4583333 C81.9958852,16.4583333 81.2814035,17.5869048 82.2033153,18.3863095 C82.4107455,18.5744048 83.0099882,18.8095238 83.5170397,18.8800595 C84.0240912,18.9741071 84.6924772,19.2327381 85.0151464,19.491369 C85.8218192,20.1497024 86.5363009,20.1026786 86.9972568,19.3973214 Z" id="Shape" transform="translate(82.500000, 39.500000) scale(1, -1) translate(-82.500000, -39.500000) "></path>
                        <path d="M33,46.4955357 C33,28.0622024 33.0469945,12.9910714 33.0939889,12.9910714 C33.1409834,12.9910714 39.978679,10.2872024 48.2732032,6.99553571 C56.5912247,3.70386905 63.5464064,1 63.7343843,1 C64.0398484,1 64.0633456,5.20863095 63.898865,35.2568452 C63.804876,54.1133929 63.6638926,69.63125 63.5464064,69.7252976 C63.2879368,70.0074405 34.0103811,80 33.4464475,80 C33,80 33,79.4827381 33,46.4955357 Z M49.9180097,34.8571429 C50.9753853,33.7991071 50.34096,33.1642857 47.6387778,32.6470238 C45.3125515,32.2002976 44.8191096,32.2943452 44.6076344,33.1407738 C44.3726621,33.9872024 45.0775792,34.5514881 46.8633691,34.9511905 C48.9781203,35.3979167 49.3775733,35.3979167 49.9180097,34.8571429 Z M58.2595284,34.6220238 C60.7032409,34.0107143 61.5491414,33.1172619 60.5387603,32.2002976 C60.11581,31.8005952 59.6693625,31.871131 56.426744,32.7645833 C55.2753795,33.0702381 54.8054347,33.9401786 55.4398601,34.6220238 C55.9567993,35.1863095 55.9333021,35.1863095 58.2595284,34.6220238 Z M40.2841431,32.0357143 C41.177038,31.1422619 40.9420657,30.8130952 38.2398836,29.2377976 C36.4540936,28.1797619 35.9136572,28.1797619 35.3497236,29.1907738 C35.0207623,29.8255952 35.5611987,30.389881 37.581961,31.5419643 C39.4852371,32.6470238 39.6497177,32.6705357 40.2841431,32.0357143 Z" id="Shape" transform="translate(48.500000, 40.500000) scale(1, -1) translate(-48.500000, -40.500000) "></path>
                        <path d="M14.6076923,74.9988906 L0,69.9980092 L0,35.5107991 C0,1.94356252 0.0230769231,1 0.438461538,1 C0.669230769,1 7.38461538,3.59479693 15.3461538,6.77932043 C23.3076923,9.96384393 29.8615385,12.5586409 29.9076923,12.5586409 C29.9538462,12.5586409 30,27.7499974 30,46.2910009 C30,78.2777703 29.9769231,80.023361 29.6076923,79.9997719 C29.3769231,79.9997719 22.6153846,77.7352219 14.6076923,74.9988906 Z M16.1538462,52.8251714 C16.4769231,52.2118557 16.4769231,52.1410885 16.0153846,51.7400745 C15.4615385,51.2918823 12.0230769,50.6549776 11.3076923,50.8908682 C10.6615385,51.1031698 10.4538462,52.0939104 10.9615385,52.6600479 C11.4,53.1554183 13.2230769,53.5800214 14.7692308,53.5328433 C15.6461538,53.4856651 15.8538462,53.3913089 16.1538462,52.8251714 Z M22.7307692,49.2868119 C23.2384615,47.5648103 23.1923077,45.937165 22.6153846,45.3474384 C22.3615385,45.0879587 22.0615385,44.8756571 21.9230769,44.8756571 C21.3692308,44.8756571 20.7692308,45.8428087 20.7692308,46.7627822 C20.7692308,47.2581525 20.6538462,48.2488932 20.5153846,48.9093869 C20.2615385,50.065251 20.2846154,50.1831963 20.7461538,50.5606213 C21.5538462,51.2211151 22.3153846,50.7257448 22.7307692,49.2868119 Z M20.5384615,39.6860633 C20.7923077,39.4265836 21,39.1199258 21,38.9783914 C21,38.4122539 19.1769231,34.7795382 18.8076923,34.6380038 C18.2076923,34.4021132 17.6538462,34.6615929 17.3769231,35.2749085 C17.1692308,35.7231007 17.3076923,36.194882 18.1384615,37.9876508 C19.2,40.3465571 19.6153846,40.6296258 20.5384615,39.6860633 Z M18.2307692,29.5899443 C18.6923077,29.2125193 18.7384615,28.9530396 18.7384615,27.0423255 C18.7384615,25.8864614 18.7153846,24.8249536 18.7153846,24.6598302 C18.6923077,24.1880489 17.8153846,23.834213 17.3307692,24.0936927 C16.2230769,24.7070083 15.9230769,28.1510115 16.8692308,29.4012318 C17.4230769,30.1324928 17.5615385,30.1560818 18.2307692,29.5899443 Z M27.3230769,24.9193099 C28.2461538,23.9993364 27.6692308,23.3624317 25.0615385,22.348102 C23.2615385,21.6640192 22.5923077,21.7111973 22.2,22.5604036 C21.8307692,23.3860208 22.2230769,23.7870348 24.2307692,24.5654739 C26.2615385,25.3675021 26.8384615,25.4382693 27.3230769,24.9193099 Z" id="Shape" transform="translate(15.000000, 40.500000) scale(1, -1) translate(-15.000000, -40.500000) "></path>
                    </g>
                </g>
            </g>
        </g>
    </g>
</svg>