<!--?xml version="1.0" encoding="UTF-8"?-->
<svg width="57px" height="30px" viewBox="0 0 57 30" version="1.1" xmlns="http://www.w3.org/2000/svg" xmlns:xlink="http://www.w3.org/1999/xlink" style="">
    <!-- Generator: Sketch 46.2 (44496) - http://www.bohemiancoding.com/sketch -->
    <title>Group 5</title>
    <desc>Created with Sketch.</desc>
    <defs></defs>
    <g id="Page-2" stroke="none" stroke-width="1" fill="none" fill-rule="evenodd">
        <g id="Desktop-Copy-22" transform="translate(-22.000000, -250.000000)">
            <g id="Group-3" transform="translate(22.000000, 250.000000)">
                <g id="Group-5">
                    <g id="noun_787656_cc" fill-rule="nonzero" fill="#94A0B5">
                        <g id="Group">
                            <path d="M12.5,0 L2.5,0 C1.125,0 0,1.35 0,3 L0,27 C0,28.65 1.125,30 2.5,30 L12.5,30 C13.875,30 15,28.65 15,27 L15,3 C15,1.35 13.875,0 12.5,0 L12.5,0 Z M1.37931034,5.23255814 L1.37931034,2.96162791 C1.37931034,2.22906977 1.88087774,1.56976744 2.57053292,1.56976744 L12.6018809,1.56976744 C13.2288401,1.56976744 13.7931034,2.15581395 13.7931034,2.96162791 L13.7931034,5.23255814 L1.37931034,5.23255814 L1.37931034,5.23255814 Z M1.37931034,24.4186047 L1.37931034,5.93023256 L13.6206897,5.93023256 L13.6206897,24.4186047 L1.37931034,24.4186047 L1.37931034,24.4186047 Z M2.55995099,28.4302326 C1.93856118,28.4302326 1.37931034,27.8276956 1.37931034,26.9992072 L1.37931034,25.1162791 L13.6206897,25.1162791 L13.6206897,26.9992072 C13.6206897,27.7523784 13.1235778,28.4302326 12.440049,28.4302326 L2.55995099,28.4302326 L2.55995099,28.4302326 Z" id="Shape" class="lJpopwgW_0"></path>
                            <path d="M3.125,2.29186047 C2.75,2.29186047 2.5,2.54651163 2.5,2.92848837 C2.5,3.31046512 2.75,3.56511628 3.125,3.56511628 C3.5,3.56511628 3.75,3.31046512 3.75,2.92848837 C3.75,2.54651163 3.5,2.29186047 3.125,2.29186047 L3.125,2.29186047 Z" id="Shape" class="lJpopwgW_1"></path>
                            <path d="M4.8125,2.29186047 C4.4375,2.29186047 4.1875,2.54651163 4.1875,2.92848837 C4.1875,3.31046512 4.4375,3.56511628 4.8125,3.56511628 C5.1875,3.56511628 5.4375,3.31046512 5.4375,2.92848837 C5.4375,2.54651163 5.125,2.29186047 4.8125,2.29186047 L4.8125,2.29186047 Z" id="Shape" class="lJpopwgW_2"></path>
                            <path d="M6.5625,2.29186047 C6.1875,2.29186047 5.9375,2.54651163 5.9375,2.92848837 C5.9375,3.31046512 6.1875,3.56511628 6.5625,3.56511628 C6.9375,3.56511628 7.1875,3.31046512 7.1875,2.92848837 C7.1875,2.54651163 6.875,2.29186047 6.5625,2.29186047 L6.5625,2.29186047 Z" id="Shape" class="lJpopwgW_3"></path>
                            <path d="M8.8125,26.1497093 C8.4375,26.1497093 8.1875,26.4043605 8.1875,26.7863372 C8.1875,27.168314 8.4375,27.4229651 8.8125,27.4229651 C9.1875,27.4229651 9.4375,27.168314 9.4375,26.7863372 C9.4375,26.4043605 9.125,26.1497093 8.8125,26.1497093 L8.8125,26.1497093 Z" id="Shape" class="lJpopwgW_4"></path>
                            <path d="M10.4375,26.1497093 C10.0625,26.1497093 9.8125,26.4043605 9.8125,26.7863372 C9.8125,27.168314 10.0625,27.4229651 10.4375,27.4229651 C10.8125,27.4229651 11.0625,27.168314 11.0625,26.7863372 C11.0625,26.4043605 10.8125,26.1497093 10.4375,26.1497093 L10.4375,26.1497093 Z" id="Shape" class="lJpopwgW_5"></path>
                            <path d="M12.1875,26.1497093 C11.8125,26.1497093 11.5625,26.4043605 11.5625,26.7863372 C11.5625,27.168314 11.8125,27.4229651 12.1875,27.4229651 C12.5625,27.4229651 12.8125,27.168314 12.8125,26.7863372 C12.8125,26.4043605 12.5625,26.1497093 12.1875,26.1497093 L12.1875,26.1497093 Z" id="Shape" class="lJpopwgW_6"></path>
                        </g>
                    </g>
                    <g id="Group-4" transform="translate(19.000000, 0.000000)">
                        <path d="M4,10 L35,10" id="Line" stroke="#00CE5B" stroke-width="4" stroke-linecap="square" class="lJpopwgW_7"></path>
                        <path d="M4,16 L35,16" id="Line" stroke="#00CE5B" stroke-width="4" stroke-linecap="square" class="lJpopwgW_8"></path>
                        <path d="M4,22 L35,22" id="Line" stroke="#00CE5B" stroke-width="4" stroke-linecap="square" class="lJpopwgW_9"></path>
                        <path d="M0.430769231,1.41935484 L38,1.41935484 L38,29.8709677 L0.430769231,29.8709677 L0.430769231,1.41935484 Z M3.84615385,11.2903226 C4.47490879,11.2903226 4.98461538,10.7703952 4.98461538,10.1290323 C4.98461538,9.48766932 4.47490879,8.96774194 3.84615385,8.96774194 C3.2173989,8.96774194 2.70769231,9.48766932 2.70769231,10.1290323 C2.70769231,10.7703952 3.2173989,11.2903226 3.84615385,11.2903226 Z M7.61730769,11.2903226 C8.24606264,11.2903226 8.75576923,10.7703952 8.75576923,10.1290323 C8.75576923,9.48766932 8.24606264,8.96774194 7.61730769,8.96774194 C6.98855275,8.96774194 6.47884615,9.48766932 6.47884615,10.1290323 C6.47884615,10.7703952 6.98855275,11.2903226 7.61730769,11.2903226 Z M11.3884615,11.2903226 C12.0172165,11.2903226 12.5269231,10.7703952 12.5269231,10.1290323 C12.5269231,9.48766932 12.0172165,8.96774194 11.3884615,8.96774194 C10.7597066,8.96774194 10.25,9.48766932 10.25,10.1290323 C10.25,10.7703952 10.7597066,11.2903226 11.3884615,11.2903226 Z M15.1596154,11.2903226 C15.7883703,11.2903226 16.2980769,10.7703952 16.2980769,10.1290323 C16.2980769,9.48766932 15.7883703,8.96774194 15.1596154,8.96774194 C14.5308604,8.96774194 14.0211538,9.48766932 14.0211538,10.1290323 C14.0211538,10.7703952 14.5308604,11.2903226 15.1596154,11.2903226 Z M18.9307692,11.2903226 C19.5595242,11.2903226 20.0692308,10.7703952 20.0692308,10.1290323 C20.0692308,9.48766932 19.5595242,8.96774194 18.9307692,8.96774194 C18.3020143,8.96774194 17.7923077,9.48766932 17.7923077,10.1290323 C17.7923077,10.7703952 18.3020143,11.2903226 18.9307692,11.2903226 Z M22.7019231,11.2903226 C23.330678,11.2903226 23.8403846,10.7703952 23.8403846,10.1290323 C23.8403846,9.48766932 23.330678,8.96774194 22.7019231,8.96774194 C22.0731681,8.96774194 21.5634615,9.48766932 21.5634615,10.1290323 C21.5634615,10.7703952 22.0731681,11.2903226 22.7019231,11.2903226 Z M26.4730769,11.2903226 C27.1018319,11.2903226 27.6115385,10.7703952 27.6115385,10.1290323 C27.6115385,9.48766932 27.1018319,8.96774194 26.4730769,8.96774194 C25.844322,8.96774194 25.3346154,9.48766932 25.3346154,10.1290323 C25.3346154,10.7703952 25.844322,11.2903226 26.4730769,11.2903226 Z M30.2442308,11.2903226 C30.8729857,11.2903226 31.3826923,10.7703952 31.3826923,10.1290323 C31.3826923,9.48766932 30.8729857,8.96774194 30.2442308,8.96774194 C29.6154758,8.96774194 29.1057692,9.48766932 29.1057692,10.1290323 C29.1057692,10.7703952 29.6154758,11.2903226 30.2442308,11.2903226 Z M34.0153846,11.2903226 C34.6441396,11.2903226 35.1538462,10.7703952 35.1538462,10.1290323 C35.1538462,9.48766932 34.6441396,8.96774194 34.0153846,8.96774194 C33.3866297,8.96774194 32.8769231,9.48766932 32.8769231,10.1290323 C32.8769231,10.7703952 33.3866297,11.2903226 34.0153846,11.2903226 Z M3.84615385,17.0967742 C4.47490879,17.0967742 4.98461538,16.5768468 4.98461538,15.9354839 C4.98461538,15.2941209 4.47490879,14.7741935 3.84615385,14.7741935 C3.2173989,14.7741935 2.70769231,15.2941209 2.70769231,15.9354839 C2.70769231,16.5768468 3.2173989,17.0967742 3.84615385,17.0967742 Z M7.61730769,17.0967742 C8.24606264,17.0967742 8.75576923,16.5768468 8.75576923,15.9354839 C8.75576923,15.2941209 8.24606264,14.7741935 7.61730769,14.7741935 C6.98855275,14.7741935 6.47884615,15.2941209 6.47884615,15.9354839 C6.47884615,16.5768468 6.98855275,17.0967742 7.61730769,17.0967742 Z M11.3884615,17.0967742 C12.0172165,17.0967742 12.5269231,16.5768468 12.5269231,15.9354839 C12.5269231,15.2941209 12.0172165,14.7741935 11.3884615,14.7741935 C10.7597066,14.7741935 10.25,15.2941209 10.25,15.9354839 C10.25,16.5768468 10.7597066,17.0967742 11.3884615,17.0967742 Z M15.1596154,17.0967742 C15.7883703,17.0967742 16.2980769,16.5768468 16.2980769,15.9354839 C16.2980769,15.2941209 15.7883703,14.7741935 15.1596154,14.7741935 C14.5308604,14.7741935 14.0211538,15.2941209 14.0211538,15.9354839 C14.0211538,16.5768468 14.5308604,17.0967742 15.1596154,17.0967742 Z M18.9307692,17.0967742 C19.5595242,17.0967742 20.0692308,16.5768468 20.0692308,15.9354839 C20.0692308,15.2941209 19.5595242,14.7741935 18.9307692,14.7741935 C18.3020143,14.7741935 17.7923077,15.2941209 17.7923077,15.9354839 C17.7923077,16.5768468 18.3020143,17.0967742 18.9307692,17.0967742 Z M22.7019231,17.0967742 C23.330678,17.0967742 23.8403846,16.5768468 23.8403846,15.9354839 C23.8403846,15.2941209 23.330678,14.7741935 22.7019231,14.7741935 C22.0731681,14.7741935 21.5634615,15.2941209 21.5634615,15.9354839 C21.5634615,16.5768468 22.0731681,17.0967742 22.7019231,17.0967742 Z M26.4730769,17.0967742 C27.1018319,17.0967742 27.6115385,16.5768468 27.6115385,15.9354839 C27.6115385,15.2941209 27.1018319,14.7741935 26.4730769,14.7741935 C25.844322,14.7741935 25.3346154,15.2941209 25.3346154,15.9354839 C25.3346154,16.5768468 25.844322,17.0967742 26.4730769,17.0967742 Z M30.2442308,17.0967742 C30.8729857,17.0967742 31.3826923,16.5768468 31.3826923,15.9354839 C31.3826923,15.2941209 30.8729857,14.7741935 30.2442308,14.7741935 C29.6154758,14.7741935 29.1057692,15.2941209 29.1057692,15.9354839 C29.1057692,16.5768468 29.6154758,17.0967742 30.2442308,17.0967742 Z M34.0153846,17.0967742 C34.6441396,17.0967742 35.1538462,16.5768468 35.1538462,15.9354839 C35.1538462,15.2941209 34.6441396,14.7741935 34.0153846,14.7741935 C33.3866297,14.7741935 32.8769231,15.2941209 32.8769231,15.9354839 C32.8769231,16.5768468 33.3866297,17.0967742 34.0153846,17.0967742 Z M3.84615385,22.9032258 C4.47490879,22.9032258 4.98461538,22.3832984 4.98461538,21.7419355 C4.98461538,21.1005725 4.47490879,20.5806452 3.84615385,20.5806452 C3.2173989,20.5806452 2.70769231,21.1005725 2.70769231,21.7419355 C2.70769231,22.3832984 3.2173989,22.9032258 3.84615385,22.9032258 Z M7.61730769,22.9032258 C8.24606264,22.9032258 8.75576923,22.3832984 8.75576923,21.7419355 C8.75576923,21.1005725 8.24606264,20.5806452 7.61730769,20.5806452 C6.98855275,20.5806452 6.47884615,21.1005725 6.47884615,21.7419355 C6.47884615,22.3832984 6.98855275,22.9032258 7.61730769,22.9032258 Z M11.3884615,22.9032258 C12.0172165,22.9032258 12.5269231,22.3832984 12.5269231,21.7419355 C12.5269231,21.1005725 12.0172165,20.5806452 11.3884615,20.5806452 C10.7597066,20.5806452 10.25,21.1005725 10.25,21.7419355 C10.25,22.3832984 10.7597066,22.9032258 11.3884615,22.9032258 Z M15.1596154,22.9032258 C15.7883703,22.9032258 16.2980769,22.3832984 16.2980769,21.7419355 C16.2980769,21.1005725 15.7883703,20.5806452 15.1596154,20.5806452 C14.5308604,20.5806452 14.0211538,21.1005725 14.0211538,21.7419355 C14.0211538,22.3832984 14.5308604,22.9032258 15.1596154,22.9032258 Z M18.9307692,22.9032258 C19.5595242,22.9032258 20.0692308,22.3832984 20.0692308,21.7419355 C20.0692308,21.1005725 19.5595242,20.5806452 18.9307692,20.5806452 C18.3020143,20.5806452 17.7923077,21.1005725 17.7923077,21.7419355 C17.7923077,22.3832984 18.3020143,22.9032258 18.9307692,22.9032258 Z M22.7019231,22.9032258 C23.330678,22.9032258 23.8403846,22.3832984 23.8403846,21.7419355 C23.8403846,21.1005725 23.330678,20.5806452 22.7019231,20.5806452 C22.0731681,20.5806452 21.5634615,21.1005725 21.5634615,21.7419355 C21.5634615,22.3832984 22.0731681,22.9032258 22.7019231,22.9032258 Z M26.4730769,22.9032258 C27.1018319,22.9032258 27.6115385,22.3832984 27.6115385,21.7419355 C27.6115385,21.1005725 27.1018319,20.5806452 26.4730769,20.5806452 C25.844322,20.5806452 25.3346154,21.1005725 25.3346154,21.7419355 C25.3346154,22.3832984 25.844322,22.9032258 26.4730769,22.9032258 Z M30.2442308,22.9032258 C30.8729857,22.9032258 31.3826923,22.3832984 31.3826923,21.7419355 C31.3826923,21.1005725 30.8729857,20.5806452 30.2442308,20.5806452 C29.6154758,20.5806452 29.1057692,21.1005725 29.1057692,21.7419355 C29.1057692,22.3832984 29.6154758,22.9032258 30.2442308,22.9032258 Z M34.0153846,22.9032258 C34.6441396,22.9032258 35.1538462,22.3832984 35.1538462,21.7419355 C35.1538462,21.1005725 34.6441396,20.5806452 34.0153846,20.5806452 C33.3866297,20.5806452 32.8769231,21.1005725 32.8769231,21.7419355 C32.8769231,22.3832984 33.3866297,22.9032258 34.0153846,22.9032258 Z" id="Combined-Shape" fill="#394456" class="lJpopwgW_10"></path>
                    </g>
                </g>
            </g>
        </g>
    </g>
<style>.lJpopwgW_0{stroke-dasharray:208 210;stroke-dashoffset:209;animation:lJpopwgW_draw_0 1100ms linear 0ms infinite,lJpopwgW_fade 1100ms linear 0ms infinite;}.lJpopwgW_1{stroke-dasharray:5 7;stroke-dashoffset:6;animation:lJpopwgW_draw_1 1100ms linear 0ms infinite,lJpopwgW_fade 1100ms linear 0ms infinite;}.lJpopwgW_2{stroke-dasharray:5 7;stroke-dashoffset:6;animation:lJpopwgW_draw_2 1100ms linear 0ms infinite,lJpopwgW_fade 1100ms linear 0ms infinite;}.lJpopwgW_3{stroke-dasharray:5 7;stroke-dashoffset:6;animation:lJpopwgW_draw_3 1100ms linear 0ms infinite,lJpopwgW_fade 1100ms linear 0ms infinite;}.lJpopwgW_4{stroke-dasharray:5 7;stroke-dashoffset:6;animation:lJpopwgW_draw_4 1100ms linear 0ms infinite,lJpopwgW_fade 1100ms linear 0ms infinite;}.lJpopwgW_5{stroke-dasharray:5 7;stroke-dashoffset:6;animation:lJpopwgW_draw_5 1100ms linear 0ms infinite,lJpopwgW_fade 1100ms linear 0ms infinite;}.lJpopwgW_6{stroke-dasharray:5 7;stroke-dashoffset:6;animation:lJpopwgW_draw_6 1100ms linear 0ms infinite,lJpopwgW_fade 1100ms linear 0ms infinite;}.lJpopwgW_7{stroke-dasharray:31 33;stroke-dashoffset:32;animation:lJpopwgW_draw_7 1100ms linear 0ms infinite,lJpopwgW_fade 1100ms linear 0ms infinite;}.lJpopwgW_8{stroke-dasharray:31 33;stroke-dashoffset:32;animation:lJpopwgW_draw_8 1100ms linear 0ms infinite,lJpopwgW_fade 1100ms linear 0ms infinite;}.lJpopwgW_9{stroke-dasharray:31 33;stroke-dashoffset:32;animation:lJpopwgW_draw_9 1100ms linear 0ms infinite,lJpopwgW_fade 1100ms linear 0ms infinite;}.lJpopwgW_10{stroke-dasharray:328 330;stroke-dashoffset:329;animation:lJpopwgW_draw_10 1100ms linear 0ms infinite,lJpopwgW_fade 1100ms linear 0ms infinite;}@keyframes lJpopwgW_draw{100%{stroke-dashoffset:0;}}@keyframes lJpopwgW_fade{0%{stroke-opacity:1;}63.63636363636363%{stroke-opacity:1;}100%{stroke-opacity:0;}}@keyframes lJpopwgW_draw_0{18.181818181818183%{stroke-dashoffset: 209}48.484848484848484%{ stroke-dashoffset: 0;}100%{ stroke-dashoffset: 0;}}@keyframes lJpopwgW_draw_1{19.696969696969695%{stroke-dashoffset: 6}50%{ stroke-dashoffset: 0;}100%{ stroke-dashoffset: 0;}}@keyframes lJpopwgW_draw_2{21.21212121212121%{stroke-dashoffset: 6}51.51515151515152%{ stroke-dashoffset: 0;}100%{ stroke-dashoffset: 0;}}@keyframes lJpopwgW_draw_3{22.727272727272727%{stroke-dashoffset: 6}53.03030303030304%{ stroke-dashoffset: 0;}100%{ stroke-dashoffset: 0;}}@keyframes lJpopwgW_draw_4{24.24242424242424%{stroke-dashoffset: 6}54.54545454545454%{ stroke-dashoffset: 0;}100%{ stroke-dashoffset: 0;}}@keyframes lJpopwgW_draw_5{25.757575757575758%{stroke-dashoffset: 6}56.06060606060607%{ stroke-dashoffset: 0;}100%{ stroke-dashoffset: 0;}}@keyframes lJpopwgW_draw_6{27.27272727272727%{stroke-dashoffset: 6}57.57575757575758%{ stroke-dashoffset: 0;}100%{ stroke-dashoffset: 0;}}@keyframes lJpopwgW_draw_7{28.787878787878785%{stroke-dashoffset: 32}59.09090909090909%{ stroke-dashoffset: 0;}100%{ stroke-dashoffset: 0;}}@keyframes lJpopwgW_draw_8{30.303030303030305%{stroke-dashoffset: 32}60.60606060606061%{ stroke-dashoffset: 0;}100%{ stroke-dashoffset: 0;}}@keyframes lJpopwgW_draw_9{31.818181818181817%{stroke-dashoffset: 32}62.121212121212125%{ stroke-dashoffset: 0;}100%{ stroke-dashoffset: 0;}}@keyframes lJpopwgW_draw_10{33.33333333333333%{stroke-dashoffset: 329}63.63636363636363%{ stroke-dashoffset: 0;}100%{ stroke-dashoffset: 0;}}</style></svg>