<?xml version="1.0" encoding="UTF-8"?>
<svg width="21px" height="21px" viewBox="0 0 21 21" version="1.1" xmlns="http://www.w3.org/2000/svg" xmlns:xlink="http://www.w3.org/1999/xlink">
    <!-- Generator: Sketch 46.2 (44496) - http://www.bohemiancoding.com/sketch -->
    <title>Shape</title>
    <desc>Created with Sketch.</desc>
    <defs></defs>
    <g id="Page-2" stroke="none" stroke-width="1" fill="none" fill-rule="evenodd">
        <g id="Desktop-Copy-20" transform="translate(-677.000000, -536.000000)" fill-rule="nonzero" fill="#FFFFFF">
            <g id="Group-7-Copy" transform="translate(309.000000, 522.000000)">
                <g id="Group-2">
                    <g id="Group-6">
                        <g id="Group-5">
                            <path d="M388.120967,14 L375.109509,14 C374.624487,14 374.230033,14.3946768 374.230033,14.8794766 L374.230033,27.8909348 C374.230033,28.3759566 374.624487,28.7704114 375.109509,28.7704114 L388.120967,28.7704114 C388.606211,28.7704114 389.000444,28.3759566 389.000444,27.8909348 L389.000444,14.8794766 C389.000444,14.3946768 388.605989,14 388.120967,14 Z M382.432561,29.8980593 C382.245656,29.8980593 382.094267,30.0494482 382.094267,30.2361317 L382.094267,34.1205234 C382.094267,34.2326223 382.002812,34.3234113 381.891379,34.3234113 L368.879477,34.3234113 C368.767822,34.3234113 368.676589,34.2326223 368.676589,34.1205234 L368.676589,21.1090652 C368.676589,20.9971883 368.767822,20.9061773 368.879477,20.9061773 L372.763868,20.9061773 C372.950774,20.9061773 373.102163,20.7547884 373.102163,20.567883 C373.102163,20.3811995 372.950552,20.2295886 372.763868,20.2295886 L368.879477,20.2295886 C368.394455,20.2295886 368,20.6240434 368,21.1090652 L368,34.1205234 C368,34.6055452 368.394455,35 368.879477,35 L381.891157,35 C382.375957,35 382.770633,34.6055452 382.770633,34.1205234 L382.770633,30.2363536 C382.770633,30.0494482 382.619688,29.8980593 382.432561,29.8980593 Z" id="Shape"></path>
                        </g>
                    </g>
                </g>
            </g>
        </g>
    </g>
</svg>