<?xml version="1.0" encoding="UTF-8"?>
<svg width="15px" height="27px" viewBox="0 0 15 27" version="1.1" xmlns="http://www.w3.org/2000/svg" xmlns:xlink="http://www.w3.org/1999/xlink">
    <!-- Generator: Sketch 46.2 (44496) - http://www.bohemiancoding.com/sketch -->
    <title>noun_1055250_cc</title>
    <desc>Created with Sketch.</desc>
    <defs></defs>
    <g id="Page-2" stroke="none" stroke-width="1" fill="none" fill-rule="evenodd">
        <g id="Desktop-Copy-20" transform="translate(-326.000000, -609.000000)" fill-rule="nonzero" fill="#FFFFFF">
            <g id="Group-7" transform="translate(308.000000, 594.000000)">
                <g id="Group-2">
                    <g id="Group-6">
                        <g id="noun_1055250_cc" transform="translate(18.000000, 15.000000)">
                            <g id="Group">
                                <path d="M1.875,0.109871798 C0.845517857,0.109871798 0,1.06748596 0,2.2334673 L0,24.6829146 C0,25.8488899 0.845517857,26.8065101 1.875,26.8065101 L13.125,26.8065101 C14.1544821,26.8065101 15,25.8488899 15,24.6829146 L15,2.2334673 C15,1.06748596 14.1544821,0.109871798 13.125,0.109871798 L1.875,0.109871798 Z M1.875,1.32335494 L13.125,1.32335494 C13.5794464,1.32335494 13.9285714,1.71876843 13.9285714,2.2334673 L13.9285714,3.14357966 L1.07142857,3.14357966 L1.07142857,2.2334673 C1.07142857,1.71876843 1.42055357,1.32335494 1.875,1.32335494 Z M1.07142857,4.35706281 L13.9285714,4.35706281 L13.9285714,21.345836 L1.07142857,21.345836 L1.07142857,4.35706281 Z M1.07142857,22.5593191 L13.9285714,22.5593191 L13.9285714,24.6829146 C13.9285714,25.1976135 13.5794464,25.593027 13.125,25.593027 L1.875,25.593027 C1.42055357,25.593027 1.06078661,25.1974618 1.07142857,24.6829146 L1.07142857,22.5593191 Z M5.625,23.4694315 C5.329125,23.4694315 5.08928571,23.7410697 5.08928571,24.076173 C5.08928571,24.4112764 5.329125,24.6829146 5.625,24.6829146 L9.375,24.6829146 C9.670875,24.6829146 9.91071429,24.4112764 9.91071429,24.076173 C9.91071429,23.7410697 9.670875,23.4694315 9.375,23.4694315 L5.625,23.4694315 Z" id="Shape"></path>
                            </g>
                        </g>
                    </g>
                </g>
            </g>
        </g>
    </g>
</svg>