<?xml version="1.0" encoding="UTF-8"?>
<svg width="36px" height="36px" viewBox="0 0 36 36" version="1.1" xmlns="http://www.w3.org/2000/svg" xmlns:xlink="http://www.w3.org/1999/xlink">
    <!-- Generator: Sketch 48.2 (47327) - http://www.bohemiancoding.com/sketch -->
    <title>Group</title>
    <desc>Created with Sketch.</desc>
    <defs></defs>
    <g id="Docs-Home-Page-Copy" stroke="none" stroke-width="1" fill="none" fill-rule="evenodd" transform="translate(-808.000000, -513.000000)">
        <g id="Group-22-Copy" transform="translate(779.000000, 495.000000)" fill="#250D47" fill-rule="nonzero">
            <g id="Group" transform="translate(29.000000, 18.000000)">
                <path d="M35.4408818,15.0231978 L31.8118342,14.1522397 C31.5014239,13.0323346 31.0576416,11.9596558 30.4885561,10.952477 L32.4378758,7.77241169 C32.6139648,7.48501922 32.5698239,7.11432804 32.3315579,6.87606045 L29.1239848,3.66846625 C28.8866681,3.43091065 28.5169286,3.38534553 28.2274022,3.56238498 L25.0473579,5.51148025 C24.0406603,4.94262826 22.9679886,4.49884305 21.8483283,4.18795609 L20.9773758,0.558884583 C20.8985867,0.231148009 20.6052632,0 20.2682734,0 L15.7317266,0 C15.3947368,0 15.1014133,0.231148009 15.0226242,0.558884583 L14.1516717,4.18795609 C13.0320114,4.49884305 11.9593397,4.94262826 10.9526421,5.51148025 L7.77259779,3.56238503 C7.48402063,3.38558291 7.1138065,3.42996143 6.87601513,3.6684663 L3.66844207,6.8760605 C3.43017606,7.11432809 3.38603515,7.48501927 3.56212417,7.77241174 L5.51144388,10.952477 C4.94235835,11.9596559 4.49857602,13.0323346 4.18816576,14.1522397 L0.559118225,15.0231978 C0.231146486,15.1017502 0,15.3950756 0,15.7320676 L0,20.2681697 C0,20.6051617 0.231146486,20.8984871 0.559118225,20.9770394 L4.18816581,21.8479976 C4.49857612,22.9679027 4.9423584,24.0405814 5.51144392,25.0477603 L3.56212422,28.2278256 C3.3860352,28.5152181 3.4301761,28.8859092 3.66844212,29.1241768 L6.87601518,32.331771 C7.11380655,32.5698013 7.48354603,32.6156037 7.77259784,32.4378523 L10.9521675,30.4887571 C11.9593397,31.0576091 13.0320114,31.5013943 14.1516718,31.8122812 L15.0226242,35.4411154 C15.1014134,35.768852 15.3947369,36 15.7317267,36 L20.2682734,36 C20.6052632,36 20.8985867,35.768852 20.9773759,35.4411154 L21.8483283,31.8122812 C22.9679887,31.5013943 24.0406604,31.057609 25.0478326,30.4887571 L28.2274023,32.4378523 C28.5159794,32.6144171 28.8861936,32.5702759 29.1239849,32.331771 L32.331558,29.1241768 C32.569824,28.8859092 32.6139649,28.5152181 32.4378759,28.2278256 L30.4885562,25.0477603 C31.0576417,24.0405814 31.501424,22.9679027 31.8118343,21.8479976 L35.4408818,20.9770394 C35.7688535,20.8984871 36,20.6051617 36,20.2681697 L36,15.7320676 C36,15.3950756 35.7688535,15.1017502 35.4408818,15.0231978 Z M34.541926,19.6933847 L31.1900643,20.4976565 C30.8701614,20.510709 30.589653,20.7340255 30.5118131,21.0541679 C30.1995043,22.3390092 29.6954435,23.5600118 29.0129206,24.6825274 C28.8553422,24.9414417 28.8785993,25.262296 29.0523151,25.4948679 L30.8943677,28.499555 L28.4993671,30.894334 L25.5143972,29.0646099 C25.2799282,28.879027 24.9476848,28.8512607 24.6823647,29.0128745 C23.5598565,29.695402 22.3390992,30.1999406 21.0537917,30.5124888 C20.7462292,30.5872441 20.5335934,30.8490062 20.507014,31.1532483 L19.6934922,34.5419163 L16.3065077,34.5419163 L15.5024786,31.1919312 C15.4901381,30.8713141 15.2665857,30.5903293 14.9462082,30.5124889 C13.6609007,30.1999407 12.4401434,29.695402 11.3176352,29.0128745 C11.0584854,28.8560072 10.7385824,28.8787897 10.5050627,29.052744 L7.50063281,30.894334 L5.10563227,28.499555 L6.93534431,25.5145654 C7.12140063,25.2803322 7.14892936,24.9483239 6.98707935,24.6825274 C6.3045564,23.5600118 5.80049568,22.3390092 5.48818682,21.0541679 C5.41319471,20.7468407 5.15167169,20.5339662 4.84790626,20.5069119 L1.45807395,19.6933847 L1.45807395,16.3068526 L4.80993558,15.5025808 C5.12983853,15.4895283 5.41034695,15.2662118 5.48818682,14.9460694 C5.80049563,13.6612281 6.3045564,12.4402254 6.98707935,11.3177099 C7.14465769,11.0587956 7.12140063,10.7379413 6.94768477,10.5053693 L5.10563222,7.5006823 L7.50063276,5.1059033 L10.4841788,6.93467814 C10.719597,7.1221596 11.0518405,7.14897658 11.3176352,6.98760011 C12.4401434,6.30483533 13.6609007,5.80029663 14.9462082,5.48774843 C15.2537707,5.41299316 15.4664065,5.15123108 15.4929859,4.846989 L16.3065077,1.45808366 L19.6934922,1.45808366 L20.4975213,4.80830614 C20.5098618,5.12892318 20.7334142,5.40990805 21.0537917,5.48774843 C22.3390992,5.80029663 23.5598565,6.30483533 24.6823647,6.98760011 C24.9410399,7.14470483 25.2623668,7.1221596 25.4954118,6.947256 L28.4993671,5.1059033 L30.8943677,7.5006823 L29.0646556,10.4856719 C28.8785993,10.7199051 28.8510706,11.0519134 29.0129206,11.3177099 C29.6954436,12.4402255 30.1995043,13.6612281 30.5118131,14.9460694 C30.5868052,15.2533966 30.8483283,15.4662712 31.1520937,15.4933255 L34.541926,16.3068526 L34.541926,19.6933847 Z" id="Shape"></path>
                <path d="M14.2714855,13 L11.6586037,13 C9.61582241,13 7.95389867,14.5839946 7.95389867,16.5309361 L7.95389867,16.8057453 L5,16.8057453 L5,18.1942547 L7.95389867,18.1942547 L7.95389867,18.4690639 C7.95389867,20.4160055 9.61582241,22 11.6586037,22 L14.2714855,22 C14.6736862,22 15,21.6892577 15,21.3057453 L15,13.6942547 C15,13.3107423 14.6736862,13 14.2714855,13 Z M13.542971,20.6114906 L11.6586037,20.6114906 C10.4192753,20.6114906 9.4109277,19.6503364 9.4109277,18.4690639 L9.4109277,16.5309361 C9.4109277,15.3496635 10.4192753,14.3885094 11.6586037,14.3885094 L13.542971,14.3885094 L13.542971,20.6114906 Z" id="Shape"></path>
                <path d="M28.0324378,16.5309361 C28.0324378,14.5839945 26.3628267,13 24.3105963,13 L21.6856284,13 C21.2815673,13 20.9537441,13.3107423 20.9537441,13.6942547 L20.9537441,14.9568853 L18,14.9568853 L18,16.3453947 L20.9537441,16.3453947 L20.9537441,18.5201386 L18,18.5201386 L18,19.908648 L20.9537441,19.908648 L20.9537441,21.3057453 C20.9537441,21.6892577 21.2815673,22 21.6856284,22 L24.3105963,22 C26.3628267,22 28.0324378,20.4160054 28.0324378,18.4690639 L28.0324378,18.1942547 L31,18.1942547 L31,16.8057453 L28.0324378,16.8057453 L28.0324378,16.5309361 Z M26.5686691,18.4690639 C26.5686691,19.6503365 25.5556574,20.6114905 24.3105963,20.6114905 L22.4175127,20.6114905 L22.4175127,14.3885094 L24.3105963,14.3885094 C25.5556574,14.3885094 26.5686691,15.3496635 26.5686691,16.5309361 L26.5686691,18.4690639 Z" id="Shape"></path>
            </g>
        </g>
    </g>
</svg>