<?xml version="1.0" encoding="UTF-8"?>
<svg width="34px" height="24px" viewBox="0 0 34 24" version="1.1" xmlns="http://www.w3.org/2000/svg" xmlns:xlink="http://www.w3.org/1999/xlink">
    <!-- Generator: Sketch 48.2 (47327) - http://www.bohemiancoding.com/sketch -->
    <title>noun_84927_cc</title>
    <desc>Created with Sketch.</desc>
    <defs></defs>
    <g id="Docs-Home-Page-Copy" stroke="none" stroke-width="1" fill="none" fill-rule="evenodd" transform="translate(-579.000000, -519.000000)">
        <g id="Group-10-Copy" transform="translate(560.000000, 495.000000)" fill="#250D47" fill-rule="nonzero">
            <g id="Group-9">
                <g id="noun_84927_cc" transform="translate(19.000000, 24.000000)">
                    <g id="Guides-icon">
                        <path d="M17.2255556,20.4844444 C16.9685689,20.4844444 16.76,20.2632932 16.76,19.9896989 L16.76,5.1503011 C16.76,4.87670681 16.9685689,4.65555556 17.2255556,4.65555556 C17.4825422,4.65555556 17.6911111,4.87670681 17.6911111,5.1503011 L17.6911111,19.9896989 C17.6911111,20.2632932 17.4825422,20.4844444 17.2255556,20.4844444 Z" id="Shape"></path>
                        <path d="M30.1027205,23.2777778 L3.4177676,23.2777778 C1.5331129,23.2777778 0,21.7751369 0,19.9290079 L0,3.34876987 C0,1.50264088 1.5331129,0 3.4177676,0 L30.1022323,0 C31.986887,0 33.5199999,1.50264088 33.5199999,3.34876987 L33.5199999,19.9290079 C33.5204881,21.7751369 31.9873752,23.2777778 30.1027205,23.2777778 Z M3.4177676,0.956791392 C2.07165542,0.956791392 0.976505029,2.02983294 0.976505029,3.34876987 L0.976505029,19.9290079 C0.976505029,21.2479448 2.07165542,22.3209864 3.4177676,22.3209864 L30.1022323,22.3209864 C31.4483445,22.3209864 32.5434949,21.2479448 32.5434949,19.9290079 L32.5434949,3.34876987 C32.5434949,2.02983294 31.4483445,0.956791392 30.1022323,0.956791392 C30.1022323,0.956791392 3.4177676,0.956791392 3.4177676,0.956791392 Z" id="Shape"></path>
                    </g>
                </g>
            </g>
        </g>
    </g>
</svg>