<?xml version="1.0" encoding="UTF-8"?>
<svg width="22px" height="44px" viewBox="0 0 22 44" version="1.1" xmlns="http://www.w3.org/2000/svg" xmlns:xlink="http://www.w3.org/1999/xlink">
    <!-- Generator: Sketch 48.2 (47327) - http://www.bohemiancoding.com/sketch -->
    <title>noun_1257374_cc</title>
    <desc>Created with Sketch.</desc>
    <defs></defs>
    <g id="Docs-Home-Page-Copy" stroke="none" stroke-width="1" fill="none" fill-rule="evenodd" transform="translate(-466.000000, -509.000000)">
        <g id="Group-10" transform="translate(436.000000, 495.000000)" fill="#250D47" fill-rule="nonzero">
            <g id="Group-9" transform="translate(5.000000, 0.000000)">
                <g id="noun_1257374_cc" transform="translate(25.000000, 14.000000)">
                    <path d="M21.8385452,22.5779749 L20.1269446,20.5877433 C20.3401404,19.1383085 21.0466031,13.1092975 18.9292264,8.32337124 C18.2599724,6.81113419 17.3267377,5.36319463 16.1546634,4.01992539 C15.2913207,3.03054156 14.3153463,2.11293167 13.2528868,1.29351252 C12.9823694,1.08467029 12.706321,0.88280608 12.423736,0.687421464 C12.3146239,0.612158513 12.2050091,0.537892422 12.0938858,0.465121621 C12.054163,0.439203253 12.014943,0.411789596 11.975723,0.383877508 C11.6981661,0.188991322 11.2335601,-0.138975711 10.6040289,0.0638853566 C10.2626139,0.173041558 9.99058804,0.378394776 9.77236398,0.543375153 C9.70951143,0.590726017 9.64766452,0.63807688 9.58481197,0.680941872 C9.1986459,0.947103568 8.80845727,1.23818677 8.42631376,1.54571817 C7.34223297,2.41697406 6.3597219,3.38392853 5.50543004,4.4201648 C4.49224692,5.6487951 3.67315249,6.96166009 3.07077364,8.32287281 C0.952894102,13.108799 1.65985959,19.13781 1.87305544,20.5872449 L0.161454787,22.5774764 C0.0121171268,22.7514286 -0.0381649136,22.9886813 0.0297158409,23.2074921 L3.21810002,33.5274882 C3.29251744,33.7692268 3.49867381,33.9481633 3.75008401,33.9905298 C4.00048857,34.0318995 4.25592133,33.9307182 4.40676746,33.7273587 C4.42034361,33.7089168 5.58688694,32.1548116 6.99930946,31.5392504 L6.99930946,31.7351334 C6.99930946,32.1044702 7.30150452,32.4040267 7.67409444,32.4040267 L14.3259056,32.4040267 C14.6984955,32.4040267 15.0006905,32.1044702 15.0006905,31.7351334 L15.0006905,31.5392504 C16.4136159,32.1548116 17.5801592,33.7089168 17.5937354,33.7273587 C17.7219546,33.900314 17.925094,34 18.1372842,34 C18.1749958,34 18.2127073,33.996511 18.2504188,33.9905298 C18.501829,33.9481633 18.7079854,33.7692268 18.7824028,33.5269898 L21.9702842,23.2069937 C22.0381649,22.9891797 21.9878829,22.7514286 21.8385452,22.5779749 Z M17.8476597,31.9843485 C17.0692937,31.1988226 15.8217963,30.1855141 14.4194302,29.9896311 C14.3882553,29.9851452 14.3565776,29.9831515 14.3254027,29.9831515 C14.1639974,29.9831515 14.0061118,30.0409694 13.8829208,30.147135 C13.7350916,30.2742347 13.6506178,30.4586538 13.6506178,30.6520447 L13.6506178,31.0662402 L8.34887942,31.0662402 L8.34887942,30.6520447 C8.34887942,30.4586538 8.26440559,30.2742347 8.11657639,30.147135 C7.96925002,30.0200353 7.77315006,29.9622174 7.58006702,29.9896311 C6.17770092,30.1850157 4.92970068,31.1988226 4.15183751,31.9843485 L1.42805938,23.1666209 L3.10094287,21.2222449 C3.23117335,21.0707221 3.28698642,20.8698548 3.25229181,20.6739717 C3.24022412,20.6066837 2.09479924,13.858438 4.3067062,8.86067893 C4.85980864,7.61061614 5.61454207,6.40192304 6.55029084,5.26699761 C7.34625554,4.30153842 8.26390277,3.39937987 9.27658307,2.58544344 C9.63308273,2.29884611 9.99611906,2.02770012 10.3556357,1.78047877 C10.4340756,1.72664831 10.5120128,1.66783355 10.5904528,1.60802194 C10.7483384,1.48889713 10.897676,1.37625192 10.9746076,1.33737437 C11.0158388,1.34933669 11.1239452,1.42509807 11.1953457,1.47543952 C11.2471362,1.51182492 11.2989267,1.54821032 11.3517229,1.582602 C11.4537954,1.64939164 11.5543595,1.71767657 11.6539179,1.7859615 C11.9158874,1.96689164 12.1723258,2.1547998 12.4242388,2.34918756 C13.4168063,3.11527469 14.3284197,3.97157767 15.1339379,4.89467029 C16.2175159,6.13675821 17.0788473,7.47155413 17.6937966,8.86067893 C19.9011782,13.8494662 18.7597759,20.6061852 18.748211,20.6739717 C18.7140192,20.8698548 18.7693295,21.0707221 18.89956,21.2217465 L20.5724434,23.1661224 L17.8476597,31.9843485 Z" id="Shape"></path>
                    <path d="M10.5,36 C10.2239195,36 10,36.2931171 10,36.6545144 L10,43.3454856 C10,43.7068829 10.2239195,44 10.5,44 C10.7760805,44 11,43.7068829 11,43.3454856 L11,36.6545144 C11,36.2931171 10.7764531,36 10.5,36 Z" id="Shape"></path>
                    <path d="M14.5,36 C14.2239195,36 14,36.311722 14,36.6960581 L14,39.3039419 C14,39.688278 14.2239195,40 14.5,40 C14.7760805,40 15,39.688278 15,39.3039419 L15,36.6960581 C15,36.311722 14.7760805,36 14.5,36 Z" id="Shape"></path>
                    <path d="M7.5,36 C7.22391952,36 7,36.3318609 7,36.7410271 L7,40.2589729 C7,40.6681391 7.22391952,41 7.5,41 C7.77608048,41 8,40.6681391 8,40.2589729 L8,36.7410271 C8,36.3318609 7.77608048,36 7.5,36 Z" id="Shape"></path>
                    <path d="M11,9 C8.79429863,9 7,10.794186 7,12.9997489 C7,15.2053117 8.79429863,17 11,17 C13.2057014,17 15,15.2053117 15,12.9997489 C15,10.794186 13.2057014,9 11,9 Z M11,15.6518491 C9.53773703,15.6518491 8.34773327,14.46192 8.34773327,12.9997489 C8.34773327,11.5375777 9.53723471,10.3476486 11,10.3476486 C12.462263,10.3476486 13.6522667,11.5370754 13.6522667,12.9997489 C13.6522667,14.4624223 12.462263,15.6518491 11,15.6518491 Z" id="Shape"></path>
                    <path d="M6.53921356,17.7976436 C6.62487377,17.4503129 6.40424893,17.101535 6.04567131,17.0175968 C5.68858776,16.9355881 5.32602594,17.1478458 5.23936968,17.4956589 C5.19454748,17.6755954 4.17409532,21.9656118 6.71949842,27.611665 C6.82906381,27.8552789 7.07458987,28 7.33206853,28 C7.42121491,28 7.51185536,27.9826335 7.59900965,27.9454884 C7.93716827,27.8022145 8.09155586,27.4206331 7.94414061,27.0935634 C5.59396311,21.8802263 6.52526888,17.8540848 6.53921356,17.7976436 Z" id="Shape"></path>
                </g>
            </g>
        </g>
    </g>
</svg>