<?xml version="1.0" encoding="UTF-8"?>
<svg width="30px" height="30px" viewBox="0 0 30 30" version="1.1" xmlns="http://www.w3.org/2000/svg" xmlns:xlink="http://www.w3.org/1999/xlink">
    <!-- Generator: Sketch 48.2 (47327) - http://www.bohemiancoding.com/sketch -->
    <title>Group</title>
    <desc>Created with Sketch.</desc>
    <defs></defs>
    <g id="Docs-Home-Page-Copy" stroke="none" stroke-width="1" fill="none" fill-rule="evenodd" transform="translate(-943.000000, -516.000000)">
        <g id="Group-22-Copy-2" transform="translate(916.000000, 495.000000)" fill="#250D47" fill-rule="nonzero">
            <g id="Group-10-Copy-2">
                <g id="Group-9" transform="translate(6.000000, 0.000000)">
                    <g id="Group" transform="translate(21.000000, 21.000000)">
                        <path d="M2.19435968,0 C0.991336363,0 0,0.991334901 0,2.19435968 L0,11.7032516 C0,12.9062764 0.991336363,13.8976113 2.19435968,13.8976113 L11.7032516,13.8976113 C12.9062749,13.8976113 13.8976113,12.9062764 13.8976113,11.7032516 L13.8976113,2.19435968 C13.8976113,0.991334901 12.9062749,0 11.7032516,0 L2.19435968,0 Z M18.2863307,0 C17.0833073,0 16.091971,0.991334901 16.091971,2.19435968 L16.091971,11.7032516 C16.091971,12.9062764 17.0833073,13.8976113 18.2863307,13.8976113 L27.7952226,13.8976113 C28.9982459,13.8976113 29.9895823,12.9062764 29.9895823,11.7032516 L29.9895823,2.19435968 C29.9895823,0.991334901 28.9982459,0 27.7952226,0 L18.2863307,0 Z M2.19435968,1.46290645 L11.7032516,1.46290645 C12.1211287,1.46290645 12.4347049,1.77648411 12.4347049,2.19435968 L12.4347049,11.7032516 C12.4347049,12.1211272 12.1211287,12.4347049 11.7032516,12.4347049 L2.19435968,12.4347049 C1.77648265,12.4347049 1.46290645,12.1211272 1.46290645,11.7032516 L1.46290645,2.19435968 C1.46290645,1.77648411 1.77648265,1.46290645 2.19435968,1.46290645 Z M18.2863307,1.46290645 L27.7952226,1.46290645 C28.2130996,1.46290645 28.5266758,1.77648411 28.5266758,2.19435968 L28.5266758,11.7032516 C28.5266758,12.1211272 28.2130996,12.4347049 27.7952226,12.4347049 L18.2863307,12.4347049 C17.8684536,12.4347049 17.5548774,12.1211272 17.5548774,11.7032516 L17.5548774,2.19435968 C17.5548774,1.77648411 17.8684536,1.46290645 18.2863307,1.46290645 Z M22.9607739,16.080542 C22.5839321,16.1219533 22.3011698,16.4444015 22.3093234,16.8234242 L22.3093234,22.3093234 L16.8234242,22.3093234 C16.8005789,22.3082515 16.7776958,22.3082515 16.7548505,22.3093234 C16.4934901,22.3215223 16.2584976,22.4722466 16.1384129,22.7047068 C16.0183283,22.937167 16.0314003,23.2160369 16.1727038,23.4362445 C16.3140072,23.6564521 16.5620687,23.7845333 16.8234242,23.7722299 L22.3093234,23.7722299 L22.3093234,29.2581291 C22.3055928,29.5219174 22.4441853,29.76728 22.6720312,29.9002629 C22.8998771,30.0332457 23.1816762,30.0332457 23.4095221,29.9002629 C23.637368,29.76728 23.7759605,29.5219174 23.7722299,29.2581291 L23.7722299,23.7722299 L29.2581291,23.7722299 C29.5219174,23.7759605 29.76728,23.637368 29.9002629,23.4095221 C30.0332457,23.1816762 30.0332457,22.8998771 29.9002629,22.6720312 C29.76728,22.4441853 29.5219174,22.3055928 29.2581291,22.3093234 L23.7722299,22.3093234 L23.7722299,16.8234242 C23.7767676,16.6127685 23.6902519,16.410386 23.5348393,16.2681069 C23.3794267,16.1258277 23.1702116,16.0574707 22.9607739,16.080542 Z M2.19435968,16.091971 C0.991336363,16.091971 0,17.0833095 0,18.2863307 L0,27.7952226 C0,28.9982437 0.991336363,29.9895823 2.19435968,29.9895823 L11.7032516,29.9895823 C12.9062749,29.9895823 13.8976113,28.9982437 13.8976113,27.7952226 L13.8976113,18.2863307 C13.8976113,17.0833095 12.9062749,16.091971 11.7032516,16.091971 L2.19435968,16.091971 Z M2.19435968,17.5548774 L11.7032516,17.5548774 C12.1211287,17.5548774 12.4347049,17.8684514 12.4347049,18.2863307 L12.4347049,27.7952226 C12.4347049,28.2131018 12.1211287,28.5266758 11.7032516,28.5266758 L2.19435968,28.5266758 C1.77648265,28.5266758 1.46290645,28.2131018 1.46290645,27.7952226 L1.46290645,18.2863307 C1.46290645,17.8684514 1.77648265,17.5548774 2.19435968,17.5548774 Z" id="Shape"></path>
                    </g>
                </g>
            </g>
        </g>
    </g>
</svg>