<?xml version="1.0" encoding="UTF-8"?>
<svg width="80px" height="80px" viewBox="0 0 80 80" version="1.1" xmlns="http://www.w3.org/2000/svg" xmlns:xlink="http://www.w3.org/1999/xlink">
    <!-- Generator: Sketch 49.2 (51160) - http://www.bohemiancoding.com/sketch -->
    <title>icons/action-types/appointment</title>
    <desc>Created with Sketch.</desc>
    <defs></defs>
    <g id="icons/action-types/appointment" stroke="none" stroke-width="1" fill="none" fill-rule="evenodd">
        <rect id="Rectangle-2" fill="#E1F8EA" x="0" y="0" width="80" height="80" rx="7"></rect>
        <g id="noun_534759_cc" transform="translate(25.000000, 25.000000)" fill="#00C94B" fill-rule="nonzero">
            <path d="M28.430875,31 L2.569125,31 C1.15345833,31 0,29.8465417 0,28.430875 L0,5.15245833 C0,3.73679167 1.15345833,2.58333333 2.569125,2.58333333 L28.4295833,2.58333333 C29.8465417,2.58333333 31,3.73679167 31,5.15245833 L31,28.4295833 C31,29.8465417 29.8465417,31 28.430875,31 Z M28.430875,28.4166667 L28.430875,29.7083333 L28.430875,28.4166667 Z M28.4166667,5.15245833 L2.569125,5.16666667 L2.58333333,28.430875 L28.4166667,28.4166667 L28.4166667,5.15245833 Z M29.7083333,12.9166667 L1.29166667,12.9166667 C0.578666667,12.9166667 0,12.338 0,11.625 C0,10.912 0.578666667,10.3333333 1.29166667,10.3333333 L29.7083333,10.3333333 C30.422625,10.3333333 31,10.912 31,11.625 C31,12.338 30.422625,12.9166667 29.7083333,12.9166667 Z M14.2083333,25.8333333 C13.8660417,25.8333333 13.5379583,25.699 13.295125,25.454875 L9.420125,21.579875 C8.91508333,21.0748333 8.91508333,20.2585 9.420125,19.7534583 C9.92516667,19.2484167 10.7415,19.2484167 11.2465417,19.7534583 L14.1217917,22.6287083 L19.6746667,15.965 C20.1319167,15.4173333 20.944375,15.3424167 21.494625,15.7996667 C22.0422917,16.2569167 22.1159167,17.0706667 21.6599583,17.619625 L15.201625,25.369625 C14.969125,25.648625 14.6307083,25.8165417 14.26775,25.8320417 L14.2083333,25.8333333 Z M23.25,7.75 C22.5357083,7.75 21.9583333,7.17133333 21.9583333,6.45833333 L21.9583333,1.29166667 C21.9583333,0.578666667 22.5357083,0 23.25,0 C23.9642917,0 24.5416667,0.578666667 24.5416667,1.29166667 L24.5416667,6.45833333 C24.5416667,7.17133333 23.9642917,7.75 23.25,7.75 Z M7.75,7.75 C7.037,7.75 6.45833333,7.17133333 6.45833333,6.45833333 L6.45833333,1.29166667 C6.45833333,0.578666667 7.037,0 7.75,0 C8.463,0 9.04166667,0.578666667 9.04166667,1.29166667 L9.04166667,6.45833333 C9.04166667,7.17133333 8.463,7.75 7.75,7.75 Z" id="Shape"></path>
        </g>
    </g>
</svg>