<?xml version="1.0" encoding="UTF-8"?>
<svg width="80px" height="80px" viewBox="0 0 80 80" version="1.1" xmlns="http://www.w3.org/2000/svg" xmlns:xlink="http://www.w3.org/1999/xlink">
    <!-- Generator: Sketch 49.2 (51160) - http://www.bohemiancoding.com/sketch -->
    <title>icons/action-types/delivery</title>
    <desc>Created with Sketch.</desc>
    <defs></defs>
    <g id="icons/action-types/delivery" stroke="none" stroke-width="1" fill="none" fill-rule="evenodd">
        <rect id="Rectangle-2" fill="#FFFBE6" x="0" y="0" width="80" height="80" rx="7"></rect>
        <g id="noun_345845_cc" transform="translate(18.000000, 26.000000)" fill-rule="nonzero">
            <g id="Group">
                <polygon id="Shape" fill="#FFFFFF" points="32.5875 12.0772727 32.5875 8.94090909 36.0525 8.94090909 37.77125 12.0772727"></polygon>
                <path d="M0.01375,0.186363636 L0.01375,23.5318182 L2.35125,23.5318182 C2.365,25.9045455 4.30375,27.8136364 6.69625,27.8136364 C9.08875,27.8136364 11.0275,25.9045455 11.04125,23.5318182 L15.84,23.5318182 C15.85375,25.9045455 17.7925,27.8136364 20.185,27.8136364 C22.5775,27.8136364 24.51625,25.9045455 24.53,23.5318182 L26.8125,23.5318182 L26.8125,0.186363636 L0.01375,0.186363636 Z M6.71,25.7681818 C5.45875,25.7681818 4.44125,24.7727273 4.4275,23.5318182 L9.00625,23.5318182 C8.97875,24.7727273 7.96125,25.7681818 6.71,25.7681818 Z M11.44,18.5545455 L5.775,13.5636364 L7.15,12.0363636 L11.17875,15.5818182 L19.48375,5.02727273 L21.10625,6.28181818 L11.44,18.5545455 Z M20.2125,25.7681818 C18.96125,25.7681818 17.94375,24.7727273 17.93,23.5318182 L22.50875,23.5318182 C22.48125,24.7727273 21.46375,25.7681818 20.2125,25.7681818 Z" id="Shape" fill="#000000"></path>
            </g>
            <g id="Group" fill="#F5A623">
                <path d="M43.98625,23.5454545 L43.98625,14.6409091 L38.1425,5.35454545 L28.93,5.35454545 L28.93,23.5454545 L32.13375,23.5454545 C32.13375,23.5318182 32.13375,23.5181818 32.13375,23.5181818 C32.13375,25.9045455 34.08625,27.8409091 36.4925,27.8409091 C38.89875,27.8409091 40.85125,25.9045455 40.85125,23.5181818 C40.85125,23.5318182 40.85125,23.5454545 40.85125,23.5454545 L43.98625,23.5454545 Z M32.6425,12.2545455 L32.6425,9.00909091 L36.23125,9.00909091 L38.005,12.2545455 L32.6425,12.2545455 Z" id="Shape"></path>
                <path d="M24.54375,23.5454545 L26.8675,23.5454545 L26.8675,0.186363636 L0.01375,0.186363636 L0.01375,23.5454545 L2.35125,23.5454545 C2.365,25.9181818 4.30375,27.8272727 6.69625,27.8272727 C9.08875,27.8272727 11.0275,25.9181818 11.04125,23.5454545 L15.82625,23.5454545 C15.84,25.9181818 17.77875,27.8272727 20.17125,27.8272727 C22.56375,27.8272727 24.51625,25.9045455 24.54375,23.5454545 Z M11.44,18.5545455 L5.775,13.5636364 L7.15,12.0363636 L11.17875,15.5818182 L19.48375,5.02727273 L21.10625,6.28181818 L11.44,18.5545455 Z" id="Shape"></path>
            </g>
        </g>
    </g>
</svg>