<?xml version="1.0" encoding="UTF-8"?>
<svg width="80px" height="80px" viewBox="0 0 80 80" version="1.1" xmlns="http://www.w3.org/2000/svg" xmlns:xlink="http://www.w3.org/1999/xlink">
    <!-- Generator: Sketch 49.2 (51160) - http://www.bohemiancoding.com/sketch -->
    <title>icons/action-types/dropoff</title>
    <desc>Created with Sketch.</desc>
    <defs></defs>
    <g id="icons/action-types/dropoff" stroke="none" stroke-width="1" fill="none" fill-rule="evenodd">
        <rect id="Rectangle-2" fill="#F9F3FE" x="0" y="0" width="80" height="80" rx="7"></rect>
        <g id="noun_38662_cc" transform="translate(17.000000, 24.000000)" fill="#C789FE" fill-rule="nonzero">
            <g id="Group">
                <path d="M45.9362376,18.5482603 L42.897505,16.7255753 L42.0890891,11.2163836 C41.9702178,9.79964384 40.7774059,8.68487671 39.321802,8.68487671 L34.8821188,8.68487671 L34.8821188,5.77545205 L29.0187129,5.77545205 L29.0187129,8.68487671 L24.3517624,8.68487671 C22.8970693,8.68487671 21.7033465,9.79964384 21.5844752,11.2163836 L20.7860792,16.7201507 L17.7377822,18.5482603 L17.7450693,27.3800548 L19.3054257,27.3800548 L19.3026931,30.2704932 C19.3026931,31.5131918 20.3151485,32.5194658 21.565802,32.5194658 C22.8164554,32.5194658 23.8289109,31.5131918 23.8289109,30.2704932 L23.8266337,27.3800548 L39.8510297,27.3800548 L39.8478416,30.2704932 C39.8478416,31.5131918 40.8612079,32.5194658 42.1091287,32.5194658 C43.3602376,32.5194658 44.373604,31.5131918 44.373604,30.2704932 L44.3704158,27.3800548 L45.9303168,27.3800548 L45.9362376,18.5482603 Z M21.5084158,23.4810822 C20.4613465,23.4810822 19.6133069,22.6370959 19.6133069,21.5964658 C19.6133069,20.5562877 20.4613465,19.7123014 21.5084158,19.7123014 C22.5545743,19.7123014 23.4044356,20.5562877 23.4044356,21.5964658 C23.4039802,22.6370959 22.5541188,23.4810822 21.5084158,23.4810822 Z M25.1255644,24.2016575 L25.1287525,20.814863 C25.1287525,20.3460822 25.5122376,19.9640959 25.9840792,19.9640959 L37.6685347,19.9640959 C38.1408317,19.9640959 38.5238614,20.3460822 38.5238614,20.814863 L38.5265941,24.2016575 L25.1255644,24.2016575 Z M23.2295446,16.3937671 L23.5679406,11.3226164 C23.6303366,10.5866712 24.250198,10.5993288 25.0053267,10.5993288 L38.673703,10.5993288 C39.4292871,10.5993288 40.0482376,10.5866712 40.1129109,11.3226164 L40.450396,16.3937671 L23.2295446,16.3937671 Z M42.165604,23.4810822 C41.1194455,23.4810822 40.270495,22.6370959 40.270495,21.5964658 C40.270495,20.5562877 41.1194455,19.7123014 42.165604,19.7123014 C43.2126733,19.7123014 44.0607129,20.5562877 44.0607129,21.5964658 C44.0607129,22.6370959 43.2126733,23.4810822 42.165604,23.4810822 Z" id="Shape"></path>
                <g>
                    <ellipse id="Oval" cx="7.72617822" cy="2.83935616" rx="2.62564356" ry="2.60609589"></ellipse>
                    <path d="M4.64463366,6.16105479 L10.6820198,6.15743836 L10.6829307,6.15156164 L19.5627525,3.465 C21.4268911,2.95643836 22.0549505,5.25378082 20.4080594,5.77906849 L11.5214059,8.76624658 L11.5241386,31.135274 C11.5241386,31.985137 10.8300396,32.6754247 9.97243564,32.6754247 C9.11437624,32.6754247 8.42073267,31.985137 8.42073267,31.135274 L8.41845545,19.3077123 L7.03253465,19.3077123 L7.03617822,31.135274 C7.03617822,31.985137 6.34116832,32.6754247 5.48447525,32.6754247 C4.62687129,32.6754247 3.93186139,31.985137 3.93186139,31.135274 L3.92457426,10.1156301 L2.81465347,10.0925753 L2.81465347,18.3036986 C2.81465347,19.9559589 0.449524752,19.9559589 0.454534653,18.3036986 L0.454534653,9.91808219 C0.455445545,7.36939726 2.07774257,6.16105479 4.64463366,6.16105479 Z" id="Shape"></path>
                </g>
            </g>
        </g>
    </g>
</svg>