<?xml version="1.0" encoding="UTF-8"?>
<svg width="80px" height="80px" viewBox="0 0 80 80" version="1.1" xmlns="http://www.w3.org/2000/svg" xmlns:xlink="http://www.w3.org/1999/xlink">
    <!-- Generator: Sketch 49.2 (51160) - http://www.bohemiancoding.com/sketch -->
    <title>icons/action-types/meeting</title>
    <desc>Created with Sketch.</desc>
    <defs></defs>
    <g id="icons/action-types/meeting" stroke="none" stroke-width="1" fill="none" fill-rule="evenodd">
        <rect id="Rectangle-2" fill="#FFF5EC" x="0" y="0" width="80" height="80" rx="7"></rect>
        <g id="noun_969516_cc" transform="translate(18.000000, 19.000000)" fill="#8F7B69" fill-rule="nonzero">
            <g id="Group">
                <path d="M21.757,28.8775 L21.757,41.0505 C21.757,41.4605 22.09,41.7935 22.5,41.7935 C22.91,41.7935 23.243,41.4605 23.243,41.0505 L23.243,28.8775 C23.243,28.4675 22.91,28.1345 22.5,28.1345 C22.09,28.1345 21.757,28.4675 21.757,28.8775 Z" id="Shape"></path>
                <path d="M32.637,25.802 C32.637,25.392 32.304,25.059 31.894,25.059 L13.106,25.059 C12.696,25.059 12.363,25.392 12.363,25.802 C12.363,26.212 12.696,26.545 13.106,26.545 L31.894,26.545 C32.304,26.545 32.637,26.212 32.637,25.802 Z" id="Shape"></path>
                <path d="M26.962,4.6145 C26.962,2.184 24.9845,0.2065 22.554,0.2065 C20.123,0.2065 18.1455,2.184 18.1455,4.6145 C18.1455,7.0455 20.123,9.023 22.554,9.023 C24.9845,9.023 26.962,7.0455 26.962,4.6145 Z M19.6315,4.6145 C19.6315,3.003 20.9425,1.6925 22.554,1.6925 C24.1655,1.6925 25.476,3.003 25.476,4.6145 C25.476,6.226 24.1655,7.537 22.554,7.537 C20.9425,7.537 19.6315,6.226 19.6315,4.6145 Z" id="Shape"></path>
                <path d="M16.615,15.123 L16.615,22.6495 C16.615,23.0595 16.948,23.3925 17.358,23.3925 C17.7675,23.3925 18.0995,23.061 18.1005,22.652 C18.1005,22.651 18.1005,22.6505 18.1005,22.65 L18.1005,15.123 C18.1005,13.3745 19.521,11.952 21.2665,11.952 L23.728,11.952 C25.336,11.952 26.6895,13.1575 26.876,14.75 C26.8895,14.873 26.899,14.9955 26.899,15.123 L26.899,22.6775 L26.899,22.6795 C26.899,23.0895 27.232,23.4225 27.642,23.4225 C28.052,23.4225 28.385,23.0895 28.385,22.6795 L28.385,15.123 C28.385,14.9405 28.3725,14.7635 28.3525,14.5825 C28.0775,12.2365 26.0895,10.4665 23.728,10.4665 L21.2665,10.4665 C18.702,10.4665 16.615,12.555 16.615,15.123 Z" id="Shape"></path>
                <path d="M40.618,9.121 C38.2015,9.121 36.236,11.0865 36.236,13.503 C36.236,15.9195 38.2015,17.885 40.618,17.885 C43.0345,17.885 45,15.919 45,13.5025 C45,11.086 43.0345,9.121 40.618,9.121 Z M40.618,16.399 C39.021,16.399 37.722,15.1 37.722,13.503 C37.722,11.906 39.021,10.607 40.618,10.607 C42.215,10.607 43.514,11.906 43.514,13.503 C43.514,15.0995 42.215,16.399 40.618,16.399 Z" id="Shape"></path>
                <path d="M40.932,18.8615 L39.918,18.8615 C37.6825,18.8615 35.8635,20.6805 35.8635,22.916 L35.8635,28.516 L33.4805,28.516 C31.0265,28.516 29.03,30.5125 29.03,32.9665 L29.03,39.9315 C29.03,40.953 29.8615,41.7845 30.883,41.7845 L33.8885,41.7845 C34.91,41.7845 35.7415,40.953 35.7415,39.9315 L35.7415,35.469 L40.6405,35.469 C43.0375,35.469 44.9875,33.519 44.9875,31.122 L44.9875,22.916 C44.987,20.6805 43.168,18.8615 40.932,18.8615 Z M43.501,31.122 C43.501,32.6995 42.2175,33.9835 40.6395,33.9835 L34.998,33.9835 C34.588,33.9835 34.255,34.3165 34.255,34.7265 L34.255,39.932 C34.255,40.1345 34.0905,40.299 33.888,40.299 L30.8825,40.299 C30.68,40.299 30.5155,40.1345 30.5155,39.932 L30.5155,32.967 C30.5155,31.3325 31.8455,30.002 33.4805,30.002 L36.6065,30.002 C37.0165,30.002 37.3495,29.669 37.3495,29.259 L37.3495,22.916 C37.3495,21.5 38.502,20.3475 39.918,20.3475 L40.932,20.3475 C42.3485,20.3475 43.501,21.5 43.501,22.916 L43.501,31.122 Z" id="Shape"></path>
                <path d="M4.382,17.8845 C6.7985,17.8845 8.764,15.919 8.764,13.5025 C8.764,11.086 6.7985,9.1205 4.382,9.1205 C1.9655,9.1205 0,11.0865 0,13.5025 C0,15.9185 1.9655,17.8845 4.382,17.8845 Z M4.382,10.6065 C5.979,10.6065 7.278,11.9055 7.278,13.5025 C7.278,15.0995 5.979,16.3985 4.382,16.3985 C2.785,16.3985 1.486,15.0995 1.486,13.5025 C1.486,11.9055 2.785,10.6065 4.382,10.6065 Z" id="Shape"></path>
                <path d="M11.112,41.7845 L14.118,41.7845 C15.1395,41.7845 15.971,40.953 15.971,39.9315 L15.971,32.9665 C15.971,30.5125 13.9745,28.516 11.5205,28.516 L9.137,28.516 L9.137,22.916 C9.137,20.6805 7.318,18.8615 5.0825,18.8615 L4.0685,18.8615 C1.833,18.8615 0.014,20.6805 0.014,22.916 L0.014,31.122 C0.014,33.519 1.964,35.469 4.3605,35.469 L9.2595,35.469 L9.2595,39.9315 C9.259,40.9535 10.0905,41.7845 11.112,41.7845 Z M4.36,33.9835 C2.7825,33.9835 1.499,32.7 1.499,31.122 L1.499,22.916 C1.499,21.5 2.6515,20.3475 4.0675,20.3475 L5.0815,20.3475 C6.4975,20.3475 7.65,21.5 7.65,22.916 L7.65,29.259 C7.65,29.669 7.983,30.002 8.393,30.002 L11.5195,30.002 C13.154,30.002 14.4845,31.332 14.4845,32.967 L14.4845,39.932 C14.4845,40.1345 14.32,40.299 14.1175,40.299 L11.1115,40.299 C10.909,40.299 10.7445,40.1345 10.7445,39.932 L10.7445,34.7265 C10.7445,34.3165 10.4115,33.9835 10.0015,33.9835 L4.36,33.9835 Z" id="Shape"></path>
            </g>
        </g>
    </g>
</svg>