<?xml version="1.0" encoding="UTF-8"?>
<svg width="80px" height="80px" viewBox="0 0 80 80" version="1.1" xmlns="http://www.w3.org/2000/svg" xmlns:xlink="http://www.w3.org/1999/xlink">
    <!-- Generator: Sketch 49.2 (51160) - http://www.bohemiancoding.com/sketch -->
    <title>icons/action-types/payment</title>
    <desc>Created with Sketch.</desc>
    <defs></defs>
    <g id="icons/action-types/payment" stroke="none" stroke-width="1" fill="none" fill-rule="evenodd">
        <rect id="Rectangle-2" fill-opacity="0.10362885" fill="#000000" x="0" y="0" width="80" height="80" rx="7"></rect>
        <g id="noun_1433216_cc" transform="translate(17.000000, 24.000000)" fill="#000000" fill-opacity="0.501783288" fill-rule="nonzero">
            <path d="M0,28.1600439 C0,30.2775054 1.71325918,32 3.81815164,32 L42.1818484,32 C44.2867408,32 46,30.2775054 46,28.1600439 L46,16 L0,16 L0,28.1600439 Z M19.1818484,21.8970755 L24.227263,21.8970755 C24.8294401,21.8970755 25.3181635,22.3885898 25.3181635,22.9942058 C25.3181635,23.5998217 24.8294401,24.0913361 24.227263,24.0913361 L19.1818484,24.0913361 C18.5796713,24.0913361 18.0909479,23.5998217 18.0909479,22.9942058 C18.0909479,22.3885898 18.5796713,21.8970755 19.1818484,21.8970755 Z M8.13648113,21.8970755 L13.1818958,21.8970755 C13.7840729,21.8970755 14.2727963,22.3885898 14.2727963,22.9942058 C14.2727963,23.5998217 13.7840729,24.0913361 13.1818958,24.0913361 L8.13648113,24.0913361 C7.53430408,24.0913361 7.04558067,23.5998217 7.04558067,22.9942058 C7.04558067,22.3885898 7.53430408,21.8970755 8.13648113,21.8970755 Z M42.1818484,0 L3.81815164,0 C1.71325918,0 0,1.7224946 0,3.83995611 L0,7.77152261 L46,7.77152261 L46,3.83995611 C46,1.72304317 44.2867408,0 42.1818484,0 Z" id="Shape"></path>
        </g>
    </g>
</svg>