<?xml version="1.0" encoding="UTF-8"?>
<svg width="80px" height="80px" viewBox="0 0 80 80" version="1.1" xmlns="http://www.w3.org/2000/svg" xmlns:xlink="http://www.w3.org/1999/xlink">
    <!-- Generator: Sketch 49.2 (51160) - http://www.bohemiancoding.com/sketch -->
    <title>icons/action-types/pickup</title>
    <desc>Created with Sketch.</desc>
    <defs></defs>
    <g id="icons/action-types/pickup" stroke="none" stroke-width="1" fill="none" fill-rule="evenodd">
        <rect id="Rectangle-2" fill-opacity="0.100000001" fill="#F55416" x="0" y="0" width="80" height="80" rx="7"></rect>
        <g id="noun_196502_cc" transform="translate(23.000000, 22.000000)" fill="#F55416" fill-rule="nonzero">
            <path d="M0.5,36.2 L34.9805195,36.2 L34.9805195,9.78441558 L27.4415584,0.2 L8.03896104,0.2 L0.5,9.78441558 L0.5,36.2 Z M2.42857143,34.212987 L2.42857143,11.0701299 L33.0519481,11.0701299 L33.0519481,34.212987 L2.42857143,34.212987 Z M32,9.14155844 L18.7337662,9.14155844 L18.7337662,2.18701299 L26.5064935,2.18701299 L32,9.14155844 Z M8.97402597,2.18701299 L16.7467532,2.18701299 L16.7467532,9.14155844 L3.48051948,9.14155844 L8.97402597,2.18701299 Z M22.0649351,18.5506494 L23.4675325,19.9532468 L15.987013,27.4337662 L12.0714286,23.5181818 L13.474026,22.1155844 L15.987013,24.6285714 L22.0649351,18.5506494 Z" id="Shape"></path>
        </g>
    </g>
</svg>