<?xml version="1.0" encoding="UTF-8"?>
<svg width="80px" height="80px" viewBox="0 0 80 80" version="1.1" xmlns="http://www.w3.org/2000/svg" xmlns:xlink="http://www.w3.org/1999/xlink">
    <!-- Generator: Sketch 49.2 (51160) - http://www.bohemiancoding.com/sketch -->
    <title>icons/action-types/stopover</title>
    <desc>Created with Sketch.</desc>
    <defs></defs>
    <g id="icons/action-types/stopover" stroke="none" stroke-width="1" fill="none" fill-rule="evenodd">
        <rect id="Rectangle-2" fill-opacity="0.0989583333" fill="#D80000" x="0" y="0" width="80" height="80" rx="7"></rect>
        <g id="noun_1234952_cc" transform="translate(32.000000, 15.000000)" fill="#885E6B" fill-rule="nonzero">
            <g id="Group">
                <path d="M3.4,0.21947191 C1.53604293,0.21947191 0,1.74182584 0,3.58916854 L0,33.9164045 C0,35.763764 1.53604293,37.2861236 3.4,37.2861236 L4.53333333,37.2861236 L4.53333333,48.518427 C4.52755301,48.9235047 4.742292,49.3002878 5.09532256,49.5044985 C5.44835312,49.7087092 5.88498021,49.7087092 6.23801077,49.5044985 C6.59104133,49.3002878 6.80578033,48.9235047 6.8,48.518427 L6.8,37.2861236 L10.2,37.2861236 L10.2,48.518427 C10.1942197,48.9235047 10.4089587,49.3002878 10.7619892,49.5044985 C11.1150198,49.7087092 11.5516469,49.7087092 11.9046774,49.5044985 C12.257708,49.3002878 12.472447,48.9235047 12.4666667,48.518427 L12.4666667,37.2861236 L13.6,37.2861236 C15.4639571,37.2861236 17,35.763764 17,33.9164045 L17,3.58916854 C17,1.74182584 15.4639571,0.21947191 13.6,0.21947191 L3.4,0.21947191 Z M3.4,2.4659382 L13.6,2.4659382 C14.2474308,2.4659382 14.7333333,2.94750562 14.7333333,3.58916854 L14.7333333,33.9164045 C14.7333333,34.5580899 14.2474308,35.0396629 13.6,35.0396629 L11.3333333,35.0396629 L5.56041667,35.0396629 L3.4,35.0396629 C2.75256917,35.0396629 2.26666667,34.5580899 2.26666667,33.9164045 L2.26666667,3.58916854 C2.26666667,2.94750562 2.75256917,2.4659382 3.4,2.4659382 Z M8.5,4.71240449 C6.3226944,4.71240449 4.53333333,6.48581461 4.53333333,8.64371348 C4.53333333,10.801618 6.3226944,12.5750281 8.5,12.5750281 C10.6773056,12.5750281 12.4666667,10.801618 12.4666667,8.64371348 C12.4666667,6.48581461 10.6773056,4.71240449 8.5,4.71240449 Z M8.5,6.95886517 C9.4523077,6.95886517 10.2,7.69989326 10.2,8.64371348 C10.2,9.58753933 9.4523077,10.3285618 8.5,10.3285618 C7.54769173,10.3285618 6.8,9.58753933 6.8,8.64371348 C6.8,7.69989326 7.54769173,6.95886517 8.5,6.95886517 Z M8.5,14.8214888 C6.3226944,14.8214888 4.53333333,16.5949045 4.53333333,18.7528034 C4.53333333,20.9107022 6.3226944,22.6841124 8.5,22.6841124 C10.6773056,22.6841124 12.4666667,20.9107022 12.4666667,18.7528034 C12.4666667,16.5949045 10.6773056,14.8214888 8.5,14.8214888 Z M8.5,17.0679551 C9.4523077,17.0679551 10.2,17.8089831 10.2,18.7528034 C10.2,19.6966236 9.4523077,20.4376517 8.5,20.4376517 C7.54769173,20.4376517 6.8,19.6966236 6.8,18.7528034 C6.8,17.8089831 7.54769173,17.0679551 8.5,17.0679551 Z M8.5,24.9305618 C6.3226944,24.9305618 4.53333333,26.7039888 4.53333333,28.8619101 C4.53333333,31.0197753 6.3226944,32.7932022 8.5,32.7932022 C10.6773056,32.7932022 12.4666667,31.0197753 12.4666667,28.8619101 C12.4666667,26.7039888 10.6773056,24.9305618 8.5,24.9305618 Z M8.5,27.1770225 C9.4523077,27.1770225 10.2,27.9180337 10.2,28.8619101 C10.2,29.8056742 9.4523077,30.5467416 8.5,30.5467416 C7.54769173,30.5467416 6.8,29.8056742 6.8,28.8619101 C6.8,27.9180337 7.54769173,27.1770225 8.5,27.1770225 Z" id="Shape"></path>
            </g>
        </g>
    </g>
</svg>