<?xml version="1.0" encoding="UTF-8"?>
<svg width="31px" height="33px" viewBox="0 0 31 33" version="1.1" xmlns="http://www.w3.org/2000/svg" xmlns:xlink="http://www.w3.org/1999/xlink">
    <!-- Generator: Sketch 48.2 (47327) - http://www.bohemiancoding.com/sketch -->
    <title>UI/icons/platforms/react/brand color</title>
    <desc>Created with Sketch.</desc>
    <defs></defs>
    <g id="Symbols" stroke="none" stroke-width="1" fill="none" fill-rule="evenodd">
        <g id="UI/icons/platforms/react/brand-color" fill-rule="nonzero">
            <g id="react" transform="translate(0.000000, 2.000000)">
                <path d="M0.0913046875,13.8955078 C0.0913046875,16.2223242 2.36338672,18.3943828 5.94533984,19.6187617 C5.23003906,23.2197266 5.81722266,26.1222227 7.77821484,27.2531172 C9.79382031,28.4156172 12.7967031,27.6109492 15.6468867,25.1194453 C18.4251406,27.5103203 21.2329414,28.4512187 23.1922383,27.3170547 C25.2060273,26.1512852 25.8183984,23.0520117 25.0833594,19.3385508 C28.8142578,18.1050898 30.9011875,16.2529609 30.9011875,13.8955078 C30.9011875,11.6226992 28.6249883,9.6565 25.0912305,8.43999219 C25.8825781,4.57310547 25.212082,1.74108594 23.1698359,0.563449219 C21.2009727,-0.571925781 18.3604766,0.417652344 15.5414141,2.87101172 C12.6085234,0.267011719 9.79612109,-0.52796875 7.75605469,0.6529375 C5.78900781,1.79158203 5.22773828,4.746875 5.94533984,8.41444141 C2.48423828,9.62114062 0.0913046875,11.6319023 0.0913046875,13.8955078 Z" id="Shape" fill="#FFFFFF"></path>
                <path d="M24.3428711,9.64802344 C24.0516368,9.54812443 23.7579316,9.45557943 23.4620352,9.37047656 C23.5111054,9.17108428 23.556483,8.97080132 23.5981445,8.76973047 C24.2648867,5.53313672 23.8289492,2.92574609 22.3402227,2.06743359 C20.9128906,1.24423828 18.5784453,2.10255078 16.22075,4.15424219 C15.9884296,4.35687358 15.761266,4.56534244 15.5394766,4.77944922 C15.3909502,4.6370809 15.2397993,4.49747622 15.0861016,4.36070703 C12.6151836,2.16673047 10.1384531,1.24230078 8.65130078,2.10315625 C7.22530078,2.92865234 6.80292578,5.37995312 7.4031875,8.44725781 C7.46290935,8.75101046 7.53033997,9.05319653 7.60541406,9.35352344 C7.25496875,9.4530625 6.91651172,9.55914062 6.59270703,9.672 C3.69590234,10.6819219 1.84583203,12.2648594 1.84583203,13.9066484 C1.84583203,15.6024453 3.83176953,17.3033281 6.84918359,18.3345625 C7.09385132,18.4177939 7.34055553,18.4949142 7.58906641,18.5658516 C7.50833343,18.8894068 7.43665832,19.2151551 7.374125,19.5427148 C6.80183594,22.5567383 7.24879297,24.9499141 8.67103906,25.7703242 C10.1400273,26.617375 12.6054961,25.7467109 15.0063008,23.6481562 C15.1960547,23.4822578 15.3865352,23.3063086 15.5772578,23.1218828 C15.8174862,23.3536635 16.0641289,23.5787027 16.3168984,23.7967383 C18.6423828,25.7978125 20.9390469,26.6058711 22.360082,25.7832812 C23.8277383,24.9336875 24.3046055,22.3627461 23.685332,19.2347734 C23.6381055,18.9958555 23.5830078,18.7518516 23.52125,18.5033672 C23.6944141,18.4522656 23.8643086,18.3994687 24.0300859,18.3444922 C27.1668984,17.3052656 29.2076914,15.6250898 29.2076914,13.9066484 C29.2076914,12.2589258 27.298043,10.665332 24.3428711,9.64802344 Z" id="Shape" fill="#53C1DE"></path>
                <path d="M23.6624453,17.2350313 C23.5128945,17.2845586 23.3593477,17.3323906 23.2028945,17.3787695 C22.8565664,16.2825078 22.3891445,15.1167383 21.8173398,13.9124609 C22.3631094,12.7366406 22.8123672,11.5858867 23.1490078,10.4966484 C23.4288555,10.5777813 23.7005898,10.6631523 23.9623945,10.7533672 C26.4944648,11.6248789 28.0388945,12.9136797 28.0388945,13.9066484 C28.0388945,14.9644023 26.3708281,16.3376055 23.6625664,17.2350313 L23.6624453,17.2350313 Z M22.5386953,19.4618242 C22.8124883,20.844957 22.8516016,22.0954922 22.6702031,23.073082 C22.5072109,23.9514961 22.1795313,24.5371055 21.7743516,24.7716641 C20.912043,25.2708125 19.0679063,24.6219922 17.0793047,22.9106953 C16.8512852,22.7145234 16.6215703,22.5050313 16.39125,22.2834297 C17.1622539,21.4401328 17.9327734,20.4597578 18.6847656,19.371125 C20.0075938,19.2537852 21.2572813,19.0618516 22.3905977,18.7999258 C22.4463008,19.0251602 22.4959492,19.2459141 22.5386953,19.4618242 Z M11.1740469,24.6854453 C10.3315977,24.9829727 9.66061719,24.9914492 9.25507422,24.7576172 C8.39191797,24.2599219 8.03323828,22.3381641 8.52257812,19.7606836 C8.58076852,19.4560796 8.6473957,19.153148 8.72238281,18.8522383 C9.84310547,19.1001172 11.0837109,19.2784883 12.4096875,19.3860195 C13.1666445,20.4512813 13.9594453,21.4304453 14.7584219,22.2879102 C14.5886181,22.4521694 14.4147959,22.6122231 14.2371133,22.7679258 C13.1754844,23.6959883 12.1116758,24.3542539 11.174168,24.6854453 L11.1740469,24.6854453 Z M7.22723828,17.2284922 C5.89302734,16.7724531 4.79119531,16.1798203 4.03593359,15.5331797 C3.35732422,14.9519297 3.01462891,14.374918 3.01462891,13.9066484 C3.01462891,12.9104102 4.50008594,11.6395313 6.97754297,10.7757695 C7.28849951,10.6678287 7.60254939,10.5690142 7.91928906,10.4794531 C8.26174219,11.5931523 8.71087891,12.7575898 9.25289453,13.9351055 C8.70385547,15.1301797 8.24830078,16.3131445 7.90269922,17.4399219 C7.6758472,17.3749905 7.45062553,17.3044926 7.22723828,17.2284922 Z M8.55030859,8.22275 C8.03602344,5.59465234 8.37750781,3.61222656 9.23691016,3.11477344 C10.1523789,2.58486719 12.1764609,3.34049219 14.3098906,5.23476172 C14.4462422,5.35585547 14.5831992,5.48264063 14.7203984,5.61378516 C13.9255391,6.467375 13.1400039,7.43915234 12.3895859,8.49823828 C11.1027227,8.61751563 9.87083594,8.80908594 8.73836719,9.06568359 C8.66860791,8.78628999 8.6059018,8.5051825 8.55030859,8.22262891 L8.55030859,8.22275 Z M20.3529531,11.1371133 C20.0854664,10.6750716 19.808057,10.218846 19.520918,9.76875391 C20.3940039,9.87894922 21.2303984,10.0254727 22.0158125,10.2048125 C21.780043,10.9605586 21.4861484,11.7508164 21.1400625,12.5609336 C20.8871966,12.0811347 20.6247745,11.6064333 20.3529531,11.1371133 Z M15.5398398,6.44908984 C16.0789492,7.033125 16.6189063,7.68533594 17.1500234,8.39288672 C16.0726536,8.3419765 14.9934863,8.34173405 13.9160937,8.39216016 C14.4476953,7.69114844 14.9922539,7.03990625 15.5398398,6.44908984 Z M10.6958477,11.1451055 C10.4274296,11.610693 10.1699141,12.0824816 9.92351172,12.5600859 C9.58311719,11.7527539 9.29188672,10.9589844 9.05405859,10.1924609 C9.83475,10.0177227 10.6672695,9.87495313 11.5346641,9.76657422 C11.2443071,10.2194557 10.9646245,10.6790928 10.6958477,11.1451055 Z M11.5596094,18.1301563 C10.6635156,18.0301328 9.81840234,17.8946289 9.03795312,17.7247344 C9.27953516,16.9446484 9.57718359,16.1338047 9.92484375,15.3091563 C10.1722849,15.7871146 10.430932,16.2591878 10.7005703,16.7249844 C10.9757088,17.2001354 11.2621365,17.6686591 11.5596094,18.1301563 Z M15.5721719,21.446793 C15.018168,20.8489531 14.4656172,20.1877813 13.9259023,19.4765977 C14.4497539,19.4971836 14.9838984,19.5075977 15.5267617,19.5075977 C16.0845195,19.5075977 16.6358594,19.495125 17.1784805,19.4709063 C16.645668,20.1950469 16.1076484,20.8571875 15.5721719,21.446793 Z M21.1512031,15.2671367 C21.5169063,16.1007461 21.8252109,16.9072305 22.0700625,17.6741172 C21.2766563,17.8551523 20.4201602,18.0009492 19.5176484,18.109207 C19.8068629,17.6507115 20.0869274,17.1865076 20.3576758,16.7168711 C20.632908,16.2395735 20.8974826,15.756209 21.1512031,15.2671367 Z M19.3450898,16.132957 C18.9306102,16.8529751 18.4928267,17.559325 18.0324336,18.2508867 C17.2206211,18.3088906 16.3816836,18.3388008 15.5267617,18.3388008 C14.6753516,18.3388008 13.8470703,18.3122813 13.0494258,18.2605742 C12.5770919,17.5706227 12.1310269,16.8630504 11.7121875,16.139375 C11.2953058,15.4195392 10.9059107,14.6841317 10.5448437,13.9347422 C10.9049923,13.1851282 11.2932108,12.4493267 11.7086758,11.7288984 L11.7086758,11.7291406 C12.1240104,11.0085589 12.5665638,10.304012 13.0353789,9.61702344 C13.8491289,9.55550781 14.6834648,9.52329688 15.5268828,9.52329688 C16.3740547,9.52329688 17.2094805,9.55575 18.0229883,9.61775 C18.4870614,10.3036814 18.9267843,11.0057759 19.3413359,11.7227227 C19.7582296,12.4415481 20.1516291,13.1737453 20.5209102,13.9181523 C20.1554277,14.6701438 19.7632794,15.4088802 19.3452109,16.132957 L19.3450898,16.132957 Z M21.7564297,3.08001953 C22.672625,3.60847266 23.0290039,5.73935938 22.4533242,8.53383984 C22.4155915,8.71588336 22.3745744,8.89723063 22.330293,9.07779297 C21.1951602,8.81586719 19.9624258,8.62090625 18.6718086,8.4998125 C17.9199375,7.42922266 17.1409414,6.45575 16.358918,5.61317969 C16.5638405,5.41562104 16.7736396,5.22318406 16.9881211,5.03604687 C19.008207,3.27800781 20.8961797,2.58389844 21.7564297,3.08001953 Z" id="Shape" fill="#FFFFFF"></path>
                <path d="M15.5267617,11.4633398 C16.8762305,11.4633398 17.9700703,12.5573008 17.9700703,13.9066484 C17.9700703,15.2561172 16.8762305,16.3500781 15.5267617,16.3500781 C14.1774141,16.3500781 13.0834531,15.2561172 13.0834531,13.9066484 C13.0834531,12.5573008 14.1774141,11.4633398 15.5267617,11.4633398" id="Shape" fill="#53C1DE"></path>
            </g>
        </g>
    </g>
</svg>