<?xml version="1.0" encoding="UTF-8"?>
<svg width="31px" height="33px" viewBox="0 0 31 33" version="1.1" xmlns="http://www.w3.org/2000/svg" xmlns:xlink="http://www.w3.org/1999/xlink" style="background: #000000;">
    <!-- Generator: Sketch 48.2 (47327) - http://www.bohemiancoding.com/sketch -->
    <title>UI/icons/platforms/react/white</title>
    <desc>Created with Sketch.</desc>
    <defs></defs>
    <g id="Symbols" stroke="none" stroke-width="1" fill="none" fill-rule="evenodd">
        <g id="UI/icons/platforms/react/white" fill-rule="nonzero">
            <g id="react" transform="translate(1.000000, 3.000000)">
                <path d="M23.3428711,8.64802344 C23.0516368,8.54812443 22.7579316,8.45557943 22.4620352,8.37047656 C22.5111054,8.17108428 22.556483,7.97080132 22.5981445,7.76973047 C23.2648867,4.53313672 22.8289492,1.92574609 21.3402227,1.06743359 C19.9128906,0.244238281 17.5784453,1.10255078 15.22075,3.15424219 C14.9884296,3.35687358 14.761266,3.56534244 14.5394766,3.77944922 C14.3909502,3.6370809 14.2397993,3.49747622 14.0861016,3.36070703 C11.6151836,1.16673047 9.13845312,0.242300781 7.65130078,1.10315625 C6.22530078,1.92865234 5.80292578,4.37995312 6.4031875,7.44725781 C6.46290935,7.75101046 6.53033997,8.05319653 6.60541406,8.35352344 C6.25496875,8.4530625 5.91651172,8.55914062 5.59270703,8.672 C2.69590234,9.68192187 0.845832031,11.2648594 0.845832031,12.9066484 C0.845832031,14.6024453 2.83176953,16.3033281 5.84918359,17.3345625 C6.09385132,17.4177939 6.34055553,17.4949142 6.58906641,17.5658516 C6.50833343,17.8894068 6.43665832,18.2151551 6.374125,18.5427148 C5.80183594,21.5567383 6.24879297,23.9499141 7.67103906,24.7703242 C9.14002734,25.617375 11.6054961,24.7467109 14.0063008,22.6481562 C14.1960547,22.4822578 14.3865352,22.3063086 14.5772578,22.1218828 C14.8174862,22.3536635 15.0641289,22.5787027 15.3168984,22.7967383 C17.6423828,24.7978125 19.9390469,25.6058711 21.360082,24.7832812 C22.8277383,23.9336875 23.3046055,21.3627461 22.685332,18.2347734 C22.6381055,17.9958555 22.5830078,17.7518516 22.52125,17.5033672 C22.6944141,17.4522656 22.8643086,17.3994687 23.0300859,17.3444922 C26.1668984,16.3052656 28.2076914,14.6250898 28.2076914,12.9066484 C28.2076914,11.2589258 26.298043,9.66533203 23.3428711,8.64802344 Z" id="Shape" stroke="#FFFFFF"></path>
                <path d="M22.6624453,16.2350312 C22.5128945,16.2845586 22.3593477,16.3323906 22.2028945,16.3787695 C21.8565664,15.2825078 21.3891445,14.1167383 20.8173398,12.9124609 C21.3631094,11.7366406 21.8123672,10.5858867 22.1490078,9.49664844 C22.4288555,9.57778125 22.7005898,9.66315234 22.9623945,9.75336719 C25.4944648,10.6248789 27.0388945,11.9136797 27.0388945,12.9066484 C27.0388945,13.9644023 25.3708281,15.3376055 22.6625664,16.2350312 L22.6624453,16.2350312 Z M21.5386953,18.4618242 C21.8124883,19.844957 21.8516016,21.0954922 21.6702031,22.073082 C21.5072109,22.9514961 21.1795312,23.5371055 20.7743516,23.7716641 C19.912043,24.2708125 18.0679062,23.6219922 16.0793047,21.9106953 C15.8512852,21.7145234 15.6215703,21.5050312 15.39125,21.2834297 C16.1622539,20.4401328 16.9327734,19.4597578 17.6847656,18.371125 C19.0075937,18.2537852 20.2572812,18.0618516 21.3905977,17.7999258 C21.4463008,18.0251602 21.4959492,18.2459141 21.5386953,18.4618242 Z M10.1740469,23.6854453 C9.33159766,23.9829727 8.66061719,23.9914492 8.25507422,23.7576172 C7.39191797,23.2599219 7.03323828,21.3381641 7.52257812,18.7606836 C7.58076852,18.4560796 7.6473957,18.153148 7.72238281,17.8522383 C8.84310547,18.1001172 10.0837109,18.2784883 11.4096875,18.3860195 C12.1666445,19.4512812 12.9594453,20.4304453 13.7584219,21.2879102 C13.5886181,21.4521694 13.4147959,21.6122231 13.2371133,21.7679258 C12.1754844,22.6959883 11.1116758,23.3542539 10.174168,23.6854453 L10.1740469,23.6854453 Z M6.22723828,16.2284922 C4.89302734,15.7724531 3.79119531,15.1798203 3.03593359,14.5331797 C2.35732422,13.9519297 2.01462891,13.374918 2.01462891,12.9066484 C2.01462891,11.9104102 3.50008594,10.6395312 5.97754297,9.77576953 C6.28849951,9.66782866 6.60254939,9.5690142 6.91928906,9.47945312 C7.26174219,10.5931523 7.71087891,11.7575898 8.25289453,12.9351055 C7.70385547,14.1301797 7.24830078,15.3131445 6.90269922,16.4399219 C6.6758472,16.3749905 6.45062553,16.3044926 6.22723828,16.2284922 Z M7.55030859,7.22275 C7.03602344,4.59465234 7.37750781,2.61222656 8.23691016,2.11477344 C9.15237891,1.58486719 11.1764609,2.34049219 13.3098906,4.23476172 C13.4462422,4.35585547 13.5831992,4.48264062 13.7203984,4.61378516 C12.9255391,5.467375 12.1400039,6.43915234 11.3895859,7.49823828 C10.1027227,7.61751562 8.87083594,7.80908594 7.73836719,8.06568359 C7.66860791,7.78628999 7.6059018,7.5051825 7.55030859,7.22262891 L7.55030859,7.22275 Z M19.3529531,10.1371133 C19.0854664,9.67507161 18.808057,9.21884597 18.520918,8.76875391 C19.3940039,8.87894922 20.2303984,9.02547266 21.0158125,9.2048125 C20.780043,9.96055859 20.4861484,10.7508164 20.1400625,11.5609336 C19.8871966,11.0811347 19.6247745,10.6064333 19.3529531,10.1371133 Z M14.5398398,5.44908984 C15.0789492,6.033125 15.6189062,6.68533594 16.1500234,7.39288672 C15.0726536,7.3419765 13.9934863,7.34173405 12.9160937,7.39216016 C13.4476953,6.69114844 13.9922539,6.03990625 14.5398398,5.44908984 Z M9.69584766,10.1451055 C9.42742956,10.610693 9.16991414,11.0824816 8.92351172,11.5600859 C8.58311719,10.7527539 8.29188672,9.95898437 8.05405859,9.19246094 C8.83475,9.01772266 9.66726953,8.87495312 10.5346641,8.76657422 C10.2443071,9.2194557 9.96462453,9.6790928 9.69584766,10.1451055 Z M10.5596094,17.1301562 C9.66351562,17.0301328 8.81840234,16.8946289 8.03795312,16.7247344 C8.27953516,15.9446484 8.57718359,15.1338047 8.92484375,14.3091562 C9.17228493,14.7871146 9.43093196,15.2591878 9.70057031,15.7249844 C9.9757088,16.2001354 10.2621365,16.6686591 10.5596094,17.1301562 Z M14.5721719,20.446793 C14.018168,19.8489531 13.4656172,19.1877812 12.9259023,18.4765977 C13.4497539,18.4971836 13.9838984,18.5075977 14.5267617,18.5075977 C15.0845195,18.5075977 15.6358594,18.495125 16.1784805,18.4709062 C15.645668,19.1950469 15.1076484,19.8571875 14.5721719,20.446793 Z M20.1512031,14.2671367 C20.5169062,15.1007461 20.8252109,15.9072305 21.0700625,16.6741172 C20.2766562,16.8551523 19.4201602,17.0009492 18.5176484,17.109207 C18.8068629,16.6507115 19.0869274,16.1865076 19.3576758,15.7168711 C19.632908,15.2395735 19.8974826,14.756209 20.1512031,14.2671367 Z M18.3450898,15.132957 C17.9306102,15.8529751 17.4928267,16.559325 17.0324336,17.2508867 C16.2206211,17.3088906 15.3816836,17.3388008 14.5267617,17.3388008 C13.6753516,17.3388008 12.8470703,17.3122812 12.0494258,17.2605742 C11.5770919,16.5706227 11.1310269,15.8630504 10.7121875,15.139375 C10.2953058,14.4195392 9.90591067,13.6841317 9.54484375,12.9347422 C9.9049923,12.1851282 10.2932108,11.4493267 10.7086758,10.7288984 L10.7086758,10.7291406 C11.1240104,10.0085589 11.5665638,9.30401202 12.0353789,8.61702344 C12.8491289,8.55550781 13.6834648,8.52329687 14.5268828,8.52329687 C15.3740547,8.52329687 16.2094805,8.55575 17.0229883,8.61775 C17.4870614,9.30368143 17.9267843,10.0057759 18.3413359,10.7227227 C18.7582296,11.4415481 19.1516291,12.1737453 19.5209102,12.9181523 C19.1554277,13.6701438 18.7632794,14.4088802 18.3452109,15.132957 L18.3450898,15.132957 Z M20.7564297,2.08001953 C21.672625,2.60847266 22.0290039,4.73935937 21.4533242,7.53383984 C21.4155915,7.71588336 21.3745744,7.89723063 21.330293,8.07779297 C20.1951602,7.81586719 18.9624258,7.62090625 17.6718086,7.4998125 C16.9199375,6.42922266 16.1409414,5.45575 15.358918,4.61317969 C15.5638405,4.41562104 15.7736396,4.22318406 15.9881211,4.03604687 C18.008207,2.27800781 19.8961797,1.58389844 20.7564297,2.08001953 Z" id="Shape" stroke="#FFFFFF"></path>
                <path d="M14.5267617,10.4633398 C15.8762305,10.4633398 16.9700703,11.5573008 16.9700703,12.9066484 C16.9700703,14.2561172 15.8762305,15.3500781 14.5267617,15.3500781 C13.1774141,15.3500781 12.0834531,14.2561172 12.0834531,12.9066484 C12.0834531,11.5573008 13.1774141,10.4633398 14.5267617,10.4633398" id="Shape" fill="#FFFFFF"></path>
            </g>
        </g>
    </g>
</svg>