<!--?xml version="1.0" encoding="UTF-8"?-->
<svg width="288px" height="130px" viewBox="0 0 288 130" version="1.1" xmlns="http://www.w3.org/2000/svg" xmlns:xlink="http://www.w3.org/1999/xlink" style="">
    <!-- Generator: Sketch 46.2 (44496) - http://www.bohemiancoding.com/sketch -->
    <title>Group 3</title>
    <desc>Created with Sketch.</desc>
    <defs></defs>
    <g id="Page-2" stroke="none" stroke-width="1" fill="none" fill-rule="evenodd">
        <g id="Desktop-Copy-20" transform="translate(-376.000000, -259.000000)">
            <g id="Group-3" transform="translate(376.000000, 259.000000)">
                <path d="M62,48 L133.768596,60" id="Line-3" stroke="#00C94B" stroke-width="2" stroke-linecap="square" stroke-dasharray="1,1" class="MlWncXoW_0"></path>
                <path d="M61.3613861,61 L133.768596,61" id="Line-3" stroke="#00C94B" stroke-width="2" stroke-linecap="square" stroke-dasharray="1,1" class="MlWncXoW_1"></path>
                <path d="M61,74 L133.768596,62" id="Line-3" stroke="#00C94B" stroke-width="2" stroke-linecap="square" stroke-dasharray="1,1" class="MlWncXoW_2"></path>
                <g id="noun_787656_cc" transform="translate(0.000000, 1.000000)" fill-rule="nonzero" fill="#5A6A84">
                    <g id="Group">
                        <path d="M53.3333333,0 L10.6666667,0 C4.8,0 0,5.58 0,12.4 L0,111.6 C0,118.42 4.8,124 10.6666667,124 L53.3333333,124 C59.2,124 64,118.42 64,111.6 L64,12.4 C64,5.58 59.2,0 53.3333333,0 L53.3333333,0 Z M5.88505747,21.627907 L5.88505747,12.2413953 C5.88505747,9.21348837 8.02507837,6.48837209 10.9676071,6.48837209 L53.7680251,6.48837209 C56.4430512,6.48837209 58.8505747,8.91069767 58.8505747,12.2413953 L58.8505747,21.627907 L5.88505747,21.627907 L5.88505747,21.627907 Z M5.88505747,100.930233 L5.88505747,24.5116279 L58.1149425,24.5116279 L58.1149425,100.930233 L5.88505747,100.930233 L5.88505747,100.930233 Z M10.9224576,117.511628 C8.27119435,117.511628 5.88505747,115.021142 5.88505747,111.596723 L5.88505747,103.813953 L58.1149425,103.813953 L58.1149425,111.596723 C58.1149425,114.709831 55.993932,117.511628 53.0775424,117.511628 L10.9224576,117.511628 L10.9224576,117.511628 Z" id="Shape" class="MlWncXoW_3"></path>
                        <path d="M13.3333333,9.47302326 C11.7333333,9.47302326 10.6666667,10.5255814 10.6666667,12.1044186 C10.6666667,13.6832558 11.7333333,14.735814 13.3333333,14.735814 C14.9333333,14.735814 16,13.6832558 16,12.1044186 C16,10.5255814 14.9333333,9.47302326 13.3333333,9.47302326 L13.3333333,9.47302326 Z" id="Shape" class="MlWncXoW_4"></path>
                        <path d="M20.5333333,9.47302326 C18.9333333,9.47302326 17.8666667,10.5255814 17.8666667,12.1044186 C17.8666667,13.6832558 18.9333333,14.735814 20.5333333,14.735814 C22.1333333,14.735814 23.2,13.6832558 23.2,12.1044186 C23.2,10.5255814 21.8666667,9.47302326 20.5333333,9.47302326 L20.5333333,9.47302326 Z" id="Shape" class="MlWncXoW_5"></path>
                        <path d="M28,9.47302326 C26.4,9.47302326 25.3333333,10.5255814 25.3333333,12.1044186 C25.3333333,13.6832558 26.4,14.735814 28,14.735814 C29.6,14.735814 30.6666667,13.6832558 30.6666667,12.1044186 C30.6666667,10.5255814 29.3333333,9.47302326 28,9.47302326 L28,9.47302326 Z" id="Shape" class="MlWncXoW_6"></path>
                        <path d="M37.6,108.085465 C36,108.085465 34.9333333,109.138023 34.9333333,110.71686 C34.9333333,112.295698 36,113.348256 37.6,113.348256 C39.2,113.348256 40.2666667,112.295698 40.2666667,110.71686 C40.2666667,109.138023 38.9333333,108.085465 37.6,108.085465 L37.6,108.085465 Z" id="Shape" class="MlWncXoW_7"></path>
                        <path d="M44.5333333,108.085465 C42.9333333,108.085465 41.8666667,109.138023 41.8666667,110.71686 C41.8666667,112.295698 42.9333333,113.348256 44.5333333,113.348256 C46.1333333,113.348256 47.2,112.295698 47.2,110.71686 C47.2,109.138023 46.1333333,108.085465 44.5333333,108.085465 L44.5333333,108.085465 Z" id="Shape" class="MlWncXoW_8"></path>
                        <path d="M52,108.085465 C50.4,108.085465 49.3333333,109.138023 49.3333333,110.71686 C49.3333333,112.295698 50.4,113.348256 52,113.348256 C53.6,113.348256 54.6666667,112.295698 54.6666667,110.71686 C54.6666667,109.138023 53.6,108.085465 52,108.085465 L52,108.085465 Z" id="Shape" class="MlWncXoW_9"></path>
                    </g>
                </g>
                <g id="Group-68" transform="translate(130.000000, 0.000000)">
                    <g id="imac">
                        <g id="noun_987482_cc">
                            <g id="Group">
                                <path d="M104.439756,127.886622 C104.474867,127.862027 104.517,127.840946 104.538067,127.814595 C104.517,127.840946 104.474867,127.863784 104.439756,127.886622 Z" id="Shape" class="MlWncXoW_10"></path>
                                <path d="M104.601267,127.672297 C104.599511,127.691622 104.583711,127.710946 104.576689,127.73027 C104.583711,127.710946 104.599511,127.693378 104.601267,127.672297 Z" id="Shape" class="MlWncXoW_11"></path>
                                <path d="M53.1757778,127.886622 C53.1950889,127.898919 53.2056222,127.912973 53.2302,127.92527 C53.2056222,127.912973 53.1933333,127.898919 53.1757778,127.886622 Z" id="Shape" class="MlWncXoW_12"></path>
                                <path d="M104.053533,128.035946 C104.1852,128.011351 104.287022,127.977973 104.367778,127.941081 C104.287022,127.977973 104.1852,128.009595 104.053533,128.035946 Z" id="Shape" class="MlWncXoW_13"></path>
                                <path d="M104.573178,127.496622 C104.574933,127.501892 104.576689,127.505405 104.578444,127.510676 C104.573178,127.498378 104.571422,127.489595 104.571422,127.489595 L104.569667,127.489595 C104.571422,127.491351 104.573178,127.493108 104.573178,127.496622 Z" id="Shape" fill="#4F5F7A" fill-rule="nonzero" class="MlWncXoW_14"></path>
                                <path d="M53.2811111,127.173378 L53.2828667,127.171622" id="Shape" stroke="#4F5F7A" stroke-linecap="round" stroke-linejoin="round" class="MlWncXoW_15"></path>
                                <path d="M0,106.224054 C0,108.311081 1.6906,110.002838 3.7762,110.002838 L61.3988,110.002838 C61.3478889,111.309865 60.9458667,119.909189 59.0498667,122.410811 C59.0498667,122.410811 58.6478444,122.841216 57.9824889,123.461351 C57.8912,123.547432 57.8069333,123.626486 57.7033556,123.719595 C57.4417778,123.956757 57.1521111,124.211486 56.8255778,124.482027 C55.8494889,125.295405 54.5451111,126.186081 53.2951556,127.157568 C53.2951556,127.157568 53.2846222,127.166351 53.2793556,127.171622 C53.2231778,127.222568 52.9054222,127.528243 53.0581556,127.777703 C53.0546444,127.772432 53.0458667,127.768919 53.0441111,127.763649 C52.9984667,127.977973 52.9721333,128.285405 53.1459333,128.471622 C53.1459333,128.471622 53.4672,128.817703 54.8611111,128.880946 C54.8611111,128.880946 58.1246889,129.100541 60.0417556,129.133919 L72.4570444,129.133919 L78.8297111,129.133919 L85.2216889,129.09527 L97.6369778,129.09527 C99.5558,129.061892 102.819378,128.842297 102.819378,128.842297 C104.213289,128.779054 104.534556,128.432973 104.534556,128.432973 C104.776822,128.172973 104.632867,127.672297 104.583711,127.528243 C104.587222,127.540541 104.585467,127.552838 104.587222,127.566892 C104.541578,127.354324 104.316867,127.159324 104.316867,127.159324 C103.066911,126.187838 101.762533,125.297162 100.786444,124.483784 C100.459911,124.211486 100.170244,123.956757 99.9086667,123.721351 C99.8068444,123.628243 99.7243333,123.549189 99.6312889,123.464865 C98.9641778,122.84473 98.5621556,122.412568 98.5621556,122.412568 C96.6679111,119.910946 96.2641333,111.309865 96.2132222,110.004595 L154.218533,110.004595 C156.304133,110.004595 157.994733,108.312838 157.994733,106.225811 L157.994733,95.4287838 L0,95.4287838 L0,106.224054 Z M53.2284444,127.92527 C53.2056222,127.912973 53.1933333,127.898919 53.1740222,127.886622 C53.1933333,127.898919 53.2056222,127.912973 53.2284444,127.92527 Z M104.439756,127.886622 C104.474867,127.862027 104.517,127.840946 104.538067,127.814595 C104.517,127.840946 104.474867,127.863784 104.439756,127.886622 Z M104.576689,127.73027 C104.583711,127.710946 104.599511,127.691622 104.601267,127.672297 C104.599511,127.693378 104.583711,127.710946 104.576689,127.73027 Z M104.366022,127.939324 C104.287022,127.976216 104.183444,128.009595 104.051778,128.034189 C104.1852,128.009595 104.287022,127.977973 104.366022,127.939324 Z" id="Shape" fill="#4F5F7A" fill-rule="nonzero" class="MlWncXoW_16"></path>
                                <path d="M154.2238,0.864324324 L3.7762,0.864324324 C1.6906,0.864324324 0,2.55783784 0,4.64486486 L0,95.427027 L158,95.427027 L158,4.64486486 C158,2.55783784 156.3094,0.864324324 154.2238,0.864324324 Z M79.0632,3.23418919 C79.4037778,3.23418919 79.6811556,3.51175676 79.6811556,3.85256757 C79.6811556,4.19337838 79.4037778,4.47094595 79.0632,4.47094595 C78.7226222,4.47094595 78.4452444,4.19337838 78.4452444,3.85256757 C78.4452444,3.51175676 78.7226222,3.23418919 79.0632,3.23418919 Z M151.846778,89.6209459 L5.83546667,89.6209459 L5.83546667,6.78986486 L151.845022,6.78986486 L151.845022,89.6209459 L151.846778,89.6209459 Z" id="Shape" fill="#4F5F7A" fill-rule="nonzero" class="MlWncXoW_17"></path>
                                <path id="Oval" fill="#4F5F7A" fill-rule="nonzero" d="M78.0632,3.85256757A1,1 0,1,1 80.0632,3.85256757A1,1 0,1,1 78.0632,3.85256757" class="MlWncXoW_18"></path>
                                <path id="Oval" fill="#4F5F7A" fill-rule="nonzero" opacity="0.25" d="M78.0632,3.85256757A1,1 0,1,1 80.0632,3.85256757A1,1 0,1,1 78.0632,3.85256757" class="MlWncXoW_19"></path>
                            </g>
                        </g>
                    </g>
                    <path d="M90.2189114,54.4563999 L65,54.4563999 L65,64.0721438 L79.7386571,64.0721438 L79.7386571,67.6508257 C77.9821216,68.2196443 76.7028208,69.8123365 76.7028208,71.7062318 C76.7028208,74.0746843 78.6885181,76 81.1292014,76 C83.5698848,76 85.555582,74.0746843 85.555582,71.7062318 C85.555582,69.8123365 84.2773937,68.2196443 82.5197457,67.6508257 L82.5197457,61.3634835 L67.7810886,61.3634835 L67.7810886,57.1650602 L93,57.1650602 L93,48.6642009 L75.5447755,48.6642009 L75.5447755,42.9445939 L84.7435042,42.9445939 L84.7435042,26.3480909 C86.5000397,25.7781887 87.7793405,24.1854965 87.7793405,22.2926847 C87.7793405,19.9253157 85.7936432,18 83.3529599,18 C80.9122765,18 78.9265793,19.9253157 78.9265793,22.2926847 C78.9265793,24.18658 80.2047676,25.7781887 81.9624156,26.3480909 L81.9624156,40.2359336 L72.7636869,40.2359336 L72.7636869,51.3728611 L90.2189114,51.3728611 L90.2189114,54.4563999 Z M81.5,74 C80.673428,74 80,73.3274094 80,72.5 C80,71.6725906 80.6724138,71 81.5,71 C82.3275862,71 83,71.6725906 83,72.5 C83,73.3274094 82.326572,74 81.5,74 Z M83.5,21 C84.326572,21 85,21.6728205 85,22.4994872 C85,23.3271795 84.3275862,24 83.5,24 C82.6724138,24 82,23.3271795 82,22.4994872 C82.0010142,21.6717949 82.673428,21 83.5,21 Z" id="Shape" fill="#1ED26A" fill-rule="nonzero" transform="translate(79.000000, 47.000000) rotate(-360.000000) translate(-79.000000, -47.000000) " class="MlWncXoW_20"></path>
                </g>
            </g>
        </g>
    </g>
<style>.MlWncXoW_0{stroke-dasharray:73 75;stroke-dashoffset:74;animation:MlWncXoW_draw_0 2000ms linear 0ms infinite,MlWncXoW_fade 2000ms linear 0ms infinite;}.MlWncXoW_1{stroke-dasharray:73 75;stroke-dashoffset:74;animation:MlWncXoW_draw_1 2000ms linear 0ms infinite,MlWncXoW_fade 2000ms linear 0ms infinite;}.MlWncXoW_2{stroke-dasharray:74 76;stroke-dashoffset:75;animation:MlWncXoW_draw_2 2000ms linear 0ms infinite,MlWncXoW_fade 2000ms linear 0ms infinite;}.MlWncXoW_3{stroke-dasharray:873 875;stroke-dashoffset:874;animation:MlWncXoW_draw_3 2000ms linear 0ms infinite,MlWncXoW_fade 2000ms linear 0ms infinite;}.MlWncXoW_4{stroke-dasharray:17 19;stroke-dashoffset:18;animation:MlWncXoW_draw_4 2000ms linear 0ms infinite,MlWncXoW_fade 2000ms linear 0ms infinite;}.MlWncXoW_5{stroke-dasharray:17 19;stroke-dashoffset:18;animation:MlWncXoW_draw_5 2000ms linear 0ms infinite,MlWncXoW_fade 2000ms linear 0ms infinite;}.MlWncXoW_6{stroke-dasharray:17 19;stroke-dashoffset:18;animation:MlWncXoW_draw_6 2000ms linear 0ms infinite,MlWncXoW_fade 2000ms linear 0ms infinite;}.MlWncXoW_7{stroke-dasharray:17 19;stroke-dashoffset:18;animation:MlWncXoW_draw_7 2000ms linear 0ms infinite,MlWncXoW_fade 2000ms linear 0ms infinite;}.MlWncXoW_8{stroke-dasharray:17 19;stroke-dashoffset:18;animation:MlWncXoW_draw_8 2000ms linear 0ms infinite,MlWncXoW_fade 2000ms linear 0ms infinite;}.MlWncXoW_9{stroke-dasharray:17 19;stroke-dashoffset:18;animation:MlWncXoW_draw_9 2000ms linear 0ms infinite,MlWncXoW_fade 2000ms linear 0ms infinite;}.MlWncXoW_10{stroke-dasharray:1 3;stroke-dashoffset:2;animation:MlWncXoW_draw_10 2000ms linear 0ms infinite,MlWncXoW_fade 2000ms linear 0ms infinite;}.MlWncXoW_11{stroke-dasharray:1 3;stroke-dashoffset:2;animation:MlWncXoW_draw_11 2000ms linear 0ms infinite,MlWncXoW_fade 2000ms linear 0ms infinite;}.MlWncXoW_12{stroke-dasharray:1 3;stroke-dashoffset:2;animation:MlWncXoW_draw_12 2000ms linear 0ms infinite,MlWncXoW_fade 2000ms linear 0ms infinite;}.MlWncXoW_13{stroke-dasharray:1 3;stroke-dashoffset:2;animation:MlWncXoW_draw_13 2000ms linear 0ms infinite,MlWncXoW_fade 2000ms linear 0ms infinite;}.MlWncXoW_14{stroke-dasharray:1 3;stroke-dashoffset:2;animation:MlWncXoW_draw_14 2000ms linear 0ms infinite,MlWncXoW_fade 2000ms linear 0ms infinite;}.MlWncXoW_15{stroke-dasharray:1 3;stroke-dashoffset:2;animation:MlWncXoW_draw_15 2000ms linear 0ms infinite,MlWncXoW_fade 2000ms linear 0ms infinite;}.MlWncXoW_16{stroke-dasharray:404 406;stroke-dashoffset:405;animation:MlWncXoW_draw_16 2000ms linear 0ms infinite,MlWncXoW_fade 2000ms linear 0ms infinite;}.MlWncXoW_17{stroke-dasharray:964 966;stroke-dashoffset:965;animation:MlWncXoW_draw_17 2000ms linear 0ms infinite,MlWncXoW_fade 2000ms linear 0ms infinite;}.MlWncXoW_18{stroke-dasharray:7 9;stroke-dashoffset:8;animation:MlWncXoW_draw_18 2000ms linear 0ms infinite,MlWncXoW_fade 2000ms linear 0ms infinite;}.MlWncXoW_19{stroke-dasharray:7 9;stroke-dashoffset:8;animation:MlWncXoW_draw_19 2000ms linear 0ms infinite,MlWncXoW_fade 2000ms linear 0ms infinite;}.MlWncXoW_20{stroke-dasharray:284 286;stroke-dashoffset:285;animation:MlWncXoW_draw_20 2000ms linear 0ms infinite,MlWncXoW_fade 2000ms linear 0ms infinite;}@keyframes MlWncXoW_draw{100%{stroke-dashoffset:0;}}@keyframes MlWncXoW_fade{0%{stroke-opacity:1;}80%{stroke-opacity:1;}100%{stroke-opacity:0;}}@keyframes MlWncXoW_draw_0{5%{stroke-dashoffset: 74}38.333333333333336%{ stroke-dashoffset: 0;}100%{ stroke-dashoffset: 0;}}@keyframes MlWncXoW_draw_1{5.833333333333333%{stroke-dashoffset: 74}39.166666666666664%{ stroke-dashoffset: 0;}100%{ stroke-dashoffset: 0;}}@keyframes MlWncXoW_draw_2{6.666666666666665%{stroke-dashoffset: 75}40%{ stroke-dashoffset: 0;}100%{ stroke-dashoffset: 0;}}@keyframes MlWncXoW_draw_3{7.5%{stroke-dashoffset: 874}40.833333333333336%{ stroke-dashoffset: 0;}100%{ stroke-dashoffset: 0;}}@keyframes MlWncXoW_draw_4{8.333333333333332%{stroke-dashoffset: 18}41.66666666666667%{ stroke-dashoffset: 0;}100%{ stroke-dashoffset: 0;}}@keyframes MlWncXoW_draw_5{9.166666666666666%{stroke-dashoffset: 18}42.5%{ stroke-dashoffset: 0;}100%{ stroke-dashoffset: 0;}}@keyframes MlWncXoW_draw_6{10%{stroke-dashoffset: 18}43.333333333333336%{ stroke-dashoffset: 0;}100%{ stroke-dashoffset: 0;}}@keyframes MlWncXoW_draw_7{10.833333333333332%{stroke-dashoffset: 18}44.16666666666667%{ stroke-dashoffset: 0;}100%{ stroke-dashoffset: 0;}}@keyframes MlWncXoW_draw_8{11.666666666666666%{stroke-dashoffset: 18}45%{ stroke-dashoffset: 0;}100%{ stroke-dashoffset: 0;}}@keyframes MlWncXoW_draw_9{12.499999999999998%{stroke-dashoffset: 18}45.833333333333336%{ stroke-dashoffset: 0;}100%{ stroke-dashoffset: 0;}}@keyframes MlWncXoW_draw_10{13.33333333333333%{stroke-dashoffset: 2}46.666666666666664%{ stroke-dashoffset: 0;}100%{ stroke-dashoffset: 0;}}@keyframes MlWncXoW_draw_11{14.166666666666666%{stroke-dashoffset: 2}47.5%{ stroke-dashoffset: 0;}100%{ stroke-dashoffset: 0;}}@keyframes MlWncXoW_draw_12{15%{stroke-dashoffset: 2}48.33333333333334%{ stroke-dashoffset: 0;}100%{ stroke-dashoffset: 0;}}@keyframes MlWncXoW_draw_13{15.833333333333332%{stroke-dashoffset: 2}49.16666666666667%{ stroke-dashoffset: 0;}100%{ stroke-dashoffset: 0;}}@keyframes MlWncXoW_draw_14{16.666666666666664%{stroke-dashoffset: 2}50%{ stroke-dashoffset: 0;}100%{ stroke-dashoffset: 0;}}@keyframes MlWncXoW_draw_15{17.5%{stroke-dashoffset: 2}50.83333333333334%{ stroke-dashoffset: 0;}100%{ stroke-dashoffset: 0;}}@keyframes MlWncXoW_draw_16{18.333333333333332%{stroke-dashoffset: 405}51.66666666666667%{ stroke-dashoffset: 0;}100%{ stroke-dashoffset: 0;}}@keyframes MlWncXoW_draw_17{19.166666666666664%{stroke-dashoffset: 965}52.5%{ stroke-dashoffset: 0;}100%{ stroke-dashoffset: 0;}}@keyframes MlWncXoW_draw_18{20%{stroke-dashoffset: 8}53.333333333333336%{ stroke-dashoffset: 0;}100%{ stroke-dashoffset: 0;}}@keyframes MlWncXoW_draw_19{20.833333333333332%{stroke-dashoffset: 8}54.16666666666667%{ stroke-dashoffset: 0;}100%{ stroke-dashoffset: 0;}}@keyframes MlWncXoW_draw_20{21.66666666666666%{stroke-dashoffset: 285}55.00000000000001%{ stroke-dashoffset: 0;}100%{ stroke-dashoffset: 0;}}</style></svg>