<?xml version="1.0" encoding="UTF-8"?>
<svg width="92px" height="103px" viewBox="0 0 92 103" version="1.1" xmlns="http://www.w3.org/2000/svg" xmlns:xlink="http://www.w3.org/1999/xlink">
    <!-- Generator: Sketch 46.2 (44496) - http://www.bohemiancoding.com/sketch -->
    <title>android</title>
    <desc>Created with Sketch.</desc>
    <defs>
        <path d="M18.8288918,0.00396475771 L25.4462937,11.4665198 M71.0443429,0.00396475771 L64.4265004,11.4665198" id="path-1"></path>
    </defs>
    <g id="Page-2" stroke="none" stroke-width="1" fill="none" fill-rule="evenodd">
        <g id="Desktop-Copy-15" transform="translate(-827.000000, -246.000000)">
            <g id="Group-10" transform="translate(122.000000, 105.000000)">
                <g id="platformCard-Copy-2" transform="translate(559.000000, 143.000000)">
                    <g id="logo" transform="translate(147.000000, 0.000000)">
                        <g id="android">
                            <g id="Shape" stroke-linecap="round" stroke-linejoin="round">
                                <use stroke="#FFFFFF" stroke-width="3" xlink:href="#path-1"></use>
                                <use stroke="#424E60" stroke-width="2" xlink:href="#path-1"></use>
                            </g>
                            <path d="M65.3608307,77.4506608 L65.6674285,77.4506608 C69.9765368,77.4506608 73.447347,73.9176211 73.447347,69.5330396 L73.447347,28.7590308 C73.447347,28.515859 73.4385367,28.2744493 73.4182731,28.0374449 L16.4637719,28.0374449 C16.4430677,28.2753304 16.4250066,28.515859 16.4250066,28.7590308 L16.4250066,69.5330396 C16.4250066,73.9180617 19.8958168,77.4506608 24.2044846,77.4506608 L24.5124039,77.4506608 L24.5124039,93.5784141 C24.5124039,97.0431718 27.3211215,99.8515419 30.7853239,99.8515419 C34.2499669,99.8515419 37.0586844,97.0431718 37.0586844,93.5784141 L37.0586844,77.4506608 L52.8145502,77.4506608 L52.8145502,93.5784141 C52.8145502,97.0431718 55.6232678,99.8515419 59.0874702,99.8515419 C62.5521131,99.8515419 65.3608307,97.0431718 65.3608307,93.5784141 L65.3608307,77.4506608 Z M6.3456048,31.6660793 C9.80980723,31.6660793 12.6185248,34.4748899 12.6185248,37.9396476 L12.6185248,64.8515419 C12.6185248,68.3162996 9.80980723,71.1251101 6.3456048,71.1251101 C2.88096184,71.1251101 0.0722443031,68.3162996 0.0722443031,64.8519824 L0.0722443031,37.9400881 C0.0718037891,34.4753304 2.88052133,31.6660793 6.3456048,31.6660793 Z M83.5276298,31.6660793 C86.9918323,31.6660793 89.8005498,34.4748899 89.8005498,37.9396476 L89.8005498,64.8515419 C89.8005498,68.3162996 86.9918323,71.1251101 83.5276298,71.1251101 C80.0629869,71.1251101 77.2542693,68.3162996 77.2542693,64.8519824 L77.2542693,37.9400881 C77.2542693,34.4753304 80.0629869,31.6660793 83.5276298,31.6660793 Z M16.6470257,25.3590308 C16.8214693,12.8348018 27.7523847,2.5660793 41.783638,1.21277533 L48.088275,1.21277533 C62.1204094,2.56651982 73.0504438,12.8356828 73.2248874,25.3590308 L16.6470257,25.3590308 Z M36.5089229,14.1352423 L36.5089229,14.1176211 C36.5036367,12.3660793 35.0464163,10.9515419 33.2544051,10.9563877 C31.4619535,10.9612335 30.0131028,12.384141 30.0179485,14.1352423 L30.0179485,14.1528634 C30.0232346,15.9035242 31.4804551,17.3185022 33.2724662,17.3140969 C35.0653584,17.3092511 36.5142091,15.8859031 36.5089229,14.1352423 Z M60.7354332,14.1352423 L60.7354332,14.1176211 C60.7301471,12.3660793 59.2729266,10.9515419 57.4809155,10.9563877 C55.6884638,10.9612335 54.2396131,12.384141 54.2444588,14.1352423 L54.2444588,14.1528634 C54.249745,15.9035242 55.7069654,17.3185022 57.4989766,17.3140969 C59.2918687,17.3092511 60.7407194,15.8859031 60.7354332,14.1352423 Z" id="Combined-Shape" stroke="#394456" stroke-width="2" fill="#FFFFFF" fill-rule="nonzero"></path>
                        </g>
                    </g>
                </g>
            </g>
        </g>
    </g>
</svg>