<?xml version="1.0" encoding="UTF-8"?>
<svg width="84px" height="102px" viewBox="0 0 84 102" version="1.1" xmlns="http://www.w3.org/2000/svg" xmlns:xlink="http://www.w3.org/1999/xlink">
    <!-- Generator: Sketch 46.2 (44496) - http://www.bohemiancoding.com/sketch -->
    <title>Shape</title>
    <desc>Created with Sketch.</desc>
    <defs></defs>
    <g id="Page-2" stroke="none" stroke-width="1" fill="none" fill-rule="evenodd">
        <g id="Desktop-Copy-15" transform="translate(-554.000000, -245.000000)" stroke="#394456" stroke-width="2" fill="#FFFFFF" fill-rule="nonzero">
            <g id="Group-10" transform="translate(122.000000, 105.000000)">
                <g id="platformCard-Copy" transform="translate(283.000000, 141.000000)">
                    <g id="apple" transform="translate(23.000000, 0.000000)">
                        <path d="M172.109505,8.70224468 C178.698745,0.0422191849 187.859364,0 187.859364,0 C187.859364,0 189.22199,8.14189589 182.675914,15.9851362 C175.686338,24.3599769 167.74172,22.9895783 167.74172,22.9895783 C167.74172,22.9895783 166.249932,16.4030569 172.109505,8.70224468 Z M168.579791,28.6929466 C171.969635,28.6929466 178.261011,24.0465364 186.450114,24.0465364 C200.546237,24.0465364 206.091637,34.048212 206.091637,34.048212 C206.091637,34.048212 195.245817,39.577611 195.245817,52.9944409 C195.245817,68.1297722 208.756757,73.345895 208.756757,73.345895 C208.756757,73.345895 199.312114,99.8531364 186.555058,99.8531364 C180.695814,99.8531364 176.140546,95.9159099 169.966964,95.9159099 C163.675588,95.9159099 157.432318,100 153.366021,100 C141.716892,100.000329 127,74.8554363 127,54.6431247 C127,34.7570672 139.456886,24.3251501 151.140941,24.3251501 C158.736624,24.3251501 164.630959,28.6929466 168.579791,28.6929466 Z" id="Shape"></path>
                    </g>
                </g>
            </g>
        </g>
    </g>
</svg>