<?xml version="1.0" encoding="UTF-8"?>
<svg width="15px" height="24px" viewBox="0 0 15 24" version="1.1" xmlns="http://www.w3.org/2000/svg" xmlns:xlink="http://www.w3.org/1999/xlink">
    <!-- Generator: Sketch 46.2 (44496) - http://www.bohemiancoding.com/sketch -->
    <title>noun_1055250_cc</title>
    <desc>Created with Sketch.</desc>
    <defs></defs>
    <g id="Page-2" stroke="none" stroke-width="1" fill="none" fill-rule="evenodd">
        <g id="Desktop-Copy-19" transform="translate(-175.000000, -230.000000)" fill-rule="nonzero" fill="#000000">
            <g id="Group-2" transform="translate(172.000000, 230.000000)">
                <g id="Group-6">
                    <g id="noun_1055250_cc" transform="translate(3.000000, 0.000000)">
                        <g id="Group">
                            <path d="M1.875,0.0976638202 C0.845517857,0.0976638202 0,0.948876404 0,1.98530427 L0,21.9403685 C0,22.976791 0.845517857,23.828009 1.875,23.828009 L13.125,23.828009 C14.1544821,23.828009 15,22.976791 15,21.9403685 L15,1.98530427 C15,0.948876404 14.1544821,0.0976638202 13.125,0.0976638202 L1.875,0.0976638202 Z M1.875,1.17631551 L13.125,1.17631551 C13.5794464,1.17631551 13.9285714,1.52779416 13.9285714,1.98530427 L13.9285714,2.79429303 L1.07142857,2.79429303 L1.07142857,1.98530427 C1.07142857,1.52779416 1.42055357,1.17631551 1.875,1.17631551 Z M1.07142857,3.87294472 L13.9285714,3.87294472 L13.9285714,18.9740764 L1.07142857,18.9740764 L1.07142857,3.87294472 Z M1.07142857,20.0527281 L13.9285714,20.0527281 L13.9285714,21.9403685 C13.9285714,22.3978787 13.5794464,22.7493573 13.125,22.7493573 L1.875,22.7493573 C1.42055357,22.7493573 1.06078661,22.3977438 1.07142857,21.9403685 L1.07142857,20.0527281 Z M5.625,20.8617169 C5.329125,20.8617169 5.08928571,21.103173 5.08928571,21.4010427 C5.08928571,21.6989124 5.329125,21.9403685 5.625,21.9403685 L9.375,21.9403685 C9.670875,21.9403685 9.91071429,21.6989124 9.91071429,21.4010427 C9.91071429,21.103173 9.670875,20.8617169 9.375,20.8617169 L5.625,20.8617169 Z" id="Shape"></path>
                        </g>
                    </g>
                </g>
            </g>
        </g>
    </g>
</svg>