<?xml version="1.0" encoding="UTF-8"?>
<svg width="25px" height="16px" viewBox="0 0 25 16" version="1.1" xmlns="http://www.w3.org/2000/svg" xmlns:xlink="http://www.w3.org/1999/xlink">
    <!-- Generator: Sketch 46.2 (44496) - http://www.bohemiancoding.com/sketch -->
    <title>noun_1018032_cc</title>
    <desc>Created with Sketch.</desc>
    <defs></defs>
    <g id="Page-2" stroke="none" stroke-width="1" fill="none" fill-rule="evenodd">
        <g id="Desktop-Copy-8" transform="translate(-449.000000, -442.000000)" fill-rule="nonzero" fill="#1ED26A">
            <g id="Group-5" transform="translate(425.000000, 427.000000)">
                <g id="Group-4" transform="translate(24.000000, 14.000000)">
                    <g id="noun_1018032_cc" transform="translate(0.000000, 1.000000)">
                        <g id="Group">
                            <path d="M20.5989583,0.0516129032 L4.42708333,0.0516129032 C2.05729167,0.0516129032 0.15625,1.96129032 0.15625,4.28387097 L0.15625,11.6903226 C0.15625,14.0387097 2.08333333,15.9225806 4.42708333,15.9225806 L20.5989583,15.9225806 C22.96875,15.9225806 24.8697917,14.0129032 24.8697917,11.6903226 L24.8697917,4.28387097 C24.8697917,1.96129032 22.9427083,0.0516129032 20.5989583,0.0516129032 Z M23.75,11.6903226 C23.75,13.4193548 22.34375,14.8129032 20.5989583,14.8129032 L4.42708333,14.8129032 C2.68229167,14.8129032 1.27604167,13.4193548 1.27604167,11.6903226 L1.27604167,4.28387097 C1.27604167,2.55483871 2.68229167,1.16129032 4.42708333,1.16129032 L20.5989583,1.16129032 C22.34375,1.16129032 23.75,2.55483871 23.75,4.28387097 L23.75,11.6903226 Z" id="Shape"></path>
                            <path d="M15.5989583,7.45806452 L10.9895833,4.59354839 C10.5729167,4.33548387 10.0260417,4.64516129 10.0260417,5.13548387 L10.0260417,10.8387097 C10.0260417,11.3290323 10.5729167,11.6387097 10.9895833,11.3806452 L15.5989583,8.51612903 C15.9895833,8.28387097 15.9895833,7.71612903 15.5989583,7.45806452 Z" id="Shape"></path>
                        </g>
                    </g>
                </g>
            </g>
        </g>
    </g>
</svg>