<?xml version="1.0" encoding="UTF-8"?>
<svg width="101px" height="91px" viewBox="0 0 101 91" version="1.1" xmlns="http://www.w3.org/2000/svg" xmlns:xlink="http://www.w3.org/1999/xlink">
    <!-- Generator: Sketch 46.2 (44496) - http://www.bohemiancoding.com/sketch -->
    <title>Shape</title>
    <desc>Created with Sketch.</desc>
    <defs></defs>
    <g id="Page-2" stroke="none" stroke-width="1" fill="none" fill-rule="evenodd">
        <g id="Desktop-Copy-15" transform="translate(-545.000000, -460.000000)" stroke="#394456" stroke-width="2" fill="#FFFFFF" fill-rule="nonzero">
            <g id="Group-10" transform="translate(122.000000, 105.000000)">
                <g id="platformCard-Copy-4" transform="translate(283.000000, 356.000000)">
                    <g id="apple" transform="translate(141.000000, 0.000000)">
                        <path d="M28.5654499,0 C25.8916778,0.00586091843 23.2743666,1.53946791 21.928586,3.87875582 L0.993963382,40.6212442 C-0.331321127,42.9667837 -0.331321127,46.0328255 0.993963382,48.3783651 L21.928586,85.1212442 C23.2743666,87.4605321 25.8916778,88.9945298 28.5654499,89 L70.4346951,89 C73.1084672,88.9941391 75.7257785,87.4605321 77.071559,85.1212442 L98.0061816,48.3783651 C99.3314661,46.0328255 99.3310794,42.9667837 98.0061816,40.6212442 L77.071559,3.87875582 C75.7257785,1.53907718 73.1084672,0.00547019053 70.4346951,0 L28.5654499,0 Z M29.0307039,21.242984 C29.0880877,21.2371871 29.1481675,21.2371871 29.2055514,21.242984 L36.397409,21.242984 C36.7222218,21.2535585 37.019009,21.4303212 37.1838379,21.7113712 L49.3842694,43.5277035 C49.4458897,43.6359117 49.4851726,43.7557137 49.4998074,43.8793803 C49.5152125,43.7557137 49.5544954,43.6359117 49.6161157,43.5277035 L61.7872776,21.7113712 C61.9578976,21.4220739 62.2675878,21.2441608 62.602591,21.242984 L69.7948337,21.242984 C70.4314483,21.2483944 70.9086204,22.0533866 70.6101471,22.6191613 L58.7008715,43.9964771 L70.6101471,65.3444222 C70.9367346,65.9132885 70.4483939,66.7553807 69.7948337,66.7499702 L62.602591,66.7499702 C62.2615365,66.7427473 61.950447,66.5528236 61.7872776,66.2522122 L49.6161157,44.4354935 C49.5544954,44.3276717 49.5152125,44.2074832 49.5001926,44.0842031 C49.4852028,44.2079891 49.4457953,44.3275399 49.3842694,44.43588 L37.1834528,66.2522122 C37.0257363,66.5440232 36.7281595,66.7325545 36.3977942,66.7499702 L29.2051663,66.7499702 C28.5516061,66.7557671 28.0632654,65.9132885 28.3898529,65.3444222 L40.2991285,43.9964771 L28.3898529,22.6191613 C28.1044739,22.1028533 28.4526285,21.3531246 29.0303187,21.242984 L29.0307039,21.242984 Z" id="Shape"></path>
                    </g>
                </g>
            </g>
        </g>
    </g>
</svg>