<?xml version="1.0" encoding="UTF-8"?>
<svg width="31px" height="33px" viewBox="0 0 31 33" version="1.1" xmlns="http://www.w3.org/2000/svg" xmlns:xlink="http://www.w3.org/1999/xlink" style="background: #000000;">
    <!-- Generator: Sketch 48.2 (47327) - http://www.bohemiancoding.com/sketch -->
    <title>UI/icons/platforms/webhooks/white</title>
    <desc>Created with Sketch.</desc>
    <defs></defs>
    <g id="Symbols" stroke="none" stroke-width="1" fill="none" fill-rule="evenodd">
        <g id="UI/icons/platforms/webhooks/white" fill="#FFFFFF" fill-rule="nonzero">
            <g id="webhooks" transform="translate(0.000000, 2.000000)">
                <path d="M14.1774437,12.1877275 C12.9165618,14.3717936 11.7085633,16.4867963 10.4753708,18.5858801 C10.1586649,19.1247944 10.0019162,19.5637872 10.2549245,20.2487875 C10.9534602,22.1411712 9.96804709,23.9827371 8.11605992,24.4825889 C6.36948295,24.9541542 4.66782714,23.7713838 4.32129258,21.8445908 C4.01421257,20.1391924 5.29862461,18.4673459 7.12351649,18.2007664 C7.27634346,18.1782351 7.43249792,18.1756636 7.68942786,18.1558263 L10.4652695,13.3595997 C8.71940558,11.5708109 7.68027726,9.47993142 7.91023075,6.8888327 C8.07280252,5.05730795 8.77181359,3.4744846 10.049333,2.1772209 C12.4962282,-0.307099079 16.2291993,-0.709356135 19.1103323,1.19747701 C21.8773799,3.0291242 23.1446791,6.59690551 22.0644325,9.650508 C21.2499099,9.42299092 20.429683,9.1935146 19.5280514,8.94150698 C19.867218,7.24370056 19.6163488,5.71916469 18.5050852,4.4130844 C17.7708978,3.55077262 16.8287421,3.09879978 15.7575273,2.93226413 C13.6098686,2.59796832 11.501308,4.01964394 10.8756206,6.19170959 C10.1654387,8.65668205 11.2403376,10.6704164 14.1774437,12.18785 L14.1774437,12.1877275 Z" id="Shape"></path>
                <path d="M18.4756322,9.36841072 C19.3653043,10.9849256 20.2686636,12.6258347 21.1639296,14.2516659 C25.6890576,12.8097106 29.1008756,15.3897355 30.3248739,18.1519202 C31.8033363,21.4885334 30.7926212,25.4403956 27.8891363,27.4989482 C24.9088836,29.6120508 21.1398876,29.251041 18.4994361,26.5365415 C19.1723734,25.9563515 19.8486432,25.3735873 20.5712116,24.7509833 C23.1791707,26.4906951 25.4601828,26.408809 27.1535947,24.3486627 C28.5976604,22.5911763 28.5663582,19.9706986 27.0803976,18.25011 C25.3655621,16.2646174 23.0686014,16.2040609 20.2921105,18.1099965 C19.1403571,16.0054748 17.9686084,13.9177472 16.853275,11.7980251 C16.4771729,11.0836057 16.0620322,10.6690267 15.2143741,10.5178806 C13.7988731,10.2651125 12.8850401,9.01316236 12.830172,7.61055653 C12.7762561,6.22339628 13.5697603,4.9694848 14.8099453,4.48098767 C16.0384663,3.99690355 17.4801516,4.38757868 18.3065052,5.46337564 C18.9818229,6.34230273 19.1964153,7.3315554 18.8410226,8.41556549 C18.7422363,8.71785757 18.6142901,9.01034293 18.4756322,9.3685333 L18.4756322,9.36841072 Z" id="Shape"></path>
                <path d="M20.5544555,22.6632358 L14.9447717,22.6632358 C14.4070902,24.8988599 13.2456883,26.7038128 11.2446111,27.8516082 C9.68892576,28.7436772 8.01227131,29.0461134 6.22776189,28.7548281 C2.94210746,28.219215 0.255538341,25.2291732 0.0189927937,21.8623561 C-0.248683619,18.0482656 2.34461547,14.6580317 5.80124453,13.8965517 C6.03987364,14.7726378 6.28107656,15.657149 6.51970567,16.5311288 C3.34827946,18.1668364 2.25061006,20.2277636 3.1382074,22.8048518 C3.91954308,25.0726894 6.13902667,26.3157628 8.54897232,25.8350367 C11.0100265,25.344151 12.2508489,23.2765333 12.0993617,19.9582844 C14.4324606,19.9582844 16.7675206,19.9338764 19.1008647,19.9703026 C20.0119941,19.9847987 20.71538,19.889273 21.4017298,19.0772424 C22.5317557,17.7411213 24.6117632,17.8616745 25.8288084,19.1235804 C27.0725723,20.4132396 27.0130069,22.4882912 25.6968087,23.723559 C24.426939,24.9154622 22.4207141,24.8517784 21.2325936,23.5674469 C20.9884492,23.3027997 20.7960261,22.9884693 20.5544555,22.6632358 Z" id="Shape"></path>
            </g>
        </g>
    </g>
</svg>