<?xml version="1.0" encoding="UTF-8"?>
<svg width="31px" height="33px" viewBox="0 0 31 33" version="1.1" xmlns="http://www.w3.org/2000/svg" xmlns:xlink="http://www.w3.org/1999/xlink" style="background: #000000;">
    <!-- Generator: Sketch 48.2 (47327) - http://www.bohemiancoding.com/sketch -->
    <title>UI/icons/platforms/slack/white</title>
    <desc>Created with Sketch.</desc>
    <defs></defs>
    <g id="Symbols" stroke="none" stroke-width="1" fill="none" fill-rule="evenodd">
        <g id="UI/icons/platforms/slack/white" fill="#FFFFFF" fill-rule="nonzero">
            <g id="Slack_Mark_Monochrome_White" transform="translate(0.000000, 1.000000)">
                <rect id="Rectangle-path" transform="translate(15.573377, 15.449731) rotate(-18.518296) translate(-15.573377, -15.449731) " x="13.408348" y="13.3585101" width="4.33005697" height="4.18244139"></rect>
                <g id="Group">
                    <rect id="Rectangle-path" transform="translate(15.573377, 15.449731) rotate(-18.518296) translate(-15.573377, -15.449731) " x="13.408348" y="13.3585101" width="4.33005697" height="4.18244139"></rect>
                    <path d="M29.6714286,11.1944444 C26.497619,0.615079365 21.9214286,-1.8452381 11.3420635,1.32857143 C0.762698413,4.50238095 -1.69761905,9.07857143 1.47619048,19.6579365 C4.65,30.2373016 9.22619048,32.697619 19.8055556,29.5238095 C30.3849206,26.35 32.8452381,21.7738095 29.6714286,11.1944444 Z M24.3325397,18.0587302 L22.3396825,18.7230159 L23.0285714,20.7896825 C23.2992063,21.6261905 22.8563492,22.5365079 22.0198413,22.8071429 C21.847619,22.8563492 21.6507937,22.9055556 21.4785714,22.8809524 C20.8388889,22.8563492 20.2238095,22.4380952 20.002381,21.7984127 L19.3134921,19.731746 L15.2047619,21.1095238 L15.8936508,23.1761905 C16.1642857,24.0126984 15.7214286,24.9230159 14.8849206,25.1936508 C14.7126984,25.2428571 14.515873,25.2920635 14.3436508,25.2674603 C13.7039683,25.2428571 13.0888889,24.8246032 12.8674603,24.1849206 L12.1785714,22.118254 L10.1857143,22.7825397 C10.0134921,22.831746 9.81666667,22.8809524 9.64444444,22.8563492 C9.0047619,22.831746 8.38968254,22.4134921 8.16825397,21.7738095 C7.89761905,20.9373016 8.34047619,20.0269841 9.17698413,19.7563492 L11.1698413,19.0920635 L9.84126984,15.1309524 L7.8484127,15.7952381 C7.67619048,15.8444444 7.47936508,15.8936508 7.30714286,15.8690476 C6.66746032,15.8444444 6.05238095,15.4261905 5.83095238,14.7865079 C5.56031746,13.95 6.0031746,13.0396825 6.83968254,12.7690476 L8.83253968,12.1047619 L8.14365079,10.0380952 C7.87301587,9.2015873 8.31587302,8.29126984 9.15238095,8.02063492 C9.98888889,7.75 10.8992063,8.19285714 11.1698413,9.02936508 L11.8587302,11.0960317 L15.9674603,9.71825397 L15.2785714,7.6515873 C15.0079365,6.81507937 15.4507937,5.9047619 16.2873016,5.63412698 C17.1238095,5.36349206 18.034127,5.80634921 18.3047619,6.64285714 L18.9936508,8.70952381 L20.9865079,8.0452381 C21.8230159,7.77460317 22.7333333,8.21746032 23.0039683,9.05396825 C23.2746032,9.89047619 22.831746,10.8007937 21.9952381,11.0714286 L20.002381,11.7357143 L21.3309524,15.6968254 L23.3238095,15.0325397 C24.1603175,14.7619048 25.0706349,15.2047619 25.3412698,16.0412698 C25.6119048,16.8777778 25.1690476,17.7880952 24.3325397,18.0587302 Z" id="Shape"></path>
                </g>
            </g>
        </g>
    </g>
</svg>