<?xml version="1.0" encoding="UTF-8"?>
<svg width="44px" height="36px" viewBox="0 0 44 36" version="1.1" xmlns="http://www.w3.org/2000/svg" xmlns:xlink="http://www.w3.org/1999/xlink">
    <!-- Generator: Sketch 48.2 (47327) - http://www.bohemiancoding.com/sketch -->
    <title>Group</title>
    <desc>Created with Sketch.</desc>
    <defs></defs>
    <g id="cm-icon" stroke="none" stroke-width="1" fill="none" fill-rule="evenodd" transform="translate(-17.000000, -20.000000)">
        <g id="Group" transform="translate(18.000000, 21.000000)" fill-rule="nonzero" stroke="#0BAEAF">
            <path d="M41.5889362,13.8221333 C41.5889362,13.6317333 41.5889362,13.4413333 41.5889362,13.2509333 C41.6135288,13.1542958 41.6135288,13.0529042 41.5889362,12.9562667 C41.5899164,11.5827532 41.2715047,10.2283797 40.6595745,9.0032 C38.7740426,5.44 34.9448936,3.3184 31.3123404,2.08533333 C27.5668792,0.844827145 23.6313199,0.301160624 19.6953191,0.480533333 C15.7289916,0.580474008 11.8215432,1.47722665 8.19893617,3.11893333 C4.78978723,4.7328 1.1706383,7.53893333 0.567446809,11.5690667 C0.512024003,11.9701021 0.483660139,12.3745096 0.482553191,12.7794667 C0.482553191,13.0786667 0.482553191,13.3778667 0.482553191,13.6861333 C0.482553191,15.1156444 0.482553191,16.5451556 0.482553191,17.9746667 C0.482553191,19.856 0.272553191,21.8778667 0.866808511,23.6957333 C2.09553191,27.4765333 5.78170213,29.9290667 9.23553191,31.3661333 C12.9626674,32.8324758 16.9265185,33.5811705 20.9240426,33.5738667 C21.8846809,33.5738667 22.8453191,33.5421333 23.8014894,33.4650667 C27.7289362,33.1522667 31.7546809,32.1912 35.2085106,30.2146667 C38.4165957,28.4013333 41.5040426,25.4229333 41.5889362,21.4336 C41.6425532,18.904 41.5889362,16.3608 41.5889362,13.8221333 Z M9.59744681,3.49066667 C13.1346281,2.10979183 16.8884152,1.38799987 20.6782979,1.36 C21.6076596,1.36 22.5370213,1.36 23.466383,1.44613333 C27.2364042,1.6555186 30.9247416,2.64274335 34.3059574,4.34746667 C37.3040426,5.93413333 40.5389362,8.66773333 40.6908511,12.3805333 C40.6908511,12.5392 40.6908511,12.7024 40.6908511,12.8610667 C40.6715308,13.2322546 40.6282465,13.6017581 40.5612766,13.9672 C39.9134043,17.2312 37.0538298,19.5749333 34.3059574,21.0301333 C31.2957394,22.5512845 28.034386,23.4949507 24.6861702,23.8136 C21.5176373,24.1641302 18.3160198,24.0542229 15.1780851,23.4872 C11.97,22.9024 8.76191489,21.8370667 6.04085106,19.9784 C4.6371228,19.0654184 3.43769448,17.8639181 2.52,16.4514667 C2.10152638,15.7850067 1.786568,15.0572101 1.58617021,14.2936 C1.48911651,13.9177418 1.42482635,13.5339526 1.39404255,13.1466667 C1.39404255,12.9018667 1.39404255,12.8384 1.34489362,12.8066667 C1.37036085,12.1518273 1.4708233,11.5022167 1.64425532,10.8709333 C2.70765957,7.20346667 6.3,4.8416 9.59744681,3.49066667 Z M40.002766,24.3077333 C38.3719149,27.7712 34.6142553,29.8384 31.187234,31.0352 C27.5897644,32.2509393 23.8061949,32.8006586 20.0170213,32.6581333 C16.2056441,32.5943983 12.4425958,31.7815336 8.93617021,30.2645333 C5.71021277,28.8093333 2.13574468,26.2570667 1.47446809,22.4672 C1.3845617,21.8110416 1.35166919,21.1481355 1.37617021,20.4861333 C1.37617021,19.1261333 1.37617021,17.7661333 1.37617021,16.4061333 C1.37617021,16.3472 1.37617021,16.2837333 1.37617021,16.2248 C1.67068039,16.8236111 2.02715524,17.3889269 2.43957447,17.9112 C4.5306383,20.5722667 7.69851064,22.2541333 10.8261702,23.3104 C14.0907292,24.3712431 17.4961628,24.9185655 20.9240426,24.9333333 C22.8695167,24.9293819 24.8116727,24.7702247 26.7325532,24.4573333 C30.2131915,23.8589333 33.702766,22.712 36.6382979,20.6810667 C38.1066864,19.7076761 39.3615263,18.437598 40.3244681,16.9501333 C40.4719149,16.7144 40.6014894,16.4696 40.7265957,16.2202667 C40.7265957,17.3037333 40.6953191,18.3917333 40.6953191,19.4706667 C40.6953191,21.1570667 40.7444681,22.7256 40.002766,24.3077333 Z" id="Shape"></path>
            <path d="M21,19.04 C21.4468085,19.04 21.8578723,19.04 22.2868085,18.9901333 C25.4770213,18.7362667 29.7797872,17.6301333 31.2229787,14.3525333 C32.9119149,10.5354667 28.6717021,7.81546667 25.62,6.93146667 C22.2111792,5.95210578 18.583513,6.09977605 15.2629787,7.35306667 C13.6634043,7.97866667 12.0951064,8.95333333 11.1702128,10.4266667 C10.1959346,11.9833109 10.3279063,14.0009666 11.496383,15.4133333 C13.6678723,18.2285333 17.6712766,18.9493333 21,19.04 Z M15.9019149,17.2901333 C15.6785106,17.2085333 15.4551064,17.1178667 15.227234,17.0181333 C15.9029988,16.7243814 16.602654,16.4907909 17.3182979,16.32 C19.210381,15.8776399 21.1644016,15.7763638 23.0910638,16.0208 C24.0007177,16.1303755 24.8982553,16.3261641 25.7719149,16.6056 C26.1338298,16.7234667 26.4868085,16.864 26.8397872,17.0136 C26.3413888,17.2368773 25.8277042,17.4232316 25.302766,17.5712 C22.2133049,18.4447777 18.9353156,18.3467724 15.9019149,17.2901333 Z M12.2559574,10.4584 C14.2487234,7.96053333 17.8857447,7.344 20.8570213,7.22613333 C21.2144681,7.22613333 21.5719149,7.22613333 21.9293617,7.25333333 C24.8112766,7.42106667 28.877234,8.32773333 30.3159574,11.2154667 C31.4642553,13.5274667 29.8244681,15.3544 27.8540426,16.4922667 C26.9641322,16.0601527 26.0348502,15.7170212 25.0793617,15.4677333 C21.4385207,14.5345345 17.5920534,14.9011071 14.1861702,16.5058667 C13.3573913,16.0667676 12.6342597,15.4476186 12.0682979,14.6925333 C11.1346364,13.4141725 11.2129774,11.6465774 12.2559574,10.4584 Z" id="Shape"></path>
        </g>
    </g>
</svg>