<?xml version="1.0" encoding="UTF-8"?>
<svg width="39px" height="37px" viewBox="0 0 39 37" version="1.1" xmlns="http://www.w3.org/2000/svg" xmlns:xlink="http://www.w3.org/1999/xlink">
    <!-- Generator: Sketch 48.2 (47327) - http://www.bohemiancoding.com/sketch -->
    <title>Shape</title>
    <desc>Created with Sketch.</desc>
    <defs></defs>
    <g id="cm-icon-copy" stroke="none" stroke-width="1" fill="none" fill-rule="evenodd" transform="translate(-18.000000, -18.000000)">
        <path d="M56.0730895,23.1898537 C56.0715988,23.1888599 56.0696112,23.1878661 56.0681204,23.1868723 L53.3599851,21.6757824 C53.2854492,21.6335454 53.1930248,21.6335454 53.118489,21.6757824 L23.3235338,38.2997584 C23.2445258,38.3434861 23.1958291,38.4264693 23.1958291,38.5169061 L23.1958291,41.5395827 C23.1958291,41.6295226 23.2445258,41.7125059 23.3235338,41.7567305 L53.118489,58.3802095 C53.1557569,58.4010796 53.1974969,58.4115146 53.239237,58.4115146 C53.2809771,58.4115146 53.3227171,58.4010796 53.3599851,58.3802095 L56.0681204,56.8696166 C56.1471284,56.8258889 56.1958252,56.7429057 56.1958252,56.6524689 L56.1958252,23.40402 C56.1963221,23.3160677 56.149613,23.2345752 56.0730895,23.1898537 Z M53.239237,22.177657 L55.4375473,23.4045169 L28.7407984,38.2997584 C28.6617904,38.3434861 28.6130937,38.4264693 28.6130937,38.5169061 C28.6130937,38.6073429 28.6617904,38.6898293 28.7407984,38.7340539 L31.4454554,40.243653 C31.44794,40.2446468 31.4499276,40.2461375 31.4524121,40.2476282 L50.4098567,50.8247603 C50.4858832,50.8674942 50.5807922,50.8665004 50.6558249,50.8222758 C50.7318515,50.7780512 50.7785606,50.6970556 50.7790575,50.6086064 L50.866016,29.5472636 L52.9907842,28.3616469 L52.9907842,54.7180155 L23.9546039,38.5169061 L53.239237,22.177657 Z M32.0800039,40.027996 L50.3676197,29.8245369 L50.2841396,50.1847459 L32.0800039,40.027996 Z M55.6994165,56.5068755 L53.2397339,57.8788318 L23.6927347,41.3939894 L23.6927347,38.9397728 L53.118489,55.3575329 C53.1950124,55.4007637 53.2894245,55.399273 53.3649541,55.3550484 C53.4409807,55.3103269 53.4876898,55.2288344 53.4876898,55.1408821 L53.4876898,27.9382834 C53.4876898,27.8503311 53.4409807,27.7688386 53.3649541,27.7241171 C53.2894245,27.6793956 53.1950124,27.6784018 53.118489,27.7216325 L50.5092378,29.177069 C50.5052625,29.1790566 50.5007904,29.1810442 50.497312,29.1835287 L31.5701787,39.743766 L29.3713716,38.5169061 L55.6989196,23.8273836 L55.6989196,56.5068755 L55.6994165,56.5068755 Z" id="Shape" stroke="#F55416" fill="#F55416" fill-rule="nonzero" transform="translate(39.695829, 40.027810) rotate(-165.000000) translate(-39.695829, -40.027810) "></path>
    </g>
</svg>