<?xml version="1.0" encoding="UTF-8"?>
<svg width="25px" height="40px" viewBox="0 0 25 40" version="1.1" xmlns="http://www.w3.org/2000/svg" xmlns:xlink="http://www.w3.org/1999/xlink">
    <!-- Generator: Sketch 48.2 (47327) - http://www.bohemiancoding.com/sketch -->
    <title>Group 24</title>
    <desc>Created with Sketch.</desc>
    <defs></defs>
    <g id="Activity" stroke="none" stroke-width="1" fill="none" fill-rule="evenodd" transform="translate(-207.000000, -1629.000000)">
        <g id="Group-25" transform="translate(208.000000, 1616.000000)">
            <g id="Group-24" transform="translate(0.000000, 13.000000)">
                <g id="Group">
                    <g id="Group-23">
                        <path d="M0,36 L0,3.31428571 C0,1.6 1.37142857,0.228571429 3.08571429,0.228571429 L19.7714286,0.228571429 C21.4857143,0.228571429 22.8571429,1.6 22.8571429,3.31428571 L22.8571429,36 C22.8571429,37.7142857 21.4857143,39.0857143 19.7714286,39.0857143 L3.08571429,39.0857143 C1.37142857,39.0857143 0,37.7142857 0,36 Z" id="Shape" fill="#00F0F2"></path>
                        <path d="M5.71428571,4.8 L22.8571429,4.8" id="Shape" stroke="#7A769B" stroke-width="2" stroke-linecap="round"></path>
                        <path d="M0,32.2285714 L22.8571429,32.2285714" id="Shape" stroke="#7A769B" stroke-width="2" stroke-linecap="round"></path>
                        <path d="M8.18779343,20.8422478 C8.56338028,20.1218687 9.5399061,18.4915369 11.1549296,17.8849018 C11.3051643,17.8090724 11.4553991,17.9986459 11.342723,18.1503047 C10.8920188,18.8327691 10.0657277,20.2356127 9.84037559,21.6005416 C9.84037559,21.676371 9.87793427,21.7142857 9.95305164,21.7142857 C11.2676056,21.5626269 12.9201878,21.069736 14.1220657,19.8943805 C15.8122066,18.1882194 16,15.4962762 16,14.3209208 C16,13.9796886 15.7370892,13.7142857 15.399061,13.7142857 C14.2347418,13.7142857 11.5680751,13.9417739 9.87793427,15.647935 C8.37558685,17.1645227 8.03755869,19.5152336 8,20.8422478 C8.03755869,20.9180772 8.15023474,20.9180772 8.18779343,20.8422478 Z" id="Shape" stroke="#7A769B" stroke-linecap="round"></path>
                        <path d="M9.14285714,22.8571429 C9.14285714,22.8571429 7.77194687,23.956044 8.03307264,26.2857143" id="Shape" stroke="#7A769B" stroke-linecap="round"></path>
                    </g>
                </g>
                <g id="Group" transform="translate(8.000000, 13.714286)"></g>
            </g>
        </g>
    </g>
</svg>