<?xml version="1.0" encoding="UTF-8"?>
<svg width="31px" height="33px" viewBox="0 0 31 33" version="1.1" xmlns="http://www.w3.org/2000/svg" xmlns:xlink="http://www.w3.org/1999/xlink">
    <!-- Generator: Sketch 48.2 (47327) - http://www.bohemiancoding.com/sketch -->
    <title>UI/icons/platforms/cordova/white Copy</title>
    <desc>Created with Sketch.</desc>
    <defs></defs>
    <g id="Symbols" stroke="none" stroke-width="1" fill="none" fill-rule="evenodd">
        <g id="UI/icons/platforms/cordova/white-Copy" fill="#292D3E" fill-rule="nonzero">
            <g id="cordova" transform="translate(0.000000, 2.000000)">
                <path d="M28.1817852,29.5909531 L23.1619648,29.5909531 L23.5142266,25.3635703 L21.0482734,25.3635703 L20.6960117,29.5909531 L10.3039883,29.5909531 L9.95160547,25.3635703 L7.48589453,25.3635703 L7.83827734,29.5909531 L2.81809375,29.5909531 L0,11.2726172 L7.04547656,0 L23.9545234,0 L31,11.2726172 L28.1817852,29.5909531 Z M22.5454766,5.63630859 L18.016207,5.63630859 L18.3182148,7.75 L12.6817852,7.75 L12.983793,5.63630859 L8.45452344,5.63630859 L5.63630859,11.2727383 L7.04547656,22.5453555 L23.9545234,22.5453555 L25.3636914,11.2727383 L22.5454766,5.63630859 Z M20.0795234,18.8042852 C19.6904492,18.8042852 19.375,17.6308867 19.375,16.1834531 C19.375,14.7358984 19.6904492,13.5625 20.0795234,13.5625 C20.4685977,13.5625 20.7840469,14.7358984 20.7840469,16.1834531 C20.7840469,17.6308867 20.4685977,18.8042852 20.0795234,18.8042852 Z M11.1847031,19.0227383 C10.7956289,19.0227383 10.4800586,17.8493398 10.4800586,16.4017852 C10.4800586,14.9543516 10.7956289,13.7809531 11.1847031,13.7809531 C11.5737773,13.7809531 11.8892266,14.9543516 11.8892266,16.4017852 C11.8892266,17.8493398 11.5737773,19.0227383 11.1847031,19.0227383 Z" id="Shape"></path>
            </g>
        </g>
    </g>
</svg>