<?xml version="1.0" encoding="UTF-8"?>
<svg width="80px" height="80px" viewBox="0 0 80 80" version="1.1" xmlns="http://www.w3.org/2000/svg" xmlns:xlink="http://www.w3.org/1999/xlink">
    <!-- Generator: Sketch 49.2 (51160) - http://www.bohemiancoding.com/sketch -->
    <title>icons/action-types/meetup</title>
    <desc>Created with Sketch.</desc>
    <defs></defs>
    <g id="icons/action-types/meetup" stroke="none" stroke-width="1" fill="none" fill-rule="evenodd">
        <rect id="Rectangle-2" fill-opacity="0.0989583333" fill="#D800AD" x="0" y="0" width="80" height="80" rx="7"></rect>
        <g id="noun_1150655_cc" transform="translate(19.000000, 22.000000)" fill="#9013FE" fill-opacity="0.500396286" fill-rule="nonzero">
            <path d="M7,26 C9.75699055,26 12,23.7568777 12,20.9997485 C12,18.2431223 9.75699055,16 7,16 C4.24300945,16 2,18.2431223 2,20.9997485 C2,23.7568777 4.24300945,26 7,26 Z M7,17.5083237 C8.92516596,17.5083237 10.4912492,19.0744857 10.4912492,20.9992456 C10.4912492,22.9245084 8.92516596,24.4906704 7,24.4906704 C5.07483404,24.4906704 3.50875075,22.9245084 3.50875075,20.9992456 C3.50875075,19.0744857 5.07483404,17.5083237 7,17.5083237 Z" id="Shape"></path>
            <path d="M7.5,27 C3.36461422,27 0,30.4306252 0,34.647144 C0,35.944423 1.03526591,37 2.30758312,37 L12.69289,37 C13.9652072,37 15,35.944423 15,34.647144 C15,30.4306252 11.6353858,27 7.5,27 Z M12.69289,35.5526824 L2.30758312,35.5526824 C1.81786638,35.5526824 1.4194688,35.1464685 1.4194688,34.647144 C1.4194688,31.2285797 4.14721469,28.4473176 7.5,28.4473176 C10.8527853,28.4473176 13.5805312,31.2285797 13.5805312,34.647144 C13.5805312,35.1464685 13.1821336,35.5526824 12.69289,35.5526824 Z" id="Shape"></path>
            <path d="M22,17 C24.7569905,17 27,14.7568777 27,12.0002515 C27,9.24312227 24.7569905,7 22,7 C19.2430095,7 17,9.24312227 17,12.0002515 C17,14.7568777 19.2430095,17 22,17 Z M22,8.50832369 C23.925166,8.50832369 25.4912492,10.0744857 25.4912492,11.9997485 C25.4912492,13.9245084 23.925166,15.4906704 22,15.4906704 C20.074834,15.4906704 18.5087508,13.9245084 18.5087508,11.9997485 C18.5087508,10.0744857 20.074834,8.50832369 22,8.50832369 Z" id="Shape"></path>
            <path d="M29,25.6472575 C29,21.4309422 25.6353858,18 21.5,18 C17.3646142,18 14,21.4304597 14,25.6472575 C14,26.9444739 15.0352659,28 16.30711,28 L26.6924169,28 C27.9652072,28 29,26.9444739 29,25.6472575 Z M26.69289,26.5527522 L16.30711,26.5527522 C15.8173932,26.5527522 15.4194688,26.146558 15.4194688,25.6472575 C15.4194688,22.2288581 18.1472147,19.4472478 21.5,19.4472478 C24.8527853,19.4472478 27.5805312,22.2288581 27.5805312,25.6472575 C27.5805312,26.146558 27.1821336,26.5527522 26.69289,26.5527522 Z" id="Shape"></path>
            <path d="M36,26 C38.7569905,26 41,23.7568777 41,20.9997485 C41,18.2431223 38.7569905,16 36,16 C33.2430095,16 31,18.2431223 31,20.9997485 C31,23.7568777 33.2430095,26 36,26 Z M36,17.5083237 C37.925166,17.5083237 39.4912492,19.0744857 39.4912492,20.9992456 C39.4912492,22.9245084 37.925166,24.4906704 36,24.4906704 C34.074834,24.4906704 32.5087508,22.9245084 32.5087508,20.9992456 C32.5087508,19.0744857 34.074834,17.5083237 36,17.5083237 Z" id="Shape"></path>
            <path d="M35.5,27 C31.3646142,27 28,30.4301428 28,34.647144 C28,35.944423 29.0352659,37 30.30711,37 L40.6924169,37 C41.9647341,37 43,35.944423 43,34.647144 C43,30.4306252 39.6353858,27 35.5,27 Z M40.6924169,35.5526824 L30.30711,35.5526824 C29.8173932,35.5526824 29.4194688,35.1464685 29.4194688,34.647144 C29.4194688,31.2285797 32.1472147,28.4473176 35.5,28.4473176 C38.8527853,28.4473176 41.5805312,31.2285797 41.5805312,34.647144 C41.5805312,35.1464685 41.1821336,35.5526824 40.6924169,35.5526824 Z" id="Shape"></path>
            <path d="M22,5 C22.5526667,5 23,4.68805125 23,4.30368582 L23,0.696314177 C23,0.311948751 22.5526667,0 22,0 C21.4473333,0 21,0.311948751 21,0.696314177 L21,4.30368582 C21,4.68805125 21.4473333,5 22,5 Z" id="Shape"></path>
            <path d="M32.7060624,9 C32.8868746,9 33.0676869,8.93124963 33.2056504,8.793278 L35.7930547,6.20572135 C36.0689818,5.92977809 36.0689818,5.4829007 35.7930547,5.20695744 C35.5171277,4.93101419 35.0702766,4.93101419 34.7943496,5.20695744 L32.2069453,7.7945141 C31.9310182,8.07045735 31.9310182,8.51733475 32.2069453,8.793278 C32.3444379,8.93077874 32.5252501,9 32.7060624,9 Z" id="Shape"></path>
            <path d="M9.79387875,8.793278 C9.93184226,8.93124963 10.1126545,9 10.2934667,9 C10.474279,9 10.6550912,8.93124963 10.7930547,8.793278 C11.0689818,8.51733475 11.0689818,8.07045735 10.7930547,7.7945141 L8.20565038,5.20695744 C7.92972337,4.93101419 7.48287228,4.93101419 7.20694526,5.20695744 C6.93101825,5.4829007 6.93101825,5.92977809 7.20694526,6.20572135 L9.79387875,8.793278 Z" id="Shape"></path>
            <path d="M14.5507187,5.54523297 C14.6707363,5.82860292 14.9514468,6 15.2467202,6 C15.3426338,6 15.4405561,5.98232007 15.5349632,5.94401356 C15.9191199,5.78833198 16.101406,5.35762929 15.9427217,4.98143971 L14.4492813,1.45527633 C14.2900948,1.07908676 13.8491934,0.900323045 13.4650368,1.05649574 C13.0808801,1.21217733 12.898594,1.64288001 13.0572783,2.01906959 L14.5507187,5.54523297 Z" id="Shape"></path>
            <path d="M27.4651713,5.94401356 C27.5595631,5.98232007 27.6569673,6 27.7533674,6 C28.0485926,6 28.3292574,5.82860292 28.4492554,5.54523297 L29.9424523,2.01906959 C30.1016128,1.64288001 29.9193564,1.21217733 29.5347603,1.05649574 C29.1496621,0.900323045 28.7098368,1.07908676 28.5506763,1.45527633 L27.0574794,4.98143971 C26.8983188,5.35713818 27.0810773,5.78784087 27.4651713,5.94401356 Z" id="Shape"></path>
        </g>
    </g>
</svg>