<?xml version="1.0" encoding="UTF-8"?>
<svg width="80px" height="80px" viewBox="0 0 80 80" version="1.1" xmlns="http://www.w3.org/2000/svg" xmlns:xlink="http://www.w3.org/1999/xlink">
    <!-- Generator: Sketch 49.2 (51160) - http://www.bohemiancoding.com/sketch -->
    <title>icons/action-types/visit</title>
    <desc>Created with Sketch.</desc>
    <defs></defs>
    <g id="icons/action-types/visit" stroke="none" stroke-width="1" fill="none" fill-rule="evenodd">
        <rect id="Rectangle-2" fill="#E6F6F7" x="0" y="0" width="80" height="80" rx="7"></rect>
        <g id="noun_643353_cc" transform="translate(24.000000, 24.000000)" fill="#0BAEAF" fill-rule="nonzero">
            <path d="M6.00017666,6.66666667 C7.83883083,6.66666667 9.33348734,5.17066667 9.33348734,3.33333333 C9.33348734,1.496 7.83883083,0 6.00017666,0 C4.16152248,0 2.66686597,1.496 2.66686597,3.33333333 C2.66686597,5.17066667 4.16152248,6.66666667 6.00017666,6.66666667 Z M6.00017666,1.33333333 C7.10283583,1.33333333 8.00016307,2.23066667 8.00016307,3.33333333 C8.00016307,4.436 7.10283583,5.33333333 6.00017666,5.33333333 C4.89751748,5.33333333 4.00019025,4.436 4.00019025,3.33333333 C4.00019025,2.23066667 4.89751748,1.33333333 6.00017666,1.33333333 Z M11.1028087,11.2386667 C10.8934767,9.392 9.43082001,8 7.70283175,8 L4.29885488,8 C2.57086662,8 1.10820989,9.392 0.898877984,11.2386667 L0.0148839901,18.9826667 C-0.058448845,19.6306667 0.141549796,20.2746667 0.562880267,20.7466667 C0.925544469,21.1533333 1.40820786,21.3906667 1.9322043,21.42 L2.6681993,31.3826667 C2.69486578,31.7306667 2.98419715,32 3.33352811,32 L8.6668252,32 C9.01615616,32 9.30548753,31.7306667 9.33348734,31.3826667 L10.0694823,21.42 C10.5921455,21.3906667 11.0761422,21.1546667 11.4388064,20.7466667 C11.8601368,20.2733333 12.0601355,19.6306667 11.9868026,18.9826667 L11.1028087,11.2386667 Z M10.4428131,19.8586667 C10.3668137,19.944 10.2001481,20.0893333 9.95481645,20.0893333 L9.44815323,20.0893333 C9.09882227,20.0893333 8.8094909,20.3586667 8.78282442,20.7066667 L8.04682942,30.6666667 L3.9535239,30.6666667 L3.21619557,20.7066667 C3.18952909,20.3586667 2.90019772,20.0893333 2.55086676,20.0893333 L2.04420354,20.0893333 C1.80020519,20.0893333 1.63353966,19.944 1.55620685,19.8586667 C1.38687467,19.668 1.30820854,19.404 1.33887499,19.1333333 L2.22286899,11.3893333 C2.35620142,10.2173333 3.24819535,9.33333333 4.29752156,9.33333333 L7.70149843,9.33333333 C8.75082463,9.33333333 9.64281857,10.2173333 9.776151,11.3893333 L10.660145,19.1333333 C10.6921448,19.404 10.6121453,19.668 10.4428131,19.8586667 Z M29.1213529,0 L15.3334466,0 C14.2307874,0 13.3334602,0.897333333 13.3334602,2 L13.3334602,26 C13.3334602,27.1026667 14.2307874,28 15.3334466,28 L18.6667573,28 L18.6667573,29.1213333 C18.6667573,30.708 19.9587485,32 21.5454044,32 C21.938735,32 22.3200658,31.9213333 22.6800633,31.768 L30.2546785,28.5213333 C31.3146713,28.0666667 32,27.028 32,25.8746667 L32,2.87866667 C32,1.292 30.7080088,0 29.1213529,0 Z M18.6667573,6.12533333 L18.6667573,26.6666667 L15.3334466,26.6666667 C14.9667824,26.6666667 14.6667844,26.368 14.6667844,26 L14.6667844,2 C14.6667844,1.632 14.9667824,1.33333333 15.3334466,1.33333333 L25.4173781,1.33333333 L20.4120787,3.47866667 C19.3520859,3.93333333 18.6667573,4.972 18.6667573,6.12533333 Z M30.6666757,25.8746667 C30.6666757,26.4933333 30.2986782,27.052 29.7293488,27.2946667 L22.1547336,30.5413333 C21.9627349,30.624 21.7560696,30.6666667 21.5454044,30.6666667 C20.6934102,30.6666667 20.0000815,29.9733333 20.0000815,29.1213333 L20.0000815,6.12533333 C20.0000815,5.50666667 20.368079,4.948 20.9374085,4.70533333 L28.5120237,1.45866667 C28.7040224,1.376 28.9106877,1.33333333 29.1213529,1.33333333 C29.9733471,1.33333333 30.6666757,2.02666667 30.6666757,2.87866667 L30.6666757,25.8746667 Z M22.0000679,14.6666667 C21.6320704,14.6666667 21.3334058,14.9653333 21.3334058,15.3333333 L21.3334058,18 C21.3334058,18.368 21.6320704,18.6666667 22.0000679,18.6666667 C22.3680654,18.6666667 22.6667301,18.368 22.6667301,18 L22.6667301,15.3333333 C22.6667301,14.9653333 22.3680654,14.6666667 22.0000679,14.6666667 Z" id="Shape"></path>
        </g>
    </g>
</svg>