<?xml version="1.0" encoding="UTF-8"?>
<svg width="414px" height="338px" viewBox="0 0 414 338" version="1.1" xmlns="http://www.w3.org/2000/svg" xmlns:xlink="http://www.w3.org/1999/xlink">
    <!-- Generator: Sketch 42 (36781) - http://www.bohemiancoding.com/sketch -->
    <title>Group</title>
    <desc>Created with Sketch.</desc>
    <defs></defs>
    <g id="Page-1" stroke="none" stroke-width="1" fill="none" fill-rule="evenodd">
        <g id="Group" transform="translate(207.000000, 169.000000) scale(-1, 1) rotate(-180.000000) translate(-207.000000, -169.000000) translate(0.000000, 0.000000)" fill-rule="nonzero" fill="#000000">
            <path d="M349,316.6 L288.5,295.4 L288.2,148.7 C288.1,68 288.3,2 288.7,2 C289.2,2 317.4,12.9 351.5,26.3 L413.5,50.6 L413.8,194.3 L414,338 L411.8,337.9 C410.5,337.8 382.3,328.2 349,316.6 Z M364,250 C365.1,248.9 366,247.5 366,247 C366,246.4 362.8,240.9 358.9,234.8 C355.1,228.7 352.1,223.2 352.3,222.6 C352.6,221.9 358.2,218.8 364.8,215.6 C376.4,209.9 379.4,207.4 378.3,204.2 C378,203.5 377,202.5 375.9,201.9 C374.3,201.1 371.5,202.1 361,207 C353.9,210.4 347.3,213 346.4,212.8 C345.5,212.6 341.6,207.6 337.7,201.5 C330.7,190.4 329.5,189 327.3,189 C325.6,189 322,192.6 322,194.3 C322,195 324.9,200.3 328.6,205.9 C332.2,211.6 335,216.9 334.8,217.8 C334.6,218.7 329.2,222 322.5,225.3 C315.9,228.5 310.2,231.7 309.7,232.4 C308.5,234.2 309.4,237.2 311.5,238.6 C313.3,239.8 314.9,239.2 326,234 C332.9,230.7 339.5,228 340.7,228 C342,228 343.4,228.9 344.1,230.2 C344.7,231.4 348.1,236.8 351.6,242.2 C358.4,252.7 360.2,253.8 364,250 Z M372.4,173.2 C373.1,171.7 374.7,167.4 376,163.6 L378.2,156.8 L376.2,154.8 C374.8,153.3 373.5,152.9 371.7,153.4 C369.5,153.9 368.7,155.4 365.8,164.1 L362.5,174.2 L364.8,176.1 C367.7,178.4 370.3,177.4 372.4,173.2 Z M381,130 C382.7,128.3 383,126.7 383,119 C383,111.3 382.7,109.7 381,108 C379.9,106.9 378.6,106 378,106 C376.6,106 373,109.7 372.9,111.3 C372,128.3 375.2,135.8 381,130 Z M324,95 C329.6,89.8 330.4,86.6 326.6,84.9 C323.7,83.5 322.2,84.3 314.1,91 C307,96.9 305.8,99.6 309,102.2 C311.2,103.9 311.3,103.9 315.1,101.8 C317.2,100.6 321.2,97.6 324,95 Z M370.6,84.5 C372.1,82.2 372.1,81.8 370.7,79.6 C368.6,76.4 359.5,72 354.9,72 C348.9,72 345.8,76.8 349.8,80.2 C350.7,81 353.3,82 355.5,82.3 C357.7,82.7 360.6,83.8 362,84.9 C365.5,87.7 368.6,87.5 370.6,84.5 Z" id="Shape"></path>
            <path d="M143,193.5 C143,115.1 143.2,51 143.4,51 C143.6,51 172.7,39.5 208,25.5 C243.4,11.5 273,-6.82121026e-13 273.8,-6.82121026e-13 C275.1,-6.82121026e-13 275.2,17.9 274.5,145.7 C274.1,225.9 273.5,291.9 273,292.3 C271.9,293.5 147.3,336 144.9,336 C143,336 143,333.8 143,193.5 Z M215,144 C219.5,139.5 216.8,136.8 205.3,134.6 C195.4,132.7 193.3,133.1 192.4,136.7 C191.4,140.3 194.4,142.7 202,144.4 C211,146.3 212.7,146.3 215,144 Z M250.5,143 C260.9,140.4 264.5,136.6 260.2,132.7 C258.4,131 256.5,131.3 242.7,135.1 C237.8,136.4 235.8,140.1 238.5,143 C240.7,145.4 240.6,145.4 250.5,143 Z M174,132 C177.8,128.2 176.8,126.8 165.3,120.1 C157.7,115.6 155.4,115.6 153,119.9 C151.6,122.6 153.9,125 162.5,129.9 C170.6,134.6 171.3,134.7 174,132 Z" id="Shape"></path>
            <path d="M63.3,313.7 L-2.84217094e-14,292.5 L-2.84217094e-14,146.3 C-2.84217094e-14,4 0.1,0 1.9,0 C2.9,0 32,11 66.5,24.5 C101,38 129.4,49 129.6,49 C129.8,49 130,113.4 130,192 C130,327.6 129.9,335 128.3,334.9 C127.3,334.9 98,325.3 63.3,313.7 Z M70,219.7 C71.4,217.1 71.4,216.8 69.4,215.1 C67,213.2 52.1,210.5 49,211.5 C46.2,212.4 45.3,216.6 47.5,219 C49.4,221.1 57.3,222.9 64,222.7 C67.8,222.5 68.7,222.1 70,219.7 Z M98.5,204.7 C100.7,197.4 100.5,190.5 98,188 C96.9,186.9 95.6,186 95,186 C92.6,186 90,190.1 90,194 C90,196.1 89.5,200.3 88.9,203.1 C87.8,208 87.9,208.5 89.9,210.1 C93.4,212.9 96.7,210.8 98.5,204.7 Z M89,164 C90.1,162.9 91,161.6 91,161 C91,158.6 83.1,143.2 81.5,142.6 C78.9,141.6 76.5,142.7 75.3,145.3 C74.4,147.2 75,149.2 78.6,156.8 C83.2,166.8 85,168 89,164 Z M79,121.2 C81,119.6 81.2,118.5 81.2,110.4 C81.2,105.5 81.1,101 81.1,100.3 C81,98.3 77.2,96.8 75.1,97.9 C70.3,100.5 69,115.1 73.1,120.4 C75.5,123.5 76.1,123.6 79,121.2 Z M118.4,101.4 C122.4,97.5 119.9,94.8 108.6,90.5 C100.8,87.6 97.9,87.8 96.2,91.4 C94.6,94.9 96.3,96.6 105,99.9 C113.8,103.3 116.3,103.6 118.4,101.4 Z" id="Shape"></path>
        </g>
    </g>
</svg>