<?xml version="1.0" encoding="UTF-8"?>
<svg width="78px" height="91px" viewBox="0 0 78 91" version="1.1" xmlns="http://www.w3.org/2000/svg" xmlns:xlink="http://www.w3.org/1999/xlink">
    <!-- Generator: Sketch 48.2 (47327) - http://www.bohemiancoding.com/sketch -->
    <title>Illustration/starter</title>
    <desc>Created with Sketch.</desc>
    <defs></defs>
    <g id="Symbols" stroke="none" stroke-width="1" fill="none" fill-rule="evenodd">
        <g id="Illustration/starter" fill-rule="nonzero">
            <g id="noun_938114_cc" transform="translate(0.000000, 7.000000)">
                <path d="M13.845,42.0225 C13.845,41.925 13.7475,41.8275 13.65,41.8275 L12.5775,41.535 L12.1875,40.4625 C12.1875,40.365 12.09,40.2675 11.9925,40.2675 C11.895,40.2675 11.7975,40.2675 11.7975,40.365 L11.115,41.34 L9.945,41.34 C9.8475,41.34 9.75,41.4375 9.75,41.4375 C9.75,41.4375 9.75,41.6325 9.75,41.73 L10.4325,42.6075 L10.0425,43.68 C10.0425,43.7775 10.0425,43.875 10.14,43.9725 C10.2375,44.07 10.335,44.07 10.4325,44.07 L11.505,43.68 L12.3825,44.3625 C12.3825,44.3625 12.48,44.3625 12.48,44.3625 C12.48,44.3625 12.5775,44.3625 12.5775,44.3625 C12.675,44.3625 12.675,44.265 12.675,44.1675 L12.675,42.9975 L13.5525,42.315 C13.845,42.2175 13.845,42.12 13.845,42.0225 Z" id="Shape" fill="#A36EDC"></path>
                <path d="M25.35,68.835 C25.35,68.7375 25.2525,68.64 25.155,68.64 L24.4725,68.445 L24.375,67.86 C24.375,67.7625 24.2775,67.665 24.18,67.665 C24.0825,67.665 23.985,67.665 23.985,67.7625 L23.595,68.3475 L22.9125,68.3475 C22.815,68.3475 22.7175,68.445 22.7175,68.445 C22.7175,68.5425 22.7175,68.64 22.7175,68.7375 L23.1075,69.3225 L22.9125,70.005 C22.9125,70.1025 22.9125,70.2 23.01,70.2975 C23.1075,70.395 23.205,70.395 23.3025,70.395 L23.985,70.2 L24.57,70.59 C24.57,70.59 24.6675,70.59 24.6675,70.59 C24.6675,70.59 24.765,70.59 24.765,70.59 C24.8625,70.59 24.8625,70.4925 24.8625,70.395 L24.8625,69.7125 L25.4475,69.3225 C25.35,69.03 25.35,68.9325 25.35,68.835 Z" id="Shape" fill="#A36EDC"></path>
                <path d="M26.4225,74.685 C26.4225,74.7825 26.4225,74.88 26.4225,74.9775 L26.8125,75.5625 L26.6175,76.245 C26.6175,76.3425 26.6175,76.44 26.715,76.5375 C26.8125,76.635 26.91,76.635 27.0075,76.635 L27.69,76.44 L28.275,76.83 C28.275,76.83 28.3725,76.83 28.3725,76.83 C28.3725,76.83 28.47,76.83 28.47,76.83 C28.5675,76.83 28.5675,76.7325 28.5675,76.635 L28.5675,75.9525 L29.1525,75.5625 C29.25,75.465 29.25,75.3675 29.25,75.3675 C29.25,75.27 29.1525,75.1725 29.055,75.1725 L28.3725,74.9775 L28.1775,74.1 C28.1775,74.0025 28.08,73.905 27.9825,73.905 C27.885,73.905 27.7875,73.905 27.7875,74.0025 L27.3975,74.5875 L26.715,74.5875 C26.6175,74.5875 26.52,74.5875 26.4225,74.685 Z" id="Shape" fill="#A36EDC"></path>
                <path d="M2.34,53.9175 C2.34,54.3075 2.6325,54.6 2.925,54.6975 C3.0225,54.6975 3.12,54.795 3.315,54.795 C3.51,54.795 3.8025,54.6975 3.9975,54.5025 L4.9725,53.5275 L6.3375,53.82 C6.7275,53.9175 7.1175,53.82 7.3125,53.5275 C7.5075,53.235 7.605,52.845 7.41,52.5525 L6.825,51.285 L7.5075,50.115 C7.7025,49.8225 7.7025,49.4325 7.5075,49.0425 C7.3125,48.75 6.9225,48.555 6.5325,48.555 L5.1675,48.75 L4.3875,47.775 C4.1925,47.4825 3.8025,47.385 3.4125,47.4825 C3.0225,47.58 2.8275,47.8725 2.73,48.2625 L2.4375,49.6275 L1.17,50.2125 C0.78,50.31 0.585,50.7 0.585,51.09 C0.585,51.48 0.78,51.7725 1.0725,51.9675 L2.2425,52.65 L2.34,53.9175 Z M4.1925,50.6025 C4.3875,50.7975 4.68,50.895 4.875,50.895 C4.7775,51.09 4.7775,51.3825 4.875,51.675 C4.5825,51.675 4.3875,51.675 4.095,51.87 C4.095,51.5775 3.9,51.3825 3.705,51.1875 C3.9975,51.09 4.095,50.7975 4.1925,50.6025 Z" id="Shape" fill="#A36EDC"></path>
                <path d="M33.345,70.785 C33.54,71.0775 33.8325,71.37 34.2225,71.37 C34.2225,71.37 34.2225,71.37 34.2225,71.37 L35.5875,71.37 L36.3675,72.54 C36.5625,72.8325 36.855,72.93 37.1475,72.93 C37.1475,72.93 37.245,72.93 37.245,72.93 C37.635,72.8325 37.9275,72.6375 38.025,72.2475 L38.415,70.98 L39.78,70.59 C40.17,70.4925 40.365,70.2 40.4625,69.81 C40.56,69.42 40.365,69.03 40.0725,68.835 L39,67.9575 L39,66.5925 C39,66.2025 38.805,65.91 38.5125,65.715 C38.22,65.52 37.83,65.6175 37.44,65.8125 L36.3675,66.5925 L35.1,66.105 C34.71,66.0075 34.32,66.105 34.125,66.3 C33.8325,66.5925 33.735,66.9825 33.93,67.275 L34.32,68.5425 L33.4425,69.615 C33.2475,70.005 33.15,70.395 33.345,70.785 Z M36.3675,68.64 C36.66,68.7375 36.855,68.64 37.1475,68.5425 C37.1475,68.835 37.245,69.03 37.5375,69.225 C37.245,69.3225 37.05,69.5175 36.9525,69.81 C36.7575,69.615 36.5625,69.5175 36.27,69.42 C36.3675,69.1275 36.3675,68.835 36.3675,68.64 Z" id="Shape" fill="#A36EDC"></path>
                <path d="M11.115,68.9325 L10.4325,70.1025 L9.0675,70.2 C8.6775,70.2 8.385,70.4925 8.19,70.785 C8.0925,71.175 8.0925,71.565 8.385,71.76 L9.2625,72.8325 L8.97,74.1975 C8.8725,74.5875 8.97,74.9775 9.2625,75.1725 C9.555,75.3675 9.945,75.465 10.2375,75.3675 L11.505,74.7825 L12.675,75.5625 C12.87,75.66 12.9675,75.7575 13.1625,75.7575 C13.3575,75.7575 13.5525,75.7575 13.65,75.66 C13.9425,75.465 14.1375,75.075 14.1375,74.7825 L14.04,73.4175 L15.1125,72.54 C15.405,72.345 15.5025,71.955 15.405,71.565 C15.3075,71.175 15.015,70.8825 14.625,70.8825 L13.26,70.59 L12.7725,69.3225 C12.675,68.9325 12.285,68.7375 11.895,68.7375 C11.7,68.445 11.31,68.5425 11.115,68.9325 Z M12.3825,72.0525 C12.1875,72.2475 12.09,72.54 12.09,72.735 C11.9925,72.6375 11.7975,72.6375 11.6025,72.6375 C11.505,72.6375 11.4075,72.6375 11.31,72.735 C11.31,72.4425 11.31,72.2475 11.115,71.955 C11.4075,71.955 11.6025,71.76 11.7975,71.565 C11.895,71.8575 12.1875,72.0525 12.3825,72.0525 Z" id="Shape" fill="#A36EDC"></path>
                <path d="M4.68,59.7675 C3.9975,59.7675 3.4125,59.9625 2.925,60.45 C2.4375,60.9375 2.2425,61.5225 2.145,62.1075 C2.145,62.79 2.34,63.375 2.8275,63.8625 C3.315,64.35 3.9,64.545 4.485,64.6425 C4.485,64.6425 4.485,64.6425 4.5825,64.6425 C5.85,64.6425 6.9225,63.57 7.02,62.3025 C7.02,60.9375 5.9475,59.7675 4.68,59.7675 Z M4.5825,62.595 C4.3875,62.595 4.29,62.4975 4.29,62.4975 C4.1925,62.4 4.1925,62.3025 4.1925,62.205 C4.1925,62.01 4.29,61.9125 4.29,61.9125 C4.3875,61.815 4.3875,61.815 4.5825,61.815 C4.875,61.815 5.07,62.01 5.07,62.3025 C5.07,62.4 4.875,62.595 4.5825,62.595 Z" id="Shape" fill="#A36EDC"></path>
                <path d="M14.43,65.2275 C14.5275,65.2275 14.5275,65.2275 14.43,65.2275 C15.795,65.2275 16.8675,64.155 16.8675,62.8875 C16.8675,62.205 16.6725,61.62 16.185,61.1325 C15.795,60.7425 15.21,60.45 14.625,60.45 C14.04,60.45 13.3575,60.645 12.87,61.1325 C12.3825,61.62 12.1875,62.205 12.09,62.79 C12.09,63.4725 12.285,64.0575 12.7725,64.545 C13.26,64.935 13.845,65.2275 14.43,65.2275 Z M14.5275,62.4 C14.5275,62.4 14.5275,62.4 14.5275,62.4 C14.7225,62.4 14.82,62.4975 14.82,62.4975 C14.82,62.595 14.9175,62.6925 14.9175,62.79 C14.9175,63.0825 14.7225,63.2775 14.43,63.2775 C14.43,63.2775 14.43,63.2775 14.43,63.2775 C14.235,63.2775 14.1375,63.18 14.1375,63.18 C14.04,63.0825 14.04,62.985 14.04,62.8875 C14.04,62.595 14.235,62.4 14.5275,62.4 Z" id="Shape" fill="#A36EDC"></path>
                <path d="M4.1925,42.9 C5.46,42.9 6.5325,41.8275 6.63,40.56 C6.63,39.195 5.655,38.1225 4.29,38.1225 C2.925,38.025 1.8525,39.0975 1.8525,40.4625 C1.755,41.8275 2.73,42.9 4.1925,42.9 C4.095,42.9 4.095,42.9 4.1925,42.9 Z M3.705,40.4625 C3.705,40.17 3.9,39.975 4.1925,39.975 C4.485,39.975 4.68,40.17 4.68,40.4625 C4.68,40.6575 4.5825,40.755 4.5825,40.755 C4.485,40.8525 4.3875,40.8525 4.29,40.8525 C3.9,40.95 3.705,40.755 3.705,40.4625 Z" id="Shape" fill="#A36EDC"></path>
                <path d="M6.24,56.745 C6.1425,57.2325 6.5325,57.8175 7.02,57.8175 C8.2875,58.0125 9.4575,58.11 10.6275,58.11 C17.2575,58.11 21.5475,55.185 21.7425,55.0875 C22.23,54.795 22.3275,54.21 21.9375,53.7225 C21.645,53.235 21.06,53.1375 20.5725,53.5275 C20.475,53.5275 15.21,57.135 7.3125,55.965 C6.825,55.8675 6.3375,56.2575 6.24,56.745 Z" id="Shape" fill="#A36EDC"></path>
                <path d="M23.985,57.8175 C23.6925,58.0125 17.16,63.0825 18.33,71.8575 C18.4275,72.345 18.8175,72.735 19.305,72.735 C19.305,72.735 19.4025,72.735 19.4025,72.735 C19.89,72.6375 20.28,72.15 20.28,71.6625 C19.305,63.96 24.96,59.5725 25.155,59.3775 C25.545,59.085 25.6425,58.4025 25.35,58.0125 C25.0575,57.525 24.4725,57.4275 23.985,57.8175 Z" id="Shape" fill="#A36EDC"></path>
                <path d="M8.4825,46.215 C8.0925,46.605 7.995,47.19 8.385,47.58 C10.335,49.92 13.1625,50.31 15.015,50.31 C16.0875,50.31 16.8675,50.115 16.965,50.115 C17.4525,50.0175 17.8425,49.53 17.745,48.945 C17.6475,48.4575 17.16,48.0675 16.575,48.165 C16.575,48.165 12.285,48.945 9.945,46.215 C9.4575,45.9225 8.8725,45.9225 8.4825,46.215 Z" id="Shape" fill="#A36EDC"></path>
                <path d="M28.665,61.5225 C28.1775,61.3275 27.5925,61.62 27.3975,62.1075 C27.3,62.4 25.35,68.7375 29.445,71.76 C29.64,71.8575 29.835,71.955 30.03,71.955 C30.3225,71.955 30.615,71.8575 30.81,71.565 C31.1025,71.175 31.005,70.4925 30.615,70.2 C27.5925,67.9575 29.25,62.79 29.25,62.6925 C29.445,62.3025 29.1525,61.7175 28.665,61.5225 Z" id="Shape" fill="#A36EDC"></path>
                <path d="M75.66,1.56 C63.96,-1.755 56.94,5.46 56.2575,6.045 C56.2575,6.045 56.2575,6.045 56.2575,6.045 L37.7325,24.57 L26.8125,24.765 C27.5925,23.985 29.9325,21.06 28.5675,16.4775 C28.47,16.185 28.1775,15.8925 27.885,15.795 C22.7175,14.3325 19.5975,17.4525 19.305,17.8425 L9.36,27.7875 C8.97,28.1775 8.97,28.7625 9.36,29.1525 L15.21,35.0025 C15.405,35.1975 15.6,35.295 15.8925,35.295 C16.185,35.295 16.38,35.1975 16.575,35.0025 L17.16,34.4175 L22.5225,39.78 L21.1575,41.145 C20.9625,41.34 20.865,41.535 20.865,41.8275 C20.865,42.12 20.9625,42.315 21.1575,42.51 L21.5475,42.9 L19.4025,45.045 C19.0125,45.435 19.0125,46.02 19.4025,46.41 L31.395,58.5 C31.59,58.695 31.8825,58.7925 32.0775,58.7925 C32.2725,58.7925 32.565,58.695 32.76,58.5 L34.905,56.355 L35.295,56.745 C35.49,56.94 35.7825,57.0375 35.9775,57.0375 C36.1725,57.0375 36.465,56.94 36.66,56.745 L38.025,55.38 L43.485,60.84 L42.9,61.425 C42.705,61.62 42.6075,61.815 42.6075,62.1075 C42.6075,62.4 42.705,62.595 42.9,62.79 L48.75,68.64 C48.945,68.835 49.2375,68.9325 49.4325,68.9325 C49.6275,68.9325 49.92,68.835 50.115,68.64 L60.1575,58.5 C60.45,58.2075 63.6675,55.0875 62.205,49.92 C62.1075,49.6275 61.815,49.335 61.5225,49.2375 C56.94,47.97 54.015,50.2125 53.235,50.9925 L53.43,39.8775 L71.8575,21.45 C71.8575,21.45 71.8575,21.45 71.8575,21.45 C72.6375,20.7675 79.6575,13.845 76.3425,2.145 C76.245,1.95 75.9525,1.6575 75.66,1.56 Z M26.91,17.55 C27.495,20.1825 26.6175,21.9375 25.935,22.9125 L21.5475,18.525 C22.5225,17.8425 24.375,16.965 26.91,17.55 Z M11.4075,28.5675 L20.085,19.89 L24.57,24.375 L23.79,25.155 C23.79,25.155 23.79,25.155 23.79,25.155 L15.8925,33.0525 L11.4075,28.5675 Z M18.525,33.15 L24.8625,26.8125 L35.7825,26.6175 L23.8875,38.5125 L18.525,33.15 Z M32.0775,56.4525 L21.45,45.825 L22.9125,44.3625 L33.54,54.99 L32.0775,56.4525 Z M49.4325,66.5925 L44.9475,62.1075 L52.845,54.21 C52.845,54.21 52.845,54.21 52.845,54.21 L53.625,53.43 L58.11,57.915 L49.4325,66.5925 Z M60.45,51.09 C61.035,53.625 60.06,55.4775 59.475,56.4525 L55.185,52.1625 C56.0625,51.3825 57.915,50.505 60.45,51.09 Z M51.1875,53.1375 L44.85,59.475 L39.39,54.015 L51.3825,42.0225 L51.1875,53.1375 Z M35.9775,54.6975 L23.205,41.925 L57.0375,8.0925 L69.81,20.865 L35.9775,54.6975 Z M71.0775,19.5 L58.4025,6.7275 C60.255,5.07 66.105,1.0725 74.5875,3.2175 C76.83,12.09 72.735,17.6475 71.0775,19.5 Z" id="Shape" fill="#5FE6A6"></path>
                <path d="M52.5525,16.77 C51.3825,17.94 50.7975,19.5 50.7975,21.06 C50.7975,22.7175 51.48,24.18 52.5525,25.35 C53.7225,26.52 55.2825,27.105 56.8425,27.105 C58.4025,27.105 59.9625,26.52 61.1325,25.35 C63.4725,23.01 63.4725,19.11 61.1325,16.6725 C59.9625,15.5025 58.4025,14.9175 56.8425,14.9175 C55.185,14.9175 53.7225,15.6 52.5525,16.77 Z M59.7675,23.985 C58.11,25.6425 55.4775,25.6425 53.9175,23.985 C52.26,22.3275 52.26,19.695 53.9175,18.135 C54.6975,17.355 55.77,16.965 56.8425,16.965 C57.915,16.965 58.9875,17.355 59.7675,18.135 C61.425,19.695 61.425,22.3275 59.7675,23.985 Z" id="Shape" fill="#A36EDC"></path>
                <path d="M54.795,19.9875 C55.185,20.3775 55.77,20.3775 56.16,19.9875 C56.55,19.5975 57.2325,19.5975 57.6225,19.9875 C57.8175,20.1825 58.11,20.28 58.305,20.28 C58.5,20.28 58.7925,20.1825 58.9875,19.9875 C59.3775,19.5975 59.3775,19.0125 58.9875,18.6225 C57.8175,17.4525 55.965,17.4525 54.795,18.6225 C54.405,19.0125 54.405,19.5975 54.795,19.9875 Z" id="Shape" fill="#A36EDC"></path>
            </g>
        </g>
    </g>
</svg>